<?xml version="1.0" standalone="no"?><!DOCTYPE svg PUBLIC "-//W3C//DTD SVG 1.1//EN" "http://www.w3.org/Graphics/SVG/1.1/DTD/svg11.dtd"><svg t="1538032836262" class="icon" style="" viewBox="0 0 1024 1024" version="1.1" xmlns="http://www.w3.org/2000/svg" p-id="5148" xmlns:xlink="http://www.w3.org/1999/xlink" width="200" height="200"><defs><style type="text/css"></style></defs><path d="M131.657143 1000.431746c-49.574603-17.066667-77.206349-40.634921-101.587302-86.146032-17.066667-30.88254-17.879365-43.885714-17.879365-219.428571 0-129.219048 3.250794-195.860317 10.56508-215.36508 10.565079-30.88254 40.634921-66.64127 78.831746-94.273015l24.380952-17.066667 4.063492-105.650794c4.063492-91.022222 7.314286-110.526984 24.380952-144.660317C202.361905 25.193651 256.812698 8.126984 507.936508 8.126984s305.574603 17.066667 353.523809 110.526984c17.066667 33.320635 20.31746 52.012698 22.755556 129.219048 3.250794 117.84127 4.063492 121.904762 42.260317 143.034921 77.206349 43.073016 91.834921 99.149206 87.771429 326.704761-2.438095 150.349206-4.063492 167.415873-20.31746 197.485715-9.752381 18.692063-29.257143 43.073016-43.073016 54.450793-51.2 43.885714-78.831746 46.32381-442.107937 46.32381-301.511111-0.812698-338.08254-1.625397-377.092063-15.44127z" fill="#080606" p-id="5149"></path><path d="M131.657143 1000.431746c-49.574603-17.066667-77.206349-40.634921-101.587302-86.146032-17.066667-30.88254-17.879365-43.885714-17.879365-219.428571 0-129.219048 3.250794-195.860317 10.56508-215.36508 10.565079-30.88254 40.634921-66.64127 78.831746-94.273015l24.380952-17.066667 4.063492-105.650794c4.063492-91.022222 7.314286-110.526984 24.380952-144.660317C202.361905 25.193651 256.812698 8.126984 507.936508 8.126984s305.574603 17.066667 353.523809 110.526984c17.066667 33.320635 20.31746 52.012698 22.755556 129.219048 3.250794 117.84127 4.063492 121.904762 42.260317 143.034921 77.206349 43.073016 91.834921 99.149206 87.771429 326.704761-2.438095 150.349206-4.063492 167.415873-20.31746 197.485715-9.752381 18.692063-29.257143 43.073016-43.073016 54.450793-51.2 43.885714-78.831746 46.32381-442.107937 46.32381-301.511111-0.812698-338.08254-1.625397-377.092063-15.44127z m746.057143-135.720635c45.511111-27.631746 48.761905-42.260317 48.761904-230.806349V461.612698l-27.631746-27.631746c-23.568254-23.568254-33.320635-27.631746-65.015873-27.631746h-37.384127V264.939683c0-141.409524 0-142.222222-21.130158-167.415873-39.822222-47.136508-47.949206-48.761905-267.377778-48.761905s-227.555556 1.625397-267.377778 48.761905c-21.130159 25.193651-21.130159 26.006349-21.130159 167.415873v141.409523h-33.320634c-26.819048 0-38.196825 4.87619-60.952381 27.631746l-27.631746 27.631746v172.292064c0 187.733333 3.250794 202.361905 47.949206 229.993651 18.692063 12.190476 61.765079 13.003175 364.901587 13.815873 304.761905 0 347.022222-1.625397 367.339683-13.003175z" fill="#582F24" p-id="5150"></path><path d="M142.222222 833.015873c-20.31746-19.504762-20.31746-19.504762-20.31746-190.171429 0-165.790476 0.812698-171.479365 18.692063-191.796825 12.190476-14.628571 26.819048-21.942857 46.32381-22.755556 25.193651-1.625397 28.444444 0.812698 30.88254 20.317461 2.438095 21.130159 0.812698 21.942857-21.942858 17.879365-13.815873-3.250794-25.193651-3.250794-25.19365-0.812699 0 6.501587 337.269841 192.609524 348.647619 192.609524 14.628571 0 147.098413-74.768254 147.098412-82.895238 0-11.377778-8.126984-8.126984-78.831746 30.069841l-68.266666 36.571429-139.784127-74.768254-139.784127-75.580952-2.438095-170.666667c-2.438095-149.536508-0.812698-173.91746 11.377777-197.485714 25.193651-47.949206 37.384127-50.387302 259.250794-50.387302 286.069841 0 272.253968-13.003175 272.253968 250.311111 0 176.355556 0 178.793651-17.879365 190.984127-10.565079 6.501587-16.253968 14.628571-13.815873 17.066667 5.688889 5.688889 112.965079-52.825397 112.965079-61.765079 0-10.565079-20.31746-7.314286-37.384127 5.688888-23.568254 17.879365-28.444444 14.628571-26.006349-17.879365 2.438095-28.444444 4.87619-30.88254 29.257143-33.320635 20.31746-2.438095 31.695238 2.438095 50.387302 21.942858l24.380952 23.568254v172.292063c0 171.479365 0 171.479365-20.31746 190.984127l-19.504762 20.31746H161.726984l-19.504762-20.31746z m404.72381-382.780952c84.520635-43.073016 123.530159-134.095238 73.955555-173.104762-26.819048-21.130159-48.761905-21.130159-80.457143-2.438096-22.755556 13.815873-24.380952 13.815873-52.825396-1.625396-51.2-27.631746-97.52381-3.250794-97.52381 51.2 0 40.634921 26.819048 79.644444 77.206349 112.965079 47.136508 30.069841 45.511111 30.069841 79.644445 13.003175z" fill="#582F24" p-id="5151"></path><path d="M486.806349 438.857143c-15.44127-8.126984-42.260317-30.069841-58.514286-47.949206-23.568254-26.819048-30.069841-39.822222-30.069841-65.015874 0-55.263492 51.2-75.580952 95.085715-38.196825 22.755556 19.504762 22.755556 19.504762 39.009523 4.063492 64.203175-59.326984 132.469841 10.565079 85.333334 86.95873-14.628571 22.755556-82.895238 77.206349-96.711111 76.393651-2.438095-0.812698-17.879365-7.314286-34.133334-16.253968z" fill="#582F24" p-id="5152"></path><path d="M131.657143 1000.431746c-49.574603-17.066667-77.206349-40.634921-101.587302-86.146032-17.066667-30.88254-17.879365-43.885714-17.879365-219.428571 0-129.219048 3.250794-195.860317 10.56508-215.36508 10.565079-30.88254 40.634921-66.64127 78.831746-94.273015l24.380952-17.066667 4.063492-105.650794c4.063492-91.022222 7.314286-110.526984 24.380952-144.660317C202.361905 25.193651 256.812698 8.126984 507.936508 8.126984s305.574603 17.066667 353.523809 110.526984c17.066667 33.320635 20.31746 52.012698 22.755556 129.219048 3.250794 117.84127 4.063492 121.904762 42.260317 143.034921 77.206349 43.073016 91.834921 99.149206 87.771429 326.704761-2.438095 150.349206-4.063492 167.415873-20.31746 197.485715-9.752381 18.692063-29.257143 43.073016-43.073016 54.450793-51.2 43.885714-78.831746 46.32381-442.107937 46.32381-301.511111-0.812698-338.08254-1.625397-377.092063-15.44127z m746.057143-134.907936c47.136508-24.380952 48.761905-32.507937 48.761904-221.866667 0-190.984127-4.063492-210.488889-48.761904-233.244445-13.003175-6.501587-34.946032-12.190476-48.761905-12.190476h-24.380952V270.628571c0-144.660317-7.314286-170.666667-56.076191-203.174603-26.819048-17.879365-32.507937-18.692063-240.55873-18.692063s-213.739683 0.812698-240.55873 18.692063c-48.761905 32.507937-56.07619 58.514286-56.076191 203.174603v127.593651h-20.31746c-31.695238 0-67.453968 21.942857-81.269841 48.761905-9.752381 18.692063-12.190476 57.701587-12.190476 195.047619 0 105.650794 3.250794 177.980952 8.939682 187.733333 4.063492 8.939683 20.31746 23.568254 34.133333 31.695238 24.380952 15.44127 43.885714 16.253968 369.777778 16.253969 289.320635 0 347.834921-1.625397 367.339683-12.190476z" fill="#774D0C" p-id="5153"></path><path d="M145.473016 829.765079l-23.568254-23.568254V640.406349c0-191.796825 4.063492-202.361905 64.203175-205.612698 30.88254-1.625397 33.320635 0 33.320634 17.879365 0 16.253968-3.250794 19.504762-13.815873 14.628571-8.126984-2.438095-16.253968-5.688889-18.692063-6.501587s-5.688889 1.625397-7.314286 6.501587c-1.625397 4.063492 27.631746 24.380952 65.015873 45.511111 37.384127 20.31746 114.590476 63.390476 171.479365 95.085715l104.025397 57.701587 73.142857-41.447619c39.822222-21.942857 73.142857-43.885714 73.142857-47.949206 0-13.003175-12.190476-8.126984-80.457142 29.257142l-65.828572 36.571429-69.892063-39.009524c-38.196825-21.130159-101.587302-55.263492-139.784127-75.580952l-70.704762-37.384127-2.438095-157.663492c-2.438095-175.542857 2.438095-207.238095 39.822222-238.120635l25.193651-21.130159h412.850793l30.88254 27.631746 30.069841 27.631746 2.438095 180.419048c2.438095 177.980952 2.438095 181.231746-15.441269 199.923809-9.752381 10.565079-16.253968 21.942857-13.003175 24.380953 5.688889 6.501587 111.339683-52.825397 111.339682-62.577778s-30.069841-9.752381-36.571428 0.812698c-10.565079 17.066667-28.444444 8.126984-28.444445-14.628571s1.625397-23.568254 37.384127-21.942857c65.015873 3.250794 68.266667 11.377778 68.266667 205.612698v165.790476l-23.568254 23.568254-23.568254 23.568254H169.04127l-23.568254-23.568254z m405.536508-382.780952c37.384127-19.504762 49.574603-30.069841 73.142857-60.139683 23.568254-30.88254 24.380952-87.771429 1.625397-110.526984-21.942857-21.942857-73.142857-21.942857-93.460318 0-13.815873 15.44127-14.628571 15.44127-34.946031 0-36.571429-29.257143-91.834921-19.504762-105.650794 19.504762-18.692063 49.574603 8.126984 98.336508 78.831746 143.847619 43.073016 27.631746 42.260317 27.631746 80.457143 7.314286z" fill="#774D0C" p-id="5154"></path><path d="M474.615873 428.292063c-65.015873-43.073016-93.460317-102.4-65.828571-138.15873 17.879365-24.380952 47.949206-24.380952 82.895238-0.812698 19.504762 13.003175 33.320635 17.879365 34.946031 12.190476 1.625397-4.87619 13.815873-14.628571 27.631746-21.942857 47.136508-24.380952 89.396825 12.190476 76.393651 65.828571-7.314286 28.444444-50.387302 75.580952-86.95873 93.460318l-30.069841 16.253968-39.009524-26.819048z" fill="#774D0C" p-id="5155"></path><path d="M131.657143 1000.431746c-49.574603-17.066667-77.206349-40.634921-101.587302-86.146032-17.066667-30.88254-17.879365-43.885714-17.879365-219.428571 0-129.219048 3.250794-195.860317 10.56508-215.36508 10.565079-30.88254 40.634921-66.64127 78.831746-94.273015l24.380952-17.066667 4.063492-105.650794c4.063492-91.022222 7.314286-110.526984 24.380952-144.660317C202.361905 25.193651 256.812698 8.126984 507.936508 8.126984s305.574603 17.066667 353.523809 110.526984c17.066667 33.320635 20.31746 52.012698 22.755556 129.219048 3.250794 117.84127 4.063492 121.904762 42.260317 143.034921 77.206349 43.073016 91.834921 99.149206 87.771429 326.704761-2.438095 150.349206-4.063492 167.415873-20.31746 197.485715-9.752381 18.692063-29.257143 43.073016-43.073016 54.450793-51.2 43.885714-78.831746 46.32381-442.107937 46.32381-301.511111-0.812698-338.08254-1.625397-377.092063-15.44127z m746.057143-134.907936c47.136508-24.380952 48.761905-32.507937 48.761904-221.866667 0-190.984127-4.063492-210.488889-48.761904-233.244445-13.003175-6.501587-34.946032-12.190476-48.761905-12.190476h-24.380952V270.628571c0-144.660317-7.314286-170.666667-56.076191-203.174603-26.819048-17.879365-32.507937-18.692063-240.55873-18.692063s-213.739683 0.812698-240.55873 18.692063c-48.761905 32.507937-56.07619 58.514286-56.076191 203.174603v127.593651h-20.31746c-31.695238 0-67.453968 21.942857-81.269841 48.761905-9.752381 18.692063-12.190476 57.701587-12.190476 195.047619 0 105.650794 3.250794 177.980952 8.939682 187.733333 4.063492 8.939683 20.31746 23.568254 34.133333 31.695238 24.380952 15.44127 43.885714 16.253968 369.777778 16.253969 289.320635 0 347.834921-1.625397 367.339683-12.190476z" fill="#535151" p-id="5156"></path><path d="M145.473016 829.765079l-23.568254-23.568254V640.406349c0-191.796825 4.063492-202.361905 64.203175-205.612698 30.88254-1.625397 33.320635 0 33.320634 17.879365 0 16.253968-3.250794 19.504762-13.815873 14.628571-8.126984-2.438095-16.253968-5.688889-18.692063-6.501587s-5.688889 1.625397-7.314286 6.501587c-1.625397 4.063492 27.631746 24.380952 65.015873 45.511111 37.384127 20.31746 114.590476 63.390476 171.479365 95.085715l104.025397 57.701587 73.142857-41.447619c39.822222-21.942857 73.142857-43.885714 73.142857-47.949206 0-13.003175-12.190476-8.126984-80.457142 29.257142l-65.828572 36.571429-69.892063-39.009524c-38.196825-21.130159-101.587302-55.263492-139.784127-75.580952l-70.704762-37.384127-2.438095-157.663492c-2.438095-175.542857 2.438095-207.238095 39.822222-238.120635l25.193651-21.130159h412.850793l30.88254 27.631746 30.069841 27.631746 2.438095 180.419048c2.438095 177.980952 2.438095 181.231746-15.441269 199.923809-9.752381 10.565079-16.253968 21.942857-13.003175 24.380953 5.688889 6.501587 111.339683-52.825397 111.339682-62.577778s-30.069841-9.752381-36.571428 0.812698c-10.565079 17.066667-28.444444 8.126984-28.444445-14.628571s1.625397-23.568254 37.384127-21.942857c65.015873 3.250794 68.266667 11.377778 68.266667 205.612698v165.790476l-23.568254 23.568254-23.568254 23.568254H169.04127l-23.568254-23.568254z m405.536508-382.780952c37.384127-19.504762 49.574603-30.069841 73.142857-60.139683 23.568254-30.88254 24.380952-87.771429 1.625397-110.526984-21.942857-21.942857-73.142857-21.942857-93.460318 0-13.815873 15.44127-14.628571 15.44127-34.946031 0-36.571429-29.257143-91.834921-19.504762-105.650794 19.504762-18.692063 49.574603 8.126984 98.336508 78.831746 143.847619 43.073016 27.631746 42.260317 27.631746 80.457143 7.314286z" fill="#535151" p-id="5157"></path><path d="M469.739683 423.415873c-43.073016-27.631746-61.765079-51.2-68.266667-88.584127-9.752381-52.825397 50.387302-78.831746 97.523809-41.447619l21.942858 17.066667 18.692063-17.066667c26.006349-24.380952 65.828571-22.755556 82.895238 3.250794 23.568254 35.75873 1.625397 85.333333-55.263492 125.968254-41.447619 30.069841-51.2 30.069841-97.523809 0.812698z" fill="#535151" p-id="5158"></path><path d="M131.657143 1000.431746c-49.574603-17.066667-77.206349-40.634921-101.587302-86.146032-17.066667-30.88254-17.879365-43.885714-17.879365-219.428571 0-129.219048 3.250794-195.860317 10.56508-215.36508 10.565079-30.88254 40.634921-66.64127 78.831746-94.273015l24.380952-17.066667 4.063492-105.650794c4.063492-91.022222 7.314286-110.526984 24.380952-144.660317C202.361905 25.193651 256.812698 8.126984 507.936508 8.126984s305.574603 17.066667 353.523809 110.526984c17.066667 33.320635 20.31746 52.012698 22.755556 129.219048 3.250794 117.84127 4.063492 121.904762 42.260317 143.034921 77.206349 43.073016 91.834921 99.149206 87.771429 326.704761-2.438095 150.349206-4.063492 167.415873-20.31746 197.485715-9.752381 18.692063-29.257143 43.073016-43.073016 54.450793-51.2 43.885714-78.831746 46.32381-442.107937 46.32381-301.511111-0.812698-338.08254-1.625397-377.092063-15.44127z m746.057143-134.907936c47.136508-24.380952 48.761905-32.507937 48.761904-221.866667 0-190.984127-4.063492-210.488889-48.761904-233.244445-13.003175-6.501587-34.946032-12.190476-48.761905-12.190476h-24.380952V270.628571c0-144.660317-7.314286-170.666667-56.076191-203.174603-26.819048-17.879365-32.507937-18.692063-240.55873-18.692063s-213.739683 0.812698-240.55873 18.692063c-48.761905 32.507937-56.07619 58.514286-56.076191 203.174603v127.593651h-20.31746c-31.695238 0-67.453968 21.942857-81.269841 48.761905-9.752381 18.692063-12.190476 57.701587-12.190476 195.047619 0 105.650794 3.250794 177.980952 8.939682 187.733333 4.063492 8.939683 20.31746 23.568254 34.133333 31.695238 24.380952 15.44127 43.885714 16.253968 369.777778 16.253969 289.320635 0 347.834921-1.625397 367.339683-12.190476z" fill="#A36A11" p-id="5159"></path><path d="M145.473016 829.765079l-23.568254-23.568254V640.406349c0-191.796825 4.063492-202.361905 64.203175-205.612698 30.88254-1.625397 33.320635 0 33.320634 17.879365 0 16.253968-3.250794 19.504762-13.815873 14.628571-8.126984-2.438095-16.253968-5.688889-18.692063-6.501587s-5.688889 1.625397-8.126984 5.688889 73.142857 50.387302 168.228571 104.025397l172.292064 96.711111 75.580952-42.260318c90.209524-50.387302 84.520635-46.32381 74.768254-56.07619-5.688889-5.688889-32.507937 4.87619-79.644444 31.695238l-71.517461 39.822222-114.590476-64.203174c-63.390476-34.946032-124.342857-69.892063-135.720635-75.580953l-20.31746-12.190476-2.438095-160.914286c-3.250794-198.298413-1.625397-208.050794 37.384127-234.057143 30.069841-20.31746 30.069841-20.31746 224.304762-20.31746 183.669841 0 195.047619 0.812698 221.866666 17.066667 15.44127 9.752381 31.695238 26.819048 35.75873 37.384127s7.314286 99.149206 7.314286 195.860317c0 170.666667-0.812698 177.168254-17.066667 186.920635-12.190476 7.314286-14.628571 13.815873-8.939682 19.504762 8.939683 8.939683 115.403175-45.511111 115.403174-59.326984 0-9.752381-30.069841-9.752381-36.571428 0.812698-10.565079 17.066667-28.444444 8.126984-28.444445-14.628571s1.625397-23.568254 37.384127-21.942857c65.015873 3.250794 68.266667 11.377778 68.266667 205.612698v165.790476l-23.568254 23.568254-23.568254 23.568254H169.04127l-23.568254-23.568254z m402.285714-373.841269c10.565079-4.87619 36.571429-23.568254 56.076191-43.073016 30.069841-28.444444 37.384127-42.260317 42.260317-73.955556 5.688889-34.133333 4.063492-41.447619-13.003175-59.326984-21.942857-23.568254-74.768254-26.819048-97.523809-6.501587-13.003175 12.190476-16.253968 12.190476-33.320635 0-27.631746-19.504762-83.707937-17.066667-104.025397 5.688889-13.815873 14.628571-17.066667 25.193651-13.815873 53.638095 4.87619 43.885714 24.380952 70.704762 75.580953 104.838095 42.260317 27.631746 55.263492 30.88254 87.771428 18.692064z" fill="#A36A11" p-id="5160"></path><path d="M469.739683 423.415873c-43.073016-27.631746-61.765079-51.2-68.266667-88.584127-9.752381-52.825397 50.387302-78.831746 97.523809-41.447619l21.942858 17.066667 18.692063-17.066667c26.006349-24.380952 65.828571-22.755556 82.895238 3.250794 23.568254 35.75873 1.625397 85.333333-55.263492 125.968254-41.447619 30.069841-51.2 30.069841-97.523809 0.812698z" fill="#A36A11" p-id="5161"></path><path d="M131.657143 1000.431746c-49.574603-17.066667-77.206349-40.634921-101.587302-86.146032-17.066667-30.88254-17.879365-43.885714-17.879365-219.428571 0-129.219048 3.250794-195.860317 10.56508-215.36508 10.565079-30.88254 40.634921-66.64127 78.831746-94.273015l24.380952-17.066667 4.063492-105.650794c4.063492-91.022222 7.314286-110.526984 24.380952-144.660317C202.361905 25.193651 256.812698 8.126984 507.936508 8.126984s305.574603 17.066667 353.523809 110.526984c17.066667 33.320635 20.31746 52.012698 22.755556 129.219048 3.250794 117.84127 4.063492 121.904762 42.260317 143.034921 77.206349 43.073016 91.834921 99.149206 87.771429 326.704761-2.438095 150.349206-4.063492 167.415873-20.31746 197.485715-9.752381 18.692063-29.257143 43.073016-43.073016 54.450793-51.2 43.885714-78.831746 46.32381-442.107937 46.32381-301.511111-0.812698-338.08254-1.625397-377.092063-15.44127z m746.057143-134.907936c47.136508-24.380952 48.761905-32.507937 48.761904-221.866667 0-190.984127-4.063492-210.488889-48.761904-233.244445-13.003175-6.501587-34.946032-12.190476-48.761905-12.190476h-24.380952V270.628571c0-144.660317-7.314286-170.666667-56.076191-203.174603-26.819048-17.879365-32.507937-18.692063-240.55873-18.692063s-213.739683 0.812698-240.55873 18.692063c-48.761905 32.507937-56.07619 58.514286-56.076191 203.174603v127.593651h-20.31746c-31.695238 0-67.453968 21.942857-81.269841 48.761905-9.752381 18.692063-12.190476 57.701587-12.190476 195.047619 0 105.650794 3.250794 177.980952 8.939682 187.733333 4.063492 8.939683 20.31746 23.568254 34.133333 31.695238 24.380952 15.44127 43.885714 16.253968 369.777778 16.253969 289.320635 0 347.834921-1.625397 367.339683-12.190476z" fill="#C37F15" p-id="5162"></path><path d="M145.473016 829.765079l-23.568254-23.568254V640.406349c0-191.796825 4.063492-202.361905 64.203175-205.612698 30.88254-1.625397 33.320635 0 33.320634 17.879365 0 16.253968-3.250794 19.504762-13.815873 14.628571-8.126984-2.438095-16.253968-5.688889-18.692063-6.501587s-5.688889 1.625397-8.126984 5.688889 73.142857 50.387302 168.228571 104.025397l172.292064 96.711111 75.580952-42.260318c90.209524-50.387302 84.520635-46.32381 74.768254-56.07619-5.688889-5.688889-32.507937 4.87619-79.644444 31.695238l-71.517461 39.822222-114.590476-64.203174c-63.390476-34.946032-124.342857-69.892063-135.720635-75.580953l-20.31746-12.190476-2.438095-160.914286c-3.250794-198.298413-1.625397-208.050794 37.384127-234.057143 30.069841-20.31746 30.069841-20.31746 224.304762-20.31746 183.669841 0 195.047619 0.812698 221.866666 17.066667 15.44127 9.752381 31.695238 26.819048 35.75873 37.384127s7.314286 99.149206 7.314286 195.860317c0 170.666667-0.812698 177.168254-17.066667 186.920635-12.190476 7.314286-14.628571 13.815873-8.939682 19.504762 8.939683 8.939683 115.403175-45.511111 115.403174-59.326984 0-9.752381-30.069841-9.752381-36.571428 0.812698-10.565079 17.066667-28.444444 8.126984-28.444445-14.628571s1.625397-23.568254 37.384127-21.942857c65.015873 3.250794 68.266667 11.377778 68.266667 205.612698v165.790476l-23.568254 23.568254-23.568254 23.568254H169.04127l-23.568254-23.568254z m402.285714-373.841269c10.565079-4.87619 36.571429-23.568254 56.076191-43.073016 30.069841-28.444444 37.384127-42.260317 42.260317-73.955556 5.688889-34.133333 4.063492-41.447619-13.003175-59.326984-21.942857-23.568254-74.768254-26.819048-97.523809-6.501587-13.003175 12.190476-16.253968 12.190476-33.320635 0-27.631746-19.504762-83.707937-17.066667-104.025397 5.688889-13.815873 14.628571-17.066667 25.193651-13.815873 53.638095 4.87619 43.885714 24.380952 70.704762 75.580953 104.838095 42.260317 27.631746 55.263492 30.88254 87.771428 18.692064z" fill="#C37F15" p-id="5163"></path><path d="M469.739683 422.603175c-60.139683-39.822222-83.707937-89.396825-60.139683-125.968254 17.066667-26.006349 58.514286-27.631746 89.396825-3.250794l21.942858 17.066667 18.692063-17.066667c21.130159-20.31746 63.390476-22.755556 78.831746-4.063492s11.377778 64.203175-8.939682 92.647619c-16.253968 22.755556-77.206349 65.015873-95.085715 65.015873-4.063492 0-24.380952-11.377778-44.698412-24.380952z" fill="#C37F15" p-id="5164"></path><path d="M131.657143 1000.431746c-49.574603-17.066667-77.206349-40.634921-101.587302-86.146032-17.066667-30.88254-17.879365-43.885714-17.879365-219.428571 0-129.219048 3.250794-195.860317 10.56508-215.36508 10.565079-30.88254 40.634921-66.64127 78.831746-94.273015l24.380952-17.066667 4.063492-105.650794c4.063492-91.022222 7.314286-110.526984 24.380952-144.660317C202.361905 25.193651 256.812698 8.126984 507.936508 8.126984s305.574603 17.066667 353.523809 110.526984c17.066667 33.320635 20.31746 52.012698 22.755556 129.219048 3.250794 117.84127 4.063492 121.904762 42.260317 143.034921 77.206349 43.073016 91.834921 99.149206 87.771429 326.704761-2.438095 150.349206-4.063492 167.415873-20.31746 197.485715-9.752381 18.692063-29.257143 43.073016-43.073016 54.450793-51.2 43.885714-78.831746 46.32381-442.107937 46.32381-301.511111-0.812698-338.08254-1.625397-377.092063-15.44127z m746.057143-134.907936c47.136508-24.380952 48.761905-32.507937 48.761904-221.866667 0-190.984127-4.063492-210.488889-48.761904-233.244445-13.003175-6.501587-34.946032-12.190476-48.761905-12.190476h-24.380952V270.628571c0-144.660317-7.314286-170.666667-56.076191-203.174603-26.819048-17.879365-32.507937-18.692063-240.55873-18.692063s-213.739683 0.812698-240.55873 18.692063c-48.761905 32.507937-56.07619 58.514286-56.076191 203.174603v127.593651h-20.31746c-31.695238 0-67.453968 21.942857-81.269841 48.761905-9.752381 18.692063-12.190476 57.701587-12.190476 195.047619 0 105.650794 3.250794 177.980952 8.939682 187.733333 4.063492 8.939683 20.31746 23.568254 34.133333 31.695238 24.380952 15.44127 43.885714 16.253968 369.777778 16.253969 289.320635 0 347.834921-1.625397 367.339683-12.190476z" fill="#A14D4D" p-id="5165"></path><path d="M145.473016 829.765079l-23.568254-23.568254V640.406349c0-191.796825 4.063492-202.361905 64.203175-205.612698 30.88254-1.625397 33.320635 0 33.320634 17.879365 0 16.253968-3.250794 19.504762-13.815873 14.628571-8.126984-2.438095-16.253968-5.688889-18.692063-6.501587s-5.688889 1.625397-8.126984 5.688889 73.142857 50.387302 168.228571 104.025397l172.292064 96.711111 75.580952-42.260318c90.209524-50.387302 84.520635-46.32381 74.768254-56.07619-5.688889-5.688889-32.507937 4.87619-79.644444 31.695238l-71.517461 39.822222-114.590476-64.203174c-63.390476-34.946032-124.342857-69.892063-135.720635-75.580953l-20.31746-12.190476-2.438095-160.914286c-3.250794-198.298413-1.625397-208.050794 37.384127-234.057143 30.069841-20.31746 30.069841-20.31746 224.304762-20.31746 183.669841 0 195.047619 0.812698 221.866666 17.066667 15.44127 9.752381 31.695238 26.819048 35.75873 37.384127s7.314286 99.149206 7.314286 195.860317c0 170.666667-0.812698 177.168254-17.066667 186.920635-12.190476 7.314286-14.628571 13.815873-8.939682 19.504762 8.939683 8.939683 115.403175-45.511111 115.403174-59.326984 0-9.752381-30.069841-9.752381-36.571428 0.812698-10.565079 17.066667-28.444444 8.126984-28.444445-14.628571s1.625397-23.568254 37.384127-21.942857c65.015873 3.250794 68.266667 11.377778 68.266667 205.612698v165.790476l-23.568254 23.568254-23.568254 23.568254H169.04127l-23.568254-23.568254z m402.285714-373.841269c10.565079-4.87619 36.571429-23.568254 56.076191-43.073016 30.069841-28.444444 37.384127-42.260317 42.260317-73.955556 5.688889-34.133333 4.063492-41.447619-13.003175-59.326984-21.942857-23.568254-74.768254-26.819048-97.523809-6.501587-13.003175 12.190476-16.253968 12.190476-33.320635 0-27.631746-19.504762-83.707937-17.066667-104.025397 5.688889-13.815873 14.628571-17.066667 25.193651-13.815873 53.638095 4.87619 43.885714 24.380952 70.704762 75.580953 104.838095 42.260317 27.631746 55.263492 30.88254 87.771428 18.692064z" fill="#A14D4D" p-id="5166"></path><path d="M478.679365 423.415873c-48.761905-30.069841-72.330159-61.765079-72.330159-95.085714 0-51.2 44.698413-68.266667 86.958731-32.507937l22.755555 19.504762 22.755556-19.504762c45.511111-39.009524 91.834921-17.066667 84.520635 39.822222-2.438095 17.066667-11.377778 39.009524-19.504762 47.949207-16.253968 18.692063-74.768254 63.390476-83.707937 63.390476-2.438095 0-21.130159-10.565079-41.447619-23.568254z" fill="#A14D4D" p-id="5167"></path><path d="M131.657143 1000.431746c-49.574603-17.066667-77.206349-40.634921-101.587302-86.146032-17.066667-30.88254-17.879365-43.885714-17.879365-219.428571 0-129.219048 3.250794-195.860317 10.56508-215.36508 10.565079-30.88254 40.634921-66.64127 78.831746-94.273015l24.380952-17.066667 4.063492-105.650794c4.063492-91.022222 7.314286-110.526984 24.380952-144.660317C202.361905 25.193651 256.812698 8.126984 507.936508 8.126984s305.574603 17.066667 353.523809 110.526984c17.066667 33.320635 20.31746 52.012698 22.755556 129.219048 3.250794 117.84127 4.063492 121.904762 42.260317 143.034921 77.206349 43.073016 91.834921 99.149206 87.771429 326.704761-2.438095 150.349206-4.063492 167.415873-20.31746 197.485715-9.752381 18.692063-29.257143 43.073016-43.073016 54.450793-51.2 43.885714-78.831746 46.32381-442.107937 46.32381-301.511111-0.812698-338.08254-1.625397-377.092063-15.44127z m767.187301-150.349206l27.631746-27.631746V642.844444c0-153.6-1.625397-182.857143-13.003174-200.736507-17.066667-26.006349-52.012698-43.885714-84.520635-43.885715h-24.380952V266.565079c0-147.911111-6.501587-169.853968-58.514286-201.549206-25.193651-15.44127-41.447619-16.253968-238.120635-16.253968s-212.926984 0.812698-238.120635 16.253968c-52.012698 31.695238-58.514286 53.638095-58.514286 201.549206v131.657143h-20.31746c-28.444444 0-64.203175 19.504762-80.457143 43.885715-11.377778 17.879365-13.003175 47.136508-13.003174 200.736507v179.60635l27.631746 27.631746 27.631746 27.631746h718.425396l27.631746-27.631746z" fill="#FCA61D" p-id="5168"></path><path d="M162.539683 842.768254c-36.571429-18.692063-40.634921-39.009524-40.634921-207.238095V477.866667l24.380952-24.380953c26.819048-26.819048 39.009524-26.006349 25.193651 0.812699-10.565079 18.692063-29.257143 5.688889 203.987302 134.907936l144.660317 78.831746 74.768254-42.260317c89.396825-50.387302 84.520635-47.136508 74.768254-56.888889-5.688889-5.688889-30.069841 4.063492-74.768254 29.257143-41.447619 22.755556-73.142857 35.75873-82.895238 33.320635-8.126984-2.438095-72.330159-35.75873-142.222222-74.768254l-125.968254-70.704762V315.326984c0-251.936508-10.565079-242.184127 264.126984-242.184127 275.504762 0 264.126984-10.565079 264.126984 247.873016 0 173.104762 0 176.355556-17.879365 190.984127-13.815873 10.565079-16.253968 17.879365-9.752381 24.380952 6.501587 5.688889 24.380952-0.812698 66.64127-25.19365 52.825397-30.88254 57.701587-35.75873 53.638095-55.263492l-4.063492-21.130159 21.130159 23.568254 21.130159 22.755555-2.438096 165.790477c-2.438095 159.288889-3.250794 165.790476-21.130158 183.669841l-18.692064 18.692063-338.895238 2.438096c-261.688889 0.812698-343.771429-0.812698-359.212698-8.939683z m396.596825-390.907937c25.193651-13.003175 68.266667-57.701587 82.08254-83.707936 14.628571-28.444444 10.565079-68.266667-8.939683-89.396825-21.130159-22.755556-74.768254-26.006349-96.711111-5.688889-13.003175 12.190476-16.253968 12.190476-33.320635 0-27.631746-19.504762-83.707937-17.066667-104.025397 5.688889-13.815873 14.628571-17.066667 25.193651-13.815873 53.638095 4.87619 43.073016 23.568254 69.892063 73.955556 104.838095 43.073016 28.444444 67.453968 31.695238 100.774603 14.628571z" fill="#FCA61D" p-id="5169"></path><path d="M478.679365 423.415873c-48.761905-30.069841-72.330159-61.765079-72.330159-95.085714 0-51.2 44.698413-68.266667 86.958731-32.507937l22.755555 19.504762 22.755556-19.504762c45.511111-39.009524 91.834921-17.066667 84.520635 39.822222-2.438095 17.066667-11.377778 39.009524-19.504762 47.949207-16.253968 18.692063-74.768254 63.390476-83.707937 63.390476-2.438095 0-21.130159-10.565079-41.447619-23.568254z" fill="#FCA61D" p-id="5170"></path><path d="M131.657143 1000.431746c-49.574603-17.066667-77.206349-40.634921-101.587302-86.146032-17.066667-30.88254-17.879365-43.885714-17.879365-219.428571 0-129.219048 3.250794-195.860317 10.56508-215.36508 10.565079-30.88254 40.634921-66.64127 78.831746-94.273015l24.380952-17.066667 4.063492-105.650794c4.063492-91.022222 7.314286-110.526984 24.380952-144.660317C202.361905 25.193651 256.812698 8.126984 507.936508 8.126984s305.574603 17.066667 353.523809 110.526984c17.066667 33.320635 20.31746 52.012698 22.755556 129.219048 3.250794 117.84127 4.063492 121.904762 42.260317 143.034921 77.206349 43.073016 91.834921 99.149206 87.771429 326.704761-2.438095 150.349206-4.063492 167.415873-20.31746 197.485715-9.752381 18.692063-29.257143 43.073016-43.073016 54.450793-51.2 43.885714-78.831746 46.32381-442.107937 46.32381-301.511111-0.812698-338.08254-1.625397-377.092063-15.44127z m767.187301-150.349206l27.631746-27.631746V642.844444c0-153.6-1.625397-182.857143-13.003174-200.736507-17.066667-26.006349-52.012698-43.885714-84.520635-43.885715h-24.380952V266.565079c0-147.911111-6.501587-169.853968-58.514286-201.549206-25.193651-15.44127-41.447619-16.253968-238.120635-16.253968s-212.926984 0.812698-238.120635 16.253968c-52.012698 31.695238-58.514286 53.638095-58.514286 201.549206v131.657143h-20.31746c-28.444444 0-64.203175 19.504762-80.457143 43.885715-11.377778 17.879365-13.003175 47.136508-13.003174 200.736507v179.60635l27.631746 27.631746 27.631746 27.631746h718.425396l27.631746-27.631746z" fill="#FF8383" p-id="5171"></path><path d="M162.539683 842.768254c-36.571429-18.692063-40.634921-39.009524-40.634921-207.238095V477.866667l24.380952-24.380953c26.819048-26.819048 39.009524-26.006349 25.193651 0.812699-10.565079 18.692063-29.257143 5.688889 203.987302 134.907936l144.660317 78.831746 74.768254-42.260317c89.396825-50.387302 84.520635-47.136508 74.768254-56.888889-5.688889-5.688889-30.069841 4.063492-74.768254 29.257143-41.447619 22.755556-73.142857 35.75873-82.895238 33.320635-8.126984-2.438095-72.330159-35.75873-142.222222-74.768254l-125.968254-70.704762V315.326984c0-251.936508-10.565079-242.184127 264.126984-242.184127 275.504762 0 264.126984-10.565079 264.126984 247.873016 0 173.104762 0 176.355556-17.879365 190.984127-13.815873 10.565079-16.253968 17.879365-9.752381 24.380952 6.501587 5.688889 24.380952-0.812698 66.64127-25.19365 52.825397-30.88254 57.701587-35.75873 53.638095-55.263492l-4.063492-21.130159 21.130159 23.568254 21.130159 22.755555-2.438096 165.790477c-2.438095 159.288889-3.250794 165.790476-21.130158 183.669841l-18.692064 18.692063-338.895238 2.438096c-261.688889 0.812698-343.771429-0.812698-359.212698-8.939683z m396.596825-390.907937c25.193651-13.003175 68.266667-57.701587 82.08254-83.707936 14.628571-28.444444 10.565079-68.266667-8.939683-89.396825-21.130159-22.755556-74.768254-26.006349-96.711111-5.688889-13.003175 12.190476-16.253968 12.190476-33.320635 0-27.631746-19.504762-83.707937-17.066667-104.025397 5.688889-13.815873 14.628571-17.066667 25.193651-13.815873 53.638095 4.87619 43.073016 23.568254 69.892063 73.955556 104.838095 43.073016 28.444444 67.453968 31.695238 100.774603 14.628571z" fill="#FF8383" p-id="5172"></path><path d="M376.279365 559.949206l-132.469841-73.955555V315.326984c0-251.936508-10.565079-242.184127 264.126984-242.184127 275.504762 0 264.126984-10.565079 264.126984 249.498413 0 168.228571-0.812698 177.980952-16.253968 187.733333-8.939683 5.688889-16.253968 14.628571-16.253968 21.130159 0 17.066667-56.07619 47.949206-69.079366 37.384127-7.314286-5.688889-27.631746 1.625397-73.955555 28.444444-35.75873 20.31746-69.892063 36.571429-76.393651 36.571429s-71.51746-33.320635-143.847619-73.955556z m182.857143-108.088889c25.193651-13.003175 68.266667-57.701587 82.08254-83.707936 14.628571-28.444444 10.565079-68.266667-8.939683-89.396825-21.130159-22.755556-74.768254-26.006349-96.711111-5.688889-13.003175 12.190476-16.253968 12.190476-33.320635 0-27.631746-19.504762-83.707937-17.066667-104.025397 5.688889-13.815873 14.628571-17.066667 25.193651-13.815873 53.638095 4.87619 43.073016 23.568254 69.892063 73.955556 104.838095 43.073016 28.444444 67.453968 31.695238 100.774603 14.628571z" fill="#FEFEFE" p-id="5173"></path></svg>