<?xml version="1.0" standalone="no"?><!DOCTYPE svg PUBLIC "-//W3C//DTD SVG 1.1//EN" "http://www.w3.org/Graphics/SVG/1.1/DTD/svg11.dtd"><svg t="1538032898463" class="icon" style="" viewBox="0 0 1142 1024" version="1.1" xmlns="http://www.w3.org/2000/svg" p-id="5849" xmlns:xlink="http://www.w3.org/1999/xlink" width="223.046875" height="200"><defs><style type="text/css"></style></defs><path d="M0 0.324845v872.624295c10.947468-25.32197 9.995515-54.467622 28.97906-76.60848 16.54813-19.300863 50.025171-23.06108 61.43275-45.788977 16.754386-33.358047 5.196081-73.792284 27.709788-107.308989 16.865448-25.115714 55.252984-32.390227 67.48559-58.275437C203.718108 546.587654 186.289421 494.071537 201.687273 452.502889c12.692717-34.25447 52.857233-52.650977 58.925939-88.095389 11.026798-64.431405-12.034282-155.501649 23.846442-213.213847C318.59513 96.313518 389.079374 101.152616 444.245096 111.386119c14.152379-25.80588 25.361635-55.356112 49.089083-74.149266 41.33066-32.731344 138.136426-32.731344 179.475018 0C696.536645 56.030007 707.745901 85.580239 721.898281 111.386119c51.699023-12.29607 127.14136-12.415064 157.54835 40.01379 23.497392 40.513566 14.009586 90.19762 19.237399 134.511069 3.863346 32.707545 0.21419 71.904242 10.138308 103.128326 9.852722 30.962297 31.366877 54.51522 38.133681 87.262429 6.869933 33.318382-4.648708 78.107807 9.781325 108.665524 13.501878 28.582412 55.260917 35.579272 72.142231 65.97833 17.190699 30.978162 6.044906 78.512388 26.42465 105.198825 10.884005 14.263441 31.842854 17.817402 45.685848 28.574479 28.669675 22.283651 32.628216 54.43589 33.421511 88.230249 12.311936-29.343975 7.932948-63.598445 7.932948-95.195377V0.324845H0z" fill="#ffffff" p-id="5850"></path><path d="M444.245096 111.386119c-49.929976-11.883556-127.561806-17.309693-159.785442 32.199837-41.854234 64.312411 0.975753 160.6422-27.448 227.929465-10.947468 25.909009-40.037589 38.911111-52.198799 65.240566-20.879519 45.23367-0.610837 98.209898-19.205667 141.523795-12.058081 28.082636-49.866512 32.628216-67.48559 57.545605-23.719515 33.516706-12.002551 73.720887-27.709788 108.387871-12.29607 27.154481-49.057351 28.637943-66.541569 52.127402-31.50967 42.346077-30.383191 141.428599-4.378987 186.170427C52.167067 1038.739823 144.046472 1023.675155 198.323703 1023.675155h785.361866c40.148651 0 90.657731 4.807367 123.801589-22.838958 44.638699-37.237259 42.62373-150.876741 15.36612-197.784263-15.992823-27.52733-50.961259-27.892246-67.549053-52.500251-21.887004-32.469557-6.671609-80.233837-31.081291-114.726296-19.173936-27.106884-60.512528-30.978162-69.74648-64.788387-9.646465-35.325418-0.237988-74.355523-9.249817-110.601163-9.178421-36.919941-37.173795-64.5266-40.410438-103.128326-5.211947-62.226045 8.091607-158.658963-25.369568-213.324908C850.467571 96.622903 768.472619 97.614521 721.898281 111.386119c-11.32825-28.741071-22.474042-60.980572-49.089084-79.250152-41.25133-28.336491-147.632165-27.646324-186.202158 5.100886C464.521711 55.982409 454.542062 85.262921 444.245096 111.386119z" fill="#FFFF00" p-id="5851"></path><path d="M547.373422 39.989586c22.92622 9.622666 46.598137 7.917082 71.396533 7.932948-22.92622-9.622666-46.598137-7.917082-71.396533-7.932948m-39.664741 15.865896c13.168694 3.220777 17.78567 2.451281 31.731792 0-13.168694-3.220777-17.78567-2.451281-31.731792 0z" fill="#FF8000" p-id="5852"></path><path d="M515.641629 71.721378c5.35474 26.099399-11.145792 41.25133-23.798844 63.463585 24.409681 12.208807-4.783568 10.154174 23.798844 15.865897l-23.798844 23.798844c-11.915288-24.909457-31.017827 18.388574-55.530637 0-5.949711 18.578965-7.972613 44.916352-21.736278 59.671636-20.546336 22.021864-48.026068 4.918428-53.801255-20.363878C354.943899 188.6689 369.834042 164.893854 380.781511 143.117912a267.070632 267.070632 0 0 0-47.597689 15.865896c4.743903 9.479873 3.696754 7.75049 15.865896 15.865896-36.396366 29.92308-37.903626 66.263916-39.664741 111.061274-6.425688-21.649015-7.774289-40.854683-7.932948-63.463585-12.343667 25.552026-18.975612 90.380078 15.865897 95.195378v31.731792l-15.865897-7.932948v31.731793c-5.727589-19.181869-7.520435-35.476144-7.932948-55.530637-14.07305 14.07305-2.721001 49.501596-15.865896 71.396533l-7.932948-7.932948 7.932948 31.731792c-57.926387 30.383191-70.98402 124.983598-55.530637 182.457807 5.418204-11.94702 6.552615-18.364775 7.932948-31.731792 5.108819 16.706789 7.187251 30.105538 7.932948 47.597689-13.390816-5.465801-16.41327-5.362673-23.798844-15.865897-8.869036 16.976509-1.983237 20.04656 15.865896 23.798845-16.389471 10.622218-20.030694 12.97037-23.798844 31.731792 26.718169-6.362224 51.921146-7.853619 79.329481-7.932948 0-74.712506-31.37481-208.549274 71.396533-214.189599 0-39.712338-7.599764-88.238182 2.522678-126.768512 4.426585-16.857515 16.865448-35.22229 36.832678-32.517154C447.093024 276.312111 428.379199 393.569017 428.379199 428.704045h103.128326c0-71.52346-16.905112-156.675726 31.731793-214.1896-10.289034-17.373156-23.782979-35.135027-26.972024-55.546503-4.33139-27.685989 14.104782-112.021161 57.133093-93.783313C649.882977 89.126267 630.431389 177.650035 594.97111 206.581497c55.435442 62.852748 39.664741 142.594743 39.664741 222.122548h103.128326c0-39.712338-7.599764-88.238182 2.522677-126.768512 4.426585-16.857515 16.865448-35.22229 36.832679-32.517154C827.874535 276.312111 809.16071 393.569017 809.16071 428.704045c66.819222 24.036833 47.597689 108.237144 47.597689 166.59191H309.384977v47.597689h396.647407c34.785978 0 118.177128 17.047906 126.92717-23.798844h23.798845v23.798844c22.434377 0.063464 49.572993-2.895526 69.587821 9.352946C969.025481 678.361855 951.953777 766.95702 951.953777 809.485555h87.262429c-9.701996-9.479873-11.264786-10.43976-23.798844-15.865896 44.948084-75.426471-51.802151-139.699217-79.329482-198.323704l-31.731792 15.865897v-47.597689l7.932948 31.731792c36.332902-53.182484-5.267478-110.252113-7.932948-166.59191-24.51281-29.946879-23.695716-65.684811-23.798845-103.128326-6.933397 16.27841-7.5601 29.724757-7.932948 47.597689-12.145344-20.816056-23.180074-40.910214-31.731792-63.463586 9.408476 9.408476 12.121545 12.56579 15.865896 23.798845 35.135027-51.429303 16.445001-146.83887-39.664741-174.524859-2.316421 25.290239-5.933845 72.927592-33.42151 84.033719C720.25616 268.617151 750.798011 164.536872 761.563021 143.117912c-26.305656 5.251612-45.392329 7.203117-71.396533 0 11.471043 18.110921 18.32511 20.482872 39.664741 23.798844-7.821887 11.73283-7.932948 9.543337-7.932948 23.798844-20.736726-12.311936-31.72386-17.547681-55.530637-15.865896l15.865896-31.731792c-9.289482-10.527022-11.820093-17.936396-15.865896-31.731793l-31.731793 23.798844c3.744352-11.233055 6.45742-14.390368 15.865896-23.798844-4.053736-16.540197-4.807367-23.54499 0-39.664741-48.708302-25.528227-86.151817-25.528227-134.860118 0z" fill="#FFAA00" p-id="5853"></path><path d="M626.702903 47.922534l39.664741 39.664741c0.610837-25.044317-17.539748-31.945982-39.664741-39.664741z" fill="#FF8000" p-id="5854"></path><path d="M528.865853 58.497154c-3.530162 3.530162 4.839098 3.09385 5.283344 2.649604 3.530162-3.530162-4.839098-3.09385-5.283344-2.649604z" fill="#FFFF00" p-id="5855"></path><path d="M566.333168 64.161279c-50.548746 30.525984-31.541402 182.671997 41.981161 134.265147 40.108986-26.416717 15.699304-169.09079-41.981161-134.265147z" fill="#040200" p-id="5856"></path><path d="M631.994179 58.497154c-3.530162 3.530162 4.839098 3.09385 5.283344 2.649604 3.530162-3.530162-4.839098-3.09385-5.283344-2.649604z" fill="#FFFF00" p-id="5857"></path><path d="M499.775733 63.78843l7.932948 7.932948-7.932948-7.932948z" fill="#FF8000" p-id="5858"></path><path d="M642.568799 63.78843c8.750042 11.558305 12.240539 15.048803 23.798845 23.798845-7.139653-16.849582-6.949263-16.659191-23.798845-23.798845z" fill="#FFFF00" p-id="5859"></path><path d="M491.842785 71.721378l7.932948 7.932948-7.932948-7.932948z" fill="#FF8000" p-id="5860"></path><path d="M571.172266 71.721378c-4.973958 15.683438-10.614285 31.343078-13.279755 47.637354-3.434967 20.927117 0.047598 93.037616 40.259712 63.051072C635.230822 154.755547 600.524174 87.507945 571.172266 71.721378z" fill="#FDC600" p-id="5861"></path><path d="M587.038162 71.721378l7.932948 7.932948-7.932948-7.932948z" fill="#C29800" p-id="5862"></path><path d="M404.580355 143.117912l15.865896 39.66474c14.255508 0 12.073947-0.111061 23.798845-7.932948v15.865896c15.421651-7.298312 31.747658-20.04656 47.597689-15.865896 10.074844-7.718759 16.088019-13.724 23.798844-23.798844-24.409681-12.208807 4.783568-10.154174-23.798844-15.865897 15.286791-18.214049 29.375707-34.151342 39.66474-55.530637-39.363289 11.653501-44.69423 55.609966-80.122776 68.199556-14.882211 5.291276-32.2633-1.356534-46.804394-4.73597z" fill="#FFBF00" p-id="5863"></path><path d="M563.239318 79.654326l7.932948 7.932949-7.932948-7.932949z" fill="#856800" p-id="5864"></path><path d="M594.97111 79.654326l7.932948 7.932949-7.932948-7.932949z" fill="#7E6200" p-id="5865"></path><path d="M634.635851 79.654326c5.426137 12.534058 6.386023 14.096849 15.865896 23.798845-7.591831 12.034282-11.002999 18.555166-15.865896 31.731792 13.716067-7.353843 20.578067-12.756181 31.731793-23.798844 4.339323 26.02007-7.036525 27.154481 15.865896 31.731793l-15.865896 31.731792c26.186662 2.776532 45.265402 13.628805 63.463585-7.932948-38.498597-11.653501-46.463277-41.457587-47.597689-79.329481l-47.597689-7.932949z" fill="#FFBF00" p-id="5866"></path><path d="M483.909836 87.587275c-7.060324 13.842995-11.526574 24.790463-15.865896 39.66474 11.177524-13.946123 16.151482-21.910803 15.865896-39.66474z" fill="#FF8000" p-id="5867"></path><path d="M486.551508 100.811499c-0.436312 0.436312-0.872624 8.805572 2.649605 5.283344 0.436312-0.436312 0.872624-8.805572-2.649605-5.283344z" fill="#FFFF00" p-id="5868"></path><path d="M555.30637 95.520223l7.932948 7.932948-7.932948-7.932948z" fill="#705700" p-id="5869"></path><path d="M602.904058 95.520223l7.932949 7.932948-7.932949-7.932948z" fill="#604B00" p-id="5870"></path><path d="M618.769955 95.520223l7.932948 7.932948-7.932948-7.932948z" fill="#715500" p-id="5871"></path><path d="M555.30637 103.453171l7.932948 7.932948-7.932948-7.932948z" fill="#B89000" p-id="5872"></path><path d="M602.904058 103.453171l7.932949 7.932948-7.932949-7.932948z" fill="#A48000" p-id="5873"></path><path d="M682.23354 103.453171l7.932948 7.932948-7.932948-7.932948z" fill="#FF8000" p-id="5874"></path><path d="M478.61856 116.677395c-0.436312 0.436312-0.872624 8.805572 2.649605 5.283344 0.436312-0.436312 0.872624-8.805572-2.649605-5.283344z" fill="#FFFF00" p-id="5875"></path><path d="M547.373422 119.319067v23.798845c5.521332-12.327801 5.521332-11.471043 0-23.798845z" fill="#735A00" p-id="5876"></path><path d="M690.166488 119.319067c10.550821 13.906458 17.833267 21.180972 31.731793 31.731793-10.550821-13.906458-17.833267-21.180972-31.731793-31.731793m-304.093701 10.57462c-3.530162 3.530162 4.839098 3.09385 5.283343 2.649605 3.530162-3.530162-4.839098-3.09385-5.283343-2.649605M460.110992 127.252015l7.932948 7.932948-7.932948-7.932948z" fill="#FF8000" p-id="5877"></path><path d="M613.478678 132.543292c-0.436312 0.436312-0.872624 8.805572 2.649605 5.283343 0.436312-0.436312 0.872624-8.805572-2.649605-5.283343z" fill="#6D5500" p-id="5878"></path><path d="M690.166488 127.252015c9.154622 17.8412 13.890592 22.57717 31.731793 31.731793-10.550821-13.906458-17.833267-21.180972-31.731793-31.731793z" fill="#FFFF00" p-id="5879"></path><path d="M766.854298 129.893687c-3.530162 3.530162 4.839098 3.09385 5.283343 2.649605 3.530162-3.530162-4.839098-3.09385-5.283343-2.649605m-412.513304 7.932948c-3.530162 3.530162 4.839098 3.09385 5.283344 2.649605 3.530162-3.530162-4.839098-3.09385-5.283344-2.649605M412.513303 135.184963c9.900319 5.434069 12.280204 5.941778 23.798845 7.932949-9.900319-5.434069-12.280204-5.941778-23.798845-7.932949m39.664741 0l7.932948 7.932949-7.932948-7.932949z" fill="#FF8000" p-id="5880"></path><path d="M531.507525 135.184963v31.731793c5.632393-13.961989 5.632393-17.769804 0-31.731793z" fill="#432B00" p-id="5881"></path><path d="M735.122505 137.826635c-3.530162 3.530162 4.839098 3.09385 5.283344 2.649605 3.530162-3.530162-4.839098-3.09385-5.283344-2.649605M793.294814 135.184963c9.900319 5.434069 12.280204 5.941778 23.798844 7.932949-9.900319-5.434069-12.280204-5.941778-23.798844-7.932949m-499.775733 63.463586c15.58031-17.103436 29.240847-33.397712 47.597689-47.597689-28.677608-0.634636-38.998373 22.561305-47.597689 47.597689z" fill="#FF8000" p-id="5882"></path><path d="M382.44743 152.447059c-38.752452 17.135168-29.669226 106.190444 20.355945 88.547567 41.647978-14.69182 22.053596-107.293124-20.355945-88.547567z" fill="" p-id="5883"></path><path d="M444.245096 143.117912l7.932948 7.932948-7.932948-7.932948z" fill="#FF8000" p-id="5884"></path><path d="M547.373422 143.117912v31.731792c5.632393-13.961989 5.632393-17.769804 0-31.731792z" fill="#BB9200" p-id="5885"></path><path d="M610.837007 143.117912v31.731792c5.632393-13.961989 5.632393-17.769804 0-31.731792z" fill="#997800" p-id="5886"></path><path d="M626.702903 143.117912l7.932948 7.932948-7.932948-7.932948z" fill="#B16F00" p-id="5887"></path><path d="M763.22894 152.447059c-38.752452 17.135168-29.669226 106.190444 20.355945 88.547567 41.655911-14.69182 22.053596-107.293124-20.355945-88.547567z" fill="" p-id="5888"></path><path d="M785.361866 143.117912l15.865896 39.66474c14.255508 0 12.066014-0.111061 23.798844-7.932948-11.645568-18.293378-19.300863-24.195492-39.66474-31.731792z" fill="#FFBF00" p-id="5889"></path><path d="M825.026606 143.117912l7.932948 7.932948-7.932948-7.932948z" fill="#FF8000" p-id="5890"></path><path d="M301.452029 198.648549c15.612042-14.818747 27.670123-29.700958 39.664741-47.597689-23.148343 12.034282-31.113023 22.950019-39.664741 47.597689z" fill="#FFFF00" p-id="5891"></path><path d="M626.702903 151.05086l7.932948 7.932948-7.932948-7.932948z" fill="#5B3D00" p-id="5892"></path><path d="M832.959554 151.05086l23.798845 31.731792c-0.999551-18.666227-7.536301-22.632701-23.798845-31.731792z" fill="#FF8000" p-id="5893"></path><path d="M380.781511 158.983808l7.932948 7.932948-7.932948-7.932948z" fill="#5C3C00" p-id="5894"></path><path d="M388.714459 158.983808l7.932948 7.932948-7.932948-7.932948z" fill="#AF7200" p-id="5895"></path><path d="M626.702903 158.983808l7.932948 7.932948-7.932948-7.932948z" fill="#A77600" p-id="5896"></path><path d="M761.563021 158.983808l7.932948 7.932948-7.932948-7.932948z" fill="#5C3C00" p-id="5897"></path><path d="M769.495969 158.983808l7.932948 7.932948-7.932948-7.932948z" fill="#AF7200" p-id="5898"></path><path d="M832.959554 158.983808c4.323457 12.97037 2.895526 11.54244 15.865897 15.865896v-15.865896h-15.865897z" fill="#FFFF00" p-id="5899"></path><path d="M301.452029 285.910978c20.578067-39.220496 22.402646-80.091044 47.597689-118.994222-55.744827 16.556063-47.597689 70.396982-47.597689 118.994222z" fill="#FFBF00" p-id="5900"></path><path d="M380.781511 166.916756c-5.418204 31.057492-9.392611 52.412988 23.798844 63.463585v-63.463585h-23.798844z" fill="#FDA500" p-id="5901"></path><path d="M531.507525 166.916756l7.932948 7.932948-7.932948-7.932948z" fill="#B87A00" p-id="5902"></path><path d="M761.563021 166.916756c-5.418204 31.057492-9.392611 52.412988 23.798845 63.463585v-63.463585h-23.798845z" fill="#FDA500" p-id="5903"></path><path d="M375.490234 180.140981c-0.436312 0.436312-0.872624 8.805572 2.649605 5.283343 0.436312-0.436312 0.872624-8.805572-2.649605-5.283343m380.781511 0c-0.436312 0.436312-0.872624 8.805572 2.649604 5.283343 0.436312-0.436312 0.872624-8.805572-2.649604-5.283343z" fill="#BD7B00" p-id="5904"></path><path d="M848.825451 174.849704l7.932948 7.932948-7.932948-7.932948z" fill="#FFFF00" p-id="5905"></path><path d="M404.580355 182.782652v39.664741c6.584347-16.103885 6.584347-23.560856 0-39.664741z" fill="#C88200" p-id="5906"></path><path d="M555.30637 182.782652l7.932948 7.932948-7.932948-7.932948z" fill="#937300" p-id="5907"></path><path d="M602.904058 182.782652l7.932949 7.932948-7.932949-7.932948z" fill="#836700" p-id="5908"></path><path d="M785.361866 182.782652v39.664741c6.584347-16.103885 6.584347-23.560856 0-39.664741z" fill="#C88200" p-id="5909"></path><path d="M563.239318 190.7156l7.932948 7.932949-7.932948-7.932949z" fill="#5B4700" p-id="5910"></path><path d="M571.172266 190.7156c9.900319 5.434069 12.280204 5.941778 23.798844 7.932949-9.900319-5.434069-12.280204-5.941778-23.798844-7.932949z" fill="#CDA000" p-id="5911"></path><path d="M594.97111 190.7156l7.932948 7.932949-7.932948-7.932949z" fill="#564300" p-id="5912"></path><path d="M867.333019 196.006877c-0.436312 0.436312-0.880557 8.805572 2.649604 5.283343 0.436312-0.436312 0.880557-8.805572-2.649604-5.283343M285.586133 206.581497v31.731792c5.632393-13.961989 5.632393-17.769804 0-31.731792z" fill="#FF8000" p-id="5913"></path><path d="M563.239318 206.581497l7.932948 7.932948-7.932948-7.932948z" fill="#A87000" p-id="5914"></path><path d="M571.172266 206.581497c9.900319 5.434069 12.280204 5.941778 23.798844 7.932948-9.900319-5.434069-12.280204-5.941778-23.798844-7.932948z" fill="#322300" p-id="5915"></path><path d="M555.30637 214.514445l7.932948 7.932948-7.932948-7.932948z" fill="#674800" p-id="5916"></path><path d="M539.440473 428.704045H428.379199c0-41.711441 8.567584-94.053033-2.522677-134.392075-5.394405-19.634047-22.79136-34.159275-43.932667-26.948225C338.29264 282.245956 356.982666 392.426673 356.982666 428.704045c-19.269131 0.468044-42.734792-1.078881-57.577337 13.819195-14.69182 14.755284-13.517744 38.387536-13.787464 57.577338C284.951497 547.682401 285.586133 595.311821 285.586133 642.893644c-23.41013 0.015866-55.506838-4.680439-75.886582 9.352946C173.223856 677.354371 190.390755 770.677573 190.390755 809.485555c-25.797947 0-133.59878 6.116303-82.439197 58.680018 14.55696 14.953607 39.664741 12.581656 58.640353 12.708582 50.239361 0.34905 100.486654 0.007933 150.726015 0.007933h650.501747c19.094606-0.039665 44.178588 3.125582 60.932974-8.15507 19.530918-13.136962 19.530918-41.94943 0-55.086392-20.221085-13.612939-53.674327-8.155071-76.79887-8.155071 0-38.815915 15.802433-123.143154-13.819196-152.772715-24.790463-24.790463-60.560126-5.513399-81.376182-37.61804h-23.798845v23.798844H309.384977c0-42.282614-0.761563-84.644557 0.039665-126.92717 0.364916-19.705443-0.055531-43.028311 18.348909-55.308514C355.80859 441.944135 411.997662 452.502889 444.245096 452.502889h253.85434c32.485423 0 79.559537-8.44859 109.887198 4.783568 26.813365 11.709031 24.679402 41.973229 24.97292 66.612965h23.798845c-0.031732-44.535571 1.063015-81.07473-47.597689-95.195377 0-36.277372 18.697959-146.458089-24.941189-161.3403-21.141307-7.21105-38.538262 7.314178-43.932667 26.948225C729.196593 334.651011 737.764177 386.992603 737.764177 428.704045H626.702903c0-55.490972 12.56579-128.132978-2.522678-181.593116-8.44859-29.938946-49.176346-40.949878-72.023236-18.769356-14.890144 14.453832-12.581656 38.665189-12.708583 57.569405C539.115222 333.508667 539.440473 381.106356 539.440473 428.704045z" fill="" p-id="5917"></path><path d="M602.904058 214.514445l7.932949 7.932948-7.932949-7.932948z" fill="#674800" p-id="5918"></path><path d="M372.848562 222.447393l7.932949 7.932948-7.932949-7.932948z" fill="#A86E00" p-id="5919"></path><path d="M404.580355 222.447393l7.932948 7.932948-7.932948-7.932948z" fill="#644100" p-id="5920"></path><path d="M420.446251 222.447393l7.932948 7.932948-7.932948-7.932948z" fill="#8B5D00" p-id="5921"></path><path d="M753.630073 222.447393l7.932948 7.932948-7.932948-7.932948z" fill="#A86E00" p-id="5922"></path><path d="M785.361866 222.447393l7.932948 7.932948-7.932948-7.932948z" fill="#644100" p-id="5923"></path><path d="M801.227762 222.447393l7.932948 7.932948-7.932948-7.932948z" fill="#8B5D00" p-id="5924"></path><path d="M872.624295 222.447393v31.731793c5.632393-13.961989 5.632393-17.769804 0-31.731793z" fill="#FF8000" p-id="5925"></path><path d="M386.072787 233.022013c-3.530162 3.530162 4.839098 3.09385 5.283343 2.649605 3.530162-3.530162-4.839098-3.09385-5.283343-2.649605z" fill="#B77700" p-id="5926"></path><path d="M396.647407 230.380341l7.932948 7.932948-7.932948-7.932948z" fill="#714900" p-id="5927"></path><path d="M766.854298 233.022013c-3.530162 3.530162 4.839098 3.09385 5.283343 2.649605 3.530162-3.530162-4.839098-3.09385-5.283343-2.649605z" fill="#B77700" p-id="5928"></path><path d="M777.428917 230.380341l7.932949 7.932948-7.932949-7.932948z" fill="#714900" p-id="5929"></path><path d="M364.915614 238.313289l7.932948 7.932948-7.932948-7.932948z" fill="#4F3300" p-id="5930"></path><path d="M412.513303 238.313289l7.932948 7.932948-7.932948-7.932948z" fill="#A66F00" p-id="5931"></path><path d="M531.507525 238.313289l7.932948 7.932948-7.932948-7.932948z" fill="#B18000" p-id="5932"></path><path d="M563.239318 428.704045h39.66474c0-47.454896 1.935639-95.354037-0.158658-142.753402-0.555306-12.56579-1.602456-44.440375-22.291585-40.331109-16.714722 3.323905-16.500532 27.60666-17.055838 40.331109C561.295745 333.350008 563.239318 381.249149 563.239318 428.704045z" fill="#EC664A" p-id="5933"></path><path d="M626.702903 238.313289l7.932948 7.932948-7.932948-7.932948z" fill="#B18000" p-id="5934"></path><path d="M745.697125 238.313289l7.932948 7.932948-7.932948-7.932948z" fill="#4F3300" p-id="5935"></path><path d="M793.294814 238.313289l7.932948 7.932948-7.932948-7.932948z" fill="#A66F00" p-id="5936"></path><path d="M386.072787 248.887909c-3.530162 3.530162 4.839098 3.09385 5.283343 2.649605 3.530162-3.530162-4.839098-3.09385-5.283343-2.649605z" fill="#332100" p-id="5937"></path><path d="M396.647407 246.246237l7.932948 7.932949-7.932948-7.932949z" fill="#8C5A00" p-id="5938"></path><path d="M531.507525 246.246237v182.457808c18.118854-43.179037 18.118854-139.27877 0-182.457808m95.195378 0v182.457808c18.118854-43.179037 18.118854-139.27877 0-182.457808z" fill="#160F00" p-id="5939"></path><path d="M766.854298 248.887909c-3.530162 3.530162 4.839098 3.09385 5.283343 2.649605 3.530162-3.530162-4.839098-3.09385-5.283343-2.649605z" fill="#332100" p-id="5940"></path><path d="M777.428917 246.246237l7.932949 7.932949-7.932949-7.932949z" fill="#8C5A00" p-id="5941"></path><path d="M555.30637 254.179186v174.524859c17.603212-41.941497 17.603212-132.583362 0-174.524859m47.597688 0v174.524859c17.603212-41.941497 17.603212-132.583362 0-174.524859z" fill="#753224" p-id="5942"></path><path d="M277.653185 285.910978v55.530637c8.408925-20.102091 8.408925-35.428546 0-55.530637z" fill="#FF8000" p-id="5943"></path><path d="M380.781511 285.910978l7.932948 7.932948-7.932948-7.932948z" fill="#7B3526" p-id="5944"></path><path d="M388.714459 285.910978c-13.430481 45.424061-7.932948 95.647556-7.932948 142.793067h23.798844c0-44.472107 11.875623-106.174578-15.865896-142.793067z" fill="#EC664A" p-id="5945"></path><path d="M396.647407 285.910978l7.932948 7.932948-7.932948-7.932948m364.915614 0l7.932948 7.932948-7.932948-7.932948z" fill="#7B3526" p-id="5946"></path><path d="M769.495969 285.910978c-13.430481 45.424061-7.932948 95.647556-7.932948 142.793067h23.798845c0-44.472107 11.875623-106.174578-15.865897-142.793067z" fill="#EC664A" p-id="5947"></path><path d="M777.428917 285.910978l7.932949 7.932948-7.932949-7.932948z" fill="#7B3526" p-id="5948"></path><path d="M293.519081 309.709822v63.463586c5.418204-11.94702 6.552615-18.364775 7.932948-31.731793l15.865897 7.932948v-31.731792c-13.779531 0.491843-13.010035 0.158659-23.798845-7.932949m547.373422 0l23.798844 63.463586c7.813954-18.491702 7.782222-35.35715 7.932948-55.530637-9.479873 4.743903-7.75049 3.696754-15.865896 15.865896-5.426137-12.534058-6.386023-14.096849-15.865896-23.798845z" fill="#FFBF00" p-id="5949"></path><path d="M880.557243 309.709822v39.664741c6.584347-16.103885 6.584347-23.560856 0-39.664741m7.932948 71.396534v31.731792c5.632393-13.961989 5.632393-17.769804 0-31.731792m-634.635851 39.66474c-13.002102 15.707237-22.608902 29.439171-31.731792 47.597689 16.262544-14.549027 27.892246-26.075601 31.731792-47.597689z" fill="#FF8000" p-id="5950"></path><path d="M261.787289 420.771096l7.932948 7.932949-7.932948-7.932949m-7.932949 7.932949l7.932949 7.932948-7.932949-7.932948m-7.932948 7.932948l7.932948 7.932948-7.932948-7.932948z" fill="#FFFF00" p-id="5951"></path><path d="M840.892503 436.636993l7.932948 7.932948-7.932948-7.932948z" fill="#573C00" p-id="5952"></path><path d="M240.630116 449.861217c-0.436312 0.436312-0.872624 8.805572 2.649605 5.283344 0.436312-0.436312 0.872624-8.805572-2.649605-5.283344z" fill="#FFFF00" p-id="5953"></path><path d="M904.356088 444.569941c5.426137 12.534058 6.386023 14.096849 15.865896 23.798844-5.481667-11.010932-7.813954-14.755284-15.865896-23.798844z" fill="#FF8000" p-id="5954"></path><path d="M317.317926 452.502889l-7.932949 15.865896c10.019313-7.702893 11.042664-5.505466 7.932949-15.865896z" fill="#866900" p-id="5955"></path><path d="M309.384977 595.295955h523.574577c7.13172-16.849582 6.949263-16.659191 23.798845-23.798844v-47.597689h-23.798845c-0.253854-21.680747 2.276756-49.469865-18.388573-63.241462C787.979739 442.927821 736.53457 452.502889 706.032384 452.502889H452.178044c-33.6357 0-104.159609-13.192493-130.076551 12.716516C296.121088 491.19981 309.384977 561.366736 309.384977 595.295955z" fill="#FDC600" p-id="5956"></path><path d="M817.093658 452.502889l7.932948 7.932948-7.932948-7.932948z" fill="#866900" p-id="5957"></path><path d="M230.055496 460.435837l7.932948 7.932948-7.932948-7.932948z" fill="#FFFF00" p-id="5958"></path><path d="M825.026606 460.435837l7.932948 7.932948-7.932948-7.932948z" fill="#866900" p-id="5959"></path><path d="M904.356088 460.435837l7.932948 7.932948-7.932948-7.932948z" fill="#FFFF00" p-id="5960"></path><path d="M216.831271 481.59301c-0.436312 0.436312-0.872624 8.805572 2.649605 5.283343 0.436312-0.436312 0.872624-8.805572-2.649605-5.283343m706.032385 0c-0.436312 0.436312-0.880557 8.805572 2.649604 5.283343 0.436312-0.436312 0.880557-8.805572-2.649604-5.283343M206.256652 500.100578v31.731792c5.632393-13.961989 5.632393-17.769804 0-31.731792m721.89828 0v31.731792c5.632393-13.961989 5.632393-17.769804 0-31.731792m-729.831229 63.463585v39.664741c6.584347-16.103885 6.584347-23.560856 0-39.664741z" fill="#FF8000" p-id="5961"></path><path d="M230.055496 563.564163v31.731792l-7.932948-15.865896c-5.418204 11.94702-6.552615 18.364775-7.932948 31.731793h23.798844c-0.372849-17.872932-0.999551-31.319279-7.932948-47.597689m674.300592 0v47.597689h23.798844v-31.731793c-10.312833 5.156416-7.932948 1.166143-7.932948 15.865896l-15.865896-31.731792z" fill="#FFBF00" p-id="5962"></path><path d="M936.08788 563.564163v39.664741c6.584347-16.103885 6.584347-23.560856 0-39.664741z" fill="#FF8000" p-id="5963"></path><path d="M832.959554 571.497111v23.798844h23.798845v-23.798844h-23.798845z" fill="" p-id="5964"></path><path d="M174.524859 658.759541c21.752144-6.663676 35.817261-20.958849 55.530637-31.731793-28.717272-9.027695-42.964847 6.782671-55.530637 31.731793z" fill="#FFBF00" p-id="5965"></path><path d="M174.524859 627.027748c-21.061977 16.873381-35.0081 31.676262-47.597689 55.530637l55.530637-47.597689-7.932948-7.932948m785.361866 0l47.597688 55.530637c-1.840444-29.018724-23.188007-42.5682-47.597688-55.530637z" fill="#FF8000" p-id="5966"></path><path d="M174.524859 634.960696l7.932948 7.932948-7.932948-7.932948m785.361866 0l7.932948 7.932948-7.932948-7.932948M134.860118 682.558385l39.664741-31.731793c-22.410578-0.666368-29.121853 12.660985-39.664741 31.731793m838.250831-37.023069c-3.530162 3.530162 4.847031 3.09385 5.283344 2.649605 3.530162-3.530162-4.847031-3.09385-5.283344-2.649605z" fill="#FFFF00" p-id="5967"></path><path d="M158.658963 650.826592c-17.603212 26.02007-73.141782 124.071309-23.798845 134.860119l-31.731792 15.865896c27.225878 11.423445 57.910521 7.932948 87.262429 7.932948 0-50.342489-3.791949-101.478273 7.932948-150.726014l-39.66474-7.932949z" fill="#FFAA00" p-id="5968"></path><path d="M983.685569 650.826592l7.932948 7.932949-7.932948-7.932949m10.57462 13.224225c-0.436312 0.436312-0.880557 8.805572 2.649605 5.283343 0.436312-0.436312 0.880557-8.805572-2.649605-5.283343z" fill="#FFFF00" p-id="5969"></path><path d="M222.122548 666.692489l-7.932948 15.865896c10.019313-7.702893 11.042664-5.505466 7.932948-15.865896z" fill="#7D621B" p-id="5970"></path><path d="M214.1896 761.887866h713.965332c0-29.217048 8.028144-75.997643-24.972921-90.41181C863.398276 654.110833 796.515591 666.692489 753.630073 666.692489H404.580355c-47.010651 0-121.897681-14.215843-165.417835 4.783567C206.161456 685.890223 214.1896 732.670818 214.1896 761.887866z" fill="#ECB934" p-id="5971"></path><path d="M912.289036 666.692489l7.932948 7.932948-7.932948-7.932948m7.932948 7.932948l7.932948 7.932948-7.932948-7.932948z" fill="#7D621B" p-id="5972"></path><path d="M999.551465 674.625437l7.932948 7.932948-7.932948-7.932948z" fill="#FFFF00" p-id="5973"></path><path d="M121.635894 695.78261c-0.436312 0.436312-0.872624 8.805572 2.649604 5.283343 0.436312-0.436312 0.872624-8.805572-2.649604-5.283343m896.423139 0c-0.436312 0.436312-0.880557 8.805572 2.649605 5.283343 0.436312-0.436312 0.880557-8.805572-2.649605-5.283343M111.061274 714.290178v31.731792c5.632393-13.961989 5.632393-17.769804 0-31.731792m912.289036 0v31.731792c5.632393-13.961989 5.632393-17.769804 0-31.731792M103.128326 761.887866l7.932948 7.932948-7.932948-7.932948z" fill="#FF8000" p-id="5974"></path><path d="M214.1896 761.887866v47.597689h713.965332v-47.597689H214.1896z" fill="#E39E32" p-id="5975"></path><path d="M1031.283258 761.887866l7.932948 7.932948-7.932948-7.932948M95.195378 777.753763c-18.134719 15.04087-33.358047 28.907663-47.597689 47.597688 20.284548-12.803778 41.172001-24.060632 47.597689-47.597688m944.020828 0l7.932948 7.932948-7.932948-7.932948z" fill="#FF8000" p-id="5976"></path><path d="M95.195378 785.686711c-15.064669 12.716516-27.432135 24.338285-39.664741 39.66474 18.491702-10.907804 34.008549-18.80902 39.664741-39.66474z" fill="#FFFF00" p-id="5977"></path><path d="M87.26243 817.418503l47.597688-23.798844c-24.885658-7.940881-35.595138 1.935639-47.597688 23.798844m928.154932-31.731792c12.48646 13.946123 23.132477 23.053147 39.66474 31.731792v-31.731792h-39.66474z" fill="#FFBF00" p-id="5978"></path><path d="M1055.082102 793.619659c12.597522 12.906907 24.417614 22.005998 39.664741 31.731792-12.883108-16.214946-20.966782-22.973818-39.664741-31.731792z" fill="#FF8000" p-id="5979"></path><path d="M1055.082102 801.552607c10.638083 10.106576 19.062874 16.191147 31.731793 23.798844-11.502775-12.756181-16.270477-16.373605-31.731793-23.798844z" fill="#FFFF00" p-id="5980"></path><path d="M71.396533 849.150296c-8.218534 9.408476-10.622218 12.724449-15.865896 23.798844 11.73283 7.821887 9.543337 7.932948 23.798844 7.932948v23.798845c-14.255508 0-12.066014 0.111061-23.798844 7.932948 5.243679 11.074396 7.647362 14.390368 15.865896 23.798844-22.148791 39.752003 32.509221 53.555333 63.463585 47.597689l-7.932948-23.798844c20.165554 13.438414 19.975163 7.369709 15.865896 23.798844h856.758399c0-16.825783 0.555306-13.922324 15.865897-23.798844l-7.932949 23.798844c99.756823 19.205667 128.251973-132.591295 47.597689-174.524859-7.393508 22.52164-10.669815 50.033104-32.905869 63.241463-19.800639 11.764562-44.702163 5.188148-63.995092 18.602763-25.853478 17.97606-35.920389 43.274232-69.722681 50.286958-45.059145 9.345013-96.900962 2.728934-142.761335 2.728935H460.110992c-65.84347 0-150.60702 14.104782-214.070606-4.54558-28.891797-8.488255-38.919044-32.509221-61.876995-48.470313-19.29293-13.414615-44.194454-6.838201-63.995093-18.602763-22.236054-13.208359-25.512361-40.719823-32.905868-63.241463-20.514604 11.407579-27.979508 18.45997-15.865897 39.664741z" fill="#FFAA00" p-id="5981"></path><path d="M103.128326 809.485555l7.932948 7.932948-7.932948-7.932948m928.154932 0l7.932948 7.932948-7.932948-7.932948m-936.08788 7.932948l7.932948 7.932948-7.932948-7.932948m944.020828 0l7.932948 7.932948-7.932948-7.932948z" fill="#AA7100" p-id="5982"></path><path d="M39.664741 825.351451l7.932948 7.932949-7.932948-7.932949m1055.082102 0l7.932948 7.932949-7.932948-7.932949z" fill="#FF8000" p-id="5983"></path><path d="M118.994222 833.2844l7.932948 7.932948-7.932948-7.932948z" fill="#743F30" p-id="5984"></path><path d="M118.994222 841.217348c50.45355 38.228877 167.996043 15.865896 230.055496 15.865896h444.245096c72.943458 0 159.912369 12.803778 230.055496-7.932948-50.461483-38.228877-167.996043-15.865896-230.055496-15.865896H349.049718c-72.943458 0-159.912369-12.803778-230.055496 7.932948z" fill="#DF7A5D" p-id="5985"></path><path d="M1015.417362 833.2844l7.932948 7.932948-7.932948-7.932948z" fill="#743F30" p-id="5986"></path><path d="M34.373464 846.508624c-0.436312 0.436312-0.872624 8.813505 2.649605 5.283344 0.436312-0.436312 0.872624-8.813505-2.649605-5.283344z" fill="#FF8000" p-id="5987"></path><path d="M47.597689 841.217348v103.128326c14.255508 0 12.066014-0.111061 23.798844-7.932949l-15.865896-23.798844 23.798844-7.932948v-23.798845l-23.798844-7.932948 15.865896-23.798844c-11.73283-7.821887-9.543337-7.932948-23.798844-7.932948z" fill="#FFBF00" p-id="5988"></path><path d="M1105.321463 846.508624c-0.436312 0.436312-0.880557 8.813505 2.649605 5.283344 0.436312-0.436312 0.880557-8.813505-2.649605-5.283344z" fill="#FF8000" p-id="5989"></path><path d="M118.994222 849.150296l7.932948 7.932948-7.932948-7.932948m896.42314 0l7.932948 7.932948-7.932948-7.932948z" fill="#743F30" p-id="5990"></path><path d="M39.664741 857.083244v71.396533c9.963783-23.751247 9.963783-47.645287 0-71.396533z" fill="#FFAA00" p-id="5991"></path><path d="M1086.813895 857.083244c-8.750042 11.558305-12.240539 15.048803-23.798845 23.798844v23.798845c11.558305 8.750042 15.048803 12.240539 23.798845 23.798844 9.963783-23.751247 9.963783-47.645287 0-71.396533z" fill="#FFBF00" p-id="5992"></path><path d="M23.798844 865.016192v55.530637c8.408925-20.102091 8.408925-35.428546 0-55.530637m1086.813895 0v55.530637c8.400992-20.102091 8.400992-35.428546 0-55.530637z" fill="#FF8000" p-id="5993"></path><path d="M182.457807 880.882088c34.191006 75.593063 103.048996 63.463585 174.524859 63.463586h436.312148c69.762346 0 133.471852 9.765459 166.591911-63.463586H182.457807z" fill="#FFA500" p-id="5994"></path><path d="M0 912.613881v111.061274h79.329481c-53.515668-32.74721-56.101809-57.331416-79.329481-111.061274m1134.411584 0c-1.229607 52.293994-17.373156 90.165889-71.396534 103.128326 25.091915 10.527022 52.246396 7.932948 79.329482 7.932948 0-36.023517 6.100437-77.608032-7.932948-111.061274z" fill="#ffffff" p-id="5995"></path><path d="M34.373464 933.771054c-0.436312 0.436312-0.872624 8.813505 2.649605 5.283343 0.436312-0.436312 0.872624-8.813505-2.649605-5.283343m1070.947999 0c-0.436312 0.436312-0.880557 8.813505 2.649605 5.283343 0.436312-0.436312 0.880557-8.813505-2.649605-5.283343M39.664741 952.278622l7.932948 7.932948-7.932948-7.932948m1055.082102 0l7.932948 7.932948-7.932948-7.932948M47.597689 960.21157c16.571929 21.038178 30.153136 31.049559 55.530637 39.66474-17.277961-15.397852-35.729998-27.638391-55.530637-39.66474z" fill="#FF8000" p-id="5996"></path><path d="M55.530637 960.21157l7.932948 7.932948-7.932948-7.932948z" fill="#FFFF00" p-id="5997"></path><path d="M126.92717 960.21157v31.731792h31.731793c-9.924118-15.881762-13.874726-24.155827-31.731793-31.731792z" fill="#FFBF00" p-id="5998"></path><path d="M198.323703 960.21157c62.503698 26.226327 162.355717 7.932948 230.055496 7.932948h515.641629c-62.503698-26.226327-162.355717-7.932948-230.055496-7.932948H198.323703z" fill="#FFB900" p-id="5999"></path><path d="M1007.484413 960.21157c-8.400992 9.352946-13.739866 17.730139-23.798844 23.798844 11.94702 5.418204 18.364775 6.552615 31.731793 7.932948-1.531059-12.105679-2.927258-20.847788-7.932949-31.731792z" fill="#FFBF00" p-id="6000"></path><path d="M1078.880947 960.21157l-39.664741 23.798844c20.355945 2.871727 33.929219-3.561894 39.664741-23.798844z" fill="#FFFF00" p-id="6001"></path><path d="M1086.813895 960.21157l7.932948 7.932948-7.932948-7.932948z" fill="#FF8000" p-id="6002"></path><path d="M63.463585 968.144518l7.932948 7.932948-7.932948-7.932948z" fill="#FFFF00" p-id="6003"></path><path d="M1078.880947 968.144518l7.932948 7.932948-7.932948-7.932948z" fill="#FF8000" p-id="6004"></path><path d="M76.68781 978.719138c-3.530162 3.530162 4.839098 3.085917 5.283343 2.649604 3.530162-3.530162-4.839098-3.085917-5.283343-2.649604z" fill="#FFFF00" p-id="6005"></path><path d="M1070.947999 976.077466l7.932948 7.932948-7.932948-7.932948z" fill="#FF8000" p-id="6006"></path><path d="M92.553706 986.652086c-3.530162 3.530162 4.839098 3.085917 5.283343 2.649605 3.530162-3.530162-4.839098-3.085917-5.283343-2.649605z" fill="#FFFF00" p-id="6007"></path><path d="M126.92717 991.943362c33.667432 14.120648 67.882237 3.125582 103.128326 0.713966 52.492318-3.601558 106.047651-0.713965 158.658963-0.713966 208.914189 0 418.431282 7.798088 626.702903 7.932948-69.635419-37.023069-184.528307-15.865896-261.787289-15.865896-206.232853 0-422.151835-17.92053-626.702903 7.932948z" fill="#FF9900" p-id="6008"></path><path d="M1060.373379 986.652086c-3.530162 3.530162 4.847031 3.085917 5.283343 2.649605 3.530162-3.530162-4.847031-3.085917-5.283343-2.649605z" fill="#FF8000" p-id="6009"></path><path d="M198.323703 991.943362c62.503698 26.226327 162.355717 7.932948 230.055496 7.932948h515.641629c-62.503698-26.226327-162.355717-7.932948-230.055496-7.932948H198.323703z" fill="#FFBF00" p-id="6010"></path><path d="M1044.507482 994.585034c-3.530162 3.530162 4.847031 3.085917 5.283344 2.649605 3.530162-3.530162-4.847031-3.085917-5.283344-2.649605M111.061274 999.87631c11.94702 5.418204 18.364775 6.552615 31.731792 7.932949-11.94702-5.418204-18.364775-6.552615-31.731792-7.932949m888.490191 0c11.94702 5.418204 18.364775 6.552615 31.731793 7.932949-11.94702-5.418204-18.364775-6.552615-31.731793-7.932949m-809.16071 7.932949c62.503698 26.226327 162.355717 7.932948 230.055496 7.932948h531.507526c-62.503698-26.226327-162.355717-7.932948-230.055496-7.932948H190.390755z" fill="#FF8000" p-id="6011"></path></svg>