<?xml version="1.0" standalone="no"?><!DOCTYPE svg PUBLIC "-//W3C//DTD SVG 1.1//EN" "http://www.w3.org/Graphics/SVG/1.1/DTD/svg11.dtd"><svg t="1538035805561" class="icon" style="" viewBox="0 0 1024 1024" version="1.1" xmlns="http://www.w3.org/2000/svg" p-id="3768" xmlns:xlink="http://www.w3.org/1999/xlink" width="200" height="200"><defs><style type="text/css"></style></defs><path d="M20.078431 0v1024h983.843138V0H20.078431z" fill="#ffffff" p-id="3769"></path><path d="M421.647059 73.620915c19.141438-18.257987 33.14949-43.255634 60.262065-50.637804C520.279007 12.542327 566.184993 33.276654 602.352941 44.574118c73.333124 22.889412 147.128052 44.801673 220.862745 66.372601 48.288627 14.12183 118.348967 24.917333 147.951268 70.053647C1005.059346 232.675556 961.810405 300.346562 957.071895 354.718954c28.417673-46.515033 57.611712-146.472157 17.200523-192.659242-30.331817-34.668758-89.047843-42.24502-130.9783-55.142065-97.87566-30.090876-195.731242-61.460078-294.48366-88.545882C491.593621 2.683817 440.05898 11.799425 421.647059 73.620915z" fill="#BE5226" p-id="3770"></path><path d="M428.339869 73.620915c26.001569-5.387712 46.809516-27.855477 73.647687-27.721621 24.857098 0.120471 49.493333 12.609255 73.594143 17.582013 38.69783 7.984523 75.836235 10.976209 113.777778 24.053961 36.830536 12.689569 69.41783 34.066405 107.09166 44.433569 44.07885 12.12068 128.689359 20.720941 154.617307 62.84549 15.647791 25.419294 1.358641 53.46217-3.935372 79.590902-4.705046 23.197281-2.161778 44.212706 3.246013 66.928104 33.156183-44.50719 54.961359-142.88481 5.427869-183.055058-33.062484-26.818092-85.84868-35.62583-125.898457-47.338249C749.40068 87.388026 669.307817 62.376993 588.96732 38.282876 525.820654 19.342222 460.438588 1.311791 428.339869 73.620915z" fill="#A03523" p-id="3771"></path><path d="M488.575163 40.156863c8.352627 4.584575 10.360471 5.012915 20.078432 6.69281-8.352627-4.584575-10.367163-5.012915-20.078432-6.69281z" fill="#E08620" p-id="3772"></path><path d="M472.960837 49.078379c-2.978301 2.978301 4.082614 2.610196 4.457411 2.235399 2.978301-2.978301-4.082614-2.610196-4.457411-2.235399z" fill="#F3B924" p-id="3773"></path><path d="M769.673203 354.718954h153.93464c7.830588-41.55566 50.269699-129.338562 22.728784-165.821072-22.534693-29.849935-75.923242-35.311268-109.73532-43.904836-85.380183-21.698092-168.116706-59.753412-254.326797-77.449203-31.248732-6.418405-75.595294-29.950327-106.194824-12.783268-28.859399 16.203294-48.998065 100.726797-51.84251 132.537726-3.366484 37.72068 79.691294 103.725176 116.742693 95.024523 29.066876-6.826667 45.056-43.543425 74.758693-53.776732 84.168784-28.986562 153.231895 47.65281 153.934641 126.172862z" fill="#FFE126" p-id="3774"></path><path d="M519.81051 49.078379c-2.978301 2.978301 4.082614 2.610196 4.457412 2.235399 2.978301-2.978301-4.082614-2.610196-4.457412-2.235399z" fill="#E08620" p-id="3775"></path><path d="M461.803922 53.542484l6.69281 6.69281-6.69281-6.69281z" fill="#D28020" p-id="3776"></path><path d="M535.424837 53.542484c8.352627 4.584575 10.360471 5.012915 20.078431 6.69281-8.352627-4.584575-10.360471-5.012915-20.078431-6.69281z" fill="#E08620" p-id="3777"></path><path d="M555.503268 60.235294c8.352627 4.584575 10.360471 5.012915 20.078431 6.692811-8.352627-4.584575-10.367163-5.012915-20.078431-6.692811z" fill="#E7A124" p-id="3778"></path><path d="M448.418301 66.928105c-14.744261 15.52732-18.525699 25.499608-20.078432 46.849673 18.900497-11.551791 26.470065-25.017725 20.078432-46.849673z" fill="#BD4A30" p-id="3779"></path><path d="M595.660131 66.928105c41.187556 25.164967 106.228288 39.802144 153.93464 46.849673-40.645438-30.726693-103.531085-45.778824-153.93464-46.849673z" fill="#BE4B2F" p-id="3780"></path><path d="M113.777778 595.660131c47.090614-49.459869 25.231895-110.685699 37.894693-172.105621C177.640575 297.656052 272.678484 151.331137 408.261438 127.163399c5.374327-20.413072 11.799425-31.964863 26.771242-46.849674-47.853595-16.772183-131.647582 41.595817-167.320262 70.127268C146.057203 247.767843 55.456627 439.931817 113.777778 595.660131z" fill="#EB6550" p-id="3781"></path><path d="M414.954248 73.620915l6.692811 6.69281-6.692811-6.69281m-20.078431 6.69281l6.69281 6.692811-6.69281-6.692811z" fill="#FD860E" p-id="3782"></path><path d="M633.588288 82.542431c-2.978301 2.978301 4.082614 2.610196 4.457411 2.235399 2.978301-2.978301-4.082614-2.610196-4.457411-2.235399z" fill="#E08620" p-id="3783"></path><path d="M414.954248 87.006536l-6.69281 40.156863c-77.188183 7.904209-190.049046 87.006536-200.784314 167.320261 29.381438 0 82.174327-8.292392 100.104366 21.945726 11.665569 19.676863-25.887791 85.955765 1.740131 90.654117 27.159425 4.618039 38.215948-48.134693 43.429647-65.75017 14.523399-49.038222 28.979869-98.076444 43.068235-147.24183 8.078222-28.163346 13.271843-57.805804 39.213177-73.620915l-6.692811-33.464052h-13.385621z" fill="#EC664E" p-id="3784"></path><path d="M653.666719 89.235242c-2.978301 2.978301 4.082614 2.610196 4.457412 2.235399 2.978301-2.978301-4.082614-2.610196-4.457412-2.235399z" fill="#E08620" p-id="3785"></path><path d="M680.437961 95.928052c-2.978301 2.978301 4.082614 2.610196 4.457412 2.235399 2.978301-2.978301-4.082614-2.610196-4.457412-2.235399z" fill="#D5681D" p-id="3786"></path><path d="M689.359477 100.392157c8.352627 4.584575 10.360471 5.012915 20.078431 6.69281-8.352627-4.584575-10.360471-5.012915-20.078431-6.69281z" fill="#E7A124" p-id="3787"></path><path d="M441.72549 107.084967v20.078432c4.658196-10.400627 4.658196-9.677804 0-20.078432z" fill="#E18131" p-id="3788"></path><path d="M435.03268 113.777778c-26.14881 59.057359-40.451346 125.336261-58.294379 187.398693-17.468235 60.790797-40.056471 117.80685-48.790589 180.705882 27.688157-36.623059 34.568366-83.807373 46.314249-127.163399 13.378928-49.406327 30.632993-97.761882 43.86468-147.24183 7.944366-29.675922 26.122039-63.347451 16.906039-93.699346z" fill="#D95A42" p-id="3789"></path><path d="M307.869281 120.470588l6.692811 6.692811-6.692811-6.692811z" fill="#FF8F04" p-id="3790"></path><path d="M414.954248 120.470588c-17.173752 74.243346-42.084392 147.891033-64.184052 220.862745-5.782588 19.094588-11.786039 42.111163-26.463372 56.607791-6.411712 6.331399-18.197752 11.458092-22.681935 0-6.639268-16.966275 9.838431-45.872523 12.937203-63.300601-16.350536 15.83519-40.357647 42.285176-41.308027 66.533229-1.084235 27.48068 39.132863 32.855007 57.116445 20.285908 24.013804-16.785569 31.188497-60.536471 38.671059-86.819137 20.024889-70.321359 48.643346-141.773804 59.2983-214.169935h-13.385621z" fill="#E26048" p-id="3791"></path><path d="M767.444497 122.699294c-2.978301 2.978301 4.089307 2.610196 4.457411 2.235399 2.978301-2.978301-4.089307-2.610196-4.457411-2.235399z" fill="#D5681D" p-id="3792"></path><path d="M437.261386 138.320314c-0.368105 0.368105-0.736209 7.42902 2.235398 4.457411 0.368105-0.368105 0.736209-7.42902-2.235398-4.457411z" fill="#E3A932" p-id="3793"></path><path d="M814.29417 136.084915c-2.978301 2.978301 4.089307 2.610196 4.457412 2.235399 2.978301-2.978301-4.089307-2.610196-4.457412-2.235399z" fill="#D28020" p-id="3794"></path><path d="M823.215686 140.54902c8.352627 4.584575 10.360471 5.012915 20.078432 6.69281-8.352627-4.584575-10.360471-5.012915-20.078432-6.69281z" fill="#E7A124" p-id="3795"></path><path d="M881.222275 156.163346c-2.978301 2.978301 4.089307 2.610196 4.457411 2.235399 2.978301-2.978301-4.089307-2.610196-4.457411-2.235399M903.529412 160.627451l6.69281 6.69281-6.69281-6.69281m20.078431 6.69281l6.692811 6.692811-6.692811-6.692811z" fill="#D28020" p-id="3796"></path><path d="M936.993464 174.013072l6.692811 6.69281-6.692811-6.69281m6.692811 6.69281l6.69281 6.692811-6.69281-6.692811m6.69281 6.692811l6.69281 6.69281-6.69281-6.69281z" fill="#ED7737" p-id="3797"></path><path d="M414.954248 200.784314c4.551111 59.592784 79.584209 103.986196 133.85621 113.777778-15.433621-46.742588-95.626876-82.810144-133.85621-113.777778z" fill="#E58200" p-id="3798"></path><path d="M957.071895 207.477124v20.078432c4.658196-10.400627 4.658196-9.677804 0-20.078432z" fill="#E08620" p-id="3799"></path><path d="M535.424837 287.79085c7.629804 6.793203 10.78881 8.760889 20.078431 13.385621 37.191948-53.997595 90.640732-88.847059 153.332288-46.883138 21.778405 14.576941 32.915242 39.019085 54.144836 53.575948-14.041516-69.605229-96.490248-105.04366-160.627451-76.873621-27.139346 11.919895-44.366641 38.604131-66.928104 56.79519z" fill="#ED9501" p-id="3800"></path><path d="M408.261438 234.248366c-9.316392 54.131451-32.098719 106.081046-40.156863 160.627451 18.786719-7.469176 39.654902 0.736209 53.542484-13.385621 35.24434 19.476078 62.72502 21.048889 100.392157 32.346353 12.194301 3.660967 25.606693 6.866824 13.385621 14.50332l33.464052 20.078432c-3.105464-32.547137-18.157595-56.259765-27.186196-87.006536-4.90583-16.711948-5.12-35.686065-16.986353-49.466562C498.547451 281.526379 443.86719 252.633516 408.261438 234.248366m207.503895 4.705046c-75.448052 25.807477-84.048314 133.133386-26.168889 180.572026 25.017725 20.493386 76.75315 21.965804 106.449151 10.541176 51.226771-19.703634 70.033569-102.841725 43.951686-148.680784-22.635085-39.782065-81.832993-56.935739-124.231948-42.432418z" fill="#FFE126" p-id="3801"></path><path d="M950.379085 234.248366v20.078431c4.658196-10.400627 4.658196-9.677804 0-20.078431z" fill="#E98026" p-id="3802"></path><path d="M421.647059 240.941176c8.185307 7.997908 9.503791 8.807739 20.078431 13.385621-8.185307-7.997908-9.503791-8.807739-20.078431-13.385621z" fill="#F5AF02" p-id="3803"></path><path d="M403.797333 252.098092c-0.368105 0.368105-0.736209 7.42902 2.235399 4.457411 0.368105-0.368105 0.736209-7.42902-2.235399-4.457411z" fill="#F1A229" p-id="3804"></path><path d="M635.816993 254.326797l-6.69281 26.771242 33.464052 6.692811-6.69281-33.464053h-20.078432z" fill="#FED710" p-id="3805"></path><path d="M943.686275 254.326797v20.078432c4.658196-10.400627 4.658196-9.677804 0-20.078432z" fill="#EE9D22" p-id="3806"></path><path d="M644.73851 265.483712c-0.368105 0.368105-0.736209 7.42902 2.235398 4.457412 0.368105-0.368105 0.736209-7.42902-2.235398-4.457412z" fill="#ED8900" p-id="3807"></path><path d="M160.627451 267.712418l6.69281 6.692811-6.69281-6.692811z" fill="#FF8F04" p-id="3808"></path><path d="M675.973856 267.712418l-13.385621 66.928105-20.078431-26.771242c12.863582-6.030222 13.378928-7.201464 20.078431-20.078431l-53.542483-13.385621c9.724654 12.33485 18.304837 15.112366 33.464052 20.078431-15.861961 28.651922-30.144418 53.944052-33.464052 87.006536h13.385621c1.920837-19.19498 6.759739-35.431739 13.38562-53.542484l26.771242 33.464053c15.500549-28.524758 20.620549-62.002196 26.771242-93.699347h-13.385621z" fill="#F0AC03" p-id="3809"></path><path d="M936.993464 274.405229l-6.69281 40.156863c10.005752-14.623791 12.642719-23.371294 6.69281-40.156863z" fill="#F5C628" p-id="3810"></path><path d="M147.24183 548.810458c62.095895-40.893072 104.769255-66.921412 180.705882-66.928105l13.385621-53.542484c-10.982902-0.040157-22.69532 0.803137-33.597908-0.990536-81.853072-13.472627 38.577359-92.608418-8.714039-124.044549-34.916392-23.210667-99.655948-11.404549-118.951321 24.937412C145.856418 392.660497 136.553412 477.645804 147.24183 548.810458z" fill="#F57159" p-id="3811"></path><path d="M548.810458 301.176471v26.771241c4.751895-11.779346 4.751895-14.991895 0-26.771241z" fill="#FBCE02" p-id="3812"></path><path d="M762.980392 301.176471c0 24.388601-8.14515 54.184993 20.078432 60.235294-10.875817-19.543007-11.591948-40.263948-20.078432-60.235294z" fill="#F0AC03" p-id="3813"></path><path d="M936.993464 301.176471c-7.710118 29.809778-14.97851 56.86881-6.69281 87.006536 16.537935-27.085804 21.617778-58.294379 6.69281-87.006536z" fill="#BE4B2F" p-id="3814"></path><path d="M622.431373 307.869281v13.385621h13.38562v-13.385621h-13.38562z" fill="#EA8F00" p-id="3815"></path><path d="M749.594771 307.869281c-0.187399 22.902797-2.509804 44.420183-6.69281 66.928105 15.339922-20.245752 16.511163-43.523346 6.69281-66.928105z" fill="#FED710" p-id="3816"></path><path d="M756.287582 307.869281c-0.227556 66.406065-29.736157 111.502222-93.699347 133.856209 18.933961 6.69281 35.746301 2.483033 53.274772-8.218771 20.834719-12.729725 32.567216-38.604131 55.041673-47.980758C812.554039 368.171503 899.199163 408.10081 916.915033 354.718954c-51.67519 4.082614-101.944889 6.69281-153.934641 6.692811-0.04685-18.98081 0.655895-36.05417-6.69281-53.542484z" fill="#E88600" p-id="3817"></path><path d="M535.424837 314.562092c1.144471 55.309386 21.504 117.71315 80.313725 136.178614 23.143739 7.268392 49.674039 4.370405 73.620915 4.370405-23.197281-12.341542-50.196078-10.634876-73.620915-22.200052C569.60502 410.115346 549.854536 363.018039 548.810458 314.562092h-13.385621z" fill="#EB9E02" p-id="3818"></path><path d="M588.96732 327.947712c14.322614 2.744052 19.830797-0.21417 33.464053-6.69281-14.322614-2.744052-19.830797 0.21417-33.464053 6.69281z" fill="#FAB602" p-id="3819"></path><path d="M383.718902 325.719007c-0.368105 0.368105-0.736209 7.42902 2.235399 4.457411 0.368105-0.368105 0.736209-7.42902-2.235399-4.457411z" fill="#F4BD2C" p-id="3820"></path><path d="M374.797386 334.640523v20.078431c4.658196-10.400627 4.658196-9.677804 0-20.078431z" fill="#E18131" p-id="3821"></path><path d="M925.836549 339.104627c-0.368105 0.368105-0.742902 7.42902 2.235399 4.457412 0.368105-0.368105 0.742902-7.42902-2.235399-4.457412z" fill="#D5681D" p-id="3822"></path><path d="M943.686275 341.333333c0 18.64617-4.510954 32.058562-13.385621 46.849674l-6.692811-6.692811c-9.925438 67.463529-30.197961 143.440314-53.542484 207.477124 16.711948 7.951059 43.202092 18.311529 49.279164 37.941543 4.758588 15.386771-7.924288 35.933699-14.536784 49.071686-22.889412 45.444183-53.29485 90.854902-94.977674 120.463895-5.534954 54.164915-49.908288 59.65302-93.699346 70.997334-51.835817 13.432471-99.307922 34.64868-153.934641 35.987242-41.763137 1.030693-85.393569-9.450248-107.084967 33.564444 50.162614 6.338092 103.350379 11.980131 153.834248 4.611346 167.848993-24.509072 304.101229-144.81234 356.124445-304.643346 22.26698-68.413908 27.989333-150.300444 12.93051-220.862745-6.043608-28.330667-8.867974-58.060131-34.314039-74.765386z" fill="#EB6550" p-id="3823"></path><path d="M120.470588 354.718954l6.692811 6.692811-6.692811-6.692811z" fill="#FD860E" p-id="3824"></path><path d="M649.202614 354.718954c2.375948 30.472366 28.216889 55.717647 53.542484 26.771242-23.826405 0.916915-32.861699-3.83498-40.156863-26.771242h-13.385621z" fill="#F29C00" p-id="3825"></path><path d="M783.058824 354.718954c31.616837 13.26515 73.018562 6.69281 107.084967 6.692811-31.616837-13.26515-73.018562-6.69281-107.084967-6.692811z" fill="#FBCB0E" p-id="3826"></path><path d="M916.915033 354.718954c-14.97851 77.18149-42.53281 151.036654-60.235294 227.555556 26.19566-9.209307 24.850405-28.792471 31.503058-53.542484 13.211608-49.172078 49.339399-124.794144 28.732236-174.013072z" fill="#D5563F" p-id="3827"></path><path d="M370.333281 365.875869c-0.368105 0.368105-0.736209 7.42902 2.235399 4.457412 0.368105-0.368105 0.736209-7.42902-2.235399-4.457412z" fill="#EA9C23" p-id="3828"></path><path d="M696.052288 368.104575l6.69281 26.771242c5.026301-13.69349 4.390484-17.374536-6.69281-26.771242z" fill="#FBCE02" p-id="3829"></path><path d="M113.777778 374.797386l6.69281 6.69281-6.69281-6.69281m849.986928 0l6.69281 6.69281-6.69281-6.69281z" fill="#FD860E" p-id="3830"></path><path d="M361.411765 408.261438c47.800052 19.476078 121.943007 21.878797 160.627451 53.542484 19.020967-0.923608 25.968105 0.789752 40.156862 13.38562 94.388706 2.757438 179.782275 62.604549 274.405229 66.928105v26.771242c13.720261-20.131974 20.674092-44.540654-4.751895-59.251451-17.943425-10.380549-42.36549-10.889203-62.075817-17.046588C702.29668 471.528575 629.077333 457.841778 568.888889 421.647059c-1.49919 11.270693-1.459033 15.487163 0 26.771242-12.421856-7.014065-19.703634-10.126222-33.464052-13.385621 10.266771-6.846745 9.38332-5.387712 13.385621-13.385621l-127.163399-40.156863c-24.642928 11.652183-44.895373-2.355869-60.235294 26.771242z" fill="#FFE01C" p-id="3831"></path><path d="M756.287582 381.490196c-18.713098 32.105412-43.764288 52.136993-73.620915 73.620915 48.128 52.264157 144.578092 21.999268 174.013072 93.699347 29.475137-46.836288 41.134013-113.684078 53.542483-167.320262-53.207843 4.196392-100.673255 6.732967-153.93464 0z" fill="#FFE126" p-id="3832"></path><path d="M776.366013 381.490196c31.616837 13.26515 73.018562 6.69281 107.084967 6.692811-31.616837-13.26515-73.018562-6.69281-107.084967-6.692811m-100.392157 13.385621c10.079373 4.57119 15.493856 5.528261 26.771242 6.69281-10.079373-4.57119-15.493856-5.528261-26.771242-6.69281z" fill="#F6B904" p-id="3833"></path><path d="M905.758118 399.339922c-0.368105 0.368105-0.742902 7.42902 2.235398 4.457411 0.368105-0.368105 0.742902-7.42902-2.235398-4.457411z" fill="#E18131" p-id="3834"></path><path d="M107.084967 401.568627l6.692811 6.692811-6.692811-6.692811m863.372549 0l6.692811 6.692811-6.692811-6.692811z" fill="#FD860E" p-id="3835"></path><path d="M361.411765 408.261438c-9.517176 22.554771-12.870275 42.499346-13.385621 66.928104 15.239529 1.117699 17.970196 1.331869 26.771242 13.385621 47.358327-17.78949 105.190902 35.67268 147.24183 54.660183 18.81349 8.493176 43.570196 9.831739 46.849673 32.346353 17.468235-1.378719 35.853386-9.182536 53.542484-6.69281 15.413542 2.168471 21.283137 13.733647 34.581751 18.960732 30.914092 12.167529 67.671007 14.409621 99.274458 22.31383 14.061595 3.513725 68.159582 23.210667 53.542483 32.346353 6.512105 8.499869 11.578562 13.57302 20.078432 20.078431 13.224993-40.638745 26.40983-77.301961 26.771242-120.470588-8.479791 10.327007-9.965595 13.706876-13.385621 26.771242l-6.692811-26.771242c-66.533229-5.802667-130.088157-35.110484-194.091503-52.531869-26.824784-7.295163-52.69919-17.869804-80.313726-14.396236-11.852967-16.752105-20.319373-17.254065-40.156862-13.38562-15.426928-19.07451-37.252183-17.588706-60.235294-22.487844-34.467974-7.348706-66.707242-21.450458-100.392157-31.05464z" fill="#FFDB00" p-id="3836"></path><path d="M899.065307 419.418353c-0.368105 0.368105-0.742902 7.42902 2.235399 4.457412 0.368105-0.368105 0.742902-7.42902-2.235399-4.457412z" fill="#F0AE2E" p-id="3837"></path><path d="M622.431373 435.03268c17.488314 7.348706 34.568366 6.645961 53.542483 6.69281-17.488314-7.348706-34.568366-6.645961-53.542483-6.69281z" fill="#FED710" p-id="3838"></path><path d="M890.143791 435.03268v20.078431c4.658196-10.400627 4.658196-9.677804 0-20.078431z" fill="#F0AE2E" p-id="3839"></path><path d="M693.823582 443.954196c-2.978301 2.978301 4.089307 2.610196 4.457411 2.235399 2.978301-2.978301-4.089307-2.610196-4.457411-2.235399z" fill="#FABE04" p-id="3840"></path><path d="M343.562039 452.882405c-0.368105 0.368105-0.736209 7.42902 2.235399 4.457412 0.368105-0.368105 0.736209-7.42902-2.235399-4.457412z" fill="#EA9C23" p-id="3841"></path><path d="M341.333333 461.803922v26.771241c102.112209 24.268131 160.560523 113.162039 160.627451 214.169935 14.871425-5.421176 26.704314-11.638797 40.156863-20.078431l-6.69281-20.078432c52.471634-16.845804 103.825569-42.171399 160.627451-31.188496 33.31681 6.445176 60.824261 28.45783 58.709333 64.645856-0.943686 16.069438-7.040837 31.663686-11.85966 46.856366 17.461542 5.093229 39.434039 2.837752 53.542483 13.385621 21.617778-32.747922 41.033621-81.317647 13.385621-113.777778 23.284288-10.126222-33.236497-28.946405-46.849673-32.346353-65.261595-16.317072-127.819294-46.789438-194.091503-34.581752-2.938144-24.328366-26.122039-25.43268-46.849673-35.692758C480.63749 519.388863 421.212026 468.737673 374.797386 488.575163c-4.303477-19.783948-16.243451-18.311529-33.464053-26.771241z" fill="#FFD700" p-id="3842"></path><path d="M336.869229 472.960837c-0.368105 0.368105-0.736209 7.42902 2.235398 4.457411 0.368105-0.368105 0.736209-7.42902-2.235398-4.457411z" fill="#E47F28" p-id="3843"></path><path d="M254.326797 481.882353c8.352627 4.584575 10.360471 5.012915 20.078432 6.69281-8.352627-4.584575-10.360471-5.012915-20.078432-6.69281z" fill="#F2AB54" p-id="3844"></path><path d="M160.627451 548.810458c17.662327-1.633046 36.930928 0.582275 54.144837-3.674353 27.855477-6.880209 49.955137-22.046118 79.711372-22.728785 46.561882-1.07085 93.511948 21.504 140.54902 26.403138-11.973438-36.877386-50.664575-53.127529-87.006536-59.258144C283.547608 478.669804 194.533229 482.498092 160.627451 548.810458z" fill="#FFE569" p-id="3845"></path><path d="M314.562092 481.882353c10.079373 4.57119 15.493856 5.528261 26.771241 6.69281-10.079373-4.57119-15.493856-5.528261-26.771241-6.69281z" fill="#FBCA5B" p-id="3846"></path><path d="M870.065359 508.653595v20.078431c4.658196-10.400627 4.658196-9.677804 0-20.078431z" fill="#E18131" p-id="3847"></path><path d="M261.019608 522.039216c8.352627 4.584575 10.360471 5.012915 20.078431 6.69281-8.352627-4.584575-10.360471-5.012915-20.078431-6.69281z" fill="#E3A932" p-id="3848"></path><path d="M147.24183 649.202614c25.934641-30.827085 44.286327-63.27383 80.313726-84.643973 84.717595-50.263007 183.369621-0.602353 220.862745 84.643973 14.697412-53.609412-55.496784-105.605856-100.392157-118.462745-88.157699-25.231895-184.253072 25.780706-200.784314 118.462745z" fill="#CE8009" p-id="3849"></path><path d="M325.719007 524.267922c-2.978301 2.978301 4.082614 2.610196 4.457411 2.235398 2.978301-2.978301-4.082614-2.610196-4.457411-2.235398z" fill="#E3A932" p-id="3850"></path><path d="M245.405281 530.960732c-2.978301 2.978301 4.082614 2.610196 4.457412 2.235399 2.978301-2.978301-4.082614-2.610196-4.457412-2.235399z" fill="#DD9C24" p-id="3851"></path><path d="M863.372549 528.732026v20.078432c4.658196-10.400627 4.658196-9.677804 0-20.078432z" fill="#E68E2B" p-id="3852"></path><path d="M435.03268 535.424837c-11.960052 9.102222-25.33898 9.912052-40.156863 13.385621 15.734797 22.621699 34.133333 42.372183 46.849673 66.928104h33.464052c6.451869-34.896314-13.894275-58.91681-40.156862-80.313725z" fill="#FFDC5E" p-id="3853"></path><path d="M87.006536 542.117647l6.69281 6.692811-6.69281-6.692811z" fill="#BE5226" p-id="3854"></path><path d="M120.470588 615.738562h40.156863c12.71634-24.555922 31.114876-44.306405 46.849673-66.928104-52.096837-10.494327-83.312105 11.846275-87.006536 66.928104z" fill="#FFDC5E" p-id="3855"></path><path d="M167.320261 622.431373l60.235295 6.69281c-1.305098-16.223373-2.744052-31.108183-6.692811-46.849673 44.634353 3.446797 53.341699 38.885229 73.620915 73.620915h13.385621c20.279216-34.735686 28.986562-70.174118 73.620915-73.620915l-6.69281 40.156863c20.774484 1.472418 39.601359 3.28617 60.235294 0-49.446484-105.726327-218.312784-105.625935-267.712419 0z" fill="#FEA224" p-id="3856"></path><path d="M93.699346 548.810458c-6.599111 9.891974-6.69281 8.051451-6.69281 20.078431-12.816732-8.546719-7.261699-8.546719-20.078431 0-4.470797 45.952837-29.562144 86.698667-32.8617 133.856209-4.872366 69.424523 20.426458 122.096941 32.8617 187.398693 26.035033 20.995346 46.08 47.472105 73.620915 66.928104-13.077752-28.07634-35.759686-47.947294-52.839739-73.620915-29.334588-44.085542-48.235085-100.56617-47.191006-153.93464 0.702745-35.806536 10.039216-74.671686 25.044496-107.084967 10.942745-23.652392 31.991634-47.164235 28.136575-73.620915z" fill="#BE5226" p-id="3857"></path><path d="M856.679739 548.810458v20.078431c4.658196-10.400627 4.658196-9.677804 0-20.078431z" fill="#F1B819" p-id="3858"></path><path d="M93.699346 562.196078c-27.199582 51.688575-50.925595 100.961046-53.274771 160.627451-5.849516 148.613856 106.174745 271.038745 254.059085 278.588236 72.436288 3.701124 122.565438-37.205333 187.398693-57.72549-11.029752-6.184157-21.249673-9.697882-33.464052-13.385621-114.708078 133.809359-324.882405 29.655843-378.384732-107.084968-38.952157-99.548863 3.861752-169.823373 37.051398-261.019608h-13.385621z" fill="#FF8F04" p-id="3859"></path><path d="M73.620915 568.888889l6.69281 6.69281-6.69281-6.69281z" fill="" p-id="3860"></path><path d="M100.392157 575.581699c-64.016732 109.701856-69.324131 261.026301 34.066405 351.586719 62.798641 55.008209 153.38583 77.643294 233.646013 53.729883 31.041255-9.249464 63.969882-21.791791 80.313726-50.597647-42.017464 8.011294-76.953935 35.967163-120.470589 39.534431C192.458458 980.938458 79.470431 877.407373 70.374902 742.901961c-2.088157-30.840471 4.176314-64.759634 14.690719-93.699347 9.189229-25.292131 25.412601-46.903216 15.326536-73.620915z" fill="#FD8613" p-id="3861"></path><path d="M60.235294 582.27451l6.692811 6.69281-6.692811-6.69281z" fill="#BE5226" p-id="3862"></path><path d="M220.862745 582.27451a602.232471 602.232471 0 0 0 53.542484 100.392157h-33.464053v13.385621c23.859869 1.800366 35.184105 5.568418 46.849674 26.771241h-46.849674v13.385621h46.849674v46.849674h26.771242v-46.849674h46.849673v-13.385621h-46.849673c11.665569-21.202824 22.989804-24.970876 46.849673-26.771241v-13.385621h-33.464053a602.232471 602.232471 0 0 0 53.542484-100.392157c-47.572497 1.579503-61.527007 38.329725-73.620915 80.313725h-13.385621c-12.093908-41.984-26.048418-78.734222-73.620915-80.313725z" fill="#FFEA74" p-id="3863"></path><path d="M856.679739 582.27451c-26.871634 60.623477-49.131922 135.442405-60.235295 200.784314l26.771242-6.692811c-10.065987-64.337987 51.614954-134.277856 33.464053-194.091503z" fill="#DC7020" p-id="3864"></path><path d="M863.372549 582.27451c-9.938824 47.545725-27.226353 93.418248-39.112784 140.549019-3.058614 12.134065-11.330928 37.171869 2.991686 45.671739 24.187817 14.356078 53.401935-44.353255 62.457307-59.05736 12.76319-20.714248 40.002928-60.014431 31.175111-85.768366-7.589647-22.153203-38.048627-32.995556-57.51132-41.395032z" fill="#F58822" p-id="3865"></path><path d="M107.084967 588.96732c-17.374536 48.569725-39.862379 93.900131-38.416732 147.24183 3.995608 148.085124 127.083085 251.14102 272.665098 233.010196 36.080941-4.497569 67.858405-24.201203 100.392157-38.918692-15.125752-13.566327-33.263268-30.525908-53.542483-35.525438-33.182954-8.171922-77.589752 11.484863-113.777778 8.058143-57.022745-5.401098-112.204967-46.334327-143.159216-93.030065-28.88617-43.570196-34.327425-96.242614-30.231425-147.215059 2.048-25.472837 14.817882-48.964601 6.070379-73.620915z" fill="#FF8800" p-id="3866"></path><path d="M113.777778 595.660131c-8.914824 43.315869-22.420915 89.195085-10.226615 133.856209 3.533804 12.937203 17.233987 59.412078 30.305046 40.156863 6.846745 10.266771 5.387712 9.38332 13.385621 13.385621 20.232366-30.090876-0.789752-54.586562-5.28732-87.006536-3.901908-28.19681 4.885752-53.522405 11.980131-80.313726l-6.692811-6.69281c-16.772183 0.301176-21.483922-2.054693-33.464052-13.385621z" fill="#FFCA4D" p-id="3867"></path><path d="M970.457516 595.660131l6.692811 6.69281-6.692811-6.69281z" fill="#FD860E" p-id="3868"></path><path d="M220.862745 602.352941c9.945516 27.333438 22.072889 57.39085 46.849673 73.620915-9.945516-27.333438-22.072889-57.39085-46.849673-73.620915m147.24183 0l-33.464052 73.620915c24.776784-16.230065 36.904157-46.287477 46.849673-73.620915h-13.385621z" fill="#D2840C" p-id="3869"></path><path d="M481.882353 602.352941c-11.424627 5.735739-14.12183 6.57234-26.771242 6.692811l-6.69281 6.69281c16.966275 64.117124 3.540497 98.745725-13.385621 160.627451 11.116758-1.392105 10.306928-3.312941 13.385621 6.692811 8.700654-4.350327 6.69281-0.983843 6.69281-13.385621 7.937673 6.933752 10.735268 8.961673 20.078431 13.385621 27.614536-51.862588 44.754824-129.559425 6.692811-180.705883z" fill="#FFCA4D" p-id="3870"></path><path d="M46.849673 609.045752l6.692811 6.69281-6.692811-6.69281z" fill="#BE5226" p-id="3871"></path><path d="M140.54902 642.509804c0 31.777464-7.71681 93.411556 28.5783 109.668392 19.984732 8.948288 43.824523 1.974379 65.121046 10.802196v-40.156863h46.849673c-15.607634-6.592418-29.829856-6.565647-46.849673-6.69281 1.472418-20.118588 3.045229-29.214118 20.078431-40.156863l-20.078431-53.542483c-12.301386 2.462954-18.954039 6.69281-33.464052 6.69281-7.154614 0-29.113725-14.971817-40.156863-6.69281-4.638118 3.480261-7.408941 20.794562-13.385621 26.771241l-6.69281-6.69281m207.477124 33.464052c28.270431 18.331608 20.078431 56.420392 20.078431 87.006536 24.562614-6.003451 48.402405-9.958902 73.620915-6.69281 17.863111-38.416732 20.078431-71.974484 20.078432-113.777778-15.821804 0-14.991895-4.812131-20.078432-20.078431-50.677961 2.409412-77.750379-1.505882-93.699346 53.542483z" fill="#F8A82F" p-id="3872"></path><path d="M963.764706 622.431373l6.69281 6.69281-6.69281-6.69281z" fill="#FD860E" p-id="3873"></path><path d="M535.424837 662.588235c0 12.02698 0.093699 10.179765 6.69281 20.078432l-26.771242 13.385621c25.43268 3.687739 43.898144-15.922196 66.928105-25.26536 25.827556-10.480941 59.271529-13.773804 87.006536-14.603712 17.555242-0.522039 43.791059-0.783059 54.767268 16.002509 21.912261 33.497516-58.675869 82.830222-19.054432 110.6857 37.299033 26.222431 95.158379 6.284549 91.450562-39.969464-19.636706 4.283399-33.905778 4.283399-53.542483 0 5.628654-13.338771 10.567948-25.613386 12.127372-40.190327C767.665359 584.717386 593.043242 636.827608 535.424837 662.588235z" fill="#F9CB02" p-id="3874"></path><path d="M957.071895 642.509804l6.692811 6.69281-6.692811-6.69281z" fill="#FD860E" p-id="3875"></path><path d="M298.947765 658.124131c-2.978301 2.978301 4.082614 2.610196 4.457411 2.235398 2.978301-2.978301-4.082614-2.610196-4.457411-2.235398z" fill="#FCC248" p-id="3876"></path><path d="M595.660131 896.836601l66.928104-6.69281c-7.676654-77.897621 0.421647-156.250353-6.69281-234.248366-16.631634 2.161778-42.171399 2.610196-53.355085 17.327686-11.618719 15.279686-5.675503 41.314719-5.956601 59.130981-0.836601 54.827503-0.896837 109.648314-0.923608 164.482509z" fill="#F99B3A" p-id="3877"></path><path d="M655.895425 655.895425c2.837752 74.410667 8.058144 153.512993 0 227.555555l46.849673-6.69281c-8.232157-34.575059-13.653333-85.895529-3.553882-120.470588 6.933752-23.726013 43.804444-58.046745 29.43498-84.101857C716.391739 649.985673 676.790379 655.90881 655.895425 655.895425z" fill="#F9A943" p-id="3878"></path><path d="M501.960784 702.745098v46.849673c32.547137-30.064105 62.443922-56.975895 100.392157-80.313725-34.608523-6.853438-66.238745 26.858248-100.392157 33.464052z" fill="#F6B904" p-id="3879"></path><path d="M234.248366 675.973856v26.771242h46.849673c-13.733647-5.849516-25.077961-6.378248-40.156863-6.69281v-13.385621h33.464053c-13.733647-5.849516-25.077961-6.378248-40.156863-6.692811z" fill="#FCC248" p-id="3880"></path><path d="M332.411817 678.202562c-2.978301 2.978301 4.082614 2.603503 4.457412 2.235399 2.978301-2.978301-4.082614-2.603503-4.457412-2.235399z" fill="#E3A932" p-id="3881"></path><path d="M341.333333 675.973856l20.078432 20.078432h-40.156863c15.600941 6.592418 29.829856 6.565647 46.849673 6.69281v-26.771242h-26.771242z" fill="#EFBA40" p-id="3882"></path><path d="M542.117647 702.745098c18.418614 29.468444 8.258928 73.219346 6.692811 107.084967-1.325176 28.705464 0.783059 58.147137 0 87.006536 18.271373 0.783059 35.565595 3.339712 53.542483 6.692811-16.93281-71.311895-5.38102-154.336209-6.69281-227.555556-19.991425 6.318013-35.980549 15.299765-53.542484 26.771242z" fill="#F88F32" p-id="3883"></path><path d="M818.751582 693.823582c-0.368105 0.368105-0.742902 7.435712 2.235398 4.457411 0.368105-0.368105 0.742902-7.435712-2.235398-4.457411z" fill="#F0AC03" p-id="3884"></path><path d="M234.248366 702.745098v13.385621h46.849673v-13.385621h-46.849673z" fill="#CE8009" p-id="3885"></path><path d="M281.098039 702.745098v20.078431c4.658196-10.400627 4.658196-9.677804 0-20.078431m33.464053 0v20.078431c4.658196-10.400627 4.658196-9.677804 0-20.078431z" fill="#EEC54E" p-id="3886"></path><path d="M321.254902 702.745098v13.385621h40.156863v-13.385621h-40.156863z" fill="#CE8009" p-id="3887"></path><path d="M361.411765 702.745098c-13.767111 10.588026-22.675242 12.221072-40.156863 13.385621 15.058824 7.261699 49.727582 11.986824 40.156863-13.385621z" fill="#EA9C23" p-id="3888"></path><path d="M501.960784 890.143791l-20.078431 6.69281c31.616837 13.26515 73.018562 6.69281 107.084967 6.692811-13.733647-5.849516-25.077961-6.378248-40.156862-6.692811 6.492026-62.283294 0.281098-125.068549 6.69281-187.398693-69.25051 19.603242-63.514771 121.768993-53.542484 180.705883z" fill="#F8852A" p-id="3889"></path><path d="M234.248366 722.823529c5.327477 24.870484 24.341752 20.078431 46.849673 20.078432v40.156863c6.585725-15.607634 6.565647-29.829856 6.692811-46.849674-20.660706-0.602353-35.431739-3.299556-53.542484-13.385621m127.163399 0c-15.447007 11.772654-27.38698 12.830118-46.849673 13.385621v46.849674c5.849516-13.733647 6.378248-25.077961 6.69281-40.156863 16.966275-0.066928 49.232314 4.002301 40.156863-20.078432z" fill="#FAD761" p-id="3890"></path><path d="M100.392157 729.51634c11.64549 78.841307 63.099817 143.928889 140.549019 167.956078 111.689621 34.64868 236.878641-38.169098 254.326798-154.570457-19.850876 29.341281-34.140026 60.429386-60.837647 84.992-75.668915 69.618614-182.265307 71.780392-260.149543 5.575111-34.842771-29.608993-47.518954-69.123346-73.888627-103.952732z" fill="#E4995D" p-id="3891"></path><path d="M495.267974 729.51634v26.771242c4.751895-11.772654 4.751895-14.998588 0-26.771242z" fill="#F0AE2E" p-id="3892"></path><path d="M916.915033 729.51634l6.69281 6.69281-6.69281-6.69281z" fill="#FF8F04" p-id="3893"></path><path d="M805.365961 740.673255c-0.368105 0.368105-0.742902 7.435712 2.235398 4.457412 0.368105-0.368105 0.742902-7.435712-2.235398-4.457412z" fill="#EB9E02" p-id="3894"></path><path d="M234.248366 742.901961c5.327477 24.870484 24.341752 20.078431 46.849673 20.078431l-46.849673-20.078431z" fill="#DD8C14" p-id="3895"></path><path d="M240.941176 742.901961v13.385621h40.156863v-13.385621h-40.156863m80.313726 0v13.385621h40.156863v-13.385621h-40.156863z" fill="#CE8009" p-id="3896"></path><path d="M361.411765 742.901961c-13.767111 10.588026-22.675242 12.221072-40.156863 13.385621 15.058824 7.261699 49.727582 11.986824 40.156863-13.385621z" fill="#DD8C14" p-id="3897"></path><path d="M160.627451 756.287582c59.151059 113.951791 221.799739 114.232889 281.098039 0-38.838379-8.600261-80.715294 6.364863-120.470588 6.69281v40.156863h-40.156863v-40.156863c-41.267869-0.448418-78.834614-8.258928-120.470588-6.69281z" fill="#F3AE38" p-id="3898"></path><path d="M160.627451 762.980392c-9.891974 13.660026-13.05098 16.97966-26.771242 6.692811 0.896837 40.832837 33.631373 67.463529 66.928105 87.475032 99.92366 60.047895 204.525595 11.933281 274.405228-67.396601-6.505412-8.499869-11.578562-13.566327-20.078431-20.078431v13.385621l-6.69281-13.385621c-81.665673 42.311948-141.104523 111.40183-234.248366 42.74698-19.616627-14.463163-35.712837-32.975477-53.542484-49.439791z" fill="#FFC244" p-id="3899"></path><path d="M488.575163 762.980392c-11.879739 40.36434-40.257255 71.552837-46.849673 113.777778-23.438222-8.064837-37.145098-1.258248-60.235294 6.69281 25.21851 20.64732 89.181699 15.279686 120.470588 6.692811v-127.163399h-13.385621z" fill="#F8771D" p-id="3900"></path><path d="M696.052288 789.751634v80.313725c53.997595-9.744732 106.71017-51.768889 140.549019-93.699346-47.974065 6.458562-91.751739 13.385621-140.549019 13.385621z" fill="#F9B449" p-id="3901"></path><path d="M281.098039 783.058824v20.078431h40.156863v-20.078431h-40.156863z" fill="#CE8009" p-id="3902"></path><path d="M729.51634 856.679739c40.658824 16.417464 74.430745-16.85919 87.006536-53.542484-31.155033 13.867503-57.136523 36.890771-87.006536 53.542484z" fill="#C94E3A" p-id="3903"></path><path d="M441.72549 843.294118c-7.067608 15.005281-7.904209 17.247373-6.69281 33.464052 7.582954-12.709647 9.85851-19.121359 6.69281-33.464052z" fill="#E46F35" p-id="3904"></path><path d="M769.673203 876.75817l6.69281 6.69281-6.69281-6.69281z" fill="#FF8F04" p-id="3905"></path><path d="M408.261438 910.222222c32.326275 17.722562 50.617725 16.511163 73.620915-13.385621-31.757386-7.147922-50.805124-13.312-73.620915 13.385621z" fill="#F17139" p-id="3906"></path><path d="M73.620915 896.836601l6.69281 6.692811-6.69281-6.692811z" fill="#BE5226" p-id="3907"></path><path d="M682.666667 916.915033l6.69281 6.69281-6.69281-6.69281z" fill="#FD860E" p-id="3908"></path><path d="M87.006536 923.607843l6.69281 6.692811-6.69281-6.692811z" fill="#BE5226" p-id="3909"></path><path d="M662.588235 923.607843l6.692811 6.692811-6.692811-6.692811m-26.771242 6.692811l6.692811 6.69281-6.692811-6.69281z" fill="#FD860E" p-id="3910"></path><path d="M100.392157 936.993464l6.69281 6.692811-6.69281-6.692811m214.169935 73.620915c-58.073516-20.95519-111.515608-30.873935-167.320262-60.235294 19.583163 35.451817 62.443922 46.950065 100.392157 54.077908 85.882144 16.136366 155.139346-5.421176 227.555555-54.077908-35.947085-5.247163-77.148026 33.075869-112.64 43.068235-18.606013 5.240471-35.03017 2.208627-47.98745 17.167059m-200.784314-60.235294l6.69281 6.69281-6.69281-6.69281m368.104575 0l6.69281 6.69281-6.69281-6.69281m-354.718954 13.385621l6.69281 6.69281-6.69281-6.69281m13.385621 0l6.69281 6.69281-6.69281-6.69281m314.562091 0l6.692811 6.69281-6.692811-6.69281m-301.17647 13.385621l6.69281 6.69281-6.69281-6.69281m281.098039 0l6.69281 6.69281-6.69281-6.69281m20.078431 6.69281l6.692811 6.692811-6.692811-6.692811m-287.79085 6.692811l6.692811 6.69281-6.692811-6.69281m20.078432 0l6.69281 6.69281-6.69281-6.69281m220.862745 0l6.69281 6.69281-6.69281-6.69281z" fill="#BE5226" p-id="3911"></path><path d="M348.026144 997.228758l6.69281 6.692811-6.69281-6.692811z" fill="" p-id="3912"></path><path d="M428.339869 997.228758l6.692811 6.692811-6.692811-6.692811m-227.555555 6.692811l6.69281 6.69281-6.69281-6.69281z" fill="#BE5226" p-id="3913"></path><path d="M294.48366 1003.921569l6.692811 6.69281-6.692811-6.69281m13.385621 0l6.692811 6.69281-6.692811-6.69281z" fill="" p-id="3914"></path><path d="M381.490196 1003.921569l6.692811 6.69281-6.692811-6.69281m-153.93464 6.69281l6.69281 6.692811-6.69281-6.692811m20.078431 0l6.69281 6.692811-6.69281-6.692811m113.777778 0l6.69281 6.692811-6.69281-6.692811m33.464052 0l6.69281 6.692811-6.69281-6.692811m-120.470588 6.692811l6.69281 6.69281-6.69281-6.69281m60.235294 0l6.69281 6.69281-6.69281-6.69281z" fill="#BE5226" p-id="3915"></path></svg>