<?xml version="1.0" standalone="no"?><!DOCTYPE svg PUBLIC "-//W3C//DTD SVG 1.1//EN" "http://www.w3.org/Graphics/SVG/1.1/DTD/svg11.dtd"><svg t="1538032879859" class="icon" style="" viewBox="0 0 1166 1024" version="1.1" xmlns="http://www.w3.org/2000/svg" p-id="5426" xmlns:xlink="http://www.w3.org/1999/xlink" width="227.734375" height="200"><defs><style type="text/css"></style></defs><path d="M1.470725 5.854637v169.423781C42.810128 90.114731 81.704988 23.176202 187.030105 13.922436 135.03314-7.892893 57.68715 5.854637 1.470725 5.854637z" fill="#ffffff" p-id="5427"></path><path d="M187.030105 9.396401C121.051644 19.787726 54.839217 48.07343 23.148902 110.736025-8.436532 173.213061 1.470725 252.906781 1.470725 320.498802v403.389955c0 77.337922-0.911661 162.348321 51.553237 225.551459C114.072998 1022.970137 213.210113 1022.397324 299.979292 1022.397324h443.728951c75.780837 0 159.250286 9.721698 233.966174-3.751527 24.881092-4.477629 49.786388-12.20658 72.610191-23.098109 118.645054-56.603678 112.949187-191.957144 112.949188-303.930128V344.702199c0-91.609859 10.060545-200.80752-58.193035-273.45805C1038.594368 0.513754 937.069184 5.854637 848.589631 5.854637H420.996279c-76.385922 0-158.3951-8.35824-233.966174 3.541764z" fill="#FFFFFF" p-id="5428"></path><path d="M977.674417 5.854637c25.784686 14.03797 55.02239 20.290515 80.677991 35.199807C1115.988764 74.568082 1149.429792 134.213321 1155.165997 199.481815c22.638244-53.949373 8.067799-135.272788 8.067799-193.627178h-185.559379z" fill="#ffffff" p-id="5429"></path><path d="M227.3691 17.375454C163.617352 26.532406 95.323432 49.210989 55.024776 102.990938 9.901576 163.208991 9.538525 240.869625 9.538525 312.431003v306.576366c0 104.776507-13.231191 227.665223 60.750527 313.240367C134.29897 1006.310132 233.218255 1014.329524 324.182689 1014.329524h395.322156c80.177787 0 162.969542 6.446171 242.033973-8.842307 233.595055-45.163539 193.627178-313.740571 193.627179-491.361237V368.905596c0-94.312571 5.437697-196.346027-60.74246-272.901372C1030.397484 21.941828 931.478199 13.922436 840.521832 13.922436H445.199676c-71.529107 0-146.938825-6.720477-217.830576 3.453018z" fill="#ffffff" p-id="5430"></path><path d="M283.843694 25.410982C220.398522 33.769222 159.777079 37.496545 106.674826 77.883947 18.655138 144.814409 26.133987 245.629626 25.674123 344.702199c-0.435661 89.762333-4.259798 176.249139-0.322712 266.23737 4.65512 106.204507-19.330447 219.960475 58.289848 306.455349C154.040874 995.846197 256.614872 1006.221386 356.453886 1006.261725c190.440398 0.07261 392.458087 18.943192 580.881535-10.455867 236.273564-36.87791 209.762777-302.56667 209.762777-481.679878V393.108994c0-90.803079 2.01695-200.710706-59.1289-274.272898C1030.599179 49.816074 964.556175 37.754715 880.860827 26.637287 780.739441 13.325419 675.228764 21.990235 574.284462 21.990235 478.963415 21.990235 378.398299 12.962368 283.843694 25.410982z" fill="#ffffff" p-id="5431"></path><path d="M138.62331 70.39703c30.092891 8.350172 58.273713-10.52041 88.74579-14.675327C289.32173 47.274718 350.49985 46.193632 412.92848 46.193632c170.311239 0 347.4317-13.844343 516.339142 9.528071 40.919877 5.663595 72.36009 32.981163 112.949187 38.878724-63.114392-63.735613-159.387439-56.474594-242.033973-56.474594H429.064078c-101.864031 0-194.022501-4.872951-290.440768 32.271197z" fill="#ffffff" p-id="5432"></path><path d="M275.775895 46.193632c51.924355 21.783058 129.480108 8.067799 185.559379 8.0678h419.525553c-51.924355-21.783058-129.480108-8.067799-185.559379-8.0678H275.775895z" fill="#ffffff" p-id="5433"></path><path d="M203.165703 54.261432l8.067799 8.067799-8.067799-8.067799z" fill="#5B4416" p-id="5434"></path><path d="M98.284315 215.617414h24.203397c1.452204-67.825987 36.054994-116.975019 104.881388-132.876652C285.424983 69.307877 353.581749 78.464829 412.92848 78.464829h346.915361c66.115614 0 150.214351-14.142852 209.641759 20.435735C1042.725081 141.514679 1042.216809 213.600464 1042.216809 288.227605c0 136.999297 3.469154 274.506864-0.121017 411.457755-1.83139 70.036564-41.888013 132.094075-112.82817 148.996113-52.981237 12.618038-115.224307 4.292069-169.423781 4.292069H420.996279c-63.388698 0-151.037267 15.482106-209.762777-11.432071C141.689074 809.649461 122.689407 746.051001 122.487712 675.481962h-24.203397c0.008068 76.934532 12.714851 147.350283 88.74579 185.55938 63.85663 32.085637 156.329743 16.135598 225.898375 16.135598h330.779763c60.766663 0 125.446208 6.204138 185.559379-3.549832 81.678398-13.255394 134.877465-75.320972 137.031568-157.80615 3.799933-145.002553 0.121017-290.602124 0.121017-435.661152 0-78.160838 1.016543-154.232115-72.642463-201.937011C934.673047 39.941088 851.260072 54.261432 784.047238 54.261432H388.725082c-60.992561 0-135.296991-11.335258-193.627178 8.947189-74.005921 25.736279-96.765182 80.218126-96.813589 152.408793z" fill="" p-id="5435"></path><path d="M178.962306 62.329231l8.067799 8.067799-8.067799-8.067799z" fill="#5B4416" p-id="5436"></path><path d="M969.606617 62.329231l8.0678 8.067799-8.0678-8.067799M162.826707 70.39703l8.0678 8.067799-8.0678-8.067799z" fill="#4B3411" p-id="5437"></path><path d="M985.742216 70.39703l8.067799 8.067799-8.067799-8.067799z" fill="#83641B" p-id="5438"></path><path d="M224.682523 81.151406c-3.590171 3.590171 4.921357 3.146442 5.373154 2.694645 3.590171-3.590171-4.921357-3.146442-5.373154-2.694645z" fill="#987411" p-id="5439"></path><path d="M240.818121 81.151406c-3.590171 3.590171 4.921357 3.146442 5.373155 2.694645 3.590171-3.590171-4.921357-3.146442-5.373155-2.694645z" fill="#CC9A17" p-id="5440"></path><path d="M122.487712 215.617414h-24.203397v96.813589h24.203397c0 44.865031-18.991599 146.801672 16.135598 177.49158-10.738241-45.115133-2.299323-83.776026-0.322712-129.084786 2.726916-62.122053 0.419526-116.870138 16.45831-177.49158 15.449835 10.302579 8.753562 10.302579 24.203398 0 14.981903-64.598867 151.626216-48.406795 201.694977-48.406794 162.945338 0 329.569593-10.173495 492.135745 0.484067 63.517782 4.171052 137.910958 33.077976 145.220384 104.397321 12.109766 14.618852 9.342511 16.31309-8.067799 24.203397 12.150105 5.510307 18.676955 6.664002 32.271196 8.067799-0.040339-60.137374-3.549832-125.252581-56.821509-164.155508C932.091352 69.009368 854.172548 78.464829 792.115037 78.464829H364.521685c-108.398949 0-235.983124-1.371526-242.033973 137.152585z" fill="#F9BD1D" p-id="5441"></path><path d="M913.132024 78.464829c10.068613 5.526442 12.488953 6.042782 24.203397 8.067799-10.068613-5.526442-12.488953-6.042782-24.203397-8.067799z" fill="#A87F13" p-id="5442"></path><path d="M138.62331 86.532628l8.067799 8.067799-8.067799-8.067799z" fill="#4B3411" p-id="5443"></path><path d="M195.097904 86.532628l8.067799 8.067799-8.067799-8.067799z" fill="#82620F" p-id="5444"></path><path d="M953.471019 86.532628l8.067799 8.067799-8.067799-8.067799z" fill="#987411" p-id="5445"></path><path d="M130.555511 94.600427l8.067799 8.067799-8.067799-8.067799z" fill="#412E0E" p-id="5446"></path><path d="M178.962306 94.600427l8.067799 8.067799-8.067799-8.067799z" fill="#A87F13" p-id="5447"></path><path d="M969.606617 94.600427l8.0678 8.067799-8.0678-8.067799z" fill="#8D6A10" p-id="5448"></path><path d="M1018.013412 94.600427l8.067799 8.067799-8.067799-8.067799z" fill="#83641B" p-id="5449"></path><path d="M90.216516 102.668226v40.338996l-24.203398-8.067799c-32.03723 78.644906-16.135598 165.656119-16.135598 250.101772-14.344547-48.519744-8.067799-102.920913-8.067799-153.288183-20.145294 48.011472-8.067799 117.628511-8.067799 169.423781v379.186558c21.815329-51.996965 8.067799-129.342955 8.067799-185.55938 20.08882 54.957847 2.299323 119.645461 8.737426 177.49158 2.388069 21.395803 22.686651 65.736427 31.601569 24.203398 9.56841 9.56841 12.779394 12.327597 24.203398 16.135598 4.082306-44.816624-8.067799-91.432367-8.067799-137.152585V272.092007c0-34.538248-2.864069-70.577107 1.678102-104.881388 3.719255-28.051737 15.869361-46.66415-9.745901-64.542393z" fill="#ffffff" p-id="5450"></path><path d="M122.487712 102.668226l8.067799 8.067799-8.067799-8.067799z" fill="#412E0E" p-id="5451"></path><path d="M162.826707 102.668226l8.0678 8.067799-8.0678-8.067799z" fill="#654C0B" p-id="5452"></path><path d="M114.419913 110.736025l8.067799 8.067799-8.067799-8.067799z" fill="#83641B" p-id="5453"></path><path d="M154.758908 110.736025l8.067799 8.067799-8.067799-8.067799z" fill="#987411" p-id="5454"></path><path d="M993.810015 110.736025l8.067799 8.067799-8.067799-8.067799z" fill="#59430A" p-id="5455"></path><path d="M1034.14901 110.736025c30.794789 60.266459 32.271196 110.972577 32.271197 177.49158 5.526442-10.068613 6.042782-12.488953 8.067799-24.203397 25.461974 69.64931 7.906443 169.375374 0.669627 242.033973-6.728544 67.656563 7.398172 134.328855 7.398172 201.694978 0 40.258318-1.887865 113.513933-40.338996 137.152584 17.087598 17.216683 27.228822 36.442249 40.338996 56.474594 81.863957-140.783094 48.406795-334.708781 48.406794-492.135745 0-101.839828 4.501832-191.368195-48.406794-282.372969-9.64102 4.824544-7.88224 3.759594-16.135598 16.135599-9.826579-17.087598-15.062581-22.952888-32.271197-32.271197z" fill="#ffffff" p-id="5456"></path><path d="M146.691109 118.803824l8.067799 8.067799-8.067799-8.067799z" fill="#A87F13" p-id="5457"></path><path d="M1001.877814 118.803824l8.067799 8.067799-8.067799-8.067799z" fill="#59430A" p-id="5458"></path><path d="M138.62331 126.871623l8.067799 8.0678-8.067799-8.0678z" fill="#82620F" p-id="5459"></path><path d="M1042.216809 126.871623l8.067799 8.0678-8.067799-8.0678z" fill="#83641B" p-id="5460"></path><path d="M130.555511 134.939423l8.067799 8.067799-8.067799-8.067799z" fill="#3C2D07" p-id="5461"></path><path d="M178.962306 183.346217l-8.067799 8.067799-16.135599-8.067799c-21.508752 59.007883-12.650309 116.095629-16.8617 177.49158-3.065764 44.800488-12.311461 84.986196 0.726102 129.084786-22.444617 19.61282-16.135598 52.360016-16.135598 80.677991h-24.203397v96.813589h24.203397c0.242034 29.996077 1.879797 59.774324 10.528478 88.74579C169.748879 879.282635 329.830149 852.973542 429.064078 852.973542c-62.880426-42.952962-160.670219 10.988342-223.332815-39.1853-36.498723-29.229636-6.946375-84.066467-16.095259-122.170682-15.441767-64.356833-52.021169-107.301728-41.654047-177.814292 5.357019-36.450316 22.315532-69.197513 31.593501-104.558676 7.00285-26.704415 7.390104-54.296288 15.869361-80.677991 12.246919-38.080012 36.660079-72.561785 31.924281-112.949187l-32.271196 16.135598c20.814922-57.136153 99.330743-60.105103 153.288183-63.816291 57.345916-3.953222 112.570001 5.833019 169.423781 7.22068 102.057659 2.501018 204.478368 0.121017 306.576366 0.121017 58.701306 0 148.27808-5.20373 169.423781 64.542393 14.167055 11.512749 22.791532 19.483735 40.338995 24.203397-3.275526-16.877836-1.750712-16.296954-16.135598-24.203397 4.154917-71.876022-77.120092-99.951963-137.152585-104.155287C713.131284 123.886538 540.754689 134.939423 372.589484 134.939423c-50.633507 0-180.032937-16.772954-193.627178 48.406794z" fill="#FABD1D" p-id="5462"></path><path d="M1018.013412 143.007222l8.067799 8.067799-8.067799-8.067799z" fill="#8D6A10" p-id="5463"></path><path d="M1050.284608 143.007222l8.0678 8.067799-8.0678-8.067799z" fill="#4B3411" p-id="5464"></path><path d="M125.174289 164.524042c-0.443729 0.443729-0.887458 8.955257 2.694645 5.373154 0.443729-0.443729 0.887458-8.955257-2.694645-5.373154z" fill="#B88C15" p-id="5465"></path><path d="M1026.081211 159.14282l8.067799 8.067799-8.067799-8.067799z" fill="#987411" p-id="5466"></path><path d="M195.097904 231.753012c13.408682-4.945561 20.032345-8.414714 32.271196-16.135598-1.879797 37.741164-20.468006 69.270123-31.924281 104.881388-8.479257 26.381703-8.874579 53.973576-15.869361 80.677991-12.263055 46.728692-32.601976 87.93901-34.909366 137.152585-2.928611 62.525443 33.045705 103.671218 43.921098 161.355982 6.252544 33.142519-14.44136 79.096702 6.736612 108.802338 32.779468 45.986455 137.612449 24.752008 185.333481 29.189297 24.776211 2.307391 47.833981 12.150105 72.610192 14.457496 121.5898 11.302987 248.97228 0.839051 371.118759 0.839051 66.115614 0 144.816994 2.807594 188.358905-56.821509C1048.84854 746.704493 1042.216809 676.724403 1042.216809 619.007369V272.092007h-32.271196v-32.271196c-20.589023 49.060286 7.494985 114.449798-56.595611 140.46845-75.73243 30.738315-202.130639 19.201362-282.251951 11.456275-69.705784-6.752748-139.99245-29.576552-145.220384 65.905851h161.355982c35.724214 0 88.164909-9.407054 120.540986 8.293697 76.39399 41.758928 40.847267 138.322416-23.727397 166.237C736.156783 652.875989 673.760424 643.210766 622.691256 643.210766H380.657283c-47.906591 0-98.523963 4.43729-145.220384-8.543799-57.765442-16.05492-89.834943-79.185448-67.745309-136.523297C184.343528 454.92447 229.144016 457.667522 267.708096 457.651387c72.892565-0.032271 167.277747 22.702787 209.762776-48.406795-47.664557 8.067799-91.335554 27.551534-137.120313-0.080678C252.347006 356.077796 259.212703 230.889757 356.453886 191.494694c92.92491-37.652418 122.453055 69.899411 201.694977 72.529514 25.437771-52.78761 68.786055-48.406795 121.016987-48.406794 104.913659 0 222.001628-15.288479 322.711964 16.135598-46.551201-62.477036-114.619222-56.474594-185.559379-56.474594-148.09252 0-296.160837-8.769698-443.728951-8.067799-55.861441 0.274305-163.227711-1.395729-177.49158 64.542393z" fill="#FABD1E" p-id="5467"></path><path d="M1058.352408 167.210619l8.067799 8.067799-8.067799-8.067799z" fill="#50370F" p-id="5468"></path><path d="M1034.14901 175.278418l8.067799 8.067799-8.067799-8.067799z" fill="#3C2D07" p-id="5469"></path><path d="M356.453886 183.346217l8.067799 8.067799-8.067799-8.067799z" fill="#AF8414" p-id="5470"></path><path d="M369.902907 186.032794c-3.590171 3.590171 4.921357 3.146442 5.373154 2.694645 3.590171-3.590171-4.921357-3.146442-5.373154-2.694645z" fill="#322605" p-id="5471"></path><path d="M380.657283 187.242964c-151.06147 25.332889-118.919359 255.587875 32.271197 235.160208 152.658895-20.621294 117.588172-260.291402-32.271197-235.160208z" fill="" p-id="5472"></path><path d="M420.996279 183.346217l8.067799 8.067799-8.067799-8.067799z" fill="#5D470A" p-id="5473"></path><path d="M429.064078 183.346217l8.067799 8.067799-8.067799-8.067799z" fill="#AF8414" p-id="5474"></path><path d="M1036.835587 188.727439c-0.443729 0.443729-0.895526 8.955257 2.694645 5.373154 0.443729-0.443729 0.895526-8.955257-2.694645-5.373154z" fill="#A87F13" p-id="5475"></path><path d="M340.318288 191.414016l8.067799 8.067799-8.067799-8.067799m104.881388 0l8.067799 8.067799-8.067799-8.067799z" fill="#73570E" p-id="5476"></path><path d="M324.182689 199.481815l8.0678 8.067799-8.0678-8.067799z" fill="#987311" p-id="5477"></path><path d="M364.521685 199.481815l8.067799 8.067799-8.067799-8.067799z" fill="#767676" p-id="5478"></path><path d="M377.970706 202.168392c-3.590171 3.590171 4.921357 3.146442 5.373154 2.694645 3.590171-3.590171-4.921357-3.146442-5.373154-2.694645z" fill="#DADADA" p-id="5479"></path><path d="M388.725082 204.015918c-128.875023 14.360682-113.304171 210.416268 16.135598 201.170571 130.173938-9.302172 112.061729-215.458643-16.135598-201.170571z" fill="#FFFFFF" p-id="5480"></path><path d="M412.92848 199.481815l8.067799 8.067799-8.067799-8.067799z" fill="#BBBBBB" p-id="5481"></path><path d="M420.996279 199.481815l8.067799 8.067799-8.067799-8.067799z" fill="#767676" p-id="5482"></path><path d="M461.335274 199.481815l8.067799 8.067799-8.067799-8.067799z" fill="#987311" p-id="5483"></path><path d="M316.11489 207.549614l8.067799 8.0678-8.067799-8.0678z" fill="#654C0B" p-id="5484"></path><path d="M340.318288 207.549614l8.067799 8.0678-8.067799-8.0678z" fill="#333333" p-id="5485"></path><path d="M348.386087 207.549614l8.067799 8.0678-8.067799-8.0678m88.74579 0l8.067799 8.0678-8.067799-8.0678z" fill="#BEBEBE" p-id="5486"></path><path d="M445.199676 207.549614l8.067799 8.0678-8.067799-8.0678z" fill="#333333" p-id="5487"></path><path d="M469.403073 207.549614l8.067799 8.0678-8.067799-8.0678z" fill="#654C0B" p-id="5488"></path><path d="M308.047091 215.617414l8.067799 8.067799-8.067799-8.067799z" fill="#453408" p-id="5489"></path><path d="M332.250489 215.617414l8.067799 8.067799-8.067799-8.067799m121.016986 0l8.067799 8.067799-8.067799-8.067799z" fill="#949494" p-id="5490"></path><path d="M477.470872 215.617414l8.067799 8.067799-8.067799-8.067799z" fill="#453408" p-id="5491"></path><path d="M582.352261 215.617414l8.067799 8.067799-8.067799-8.067799z" fill="#84640F" p-id="5492"></path><path d="M591.29945 221.60372c-42.993301 18.499463-35.111062 74.877243 7.543392 87.325858C628.435529 317.562123 664.780964 312.431003 695.301448 312.431003h177.49158c31.069094 0 75.304837 7.47885 103.04193-9.511935 41.879945-25.655601 18.894785-77.67677-22.484956-85.462196C875.084283 202.733138 782.990356 215.617414 703.369247 215.617414c-34.046112 0-80.121313-7.761223-112.069797 5.986306z" fill="" p-id="5493"></path><path d="M969.606617 215.617414l8.0678 8.067799-8.0678-8.067799z" fill="#84640F" p-id="5494"></path><path d="M299.979292 223.685213l8.067799 8.067799-8.067799-8.067799z" fill="#654C0B" p-id="5495"></path><path d="M324.182689 223.685213l8.0678 8.067799-8.0678-8.067799m137.152585 0l8.067799 8.067799-8.067799-8.067799z" fill="#BEBEBE" p-id="5496"></path><path d="M485.538671 223.685213l8.0678 8.067799-8.0678-8.067799z" fill="#654C0B" p-id="5497"></path><path d="M291.911493 231.753012l8.067799 8.067799-8.067799-8.067799z" fill="#987311" p-id="5498"></path><path d="M316.11489 231.753012l8.067799 8.067799-8.067799-8.067799m153.288183 0l8.067799 8.067799-8.067799-8.067799z" fill="#BEBEBE" p-id="5499"></path><path d="M493.606471 231.753012l8.067799 8.067799-8.067799-8.067799z" fill="#987311" p-id="5500"></path><path d="M590.42006 231.753012l8.067799 8.067799-8.067799-8.067799z" fill="#A58109" p-id="5501"></path><path d="M600.359588 237.739319c-29.294179 13.860479-20.750379 46.446319 7.083528 55.054661C634.212073 301.079609 667.604694 296.295405 695.301448 296.295405h177.49158c27.277229 0 69.584767 7.29329 93.191148-9.503868 38.547944-27.438585-10.697902-53.029643-36.748825-54.683542C854.551734 227.372197 778.206152 231.753012 703.369247 231.753012c-30.810925 0-74.417379-7.535324-103.009659 5.986307z" fill="#FEC70F" p-id="5502"></path><path d="M961.538818 231.753012l8.067799 8.067799-8.067799-8.067799z" fill="#A58109" p-id="5503"></path><path d="M308.047091 239.820811l8.067799 8.067799-8.067799-8.067799m169.423781 0l8.067799 8.067799-8.067799-8.067799z" fill="#949494" p-id="5504"></path><path d="M558.148863 239.820811l8.067799 8.067799-8.067799-8.067799m435.661152 0l8.067799 8.067799-8.067799-8.067799z" fill="#84640F" p-id="5505"></path><path d="M283.843694 247.88861l8.067799 8.067799-8.067799-8.067799z" fill="#73570E" p-id="5506"></path><path d="M299.979292 247.88861l8.067799 8.067799-8.067799-8.067799m185.559379 0l8.0678 8.067799-8.0678-8.067799z" fill="#333333" p-id="5507"></path><path d="M501.67427 247.88861l8.067799 8.067799-8.067799-8.067799z" fill="#73570E" p-id="5508"></path><path d="M574.284462 247.88861l8.067799 8.067799-8.067799-8.067799m403.389955 0l8.067799 8.067799-8.067799-8.067799z" fill="#A58109" p-id="5509"></path><path d="M299.979292 255.956409l8.067799 8.067799-8.067799-8.067799m185.559379 0l8.0678 8.067799-8.0678-8.067799z" fill="#BEBEBE" p-id="5510"></path><path d="M275.775895 264.024208l8.067799 8.067799-8.067799-8.067799m233.966174 0l8.067799 8.067799-8.067799-8.067799z" fill="#AF8414" p-id="5511"></path><path d="M517.809868 264.024208c-0.048407 78.338329-35.796825 126.954887-72.610192 193.627179h80.677991c9.64102-86.51101 70.827208-72.327819 137.152585-65.913919 72.666666 7.035121 153.062285 5.647459 225.898374 0.645424 26.793161-1.83139 64.945783-3.186781 86.906332-20.274379 26.373635-20.508345 25.76855-53.683135 26.042856-83.880908-90.254469 49.649236-229.666037 24.203397-330.779763 24.203398-50.197846 0-88.850671 1.597424-112.949188-48.406795h-40.338995z" fill="#FABD1D" p-id="5512"></path><path d="M1074.488006 264.024208c-21.662041 116.660375-8.067799 244.599533-8.067799 363.05096 0 51.553236 9.697495 114.724103-16.8617 161.355982-58.491543 102.735354-164.679915 88.74579-265.511269 88.74579H396.792881c-57.571814 0-130.456311 11.746715-185.559379-6.889901-41.105436-13.900818-70.205988-49.463676-104.881388-73.78809l-8.067799 32.271196c23.79194 0 20.225972 45.058658 40.338995 64.542393 34.473706 33.39262 91.432367 43.961437 137.152585 48.406795 150.044928 14.586581 309.004773 0 459.864549 0 76.563413 0 152.707301-6.978646 225.898374 16.135598 9.689427-8.801969 60.919951-11.746715 32.271197-24.203398a376.919506 376.919506 0 0 1 64.542393-8.067799l8.067799-8.067799c0.677695-29.520077 8.559935-54.909441-24.203398-64.542393 8.059731-12.045224 7.80963-10.213834 8.067799-24.203397 37.039266-30.157433 32.287332-85.542874 32.271197-129.084785-0.024203-59.475815-11.424004-117.88668-7.341697-177.491581 5.163391-75.506532 29.189297-186.882498-0.726102-258.169571z" fill="#ffffff" p-id="5513"></path><path d="M278.462472 277.473229c-0.443729 0.443729-0.887458 8.955257 2.694645 5.373154 0.443729-0.443729 0.887458-8.955257-2.694645-5.373154z" fill="#322605" p-id="5514"></path><path d="M291.911493 272.092007l8.067799 8.067799-8.067799-8.067799z" fill="#767676" p-id="5515"></path><path d="M356.453886 272.092007l8.067799 8.067799-8.067799-8.067799z" fill="#7A7A7A" p-id="5516"></path><path d="M364.521685 272.092007l-8.067799 8.067799 8.067799 16.135599 16.135598-8.0678c-4.396951-13.190852-2.944747-11.738648-16.135598-16.135598z" fill="" p-id="5517"></path><path d="M372.589484 272.092007l8.067799 8.067799-8.067799-8.067799m48.406795 0l8.067799 8.067799-8.067799-8.067799z" fill="#7A7A7A" p-id="5518"></path><path d="M429.064078 272.092007l-8.067799 8.067799 8.067799 16.135599 16.135598-8.0678c-4.396951-13.190852-2.944747-11.738648-16.135598-16.135598z" fill="" p-id="5519"></path><path d="M437.131877 272.092007l8.067799 8.067799-8.067799-8.067799z" fill="#7A7A7A" p-id="5520"></path><path d="M493.606471 272.092007l8.067799 8.067799-8.067799-8.067799z" fill="#767676" p-id="5521"></path><path d="M512.428646 277.473229c-0.443729 0.443729-0.887458 8.955257 2.694645 5.373154 0.443729-0.443729 0.887458-8.955257-2.694645-5.373154z" fill="#322605" p-id="5522"></path><path d="M574.284462 272.092007l8.067799 8.067799-8.067799-8.067799m403.389955 0l8.067799 8.067799-8.067799-8.067799z" fill="#A58109" p-id="5523"></path><path d="M294.59807 285.541028c-0.443729 0.443729-0.887458 8.955257 2.694645 5.373155 0.443729-0.443729 0.887458-8.955257-2.694645-5.373155m201.694978 0c-0.443729 0.443729-0.887458 8.955257 2.694645 5.373155 0.443729-0.443729 0.887458-8.955257-2.694645-5.373155z" fill="#DADADA" p-id="5524"></path><path d="M558.148863 280.159806l8.067799 8.067799-8.067799-8.067799m435.661152 0l8.067799 8.067799-8.067799-8.067799z" fill="#84640F" p-id="5525"></path><path d="M1114.827001 280.159806v467.932348c14.271937-34.005773 8.067799-76.361718 8.067799-112.949187V409.244592c0-40.984419 7.914511-91.004774-8.067799-129.084786z" fill="#ffffff" p-id="5526"></path><path d="M356.453886 288.227605l8.067799 8.0678-8.067799-8.0678m16.135598 0l8.067799 8.0678-8.067799-8.0678m48.406795 0l8.067799 8.0678-8.067799-8.0678m16.135598 0l8.067799 8.0678-8.067799-8.0678z" fill="#7A7A7A" p-id="5527"></path><path d="M590.42006 288.227605l8.067799 8.0678-8.067799-8.0678m371.118758 0l8.067799 8.0678-8.067799-8.0678z" fill="#A58109" p-id="5528"></path><path d="M582.352261 304.363204l8.067799 8.067799-8.067799-8.067799m387.254356 0l8.0678 8.067799-8.0678-8.067799z" fill="#84640F" p-id="5529"></path><path d="M98.284315 312.431003v258.169571h24.203397V312.431003h-24.203397z" fill="" p-id="5530"></path><path d="M316.11489 312.431003l8.067799 8.067799-8.067799-8.067799z" fill="#A2A2A2" p-id="5531"></path><path d="M324.182689 312.431003l8.0678 8.067799-8.0678-8.067799z" fill="#2E2E2E" p-id="5532"></path><path d="M453.267475 312.431003l8.067799 8.067799-8.067799-8.067799z" fill="#1C1C1C" p-id="5533"></path><path d="M461.335274 312.431003l8.067799 8.067799-8.067799-8.067799z" fill="#C2C2C2" p-id="5534"></path><path d="M291.911493 320.498802l8.067799 8.067799-8.067799-8.067799z" fill="#BBBBBB" p-id="5535"></path><path d="M329.563911 323.185379c-3.590171 3.590171 4.921357 3.146442 5.373155 2.694645 3.590171-3.590171-4.921357-3.146442-5.373155-2.694645z" fill="#6D6D6D" p-id="5536"></path><path d="M445.199676 320.498802l8.067799 8.067799-8.067799-8.067799z" fill="#262626" p-id="5537"></path><path d="M453.267475 320.498802l8.067799 8.067799-8.067799-8.067799z" fill="#949494" p-id="5538"></path><path d="M493.606471 320.498802l8.067799 8.067799-8.067799-8.067799z" fill="#BBBBBB" p-id="5539"></path><path d="M275.775895 328.566601l8.067799 8.067799-8.067799-8.067799z" fill="#5F480A" p-id="5540"></path><path d="M291.911493 328.566601l8.067799 8.067799-8.067799-8.067799z" fill="#767676" p-id="5541"></path><path d="M332.250489 328.566601l8.067799 8.067799-8.067799-8.067799z" fill="#2E2E2E" p-id="5542"></path><path d="M340.318288 328.566601l8.067799 8.067799-8.067799-8.067799z" fill="#5A5A5A" p-id="5543"></path><path d="M437.131877 328.566601l8.067799 8.067799-8.067799-8.067799z" fill="#030200" p-id="5544"></path><path d="M445.199676 328.566601l8.067799 8.067799-8.067799-8.067799z" fill="#8A8A8A" p-id="5545"></path><path d="M493.606471 328.566601l8.067799 8.067799-8.067799-8.067799z" fill="#767676" p-id="5546"></path><path d="M509.742069 328.566601l8.067799 8.067799-8.067799-8.067799z" fill="#5F480A" p-id="5547"></path><path d="M275.775895 336.6344l8.067799 8.067799-8.067799-8.067799z" fill="#B18615" p-id="5548"></path><path d="M340.318288 336.6344l8.067799 8.067799-8.067799-8.067799z" fill="#030200" p-id="5549"></path><path d="M348.386087 336.6344v16.135598h16.135598c-4.396951-13.190852-2.944747-11.738648-16.135598-16.135598z" fill="#4D4D4D" p-id="5550"></path><path d="M429.064078 336.6344v16.135598c13.190852-4.396951 11.738648-2.944747 16.135598-16.135598h-16.135598z" fill="#7A7A7A" p-id="5551"></path><path d="M509.742069 336.6344l8.067799 8.067799-8.067799-8.067799z" fill="#B18615" p-id="5552"></path><path d="M299.979292 344.702199l8.067799 8.067799-8.067799-8.067799z" fill="#BEBEBE" p-id="5553"></path><path d="M364.521685 344.702199l8.067799 8.067799-8.067799-8.067799z" fill="#D0D0D0" p-id="5554"></path><path d="M412.92848 344.702199l8.067799 8.067799-8.067799-8.067799z" fill="#A2A2A2" p-id="5555"></path><path d="M420.996279 344.702199l8.067799 8.067799-8.067799-8.067799z" fill="#1C1C1C" p-id="5556"></path><path d="M485.538671 344.702199l8.0678 8.067799-8.0678-8.067799z" fill="#BEBEBE" p-id="5557"></path><path d="M283.843694 352.769998l8.067799 8.067799-8.067799-8.067799z" fill="#75580E" p-id="5558"></path><path d="M299.979292 352.769998l8.067799 8.067799-8.067799-8.067799z" fill="#333333" p-id="5559"></path><path d="M356.453886 352.769998l8.067799 8.067799-8.067799-8.067799z" fill="#979797" p-id="5560"></path><path d="M369.902907 355.456575c-3.590171 3.590171 4.921357 3.146442 5.373154 2.694645 3.590171-3.590171-4.921357-3.146442-5.373154-2.694645z" fill="#3C3C3C" p-id="5561"></path><path d="M380.657283 352.769998v16.135598h24.203397v-16.135598h-24.203397z" fill="#8A8A8A" p-id="5562"></path><path d="M404.86068 352.769998l8.0678 8.067799-8.0678-8.067799z" fill="#1C1C1C" p-id="5563"></path><path d="M412.92848 352.769998l8.067799 8.067799-8.067799-8.067799z" fill="#4D4D4D" p-id="5564"></path><path d="M420.996279 352.769998l8.067799 8.067799-8.067799-8.067799z" fill="#CFCFCF" p-id="5565"></path><path d="M485.538671 352.769998l8.0678 8.067799-8.0678-8.067799z" fill="#333333" p-id="5566"></path><path d="M501.67427 352.769998l8.067799 8.067799-8.067799-8.067799z" fill="#75580E" p-id="5567"></path><path d="M308.047091 360.837797l8.067799 8.067799-8.067799-8.067799z" fill="#949494" p-id="5568"></path><path d="M372.589484 360.837797l8.067799 8.067799-8.067799-8.067799z" fill="#C2C2C2" p-id="5569"></path><path d="M477.470872 360.837797l8.067799 8.067799-8.067799-8.067799z" fill="#949494" p-id="5570"></path><path d="M291.911493 368.905596l8.067799 8.0678-8.067799-8.0678z" fill="#987311" p-id="5571"></path><path d="M316.11489 368.905596l8.067799 8.0678-8.067799-8.0678m153.288183 0l8.067799 8.0678-8.067799-8.0678z" fill="#BEBEBE" p-id="5572"></path><path d="M493.606471 368.905596l8.067799 8.0678-8.067799-8.0678z" fill="#987311" p-id="5573"></path><path d="M299.979292 376.973396l8.067799 8.067799-8.067799-8.067799z" fill="#654C0B" p-id="5574"></path><path d="M324.182689 376.973396l8.0678 8.067799-8.0678-8.067799m137.152585 0l8.067799 8.067799-8.067799-8.067799z" fill="#BEBEBE" p-id="5575"></path><path d="M485.538671 376.973396l8.0678 8.067799-8.0678-8.067799z" fill="#654C0B" p-id="5576"></path><path d="M308.047091 385.041195l8.067799 8.067799-8.067799-8.067799z" fill="#463408" p-id="5577"></path><path d="M332.250489 385.041195l8.067799 8.067799-8.067799-8.067799m121.016986 0l8.067799 8.067799-8.067799-8.067799z" fill="#949494" p-id="5578"></path><path d="M477.470872 385.041195l8.067799 8.067799-8.067799-8.067799z" fill="#463408" p-id="5579"></path><path d="M316.11489 393.108994l8.067799 8.067799-8.067799-8.067799z" fill="#654C0B" p-id="5580"></path><path d="M340.318288 393.108994l8.067799 8.067799-8.067799-8.067799z" fill="#333333" p-id="5581"></path><path d="M348.386087 393.108994l8.067799 8.067799-8.067799-8.067799m88.74579 0l8.067799 8.067799-8.067799-8.067799z" fill="#BEBEBE" p-id="5582"></path><path d="M445.199676 393.108994l8.067799 8.067799-8.067799-8.067799z" fill="#333333" p-id="5583"></path><path d="M469.403073 393.108994l8.067799 8.067799-8.067799-8.067799z" fill="#654C0B" p-id="5584"></path><path d="M41.809721 401.176793v177.49158c17.902446-42.654454 17.902446-134.837126 0-177.49158z" fill="#ffffff" p-id="5585"></path><path d="M324.182689 401.176793l8.0678 8.067799-8.0678-8.067799z" fill="#987311" p-id="5586"></path><path d="M364.521685 401.176793l8.067799 8.067799-8.067799-8.067799z" fill="#767676" p-id="5587"></path><path d="M377.970706 403.86337c-3.590171 3.590171 4.921357 3.146442 5.373154 2.694645 3.590171-3.590171-4.921357-3.146442-5.373154-2.694645z" fill="#DADADA" p-id="5588"></path><path d="M412.92848 401.176793l8.067799 8.067799-8.067799-8.067799z" fill="#BBBBBB" p-id="5589"></path><path d="M420.996279 401.176793l8.067799 8.067799-8.067799-8.067799z" fill="#767676" p-id="5590"></path><path d="M461.335274 401.176793l8.067799 8.067799-8.067799-8.067799z" fill="#987311" p-id="5591"></path><path d="M340.318288 409.244592l8.067799 8.067799-8.067799-8.067799m104.881388 0l8.067799 8.067799-8.067799-8.067799z" fill="#75580E" p-id="5592"></path><path d="M356.453886 417.312391l8.067799 8.067799-8.067799-8.067799z" fill="#B18615" p-id="5593"></path><path d="M369.902907 419.998968c-3.590171 3.590171 4.921357 3.146442 5.373154 2.694645 3.590171-3.590171-4.921357-3.146442-5.373154-2.694645z" fill="#322605" p-id="5594"></path><path d="M420.996279 417.312391l8.067799 8.067799-8.067799-8.067799z" fill="#5F480A" p-id="5595"></path><path d="M429.064078 417.312391l8.067799 8.067799-8.067799-8.067799z" fill="#B18615" p-id="5596"></path><path d="M187.030105 457.651387l8.067799 8.067799-8.067799-8.067799z" fill="#BE9016" p-id="5597"></path><path d="M195.573904 465.945084c-44.776285 24.55838-30.197772 82.122127 15.780615 94.022131C255.324024 571.342811 311.209669 562.532775 356.453886 562.532775h298.508567c44.776285 0 121.759224 14.546242 159.516523-14.054106 42.622183-32.2954 13.933089-80.839347-30.439806-88.987824C737.996241 451.043859 685.555547 457.651387 638.826854 457.651387H356.453886c-45.405573 0-120.081122-14.094445-160.879982 8.293697z" fill="" p-id="5598"></path><path d="M800.182836 457.651387l8.067799 8.067799-8.067799-8.067799z" fill="#463608" p-id="5599"></path><path d="M808.250635 457.651387l8.0678 8.067799-8.0678-8.067799z" fill="#BE9016" p-id="5600"></path><path d="M945.40322 457.651387l8.067799 8.067799-8.067799-8.067799z" fill="#BC8E15" p-id="5601"></path><path d="M953.947019 466.300067c-55.780763 26.785093-15.094852 114.44173 38.983606 86.567485 55.280559-28.495466 15.441767-112.707153-38.983606-86.567485z" fill="" p-id="5602"></path><path d="M985.742216 457.651387l8.067799 8.067799-8.067799-8.067799z" fill="#453408" p-id="5603"></path><path d="M993.810015 457.651387l8.067799 8.067799-8.067799-8.067799z" fill="#BC8E15" p-id="5604"></path><path d="M178.962306 465.719186l8.067799 8.067799-8.067799-8.067799m637.356129 0l8.067799 8.067799-8.067799-8.067799z" fill="#6C520D" p-id="5605"></path><path d="M937.335421 465.719186l8.067799 8.067799-8.067799-8.067799z" fill="#6A500D" p-id="5606"></path><path d="M1001.877814 465.719186l8.067799 8.067799-8.067799-8.067799z" fill="#6C520D" p-id="5607"></path><path d="M170.894507 473.786985l8.067799 8.067799-8.067799-8.067799z" fill="#6A500D" p-id="5608"></path><path d="M195.097904 473.786985l8.067799 8.067799-8.067799-8.067799z" fill="#572F74" p-id="5609"></path><path d="M204.400076 482.080682c-32.101773 19.419192-15.627327 53.691203 15.054513 61.750935C263.270806 555.336298 319.390417 546.397177 364.521685 546.397177h290.440768c39.233707 0 119.201732 15.022242 150.569334-12.932682C859.707058 485.178717 753.187907 473.786985 727.572644 473.786985H356.453886c-41.726657 0-115.256578-13.973428-152.05381 8.293697z" fill="#BE67FC" p-id="5610"></path><path d="M800.182836 473.786985l8.067799 8.067799-8.067799-8.067799z" fill="#572F74" p-id="5611"></path><path d="M824.386234 473.786985l8.067799 8.067799-8.067799-8.067799z" fill="#6C520D" p-id="5612"></path><path d="M929.267622 473.786985l8.067799 8.067799-8.067799-8.067799z" fill="#6A500D" p-id="5613"></path><path d="M953.471019 473.786985l8.067799 8.067799-8.067799-8.067799z" fill="#385876" p-id="5614"></path><path d="M962.732853 483.274716c-34.586655 14.756005-12.295326 68.189038 21.815328 53.634729 34.586655-14.756005 12.295326-68.189038-21.815328-53.634729z" fill="#7AC0FF" p-id="5615"></path><path d="M985.742216 473.786985l8.067799 8.067799-8.067799-8.067799z" fill="#385876" p-id="5616"></path><path d="M1009.945613 473.786985l8.067799 8.067799-8.067799-8.067799z" fill="#6A500D" p-id="5617"></path><path d="M162.826707 481.854784l8.0678 8.067799-8.0678-8.067799z" fill="#BC8E15" p-id="5618"></path><path d="M187.030105 481.854784l8.067799 8.067799-8.067799-8.067799m621.22053 0l8.0678 8.067799-8.0678-8.067799z" fill="#8E4CBC" p-id="5619"></path><path d="M832.454033 481.854784l8.067799 8.067799-8.067799-8.067799z" fill="#BE9016" p-id="5620"></path><path d="M921.199823 481.854784l8.067799 8.067799-8.067799-8.067799z" fill="#BC8E15" p-id="5621"></path><path d="M945.40322 481.854784l8.067799 8.067799-8.067799-8.067799m48.406795 0l8.067799 8.067799-8.067799-8.067799z" fill="#5B8FBF" p-id="5622"></path><path d="M1018.013412 481.854784l8.067799 8.067799-8.067799-8.067799z" fill="#BE9016" p-id="5623"></path><path d="M178.962306 489.922583l8.067799 8.067799-8.067799-8.067799m637.356129 0l8.067799 8.067799-8.067799-8.067799z" fill="#572F74" p-id="5624"></path><path d="M937.335421 489.922583l8.067799 8.067799-8.067799-8.067799m64.542393 0l8.067799 8.067799-8.067799-8.067799z" fill="#385876" p-id="5625"></path><path d="M162.826707 522.193779l8.0678 8.067799-8.0678-8.067799z" fill="#463508" p-id="5626"></path><path d="M178.962306 522.193779l8.067799 8.067799-8.067799-8.067799m637.356129 0l8.067799 8.067799-8.067799-8.067799z" fill="#572F74" p-id="5627"></path><path d="M832.454033 522.193779l8.067799 8.067799-8.067799-8.067799z" fill="#463508" p-id="5628"></path><path d="M840.521832 522.193779c-44.001776 53.400762-105.873728 40.338995-169.423781 40.338996H348.386087c-65.010325 0-127.092039 7.95485-185.55938-24.203397 1.452204 60.331002 28.366382 91.513045 88.745791 101.331556 98.225454 15.98231 207.140742 3.549832 306.576365 3.549832 66.623885 0 144.534621 11.060953 209.762777-3.146442 54.417305-11.859665 110.101254-62.654528 72.610192-117.870545z" fill="#FABD1D" p-id="5629"></path><path d="M921.199823 522.193779l8.067799 8.067799-8.067799-8.067799z" fill="#463508" p-id="5630"></path><path d="M937.335421 522.193779l8.067799 8.067799-8.067799-8.067799m64.542393 0l8.067799 8.067799-8.067799-8.067799z" fill="#385876" p-id="5631"></path><path d="M1018.013412 522.193779l8.067799 8.067799-8.067799-8.067799z" fill="#453408" p-id="5632"></path><path d="M162.826707 530.261578l8.0678 8.0678-8.0678-8.0678z" fill="#BE9016" p-id="5633"></path><path d="M187.030105 530.261578l8.067799 8.0678-8.067799-8.0678m621.22053 0l8.0678 8.0678-8.0678-8.0678z" fill="#8E4CBC" p-id="5634"></path><path d="M921.199823 530.261578l8.067799 8.0678-8.067799-8.0678z" fill="#BC8E15" p-id="5635"></path><path d="M945.40322 530.261578l8.067799 8.0678-8.067799-8.0678m48.406795 0l8.067799 8.0678-8.067799-8.0678z" fill="#5B8FBF" p-id="5636"></path><path d="M1018.013412 530.261578l8.067799 8.0678-8.067799-8.0678z" fill="#BE9016" p-id="5637"></path><path d="M170.894507 538.329378l8.067799 8.067799-8.067799-8.067799z" fill="#6C520D" p-id="5638"></path><path d="M195.097904 538.329378l8.067799 8.067799-8.067799-8.067799m605.084932 0l8.067799 8.067799-8.067799-8.067799z" fill="#572F74" p-id="5639"></path><path d="M824.386234 538.329378l8.067799 8.067799-8.067799-8.067799z" fill="#6C520D" p-id="5640"></path><path d="M929.267622 538.329378l8.067799 8.067799-8.067799-8.067799z" fill="#6A500D" p-id="5641"></path><path d="M953.471019 538.329378l8.067799 8.067799-8.067799-8.067799m32.271197 0l8.067799 8.067799-8.067799-8.067799z" fill="#385876" p-id="5642"></path><path d="M1009.945613 538.329378l8.067799 8.067799-8.067799-8.067799M178.962306 546.397177l8.067799 8.067799-8.067799-8.067799z" fill="#6C520D" p-id="5643"></path><path d="M816.318435 546.397177l8.067799 8.067799-8.067799-8.067799m121.016986 0l8.067799 8.067799-8.067799-8.067799m64.542393 0l8.067799 8.067799-8.067799-8.067799z" fill="#6A500D" p-id="5644"></path><path d="M187.030105 554.464976l8.067799 8.067799-8.067799-8.067799z" fill="#BE9016" p-id="5645"></path><path d="M800.182836 554.464976l8.067799 8.067799-8.067799-8.067799z" fill="#463408" p-id="5646"></path><path d="M808.250635 554.464976l8.0678 8.067799-8.0678-8.067799z" fill="#BE9016" p-id="5647"></path><path d="M985.742216 554.464976l8.067799 8.067799-8.067799-8.067799z" fill="#463508" p-id="5648"></path><path d="M993.810015 554.464976l8.067799 8.067799-8.067799-8.067799z" fill="#BE9016" p-id="5649"></path><path d="M98.284315 667.414163c10.068613 5.526442 12.488953 6.042782 24.203397 8.067799-10.068613-5.526442-12.488953-6.042782-24.203397-8.067799z" fill="#977213" p-id="5650"></path><path d="M509.742069 675.481962l8.067799 8.067799-8.067799-8.067799z" fill="#BC8E15" p-id="5651"></path><path d="M518.285868 684.130643c-55.780763 26.785093-15.094852 114.44173 38.983605 86.567484 55.280559-28.495466 15.441767-112.707153-38.983605-86.567484z" fill="" p-id="5652"></path><path d="M550.081064 675.481962l8.067799 8.067799-8.067799-8.067799z" fill="#453408" p-id="5653"></path><path d="M558.148863 675.481962l8.067799 8.067799-8.067799-8.067799m129.084786 0l8.067799 8.067799-8.067799-8.067799z" fill="#BC8E15" p-id="5654"></path><path d="M695.777448 683.77566c-36.902113 20.250176-35.982384 67.809851 0.40339 88.293993 32.714925 18.426853 127.019429 17.127937 159.597202-1.218238 36.272825-20.427667 37.192554-65.671885 0.40339-85.857518-33.376485-18.313904-126.890344-19.604752-160.403982-1.218237z" fill="" p-id="5655"></path><path d="M848.589631 675.481962l8.067799 8.067799-8.067799-8.067799z" fill="#453408" p-id="5656"></path><path d="M856.65743 675.481962l8.067799 8.067799-8.067799-8.067799z" fill="#BC8E15" p-id="5657"></path><path d="M501.67427 683.549761l8.067799 8.067799-8.067799-8.067799z" fill="#6A500D" p-id="5658"></path><path d="M566.216662 683.549761l8.0678 8.067799-8.0678-8.067799z" fill="#6C520D" p-id="5659"></path><path d="M679.16585 683.549761l8.067799 8.067799-8.067799-8.067799m185.559379 0l8.067799 8.067799-8.067799-8.067799m-371.118758 8.067799l8.067799 8.0678-8.067799-8.0678z" fill="#6A500D" p-id="5660"></path><path d="M517.809868 691.61756l8.067799 8.0678-8.067799-8.0678z" fill="#763852" p-id="5661"></path><path d="M527.071701 701.105292c-34.586655 14.756005-12.295326 68.189038 21.815329 53.634729 34.586655-14.756005 12.295326-68.189038-21.815329-53.634729z" fill="#FF7AB2" p-id="5662"></path><path d="M550.081064 691.61756l8.067799 8.0678-8.067799-8.0678z" fill="#763852" p-id="5663"></path><path d="M574.284462 691.61756l8.067799 8.0678-8.067799-8.0678m96.813589 0l8.067799 8.0678-8.067799-8.0678z" fill="#6A500D" p-id="5664"></path><path d="M695.301448 691.61756l8.067799 8.0678-8.067799-8.0678z" fill="#2F6574" p-id="5665"></path><path d="M704.60362 699.911258c-27.414381 16.579327-20.30665 48.213167 7.309426 59.451611 29.584619 12.029088 107.721254 13.34414 135.442212-3.428814 27.414381-16.579327 20.30665-48.213167-7.309426-59.451612-29.584619-12.029088-107.721254-13.34414-135.442212 3.428815z" fill="#67DBFC" p-id="5666"></path><path d="M848.589631 691.61756l8.067799 8.0678-8.067799-8.0678z" fill="#2F6574" p-id="5667"></path><path d="M872.793028 691.61756l8.067799 8.0678-8.067799-8.0678z" fill="#6A500D" p-id="5668"></path><path d="M485.538671 699.68536l8.0678 8.067799-8.0678-8.067799z" fill="#BC8E15" p-id="5669"></path><path d="M509.742069 699.68536l8.067799 8.067799-8.067799-8.067799m48.406794 0l8.067799 8.067799-8.067799-8.067799z" fill="#BF5B85" p-id="5670"></path><path d="M582.352261 699.68536l8.067799 8.067799-8.067799-8.067799z" fill="#BE9016" p-id="5671"></path><path d="M663.030252 699.68536l8.067799 8.067799-8.067799-8.067799z" fill="#BC8E15" p-id="5672"></path><path d="M687.233649 699.68536l8.067799 8.067799-8.067799-8.067799m169.423781 0l8.067799 8.067799-8.067799-8.067799z" fill="#4DA4BC" p-id="5673"></path><path d="M880.860827 699.68536l8.067799 8.067799-8.067799-8.067799z" fill="#BE9016" p-id="5674"></path><path d="M501.67427 707.753159l8.067799 8.067799-8.067799-8.067799m64.542392 0l8.0678 8.067799-8.0678-8.067799z" fill="#763852" p-id="5675"></path><path d="M679.16585 707.753159l8.067799 8.067799-8.067799-8.067799m185.559379 0l8.067799 8.067799-8.067799-8.067799z" fill="#2F6574" p-id="5676"></path><path d="M122.487712 723.888757v24.203397c5.615188-12.53736 5.615188-11.666037 0-24.203397m911.661298 0v24.203397c5.615188-12.53736 5.615188-11.666037 0-24.203397z" fill="#A87F13" p-id="5677"></path><path d="M485.538671 740.024355l8.0678 8.067799-8.0678-8.067799z" fill="#463508" p-id="5678"></path><path d="M501.67427 740.024355l8.067799 8.067799-8.067799-8.067799m64.542392 0l8.0678 8.067799-8.0678-8.067799z" fill="#763852" p-id="5679"></path><path d="M582.352261 740.024355l8.067799 8.067799-8.067799-8.067799m80.677991 0l8.067799 8.067799-8.067799-8.067799z" fill="#463508" p-id="5680"></path><path d="M679.16585 740.024355l8.067799 8.067799-8.067799-8.067799m185.559379 0l8.067799 8.067799-8.067799-8.067799z" fill="#2F6574" p-id="5681"></path><path d="M880.860827 740.024355l8.067799 8.067799-8.067799-8.067799z" fill="#463508" p-id="5682"></path><path d="M485.538671 748.092154l8.0678 8.067799-8.0678-8.067799z" fill="#BC8E15" p-id="5683"></path><path d="M509.742069 748.092154l8.067799 8.067799-8.067799-8.067799m48.406794 0l8.067799 8.067799-8.067799-8.067799z" fill="#BF5B85" p-id="5684"></path><path d="M663.030252 748.092154l8.067799 8.067799-8.067799-8.067799z" fill="#BC8E15" p-id="5685"></path><path d="M687.233649 748.092154l8.067799 8.067799-8.067799-8.067799m169.423781 0l8.067799 8.067799-8.067799-8.067799z" fill="#4DA4BC" p-id="5686"></path><path d="M880.860827 748.092154l8.067799 8.067799-8.067799-8.067799z" fill="#BC8E15" p-id="5687"></path><path d="M98.284315 756.159953l8.067799 8.067799-8.067799-8.067799z" fill="#704F10" p-id="5688"></path><path d="M493.606471 756.159953l8.067799 8.067799-8.067799-8.067799z" fill="#6A500D" p-id="5689"></path><path d="M517.809868 756.159953l8.067799 8.067799-8.067799-8.067799m32.271196 0l8.067799 8.067799-8.067799-8.067799z" fill="#763852" p-id="5690"></path><path d="M574.284462 756.159953l8.067799 8.067799-8.067799-8.067799z" fill="#6C520D" p-id="5691"></path><path d="M671.098051 756.159953l8.067799 8.067799-8.067799-8.067799z" fill="#6A500D" p-id="5692"></path><path d="M695.301448 756.159953l8.067799 8.067799-8.067799-8.067799m153.288183 0l8.067799 8.067799-8.067799-8.067799z" fill="#2F6574" p-id="5693"></path><path d="M872.793028 756.159953l8.067799 8.067799-8.067799-8.067799z" fill="#6A500D" p-id="5694"></path><path d="M1058.352408 756.159953l8.067799 8.067799-8.067799-8.067799z" fill="#704F10" p-id="5695"></path><path d="M130.555511 764.227752l8.067799 8.067799-8.067799-8.067799z" fill="#987311" p-id="5696"></path><path d="M501.67427 764.227752l8.067799 8.067799-8.067799-8.067799m64.542392 0l8.0678 8.067799-8.0678-8.067799m112.949188 0l8.067799 8.067799-8.067799-8.067799m185.559379 0l8.067799 8.067799-8.067799-8.067799z" fill="#6A500D" p-id="5697"></path><path d="M1026.081211 764.227752l8.067799 8.067799-8.067799-8.067799z" fill="#987311" p-id="5698"></path><path d="M550.081064 772.295551l8.067799 8.0678-8.067799-8.0678z" fill="#463508" p-id="5699"></path><path d="M558.148863 772.295551l8.067799 8.0678-8.067799-8.0678m129.084786 0l8.067799 8.0678-8.067799-8.0678z" fill="#BE9016" p-id="5700"></path><path d="M848.589631 772.295551l8.067799 8.0678-8.067799-8.0678z" fill="#463408" p-id="5701"></path><path d="M856.65743 772.295551l8.067799 8.0678-8.067799-8.0678z" fill="#BE9016" p-id="5702"></path><path d="M106.352114 780.363351l8.067799 8.067799-8.067799-8.067799z" fill="#916918" p-id="5703"></path><path d="M138.62331 780.363351l8.067799 8.067799-8.067799-8.067799m879.390102 0l8.067799 8.067799-8.067799-8.067799z" fill="#8D6A10" p-id="5704"></path><path d="M1050.284608 780.363351l8.0678 8.067799-8.0678-8.067799z" fill="#916918" p-id="5705"></path><path d="M82.148716 796.498949c-7.858036 16.103327-5.954036 14.360682-24.203397 16.135598-6.712409 34.764146 6.801155 58.773916 24.203397 88.74579 9.64102-4.824544 7.88224-3.759594 16.135599-16.135598 11.3998 19.967803 20.371193 28.939195 40.338995 40.338995-12.376004 8.253358-11.311054 6.494578-16.135598 16.135599 86.406128 50.238185 169.343103 48.406795 266.23737 48.406794h363.05096c104.260168 0 197.209281 5.800748 290.440767-48.406794-16.24048-9.883054-29.520077-13.27153-48.406794-16.135599 4.824544 9.64102 3.759594 7.88224 16.135598 16.135599-19.596684 2.831797-34.780282 2.105696-48.406795 16.135598-66.188224-27.93072-147.148588-16.135598-217.830575-16.135598H332.250489c-85.720365-0.137153-206.188742-16.450242-217.830576-121.016987-18.523667 0-18.200955-12.739055-32.271197-24.203397z" fill="#ffffff" p-id="5706"></path><path d="M114.419913 796.498949l8.067799 8.067799-8.067799-8.067799m927.796896 0l8.067799 8.067799-8.067799-8.067799z" fill="#BC8B21" p-id="5707"></path><path d="M122.487712 804.566748l8.067799 8.067799-8.067799-8.067799z" fill="#3F2D0A" p-id="5708"></path><path d="M154.758908 804.566748l8.067799 8.067799-8.067799-8.067799m847.118906 0l8.067799 8.067799-8.067799-8.067799z" fill="#5D470A" p-id="5709"></path><path d="M1034.14901 804.566748l8.067799 8.067799-8.067799-8.067799z" fill="#3F2D0A" p-id="5710"></path><path d="M162.826707 812.634547l8.0678 8.067799-8.0678-8.067799m830.983308 0l8.067799 8.067799-8.067799-8.067799z" fill="#5D470A" p-id="5711"></path><path d="M1.470725 828.770145v193.627179h185.55938c-37.813774-20.580956-79.322601-28.285704-112.602272-58.193035C31.603955 925.712819 24.972224 877.265686 1.470725 828.770145z" fill="#ffffff" p-id="5712"></path><path d="M187.030105 828.770145l8.067799 8.067799-8.067799-8.067799m782.576512 0l8.0678 8.067799-8.0678-8.067799z" fill="#8D6A10" p-id="5713"></path><path d="M1155.165997 828.770145c-8.656748 98.515895-80.403686 171.00507-177.49158 185.559379 51.996965 21.815329 129.342955 8.067799 185.559379 8.0678 0-58.354391 14.570445-139.677806-8.067799-193.627179z" fill="#ffffff" p-id="5714"></path><path d="M203.165703 836.837944l8.067799 8.067799-8.067799-8.067799m750.305316 0l8.067799 8.067799-8.067799-8.067799z" fill="#987311" p-id="5715"></path><path d="M162.826707 844.905743l8.0678 8.067799-8.0678-8.067799z" fill="#3F2D0A" p-id="5716"></path><path d="M219.301301 844.905743l8.067799 8.067799-8.067799-8.067799z" fill="#402F08" p-id="5717"></path><path d="M227.3691 844.905743c10.068613 5.526442 12.488953 6.042782 24.203398 8.067799-10.068613-5.526442-12.488953-6.042782-24.203398-8.067799m685.762924 0c10.068613 5.526442 12.488953 6.042782 24.203397 8.067799-10.068613-5.526442-12.488953-6.042782-24.203397-8.067799z" fill="#AF8414" p-id="5718"></path><path d="M993.810015 844.905743l8.067799 8.067799-8.067799-8.067799z" fill="#3F2D0A" p-id="5719"></path><path d="M187.030105 861.041342l8.067799 8.067799-8.067799-8.067799m782.576512 0l8.0678 8.067799-8.0678-8.067799z" fill="#A57418" p-id="5720"></path><path d="M211.233502 869.109141l8.067799 8.067799-8.067799-8.067799z" fill="#865E17" p-id="5721"></path><path d="M934.648844 871.795718c-3.590171 3.590171 4.929425 3.138374 5.373154 2.694645 3.590171-3.590171-4.929425-3.138374-5.373154-2.694645z" fill="#281D06" p-id="5722"></path><path d="M945.40322 869.109141l8.067799 8.067799-8.067799-8.067799z" fill="#865E17" p-id="5723"></path><path d="M332.250489 949.787132c46.042929 19.322379 111.706746 8.067799 161.355982 8.067799h338.847562c-46.042929-19.322379-111.706746-8.067799-161.355982-8.067799H332.250489z" fill="#ffffff" p-id="5724"></path><path d="M283.843694 973.990529c51.924355 21.791125 129.480108 8.067799 185.559379 8.067799h411.457754c-51.924355-21.791125-129.480108-8.067799-185.559379-8.067799H283.843694z" fill="#ffffff" p-id="5725"></path></svg>