<?xml version="1.0" standalone="no"?><!DOCTYPE svg PUBLIC "-//W3C//DTD SVG 1.1//EN" "http://www.w3.org/Graphics/SVG/1.1/DTD/svg11.dtd"><svg t="1538035531742" class="icon" style="" viewBox="0 0 1091 1024" version="1.1" xmlns="http://www.w3.org/2000/svg" p-id="6510" xmlns:xlink="http://www.w3.org/1999/xlink" width="213.0859375" height="200"><defs><style type="text/css"></style></defs><path d="M0 0v1024h1091.147541V0H0z" fill="#ffffff" p-id="6511"></path><path d="M587.540984 16.786885c71.730361 153.81823 264.897049 322.476066 402.885246 419.672131-17.760525-115.158033-122.66177-189.842885-201.442623-268.590164-61.70859-61.691803-115.795934-127.043148-201.442623-151.081967z" fill="#FFC48B" p-id="6512"></path><path d="M587.540984 50.360656l16.786885 16.786885-16.786885-16.786885m16.786885 16.786885l16.786885 16.786885-16.786885-16.786885z" fill="#624B35" p-id="6513"></path><path d="M537.180328 83.934426c-89.793049 89.776262-247.388328 197.867016-292.041443 318.95082C213.277377 489.337705 235.016393 613.879607 235.016393 705.04918c0 124.357246-20.144262 243.275541 134.295082 251.803279V671.47541l386.098361-16.786885v302.163934c169.849705-2.014426 134.295082-133.33823 134.295082-268.590164 0-77.135738 16.92118-178.44459-10.122492-251.803279C832.629508 309.130492 645.87541 160.49941 537.180328 83.934426z" fill="#FFC48B" p-id="6514"></path><path d="M553.967213 83.934426l16.786885 16.786885-16.786885-16.786885m67.147541 0l16.786885 16.786885-16.786885-16.786885m-50.360656 16.786885l16.786886 16.786886-16.786886-16.786886m67.147541 0l16.786886 16.786886-16.786886-16.786886m-50.360655 16.786886l16.786885 16.786885-16.786885-16.786885m67.147541 0l16.786885 16.786885-16.786885-16.786885m-50.360656 16.786885l16.786885 16.786885-16.786885-16.786885m67.147541 0l16.786885 16.786885-16.786885-16.786885m-50.360656 16.786885l16.786885 16.786885-16.786885-16.786885m67.147541 0l16.786885 16.786885-16.786885-16.786885m-50.360656 16.786885l16.786886 16.786886-16.786886-16.786886m67.147541 0l16.786886 16.786886-16.786886-16.786886m-50.360655 16.786886l16.786885 16.786885-16.786885-16.786885m67.147541 0l16.786885 16.786885-16.786885-16.786885m-50.360656 16.786885l16.786885 16.786885-16.786885-16.786885m67.147541 0l16.786885 16.786885-16.786885-16.786885m-50.360656 16.786885l16.786885 16.786885-16.786885-16.786885m67.147541 0l16.786885 16.786885-16.786885-16.786885m-50.360656 16.786885l16.786886 16.786886-16.786886-16.786886m67.147541 0l16.786886 16.786886-16.786886-16.786886m-50.360655 16.786886l16.786885 16.786885-16.786885-16.786885m67.147541 0l16.786885 16.786885-16.786885-16.786885m-50.360656 16.786885l16.786885 16.786885-16.786885-16.786885m67.147541 0l16.786885 16.786885-16.786885-16.786885m-50.360656 16.786885l16.786885 16.786885-16.786885-16.786885m67.147541 0l16.786885 16.786885-16.786885-16.786885m-50.360656 16.786885l16.786886 16.786886-16.786886-16.786886m67.147541 0l16.786886 16.786886-16.786886-16.786886m-50.360655 16.786886l16.786885 16.786885-16.786885-16.786885m67.147541 0l16.786885 16.786885-16.786885-16.786885m-50.360656 16.786885l16.786885 16.786885-16.786885-16.786885m67.147541 0l16.786885 16.786885-16.786885-16.786885m-50.360656 16.786885l16.786885 16.786885-16.786885-16.786885m67.147541 0l16.786885 16.786885-16.786885-16.786885m-50.360656 16.786885l16.786886 16.786886-16.786886-16.786886m67.147541 0l16.786886 16.786886-16.786886-16.786886m-50.360655 16.786886l16.786885 16.786885-16.786885-16.786885m67.147541 0l16.786885 16.786885-16.786885-16.786885m-50.360656 16.786885l16.786885 16.786885-16.786885-16.786885m67.147541 0l16.786885 16.786885-16.786885-16.786885m16.786885 16.786885l16.786885 16.786885-16.786885-16.786885m16.786885 16.786885l16.786886 16.786886-16.786886-16.786886m-33.57377 33.573771c18.515934 24.458492 25.902164 31.844721 50.360656 50.360656-18.515934-24.458492-25.902164-31.844721-50.360656-50.360656z" fill="#ffffff" p-id="6515"></path><path d="M940.065574 486.819672v470.032787c101.527082-98.304 102.4-372.568131 0-470.032787z" fill="#FFC48B" p-id="6516"></path><path d="M419.672131 721.836066v235.016393h50.360656V721.836066h-50.360656z" fill="#FFC68D" p-id="6517"></path><path d="M872.918033 940.065574l16.786885 16.786885-16.786885-16.786885z" fill="#463726" p-id="6518"></path></svg>