<?xml version="1.0" standalone="no"?><!DOCTYPE svg PUBLIC "-//W3C//DTD SVG 1.1//EN" "http://www.w3.org/Graphics/SVG/1.1/DTD/svg11.dtd"><svg t="1538032854441" class="icon" style="" viewBox="0 0 1170 1024" version="1.1" xmlns="http://www.w3.org/2000/svg" p-id="5297" xmlns:xlink="http://www.w3.org/1999/xlink" width="228.515625" height="200"><defs><style type="text/css"></style></defs><path d="M0 0v1024h1170.285714V0H0z" fill="#ffffff" p-id="5298"></path><path d="M365.714286 11.605333C292.400762 22.137905 243.175619 54.450794 178.793651 87.178159 121.823492 116.134603 67.535238 134.664127 35.783111 195.080127 12.296127 239.746032 19.456 285.062095 14.872381 333.206349 4.494222 442.302984 1.056508 557.332317 13.937778 666.412698c11.548444 97.946413-13.515175 194.811937 61.878857 274.813969C135.371175 1004.422095 226.824127 1015.840508 308.825397 1015.873016h349.460317c63.91873 0 131.779048 6.38781 195.047619-3.567746 108.698413-17.107302 154.875937-73.329778 214.861207-158.971937 38.23746-54.588952 70.013968-103.716571 82.058158-170.666666 15.831365-87.917714 3.779048-187.099429 3.779048-276.317461 0-103.960381 8.687746-214.44673-62.423365-299.966984C974.157206-34.889143 739.441778 8.126984 577.015873 8.126984c-69.428825 0-142.482286-6.404063-211.301587 3.478349z" fill="#ffffff" p-id="5299"></path><path d="M341.333333 53.069206c-43.804444 10.118095-70.168381 41.171302-107.966984 61.545651-46.665143 25.136762-98.97854 26.632127-126.260825 80.457143-18.407619 36.327619-2.616889 75.686603-4.502349 113.753397-5.071238 102.416254-11.329016 206.60419 0.731428 308.825397 9.102222 77.23073-24.974222 146.610794 36.352 210.448254C193.682286 884.297143 261.778286 877.714286 333.206349 877.714286h357.587302c56.99454 0 123.131937 9.110349 178.793651-4.331683 69.997714-16.912254 87.129397-74.451302 125.269333-125.700063 20.325587-27.306667 44.292063-49.265778 57.758476-81.269842C1093.883937 568.287492 1072.761905 437.581206 1072.761905 333.206349c0-76.678095 3.250794-157.500952-50.50108-219.306666C962.21054 44.860952 888.376889 48.761905 804.571429 48.761905H512c-54.775873 0-117.052952-8.086349-170.666667 4.307301z" fill="#1296db" p-id="5300"></path><path d="M284.444444 113.777778c40.391111 16.944762 94.679365 8.126984 138.158731 8.126984h308.825396c54.125714 0 113.192635-7.233016 162.539683 19.642921 87.210667 47.502222 89.396825 128.788317 89.396825 216.039619v349.460317c53.686857-42.154667 56.880762-98.710349 56.888889-162.539682 0.008127-106.105905 11.645968-219.794286-1.503492-325.079366-5.022476-40.155429-25.039238-76.588698-55.734857-102.887619C929.019937 70.298413 863.061333 73.142857 796.444444 73.142857H503.873016c-78.392889 0-150.763683-2.503111-219.428572 40.634921m113.777778 138.15873c-19.29346 31.532698-38.286222 61.927619-48.761905 97.523809 26.038857-24.055873 54.889651-60.68419 48.761905-97.523809m390.98108 14.189714c-61.52127 25.502476-26.095746 132.924952 39.594666 109.64927 72.11073-25.543111 34.442159-140.336762-39.594666-109.64927M503.873016 398.222222c-84.74819 145.204825-178.915556 300.072635-243.809524 455.111111h512c-52.459683-99.604317-113.184508-194.527492-168.358603-292.571428C573.293714 506.71746 548.742095 441.725968 503.873016 398.222222M227.555556 536.380952c-22.779937 37.221587-42.747937 75.654095-63.886223 113.777778-13.848381 24.966095-34.596571 51.907048-37.059047 81.269841-3.770921 44.917841 56.360635 126.082032 107.341206 108.430223 23.617016-8.183873 34.57219-39.822222 45.81181-59.668318 13.783365-24.33219 35.043556-52.443429 36.961523-81.269841 3.250794-48.656254-55.076571-131.039492-89.169269-162.539683m552.63492 0c-25.770667 36.205714-73.354159 101.018413-75.637841 146.285715-2.121143 42.130286 43.032381 95.508317 64.065016 129.869206 8.208254 13.409524 16.010159 28.964571 30.996317 35.888762 39.188317 18.106921 121.530921-12.986921 124.814222-60.139683 3.023238-43.422476-54.889651-109.372952-75.776-146.253206-20.861968-36.847746-37.831111-75.954794-68.461714-105.650794z" fill="#FCD820" p-id="5301"></path><path d="M414.47619 609.52381v24.380952h24.380953v-24.380952h-24.380953m146.285715 0v24.380952h32.507936v-24.380952h-32.507936M398.222222 739.555556c61.68381 61.797587 165.96927 47.754159 235.68254 8.126984-34.799746-5.827048-69.753905 19.837968-105.650794 22.853079-46.461968 3.900952-86.77181-18.635175-130.031746-30.980063z" fill="#256A8A" p-id="5302"></path></svg>