<?xml version="1.0" standalone="no"?><!DOCTYPE svg PUBLIC "-//W3C//DTD SVG 1.1//EN" "http://www.w3.org/Graphics/SVG/1.1/DTD/svg11.dtd"><svg t="1538035486187" class="icon" style="" viewBox="0 0 1040 1024" version="1.1" xmlns="http://www.w3.org/2000/svg" p-id="6260" xmlns:xlink="http://www.w3.org/1999/xlink" width="203.125" height="200"><defs><style type="text/css"></style></defs><path d="M0 999.225806c0-46.245161 47.896774-118.916129 113.96129-175.070967 178.374194-153.6 530.167742-171.767742 756.43871-37.987097 79.277419 46.245161 153.6 143.690323 153.6 199.845161v37.987097H512C61.109677 1024 0 1020.696774 0 999.225806z m924.903226-74.32258c-28.077419-52.851613-132.129032-112.309677-247.741936-142.03871-201.496774-51.2-429.419355-1.651613-546.683871 118.916129l-54.503225 56.154839h432.72258c429.419355 0 434.374194 0 416.206452-33.032258zM386.477419 579.716129c-37.987097-16.516129-89.187097-59.458065-115.612903-94.141935-42.941935-54.503226-47.896774-75.974194-47.896774-180.025807 0-105.703226 4.954839-125.522581 47.896774-180.025806C447.587097-107.354839 815.896774 13.212903 815.896774 305.548387c0 222.967742-227.922581 369.96129-429.419355 274.167742z m241.135484-69.367742c77.625806-42.941935 120.567742-117.264516 120.567742-204.8 0-239.483871-310.503226-323.716129-434.374193-118.916129-69.367742 112.309677-23.122581 267.56129 99.096774 328.670968 75.974194 39.63871 138.735484 37.987097 214.709677-4.954839z" fill="" p-id="6261"></path></svg>