<?xml version="1.0" standalone="no"?><!DOCTYPE svg PUBLIC "-//W3C//DTD SVG 1.1//EN" "http://www.w3.org/Graphics/SVG/1.1/DTD/svg11.dtd"><svg t="1538035557740" class="icon" style="" viewBox="0 0 1030 1024" version="1.1" xmlns="http://www.w3.org/2000/svg" p-id="6642" xmlns:xlink="http://www.w3.org/1999/xlink" width="201.171875" height="200"><defs><style type="text/css"></style></defs><path d="M0 13.932253v1005.423663h1021.640173V13.932253H648.660428c36.3412 27.535635 76.704096 50.595513 108.180342 84.131257C873.259101 222.071168 824.204156 350.522149 762.176002 484.211063c6.875801-76.866261 42.925104-147.97566 26.092366-227.03115C718.926568-68.398972 243.199011 13.932253 0 13.932253z" fill="#ffffff" p-id="6643"></path><path d="M470.27881 13.932253c20.238205 11.10831 25.103159 12.146167 48.649532 16.216511-20.238205-11.10831-25.103159-12.146167-48.649532-16.216511z" fill="#5C4832" p-id="6644"></path><path d="M518.928342 13.932253c20.238205 11.10831 25.103159 12.146167 48.649532 16.216511-20.238205-11.10831-25.103159-12.146167-48.649532-16.216511z" fill="#B58B62" p-id="6645"></path><path d="M567.577874 13.932253c170.451744 115.348041 254.258671 208.187564 210.814639 421.629278C938.076494 265.855747 768.013946 23.224314 567.577874 13.932253z" fill="#FFC48B" p-id="6646"></path><path d="M583.794385 30.148764l16.21651 16.21651-16.21651-16.21651z" fill="#644C36" p-id="6647"></path><path d="M600.010895 30.148764l16.216511 16.21651-16.216511-16.21651z" fill="#B18860" p-id="6648"></path><path d="M632.443917 46.365274l16.216511 16.216511-16.216511-16.216511z" fill="#9D7855" p-id="6649"></path><path d="M464.878712 67.981883c-7.216347 7.216347 9.892072 6.324439 10.800196 5.416315 7.216347-7.216347-9.892072-6.324439-10.800196-5.416315z" fill="#ffffff" p-id="6650"></path><path d="M497.311733 67.981883c-7.216347 7.216347 9.892072 6.324439 10.800196 5.416315 7.216347-7.216347-9.892072-6.324439-10.800196-5.416315z" fill="#ffffff" p-id="6651"></path><path d="M529.744755 67.981883c-7.216347 7.216347 9.892072 6.324439 10.800196 5.416315 7.216347-7.216347-9.892072-6.324439-10.800196-5.416315z" fill="#ffffff" p-id="6652"></path><path d="M664.876938 62.581785l16.216511 16.216511-16.216511-16.216511z" fill="#C19468" p-id="6653"></path><path d="M405.412767 78.798296l16.216511 16.21651-16.216511-16.21651z" fill="#58432F" p-id="6654"></path><path d="M421.629278 78.798296l16.216511 16.21651-16.216511-16.21651z" fill="#AC845D" p-id="6655"></path><path d="M437.845789 87.847109c-268.90218 70.817502-131.288871 512.766068 129.732085 452.52173 304.383906-70.249924 171.732848-531.901551-129.732085-452.52173z" fill="#FFC48B" p-id="6656"></path><path d="M583.794385 78.798296l16.21651 16.21651-16.21651-16.21651z" fill="#7C5F43" p-id="6657"></path><path d="M681.093449 78.798296l16.216511 16.21651-16.216511-16.21651z" fill="#977452" p-id="6658"></path><path d="M372.979746 95.014806l16.216511 16.216511-16.216511-16.216511z" fill="#4F3C2B" p-id="6659"></path><path d="M616.227406 95.014806l16.216511 16.216511-16.216511-16.216511z" fill="#866749" p-id="6660"></path><path d="M697.30996 95.014806l16.21651 16.216511-16.21651-16.216511z" fill="#6B523A" p-id="6661"></path><path d="M356.763235 111.231317l16.216511 16.216511-16.216511-16.216511z" fill="#AC845D" p-id="6662"></path><path d="M648.660428 111.231317l16.21651 16.216511-16.21651-16.216511z" fill="#382A1D" p-id="6663"></path><path d="M713.52647 111.231317l16.216511 16.216511-16.216511-16.216511z" fill="#765A40" p-id="6664"></path><path d="M664.876938 127.447828l16.216511 16.21651-16.216511-16.21651z" fill="#5D4732" p-id="6665"></path><path d="M729.742981 127.447828l16.216511 16.21651-16.216511-16.21651z" fill="#A57E59" p-id="6666"></path><path d="M681.093449 143.664338l16.216511 16.216511-16.216511-16.216511z" fill="#503D2B" p-id="6667"></path><path d="M308.113703 159.880849l16.216511 16.216511-16.216511-16.216511z" fill="#6C523B" p-id="6668"></path><path d="M745.959492 159.880849l16.21651 16.216511-16.21651-16.216511z" fill="#483727" p-id="6669"></path><path d="M762.176002 176.09736l16.216511 16.216511-16.216511-16.216511z" fill="#C19468" p-id="6670"></path><path d="M291.897192 192.313871l16.216511 16.21651-16.216511-16.21651z" fill="#554931" p-id="6671"></path><path d="M713.52647 192.313871l16.216511 16.21651-16.216511-16.21651z" fill="#644C36" p-id="6672"></path><path d="M762.176002 192.313871l16.216511 16.21651-16.216511-16.21651z" fill="#3E2F21" p-id="6673"></path><path d="M729.742981 224.746892l16.216511 16.216511-16.216511-16.216511z" fill="#483727" p-id="6674"></path><path d="M778.392513 224.746892l16.216511 16.216511-16.216511-16.216511m-48.649532 16.216511l16.216511 16.21651-16.216511-16.21651z" fill="#977452" p-id="6675"></path><path d="M745.959492 289.612935v48.649532c11.286691-25.200458 11.286691-23.449074 0-48.649532z" fill="#ffffff" p-id="6676"></path><path d="M794.609024 289.612935v48.649532c11.286691-25.200458 11.286691-23.449074 0-48.649532z" fill="#D3A272" p-id="6677"></path><path d="M729.742981 370.695488l16.216511 16.216511-16.216511-16.216511z" fill="#977452" p-id="6678"></path><path d="M778.392513 370.695488l16.216511 16.216511-16.216511-16.216511m-48.649532 16.216511l16.216511 16.216511-16.216511-16.216511z" fill="#483727" p-id="6679"></path><path d="M778.392513 386.911999l16.216511 16.216511-16.216511-16.216511z" fill="#977452" p-id="6680"></path><path d="M713.52647 419.34502l16.216511 16.216511-16.216511-16.216511z" fill="#644C36" p-id="6681"></path><path d="M762.176002 419.34502l16.216511 16.216511-16.216511-16.216511z" fill="#3E2F21" p-id="6682"></path><path d="M762.176002 435.561531l16.216511 16.216511-16.216511-16.216511z" fill="#A9825C" p-id="6683"></path><path d="M751.35959 462.594454c-0.891908 0.891908-1.783816 18.000327 5.416314 10.800196 0.891908-0.891908 1.783816-18.000327-5.416314-10.800196z" fill="#ffffff" p-id="6684"></path><path d="M762.176002 451.778042l16.216511 16.21651-16.216511-16.21651z" fill="#FFDE99" p-id="6685"></path><path d="M681.093449 467.994552l16.216511 16.216511-16.216511-16.216511z" fill="#503D2B" p-id="6686"></path><path d="M664.876938 484.211063l16.216511 16.216511-16.216511-16.216511z" fill="#5D4732" p-id="6687"></path><path d="M648.660428 500.427574l16.21651 16.21651-16.21651-16.21651z" fill="#382A1D" p-id="6688"></path><path d="M616.227406 516.644084l16.216511 16.216511-16.216511-16.216511z" fill="#866749" p-id="6689"></path><path d="M567.577874 532.860595l16.216511 16.216511-16.216511-16.216511z" fill="#C89B6D" p-id="6690"></path><path d="M583.794385 532.860595l16.21651 16.216511-16.21651-16.216511z" fill="#6F563D" p-id="6691"></path><path d="M405.412767 678.809191c102.909977 43.184568 230.760947 24.21125 340.546725 65.936333C851.155996 784.703006 911.919262 868.52615 1005.423663 922.056852c-100.639665-256.49655-369.639145-243.24766-600.010896-243.247661z" fill="#FFC58C" p-id="6692"></path><path d="M340.546724 695.025702c24.422065 11.075877 37.541222 13.394838 64.866043 16.216511-24.422065-11.075877-37.541222-13.394838-64.866043-16.216511z" fill="#FFC58D" p-id="6693"></path><path d="M405.412767 695.025702c20.238205 11.10831 25.103159 12.146167 48.649532 16.216511-20.238205-11.10831-25.103159-12.146167-48.649532-16.216511z" fill="#C6986B" p-id="6694"></path><path d="M454.062299 695.025702c28.687007 12.632662 49.233326 14.789458 81.082554 16.216511-28.687007-12.632662-49.233326-14.789458-81.082554-16.216511z" fill="#ffffff" p-id="6695"></path><path d="M535.144853 695.025702c24.422065 11.075877 37.541222 13.394838 64.866042 16.216511-24.422065-11.075877-37.541222-13.394838-64.866042-16.216511z" fill="#CD9E70" p-id="6696"></path><path d="M302.713605 716.642311c-7.216347 7.216347 9.892072 6.324439 10.800196 5.416314 7.216347-7.216347-9.892072-6.324439-10.800196-5.416314z" fill="#EFBA84" p-id="6697"></path><path d="M324.330214 711.242213c20.238205 11.10831 25.103159 12.146167 48.649532 16.21651-20.238205-11.10831-25.103159-12.146167-48.649532-16.21651z" fill="#8F6E4E" p-id="6698"></path><path d="M632.443917 711.242213c20.238205 11.10831 25.103159 12.146167 48.649532 16.21651-20.238205-11.10831-25.103159-12.146167-48.649532-16.21651z" fill="#ffffff" p-id="6699"></path><path d="M259.464171 727.458723c20.238205 11.10831 25.103159 12.146167 48.649532 16.216511-20.238205-11.10831-25.103159-12.146167-48.649532-16.216511z" fill="#73593D" p-id="6700"></path><path d="M697.30996 727.458723l16.21651 16.216511-16.21651-16.216511z" fill="#382A1D" p-id="6701"></path><path d="M713.52647 727.458723l16.216511 16.216511-16.216511-16.216511z" fill="#866749" p-id="6702"></path><path d="M421.629278 743.675234c46.865716 19.670627 95.255784 16.184078 145.948596 16.216511-46.865716-19.670627-95.255784-16.184078-145.948596-16.216511z" fill="#ffffff" p-id="6703"></path><path d="M578.394287 749.075332c-7.216347 7.216347 9.892072 6.324439 10.800196 5.416315 7.216347-7.216347-9.892072-6.324439-10.800196-5.416315z" fill="#ffffff" p-id="6704"></path><path d="M762.176002 743.675234l16.216511 16.216511-16.216511-16.216511z" fill="#8B6A4B" p-id="6705"></path><path d="M351.363137 765.291843c-7.216347 7.216347 9.892072 6.324439 10.800196 5.416314 7.216347-7.216347-9.892072-6.324439-10.800196-5.416314z" fill="#937050" p-id="6706"></path><path d="M113.515575 922.056852h794.609024c-125.256329-168.603062-392.050362-195.295438-583.794385-143.370171C237.636748 802.168188 155.370389 840.179689 113.515575 922.056852z" fill="#FFC48B" p-id="6707"></path><path d="M643.260329 765.291843c-7.216347 7.216347 9.892072 6.324439 10.800197 5.416314 7.216347-7.216347-9.892072-6.324439-10.800197-5.416314z" fill="#ffffff" p-id="6708"></path><path d="M664.876938 759.891745l16.216511 16.21651-16.216511-16.21651z" fill="#3E2F21" p-id="6709"></path><path d="M794.609024 759.891745l16.21651 16.21651-16.21651-16.21651z" fill="#7C5F43" p-id="6710"></path><path d="M275.680682 776.108255l16.21651 16.216511-16.21651-16.216511z" fill="#382A1D" p-id="6711"></path><path d="M291.897192 776.108255l16.216511 16.216511-16.216511-16.216511z" fill="#866749" p-id="6712"></path><path d="M697.30996 776.108255l16.21651 16.216511-16.21651-16.216511z" fill="#A57E59" p-id="6713"></path><path d="M713.52647 776.108255l16.216511 16.216511-16.216511-16.216511z" fill="#58432F" p-id="6714"></path><path d="M827.042045 776.108255l16.216511 16.216511-16.216511-16.216511z" fill="#765A40" p-id="6715"></path><path d="M243.24766 792.324766l16.216511 16.216511-16.216511-16.216511z" fill="#6B523A" p-id="6716"></path><path d="M745.959492 792.324766l16.21651 16.216511-16.21651-16.216511z" fill="#9B7653" p-id="6717"></path><path d="M859.475066 792.324766l16.216511 16.216511-16.216511-16.216511z" fill="#C6986B" p-id="6718"></path><path d="M210.814639 808.541277l16.216511 16.21651-16.216511-16.21651z" fill="#826346" p-id="6719"></path><path d="M778.392513 808.541277l16.216511 16.21651-16.216511-16.21651z" fill="#B18860" p-id="6720"></path><path d="M794.609024 808.541277l16.21651 16.21651-16.21651-16.21651z" fill="#382A1D" p-id="6721"></path><path d="M875.691577 808.541277l16.216511 16.21651-16.216511-16.21651z" fill="#765A40" p-id="6722"></path><path d="M178.381618 824.757787l16.21651 16.216511-16.21651-16.216511z" fill="#58432F" p-id="6723"></path><path d="M810.825534 824.757787l16.216511 16.216511-16.216511-16.216511z" fill="#9B7653" p-id="6724"></path><path d="M891.908088 824.757787l16.216511 16.216511-16.216511-16.216511z" fill="#443425" p-id="6725"></path><path d="M162.165107 840.974298l16.216511 16.216511-16.216511-16.216511z" fill="#B18860" p-id="6726"></path><path d="M843.258556 840.974298l16.21651 16.216511-16.21651-16.216511z" fill="#503D2B" p-id="6727"></path><path d="M908.124599 840.974298l16.21651 16.216511-16.21651-16.216511z" fill="#3E2F21" p-id="6728"></path><path d="M859.475066 857.190809l16.216511 16.21651-16.216511-16.21651z" fill="#826346" p-id="6729"></path><path d="M924.341109 857.190809l16.216511 16.21651-16.216511-16.21651z" fill="#382A1D" p-id="6730"></path><path d="M875.691577 873.407319l16.216511 16.216511-16.216511-16.216511z" fill="#937050" p-id="6731"></path><path d="M940.55762 873.407319l16.216511 16.216511-16.216511-16.216511z" fill="#5D4732" p-id="6732"></path><path d="M891.908088 889.62383l16.216511 16.216511-16.216511-16.216511z" fill="#9D7855" p-id="6733"></path><path d="M956.774131 889.62383l16.21651 16.216511-16.21651-16.216511z" fill="#B18860" p-id="6734"></path><path d="M97.299064 905.840341l16.216511 16.216511-16.216511-16.216511z" fill="#554931" p-id="6735"></path><path d="M908.124599 905.840341l16.21651 16.216511-16.21651-16.216511z" fill="#5D4732" p-id="6736"></path></svg>