<?xml version="1.0" standalone="no"?><!DOCTYPE svg PUBLIC "-//W3C//DTD SVG 1.1//EN" "http://www.w3.org/Graphics/SVG/1.1/DTD/svg11.dtd"><svg t="1538032789049" class="icon" style="" viewBox="0 0 1057 1024" version="1.1" xmlns="http://www.w3.org/2000/svg" p-id="4379" xmlns:xlink="http://www.w3.org/1999/xlink" width="206.4453125" height="200"><defs><style type="text/css"></style></defs><path d="M9.433942 3.186278v348.184526c28.915142-32.01715 50.890334-62.514949 94.959416-73.751814 55.709524-14.196433 149.885525-2.864609 194.745935-41.497264C377.029754 169.032898 362.841235 18.174039 492.144306 11.099563c-45.161116-18.952317-109.567339-7.913285-158.265693-7.913285H9.433942z" fill="#ffffff" p-id="4380"></path><path d="M492.144306 6.573164c-130.252666 18.91275-115.272818 146.949696-193.005013 223.700644-53.177273 52.488817-160.726725 25.045546-226.367421 55.044808C-15.176374 325.510189-11.520436 491.570468 42.859656 557.116205c34.343655 41.394392 103.482024 81.578052 119.356073 134.525839 7.343528 24.499529-3.442279 54.617491-6.955777 79.132847-8.847052 61.79484-21.310476 172.549172 29.959695 218.256304 71.322435 63.591156 194.595583 19.071016 267.358236-13.856161 22.465815-10.160658 45.920791-29.722297 71.219562-31.178342 42.28068-2.437292 89.230198 38.727615 126.612555 54.886542 50.668762 21.903972 119.910003 24.38083 174.092262 14.600011 108.119208-19.529987 95.038549-159.175721 84.782932-242.708354-3.339406-27.15048-16.135187-60.568281-4.724231-87.046132 23.019745-53.398845 87.797893-88.486349 122.371034-134.525839 49.719168-66.210453 47.028651-224.610672-36.28241-262.689398-65.474517-29.928043-173.712425-4.26526-226.367421-56.239714-55.574998-54.870716-57.038956-156.01832-123.249409-202.17651C616.881412 11.265742 584.120414 7.26162 555.450584 4.531537c-21.207603-2.017888-42.25694-1.0129-63.306278 2.041627z" fill="#FFD600" p-id="4381"></path><path d="M571.277153 3.186278c36.266584 16.459632 68.726877 21.12847 94.128521 56.128928 37.239918 51.317651 51.642096 145.707311 105.389125 181.760236 22.014758 14.766189 52.077326 14.916542 77.447317 18.675352 78.238645 11.577135 157.189487 13.547543 197.832117 91.62001 14.837409-35.364469 7.913285-80.644284 7.913284-118.69927V3.186278H571.277153z" fill="#ffffff" p-id="4382"></path><path d="M492.144306 39.975139C392.516052 70.06936 394.810905 182.469656 330.792432 245.380269 300.943522 274.706902 254.22349 275.561536 215.179343 281.179969 146.666124 291.047835 71.869758 312.097172 43.80925 383.023942c-49.568815 125.291036 98.694486 175.089336 139.036412 269.170378 37.722628 87.964072-45.398514 193.187019 15.557518 282.179818 56.192234 82.044935 166.060279 46.474721 238.348134 9.630467 29.192107-14.876975 60.615761-37.92046 94.959416-35.269509 97.357141 7.509707 162.348948 107.937203 269.051678 75.872573 16.135187-4.850843 32.563166-11.711661 45.992011-22.078064 99.873566-77.059566 5.547213-201.361442 30.703544-294.627415 11.458436-42.478512 51.713315-66.724816 81.253607-95.671611 44.409354-43.507239 77.858808-101.408743 70.064223-165.466783-18.176815-149.426554-187.750592-90.55963-275.144908-148.310781C661.575644 197.639422 679.238096 40.31541 539.624014 35.187601c-15.858222-0.585583-32.207069 0.174092-47.479708 4.787538z" fill="#FFC700" p-id="4383"></path><path d="M325.965328 873.647591c0-14.220173-0.110786-12.036106-7.913284-23.739854-44.686318-4.708404-51.41261-38.434824-44.907891-79.132846 9.036971-56.556245 43.625938-141.362917 24.190911-197.832117-17.749498-51.562963-84.403094-96.518333-121.682578-134.525839-15.399252-15.699957-43.459759-37.809674-40.231139-62.839394 4.827104-37.279484 68.267907-36.187451 95.584565-40.674283 45.976184-7.54136 140.468716-2.16824 171.306787-41.410219 34.581054-43.997863 54.348439-106.117147 79.995394-155.773008 9.978652-19.324241 23.439149-51.562963 49.616295-51.562963 26.786469 0 42.438946 31.550266 53.09814 51.562963 25.686522 48.20773 45.612173 124.293962 86.254803 161.51014 36.321977 33.259535 129.762042 30.513626 176.964785 35.918399 25.623216 2.927915 57.909417 4.874583 75.753874 26.533243 27.506577 33.378235-22.901046 71.243302-44.108648 92.561691-34.391135 34.581054-112.289509 82.670085-116.807995 134.525839-4.708404 54.031908 16.855296 120.89125 26.691509 174.092263 4.589705 24.808147 14.505051 56.041882-7.470141 75.785527-25.39373 22.814-60.813593-2.555991-84.411007-15.834482-48.904099-27.522404-116.50729-78.990408-174.092263-67.86433 30.505712 30.830157 72.960485 45.287728 110.785985 65.751483 30.782677 16.641638 60.932292 38.308211 94.959416 47.907025 33.845119 9.543421 74.408616 4.209867 84.529707-34.676013 20.368795-78.214906-53.430498-170.080227-25.528256-244.852854 8.934098-23.937686 33.845119-39.637643 51.784535-56.413807A1864.686398 1864.686398 0 0 0 927.026778 446.33022c21.698227-23.146358 46.925778-52.54421 33.916338-86.587161-11.44261-29.967609-45.145289-36.757207-73.134577-42.676344-41.093687-8.6967-84.806672-15.612911-126.612554-19.743646-27.12674-2.682604-53.762856 0.910028-74.938806-19.688252C648.162627 240.600645 622.262446 170.473116 602.305142 121.885548c-15.051067-36.646421-31.091295-74.171217-78.483957-69.700211-35.008371 3.307753-50.819114 33.726419-65.260859 61.786927-24.88728 48.358083-44.773365 115.945447-82.250681 155.780922-15.478385 16.443806-36.867993 20.590367-58.265515 24.040558-60.599934 9.796646-257.316277 5.792524-212.210554 112.970052 5.001196 11.885754 14.726623 22.16511 23.15427 31.653139 14.702883 16.554592 30.972596 31.835144 46.61716 47.479708 28.337472 28.337472 76.703468 59.476248 94.429226 95.671611 25.99514 53.0744-18.572479 149.877612-26.422457 205.033206-5.183201 36.432763 2.136587 73.69642 42.707997 84.529707 12.661255 3.378973 26.699422 2.366072 39.637643 2.516424z" fill="" p-id="4384"></path><path d="M555.450584 50.665986l7.913284 7.913285-7.913284-7.913285z" fill="#413500" p-id="4385"></path><path d="M529.075606 77.040964c-3.521412 3.521412 4.827104 3.086181 5.270247 2.643037 3.521412-3.521412-4.827104-3.086181-5.270247-2.643037z" fill="#4A3A00" p-id="4386"></path><path d="M507.970876 82.319125l7.913284 7.913285-7.913284-7.913285z" fill="#B79000" p-id="4387"></path><path d="M405.098175 303.891096c50.621282-50.091092 83.50098-140.223404 110.785985-205.745402h15.82657c20.273835 48.698354 46.743773 94.524185 68.774357 142.439124 16.340933 35.538561 23.969339 64.414137 65.751482 71.219562-17.456706-60.599934-52.54421-117.971248-81.095341-174.092262-9.852039-19.371721-21.096817-48.967406-46.221496-51.705402-26.881428-2.927915-41.821709 23.842727-52.61543 43.831683C456.645311 184.780335 422.396615 243.845092 405.098175 303.891096z" fill="#FDC600" p-id="4388"></path><path d="M500.057591 90.23241l7.913285 7.913284-7.913285-7.913284z" fill="#554400" p-id="4389"></path><path d="M515.88416 98.145694c-35.103331 60.140963-62.958093 176.070584-126.952826 210.042315-43.206534 22.932699-109.860131 20.914811-157.925422 28.424519-23.87438 3.727157-55.899443 9.15567-67.959288 33.299101-16.048141 32.127936 16.380499 63.448716 36.456502 84.331875 34.264523 35.657261 115.328211 90.148139 120.590545 142.755656 5.39686 54.008168-21.405435 111.972978-25.077199 165.862446-1.139513 16.81573-5.634259 51.594616 11.980713 62.040152 19.308415 11.434696 49.948653-12.012366 66.447851-20.432101 50.565889-25.813135 100.24549-63.773161 158.265694-49.521336v-15.826569c29.714384 12.368464 58.257602 27.118827 87.046131 41.521005a1995.872831 1995.872831 0 0 1 55.392993 28.566957c10.168571 5.49182 20.5508 12.732475 31.653138 16.222234 31.938017 10.041958 53.929035-4.415613 53.588764-38.870054-0.53019-53.216839-23.114705-105.302079-28.527391-158.218214-1.677616-16.380499-4.368133-36.416936 2.255286-52.045673 20.811939-49.062365 86.444722-91.865322 122.885397-129.967787 19.893998-20.811939 46.450981-47.226483 30.236661-78.08038-13.713722-26.082186-43.554719-29.912216-69.652731-33.734333-49.89326-7.296048-129.026106-3.774637-172.39882-30.727284-24.365003-15.138114-32.412814-46.553854-43.705071-71.116689-20.938551-45.564693-43.507239-91.240172-68.774357-134.52584h-15.82657z" fill="#FFEC23" p-id="4390"></path><path d="M563.363868 98.145694l7.913285 7.913285-7.913285-7.913285z" fill="#7C6100" p-id="4391"></path><path d="M492.144306 106.058979l7.913285 7.913285-7.913285-7.913285z" fill="#947300" p-id="4392"></path><path d="M597.652131 111.33714c-0.435231 0.435231-0.870461 8.783746 2.643037 5.270247 0.435231-0.435231 0.870461-8.783746-2.643037-5.270247z" fill="#241C00" p-id="4393"></path><path d="M571.277153 113.972264l7.913285 7.913284-7.913285-7.913284z" fill="#7C6100" p-id="4394"></path><path d="M484.231022 121.885548l7.913284 7.913285-7.913284-7.913285z" fill="#947300" p-id="4395"></path><path d="M605.565415 127.163709c-0.435231 0.435231-0.870461 8.783746 2.643037 5.270248 0.435231-0.435231 0.870461-8.783746-2.643037-5.270248z" fill="#241C00" p-id="4396"></path><path d="M579.190438 129.798833l7.913284 7.913285-7.913284-7.913285z" fill="#765B00" p-id="4397"></path><path d="M476.317737 137.712118l7.913285 7.913284-7.913285-7.913284z" fill="#856800" p-id="4398"></path><path d="M613.4787 142.990278c-0.435231 0.435231-0.870461 8.783746 2.643037 5.270248 0.435231-0.435231 0.870461-8.783746-2.643037-5.270248z" fill="#241C00" p-id="4399"></path><path d="M515.88416 145.625402l-7.913284 15.82657c9.994479-7.683799 11.015292-5.49182 7.913284-15.82657z" fill="#FFF698" p-id="4400"></path><path d="M526.274303 156.237117c-16.934429 7.019083-6.053663 33.267449 10.872853 26.256279 16.934429-7.019083 6.053663-33.267449-10.872853-26.256279z" fill="#FFFFFF" p-id="4401"></path><path d="M539.624014 145.625402l7.913285 7.913285-7.913285-7.913285z" fill="#FFF698" p-id="4402"></path><path d="M587.103722 145.625402l7.913285 7.913285-7.913285-7.913285z" fill="#765B00" p-id="4403"></path><path d="M468.404452 153.538687l7.913285 7.913285-7.913285-7.913285z" fill="#856800" p-id="4404"></path><path d="M547.537299 153.538687l7.913285 7.913285-7.913285-7.913285z" fill="#FFF698" p-id="4405"></path><path d="M621.391985 158.816848c-0.435231 0.435231-0.870461 8.783746 2.643037 5.270247 0.435231-0.435231 0.870461-8.783746-2.643037-5.270247z" fill="#241C00" p-id="4406"></path><path d="M595.017007 161.451972l7.913285 7.913284-7.913285-7.913284z" fill="#6D5500" p-id="4407"></path><path d="M460.491168 169.365256l7.913284 7.913285-7.913284-7.913285z" fill="#856800" p-id="4408"></path><path d="M629.305269 174.643417c-0.435231 0.435231-0.870461 8.783746 2.643037 5.270248 0.435231-0.435231 0.870461-8.783746-2.643037-5.270248z" fill="#241C00" p-id="4409"></path><path d="M507.970876 177.278541l7.913284 7.913285-7.913284-7.913285m39.566423 0l7.913285 7.913285-7.913285-7.913285z" fill="#FFF698" p-id="4410"></path><path d="M602.930292 177.278541l7.913284 7.913285-7.913284-7.913285z" fill="#6D5500" p-id="4411"></path><path d="M452.577883 185.191826l7.913285 7.913284-7.913285-7.913284z" fill="#856800" p-id="4412"></path><path d="M515.88416 185.191826l7.913285 7.913284-7.913285-7.913284m23.739854 0l7.913285 7.913284-7.913285-7.913284z" fill="#FFF698" p-id="4413"></path><path d="M637.218554 190.469986c-0.435231 0.435231-0.870461 8.783746 2.643037 5.270248 0.435231-0.435231 0.870461-8.783746-2.643037-5.270248z" fill="#2E2400" p-id="4414"></path><path d="M610.843576 193.10511l7.913285 7.913285-7.913285-7.913285z" fill="#6D5500" p-id="4415"></path><path d="M444.664598 201.018395l7.913285 7.913285-7.913285-7.913285z" fill="#856800" p-id="4416"></path><path d="M645.131839 206.296556c-0.435231 0.435231-0.870461 8.783746 2.643037 5.270247 0.435231-0.435231 0.870461-8.783746-2.643037-5.270247z" fill="#2E2400" p-id="4417"></path><path d="M618.756861 208.93168l7.913285 7.913284-7.913285-7.913284z" fill="#644E00" p-id="4418"></path><path d="M436.751314 216.844964l7.913284 7.913285-7.913284-7.913285z" fill="#735A00" p-id="4419"></path><path d="M484.231022 216.844964c9.875779 5.4206 12.249765 5.92705 23.739854 7.913285-9.875779-5.4206-12.249765-5.92705-23.739854-7.913285z" fill="#FFF8B4" p-id="4420"></path><path d="M653.045123 222.123125c-0.435231 0.435231-0.870461 8.783746 2.643037 5.270248 0.435231-0.435231 0.870461-8.783746-2.643037-5.270248z" fill="#2E2400" p-id="4421"></path><path d="M480.116114 233.352076c-24.649882 14.995674-29.706471 85.012417 8.229816 61.945192 24.649882-14.995674 29.706471-85.012417-8.229816-61.945192z" fill="#FFFFFF" p-id="4422"></path><path d="M507.970876 224.758249l7.913284 7.913285-7.913284-7.913285z" fill="#FFF7A8" p-id="4423"></path><path d="M626.670146 224.758249l7.913284 7.913285-7.913284-7.913285z" fill="#644E00" p-id="4424"></path><path d="M428.838029 232.671534l7.913285 7.913284-7.913285-7.913284z" fill="#735A00" p-id="4425"></path><path d="M660.958408 237.949694c-0.435231 0.435231-0.870461 8.783746 2.643037 5.270248 0.435231-0.435231 0.870461-8.783746-2.643037-5.270248z" fill="#2E2400" p-id="4426"></path><path d="M634.58343 240.584818l7.913285 7.913285-7.913285-7.913285z" fill="#5B4801" p-id="4427"></path><path d="M420.924744 248.498103l7.913285 7.913285-7.913285-7.913285z" fill="#735A00" p-id="4428"></path><path d="M460.491168 248.498103l7.913284 7.913285-7.913284-7.913285z" fill="#FFF7A8" p-id="4429"></path><path d="M668.871693 253.776264c-0.435231 0.435231-0.870461 8.783746 2.643037 5.270247 0.435231-0.435231 0.870461-8.783746-2.643037-5.270247z" fill="#2E2400" p-id="4430"></path><path d="M507.970876 256.411388l7.913284 7.913284-7.913284-7.913284z" fill="#FFF698" p-id="4431"></path><path d="M642.496715 256.411388l7.913285 7.913284-7.913285-7.913284z" fill="#5B4801" p-id="4432"></path><path d="M413.01146 264.324672l7.913284 7.913285-7.913284-7.913285z" fill="#735A00" p-id="4433"></path><path d="M452.577883 264.324672l7.913285 7.913285-7.913285-7.913285z" fill="#FFF698" p-id="4434"></path><path d="M674.149854 264.324672l7.913284 7.913285-7.913284-7.913285z" fill="#685100" p-id="4435"></path><path d="M500.057591 272.237957l7.913285 7.913285-7.913285-7.913285z" fill="#FFF7A8" p-id="4436"></path><path d="M650.41 272.237957l7.913284 7.913285-7.913284-7.913285z" fill="#5B4801" p-id="4437"></path><path d="M405.098175 280.151242l7.913285 7.913284-7.913285-7.913284z" fill="#735A00" p-id="4438"></path><path d="M682.063138 280.151242l7.913285 7.913284-7.913285-7.913284z" fill="#685100" p-id="4439"></path><path d="M658.323284 288.064526l7.913285 7.913285-7.913285-7.913285z" fill="#5B4801" p-id="4440"></path><path d="M689.976423 288.064526c14.006514 6.164449 24.024732 7.216916 39.566423 7.913285-13.998601-6.164449-24.024732-7.216916-39.566423-7.913285z" fill="#231C00" p-id="4441"></path><path d="M397.18489 295.977811l7.913285 7.913285-7.913285-7.913285z" fill="#685100" p-id="4442"></path><path d="M452.577883 295.977811l7.913285 7.913285-7.913285-7.913285z" fill="#FFF7A8" p-id="4443"></path><path d="M777.022554 295.977811l7.913285 7.913285-7.913285-7.913285z" fill="#554400" p-id="4444"></path><path d="M460.491168 303.891096c9.875779 5.4206 12.249765 5.92705 23.739854 7.913284-9.875779-5.4206-12.249765-5.92705-23.739854-7.913284z" fill="#FFF8B4" p-id="4445"></path><path d="M666.236569 303.891096l7.913285 7.913284-7.913285-7.913284z" fill="#5B4801" p-id="4446"></path><path d="M829.780423 306.526219c-3.521412 3.521412 4.835017 3.086181 5.270248 2.643037 3.521412-3.521412-4.835017-3.086181-5.270248-2.643037z" fill="#413500" p-id="4447"></path><path d="M357.618467 311.80438l7.913285 7.913285-7.913285-7.913285z" fill="#413B06" p-id="4448"></path><path d="M365.531752 311.80438l7.913284 7.913285-7.913284-7.913285z" fill="#866D04" p-id="4449"></path><path d="M373.445036 311.80438l7.913285 7.913285-7.913285-7.913285z" fill="#BAAA17" p-id="4450"></path><path d="M687.341299 314.439504c-3.521412 3.521412 4.827104 3.086181 5.270248 2.643037 3.521412-3.521412-4.827104-3.086181-5.270248-2.643037z" fill="#AD8901" p-id="4451"></path><path d="M703.167868 314.439504c-3.521412 3.521412 4.827104 3.086181 5.270248 2.643037 3.521412-3.521412-4.827104-3.086181-5.270248-2.643037z" fill="#644E00" p-id="4452"></path><path d="M885.173416 314.439504c-3.521412 3.521412 4.835017 3.086181 5.270247 2.643037 3.521412-3.521412-4.835017-3.086181-5.270247-2.643037z" fill="#413500" p-id="4453"></path><path d="M307.503635 322.352789c-3.521412 3.521412 4.827104 3.086181 5.270248 2.643037 3.521412-3.521412-4.827104-3.086181-5.270248-2.643037z" fill="#71670D" p-id="4454"></path><path d="M742.734292 322.352789c-3.521412 3.521412 4.827104 3.086181 5.270247 2.643037 3.521412-3.521412-4.827104-3.086181-5.270247-2.643037z" fill="#AD8901" p-id="4455"></path><path d="M758.560861 322.352789c-3.521412 3.521412 4.827104 3.086181 5.270248 2.643037 3.521412-3.521412-4.827104-3.086181-5.270248-2.643037z" fill="#5B4801" p-id="4456"></path><path d="M916.826554 322.352789c-3.521412 3.521412 4.835017 3.086181 5.270248 2.643037 3.521412-3.521412-4.835017-3.086181-5.270248-2.643037z" fill="#231C00" p-id="4457"></path><path d="M252.110643 330.266073c-3.521412 3.521412 4.827104 3.086181 5.270247 2.643037 3.521412-3.521412-4.827104-3.086181-5.270247-2.643037z" fill="#71670D" p-id="4458"></path><path d="M262.659051 327.63095l7.913285 7.913284-7.913285-7.913284z" fill="#AE980F" p-id="4459"></path><path d="M798.127284 330.266073c-3.521412 3.521412 4.835017 3.086181 5.270248 2.643037 3.521412-3.521412-4.827104-3.086181-5.270248-2.643037z" fill="#A17F00" p-id="4460"></path><path d="M813.953854 330.266073c-3.521412 3.521412 4.835017 3.086181 5.270247 2.643037 3.521412-3.521412-4.835017-3.086181-5.270247-2.643037z" fill="#5B4801" p-id="4461"></path><path d="M943.201532 327.63095c17.013562 33.813465 34.019211 71.757665 29.651078 110.785985-10.342663 92.403425-125.378082 127.095265-145.232514 213.658686-19.260935 83.98369 67.595278 235.348999-50.605455 277.692985-86.587161 31.020076-166.384723-81.483092-253.217196-77.653062-78.760922 3.473932-165.29269 112.970052-244.96364 56.603725-73.538154-52.029847-26.564897-176.703647-13.096486-248.730364 4.558052-24.372917 14.212259-55.234727 3.909162-79.132846C229.882226 488.634639 85.623046 459.228874 104.393358 343.457519c-11.87784 10.208137-20.772372 18.129335-28.543218 32.120022C8.191556 497.355079 172.827443 563.510139 207.503457 659.988905c30.157528 83.904557-53.1931 197.594718 20.004784 272.747183 95.236381 97.776545 205.729575-43.776291 300.847256-43.776291 71.100863 0 130.205186 69.344114 201.187349 78.183253 44.211521 5.499733 92.854482-0.585583 121.049516-38.933361 57.45836-78.151599-8.182336-177.558281 8.799572-260.307499 21.539961-104.930155 229.493169-179.322944 127.92616-308.151218-12.52673-15.889876-26.382891-23.771507-44.116562-32.120022z" fill="#FFC800" p-id="4462"></path><path d="M199.352774 335.544234l7.913284 7.913285-7.913284-7.913285z" fill="#71670D" p-id="4463"></path><path d="M207.266058 335.544234l7.913285 7.913285-7.913285-7.913285z" fill="#AE980F" p-id="4464"></path><path d="M848.242116 335.544234c9.875779 5.4206 12.249765 5.92705 23.739854 7.913285-9.875779-5.4206-12.249765-5.92705-23.739854-7.913285z" fill="#A17F00" p-id="4465"></path><path d="M877.260131 338.179358c-3.521412 3.521412 4.835017 3.086181 5.270248 2.643037 3.521412-3.521412-4.835017-3.086181-5.270248-2.643037z" fill="#241C00" p-id="4466"></path><path d="M143.959781 343.457519c9.875779 5.4206 12.249765 5.92705 23.739854 7.913285-9.875779-5.4206-12.249765-5.92705-23.739854-7.913285z" fill="#231C00" p-id="4467"></path><path d="M294.31219 549.20292c-35.926312-51.00112-175.635353-134.897764-110.785986-197.832116-41.877102-8.16651-61.921452 29.279153-37.010432 63.306277 35.214117 48.104857 93.772423 109.329941 147.796418 134.525839z" fill="#FFC800" p-id="4468"></path><path d="M871.98197 343.457519c17.757411 36.179537 20.036437 55.408819-8.403908 87.046131-38.292384 42.589298-120.155314 92.70413-133.813644 150.352409-18.675352 78.760922 70.285794 194.302792-0.221572 253.225109 22.988092 15.335946 52.457164 16.823643 60.671154-16.293453 18.564566-74.78054-51.681662-163.290629-25.409557-236.931656 27.696496-77.629323 141.99598-110.390321 165.24521-189.76848 11.149818-38.062899-30.853897-45.153202-58.067683-47.63006z" fill="#FDC600" p-id="4469"></path><path d="M903.635109 343.457519l7.913284 7.913285-7.913284-7.913285z" fill="#BF9500" p-id="4470"></path><path d="M911.548393 343.457519l7.913285 7.913285-7.913285-7.913285z" fill="#765B00" p-id="4471"></path><path d="M136.046496 351.370804l7.913285 7.913284-7.913285-7.913284z" fill="#554400" p-id="4472"></path><path d="M331.243489 354.005927c-3.521412 3.521412 4.827104 3.086181 5.270248 2.643037 3.521412-3.521412-4.827104-3.086181-5.270248-2.643037z" fill="#FFF58B" p-id="4473"></path><path d="M341.752331 355.501538c-21.025597 1.899188-59.033104 6.631333-76.109972 19.672426-22.972265 17.543752 1.281952 34.873846 20.914812 34.858019 22.291723-0.015827 65.838528-5.357294 83.904557-19.158062 27.538231-21.033511-9.021145-37.144958-28.709397-35.372383z" fill="#FFFFFF" p-id="4474"></path><path d="M373.445036 351.370804l7.913285 7.913284-7.913285-7.913284z" fill="#FFF698" p-id="4475"></path><path d="M128.133212 359.284088l7.913284 7.913285-7.913284-7.913285z" fill="#4A3A00" p-id="4476"></path><path d="M283.763781 361.919212c-3.521412 3.521412 4.827104 3.086181 5.270248 2.643037 3.521412-3.521412-4.827104-3.086181-5.270248-2.643037z" fill="#FFF47E" p-id="4477"></path><path d="M299.590351 361.919212c-3.521412 3.521412 4.827104 3.086181 5.270247 2.643037 3.521412-3.521412-4.827104-3.086181-5.270247-2.643037z" fill="#FFFACF" p-id="4478"></path><path d="M381.358321 359.284088l7.913285 7.913285-7.913285-7.913285z" fill="#FFF58B" p-id="4479"></path><path d="M254.745766 367.197373l7.913285 7.913285-7.913285-7.913285z" fill="#FFF47E" p-id="4480"></path><path d="M935.288247 367.197373v23.739854c5.507646-12.297244 5.507646-11.44261 0-23.739854z" fill="#765B00" p-id="4481"></path><path d="M246.832482 375.110658l7.913284 7.913284-7.913284-7.913284m134.525839 7.913284l7.913285 7.913285-7.913285-7.913285m-7.913285 7.913285l7.913285 7.913285-7.913285-7.913285z" fill="#FFF47E" p-id="4482"></path><path d="M246.832482 398.850512l7.913284 7.913284-7.913284-7.913284z" fill="#FFF58B" p-id="4483"></path><path d="M331.243489 401.485635c-3.521412 3.521412 4.827104 3.086181 5.270248 2.643037 3.521412-3.521412-4.827104-3.086181-5.270248-2.643037z" fill="#FFF7A8" p-id="4484"></path><path d="M347.070059 401.485635c-3.521412 3.521412 4.827104 3.086181 5.270247 2.643037 3.521412-3.521412-4.827104-3.086181-5.270247-2.643037z" fill="#FFF055" p-id="4485"></path><path d="M927.374963 398.850512l7.913284 7.913284-7.913284-7.913284z" fill="#765B00" p-id="4486"></path><path d="M959.028101 398.850512l7.913285 7.913284-7.913285-7.913284z" fill="#B79000" p-id="4487"></path><path d="M966.941386 398.850512c-36.994606 41.845449-79.235719 79.148673-118.69927 118.699269-20.210529 20.250095-49.355156 42.415206-57.189308 71.219562-13.658329 50.225618 16.578331 131.146867 24.903107 182.005548 4.906236 30.023002 11.521742 60.18053-10.714588 85.233989-18.240121 20.542887-42.431032 24.847714-67.785196 16.467545-59.911478-19.799038-128.98654-60.299229-182.005547-94.579578-21.721966-14.04608-43.159055-36.685988-71.219562-31.162515-42.375639 8.340602-87.979899 42.628864-126.612555 61.802753-15.494211 7.691713-40.721763 24.182998-55.171421 6.148622-14.995674-18.714918-6.979517-54.356352-3.268186-75.563955 9.567161-54.617491 32.634386-119.625124 18.873184-174.092263-25.694435 53.446325-27.902242 123.732119-37.611842 182.005548-3.917076 23.494542-14.299305 54.799496-4.977456 77.969594 9.052798 22.497468 41.386479 32.286201 58.415867 48.64296-39.62973 6.401847-61.699881 0.292792-87.046131-31.653138-13.966947 40.848375 23.581588 76.616422 63.306277 82.511819 81.016208 12.028193 137.619934-66.432025 213.658686-70.53902 91.224346-4.929976 175.081423 119.894176 268.901326 72.556908 109.773085-55.377166-1.938755-214.782372 47.70128-298.188393 41.006641-68.893056 166.780388-133.378413 126.541335-229.485255z" fill="#FFC700" p-id="4488"></path><path d="M254.745766 406.763796l7.913285 7.913285-7.913285-7.913285z" fill="#FFF698" p-id="4489"></path><path d="M286.398905 406.763796c9.875779 5.4206 12.249765 5.92705 23.739854 7.913285-9.875779-5.4206-12.249765-5.92705-23.739854-7.913285z" fill="#FFF58B" p-id="4490"></path><path d="M919.461678 406.763796l7.913285 7.913285-7.913285-7.913285m-7.913285 7.913285l7.913285 7.913285-7.913285-7.913285z" fill="#917100" p-id="4491"></path><path d="M112.306642 422.590366l7.913285 7.913284-7.913285-7.913284z" fill="#947300" p-id="4492"></path><path d="M903.635109 422.590366l7.913284 7.913284-7.913284-7.913284z" fill="#917100" p-id="4493"></path><path d="M943.201532 422.590366l7.913285 7.913284-7.913285-7.913284M120.219927 430.50365l7.913285 7.913285-7.913285-7.913285z" fill="#B89100" p-id="4494"></path><path d="M895.721824 430.50365l7.913285 7.913285-7.913285-7.913285z" fill="#836700" p-id="4495"></path><path d="M128.133212 438.416935l7.913284 7.913285-7.913284-7.913285z" fill="#B89100" p-id="4496"></path><path d="M887.808539 438.416935l7.913285 7.913285-7.913285-7.913285z" fill="#7C6100" p-id="4497"></path><path d="M136.046496 446.33022l7.913285 7.913284-7.913285-7.913284z" fill="#B89100" p-id="4498"></path><path d="M879.895255 446.33022l7.913284 7.913284-7.913284-7.913284z" fill="#765B00" p-id="4499"></path><path d="M769.10927 454.243504l7.913284 7.913285-7.913284-7.913285z" fill="#C2B31A" p-id="4500"></path><path d="M777.022554 454.243504l-7.913284 7.913285v15.826569l7.913284 7.913285h15.82657l7.913284-7.913285v-15.826569l-7.913284-7.913285h-15.82657z" fill="" p-id="4501"></path><path d="M792.849124 454.243504l7.913284 7.913285-7.913284-7.913285z" fill="#9B8F14" p-id="4502"></path><path d="M871.98197 454.243504l7.913285 7.913285-7.913285-7.913285m-7.913285 7.913285l7.913285 7.913284-7.913285-7.913284z" fill="#6D5500" p-id="4503"></path><path d="M856.155401 470.070073l7.913284 7.913285-7.913284-7.913285z" fill="#644E00" p-id="4504"></path><path d="M769.10927 477.983358l7.913284 7.913285-7.913284-7.913285z" fill="#9B8F14" p-id="4505"></path><path d="M792.849124 477.983358l7.913284 7.913285-7.913284-7.913285z" fill="#6C630E" p-id="4506"></path><path d="M848.242116 477.983358l7.913285 7.913285-7.913285-7.913285m-7.913284 7.913285l7.913284 7.913284-7.913284-7.913284z" fill="#5B4801" p-id="4507"></path><path d="M705.802992 691.642044c19.917738-32.325768-8.490954-66.321239-1.582657-102.872701 6.979517-36.970866 38.688049-59.863998 49.062365-94.959416-83.184448 39.139106-80.098267 124.14361-47.479708 197.832117z" fill="" p-id="4508"></path><path d="M832.415547 493.809927l7.913285 7.913285-7.913285-7.913285z" fill="#524000" p-id="4509"></path><path d="M9.433942 501.723212v522.276788h1044.553575V501.723212c-30.925116 43.792117-64.97598 80.549325-102.864787 118.69927-20.012697 20.147223-46.822905 41.758403-52.180199 71.219562-16.087708 88.502176 54.767843 203.996565-14.251826 284.023613-51.776622 60.030177-169.091067 50.059439-234.280705 19.60912-35.744307-16.697031-71.757665-44.638839-110.785986-52.844915-36.828427-7.739192-70.823898 22.267983-102.8727 36.132057-65.854355 28.471998-132.547518 54.150607-205.745402 31.162515-95.3076-29.935956-87.204397-151.017125-75.74596-231.036259 4.194041-29.31872 17.567492-65.862268 7.549273-94.959416-9.852039-28.614437-37.714715-50.47093-58.415867-71.219562-35.356556-35.427775-66.210453-70.072136-94.959416-110.785985z" fill="#ffffff" p-id="4510"></path><path d="M721.629562 501.723212l7.913284 7.913285-7.913284-7.913285z" fill="#B1A317" p-id="4511"></path><path d="M753.2827 501.723212l7.913285 7.913285-7.913285-7.913285z" fill="#393305" p-id="4512"></path><path d="M824.502262 501.723212l7.913285 7.913285-7.913285-7.913285z" fill="#524000" p-id="4513"></path><path d="M713.716277 509.636497l7.913285 7.913284-7.913285-7.913284z" fill="#807611" p-id="4514"></path><path d="M753.2827 509.636497l7.913285 7.913284-7.913285-7.913284z" fill="#B1A317" p-id="4515"></path><path d="M816.588978 509.636497l7.913284 7.913284-7.913284-7.913284z" fill="#483800" p-id="4516"></path><path d="M705.802992 517.549781l7.913285 7.913285-7.913285-7.913285z" fill="#807611" p-id="4517"></path><path d="M808.675693 517.549781l7.913285 7.913285-7.913285-7.913285z" fill="#413200" p-id="4518"></path><path d="M697.889708 525.463066l7.913284 7.913285-7.913284-7.913285z" fill="#B1A317" p-id="4519"></path><path d="M729.542846 525.463066l7.913285 7.913285-7.913285-7.913285z" fill="#443E09" p-id="4520"></path><path d="M800.762408 525.463066l7.913285 7.913285-7.913285-7.913285z" fill="#413200" p-id="4521"></path><path d="M721.629562 533.376351l7.913284 7.913284-7.913284-7.913284z" fill="#443E09" p-id="4522"></path><path d="M689.976423 541.289635l7.913285 7.913285-7.913285-7.913285z" fill="#6C630E" p-id="4523"></path><path d="M982.767955 541.289635l7.913285 7.913285-7.913285-7.913285z" fill="" p-id="4524"></path><path d="M286.398905 549.20292l7.913285 7.913285-7.913285-7.913285z" fill="#B38C00" p-id="4525"></path><path d="M713.716277 549.20292l7.913285 7.913285-7.913285-7.913285z" fill="#B1A317" p-id="4526"></path><path d="M254.745766 557.116205l7.913285 7.913284-7.913285-7.913284z" fill="#3C2E00" p-id="4527"></path><path d="M294.31219 557.116205l7.913284 7.913284-7.913284-7.913284z" fill="#B38C00" p-id="4528"></path><path d="M682.063138 557.116205l7.913285 7.913284-7.913285-7.913284z" fill="#8D8212" p-id="4529"></path><path d="M705.802992 557.116205l7.913285 7.913284-7.913285-7.913284z" fill="#393305" p-id="4530"></path><path d="M800.762408 557.116205l7.913285 7.913284-7.913285-7.913284z" fill="#4B3A00" p-id="4531"></path><path d="M966.941386 557.116205l7.913285 7.913284-7.913285-7.913284z" fill="" p-id="4532"></path><path d="M262.659051 565.029489l7.913285 7.913285-7.913285-7.913285z" fill="#3C2E00" p-id="4533"></path><path d="M302.225474 565.029489l7.913285 7.913285-7.913285-7.913285z" fill="#B38C00" p-id="4534"></path><path d="M705.802992 565.029489l7.913285 7.913285-7.913285-7.913285z" fill="#9B8F14" p-id="4535"></path><path d="M792.849124 565.029489l7.913284 7.913285-7.913284-7.913285z" fill="#4B3A00" p-id="4536"></path><path d="M270.572336 572.942774l7.913284 7.913285-7.913284-7.913285z" fill="#463600" p-id="4537"></path><path d="M302.225474 572.942774v23.739854c5.507646-12.297244 5.507646-11.44261 0-23.739854z" fill="#372A00" p-id="4538"></path><path d="M755.917824 578.220935c-0.435231 0.435231-0.870461 8.783746 2.643037 5.270248 0.435231-0.435231 0.870461-8.783746-2.643037-5.270248z" fill="#917100" p-id="4539"></path><path d="M784.935839 572.942774l7.913285 7.913285-7.913285-7.913285z" fill="#4B3A00" p-id="4540"></path><path d="M951.114817 572.942774l7.913284 7.913285-7.913284-7.913285z" fill="" p-id="4541"></path><path d="M779.657678 586.13422c-0.435231 0.435231-0.870461 8.783746 2.643037 5.270247 0.435231-0.435231 0.870461-8.783746-2.643037-5.270247z" fill="#332800" p-id="4542"></path><path d="M674.149854 588.769343v31.653139c5.618432-13.927381 5.618432-17.725758 0-31.653139z" fill="#C2B31A" p-id="4543"></path><path d="M697.889708 588.769343v31.653139c5.618432-13.927381 5.618432-17.725758 0-31.653139z" fill="#443E09" p-id="4544"></path><path d="M935.288247 588.769343l7.913285 7.913285-7.913285-7.913285z" fill="" p-id="4545"></path><path d="M302.225474 596.682628l7.913285 7.913285-7.913285-7.913285z" fill="#B38C00" p-id="4546"></path><path d="M273.207459 609.874074c-0.435231 0.435231-0.870461 8.783746 2.643038 5.270247 0.435231-0.435231 0.870461-8.783746-2.643038-5.270247z" fill="#403200" p-id="4547"></path><path d="M784.935839 604.595913v23.739854c5.507646-12.297244 5.507646-11.44261 0-23.739854z" fill="#866D04" p-id="4548"></path><path d="M294.31219 612.509197v31.653139c5.618432-13.927381 5.618432-17.725758 0-31.653139z" fill="#231C00" p-id="4549"></path><path d="M761.195985 612.509197v23.739854c5.507646-12.297244 5.507646-11.44261 0-23.739854z" fill="#6D5500" p-id="4550"></path><path d="M167.699635 628.335767l7.913285 7.913284-7.913285-7.913284z" fill="" p-id="4551"></path><path d="M705.802992 628.335767l7.913285 7.913284-7.913285-7.913284z" fill="#C9BA1B" p-id="4552"></path><path d="M787.570963 633.613928c-0.435231 0.435231-0.870461 8.783746 2.643037 5.270247 0.435231-0.435231 0.870461-8.783746-2.643037-5.270247z" fill="#2B2301" p-id="4553"></path><path d="M682.063138 636.249051l7.913285 7.913285-7.913285-7.913285z" fill="#5B4801" p-id="4554"></path><path d="M705.802992 636.249051l7.913285 7.913285-7.913285-7.913285z" fill="#8D8212" p-id="4555"></path><path d="M682.063138 644.162336l7.913285 7.913285-7.913285-7.913285z" fill="#A59816" p-id="4556"></path><path d="M705.802992 644.162336l7.913285 7.913285-7.913285-7.913285z" fill="#393305" p-id="4557"></path><path d="M262.659051 652.075621v31.653138c5.618432-13.927381 5.618432-17.725758 0-31.653138z" fill="#161200" p-id="4558"></path><path d="M792.849124 652.075621v23.739854c5.507646-12.297244 5.507646-11.44261 0-23.739854z" fill="#866D04" p-id="4559"></path><path d="M689.976423 659.988905l7.913285 7.913285-7.913285-7.913285z" fill="#443E09" p-id="4560"></path><path d="M713.716277 659.988905l7.913285 7.913285-7.913285-7.913285z" fill="#8D8212" p-id="4561"></path><path d="M771.744393 665.267066c-0.435231 0.435231-0.870461 8.783746 2.643037 5.270248 0.435231-0.435231 0.870461-8.783746-2.643037-5.270248z" fill="#765B00" p-id="4562"></path><path d="M689.976423 667.90219l7.913285 7.913285-7.913285-7.913285z" fill="#A59816" p-id="4563"></path><path d="M721.629562 675.815475l7.913284 7.913284-7.913284-7.913284z" fill="#B1A317" p-id="4564"></path><path d="M771.744393 681.093636c-0.435231 0.435231-0.870461 8.783746 2.643037 5.270247 0.435231-0.435231 0.870461-8.783746-2.643037-5.270247z" fill="#C89E02" p-id="4565"></path><path d="M795.484247 681.093636c-0.435231 0.435231-0.870461 8.783746 2.643037 5.270247 0.435231-0.435231 0.870461-8.783746-2.643037-5.270247z" fill="#211D02" p-id="4566"></path><path d="M286.398905 683.728759l7.913285 7.913285-7.913285-7.913285z" fill="#685100" p-id="4567"></path><path d="M697.889708 683.728759l7.913284 7.913285-7.913284-7.913285z" fill="#807611" p-id="4568"></path><path d="M713.716277 683.728759l7.913285 7.913285-7.913285-7.913285z" fill="#8D8212" p-id="4569"></path><path d="M254.745766 691.642044l7.913285 7.913285-7.913285-7.913285z" fill="#B79000" p-id="4570"></path><path d="M257.38089 704.83349c-0.435231 0.435231-0.870461 8.783746 2.643037 5.270247 0.435231-0.435231 0.870461-8.783746-2.643037-5.270247z" fill="#291F00" p-id="4571"></path><path d="M803.397532 704.83349c-0.435231 0.435231-0.878375 8.783746 2.643037 5.270247 0.435231-0.435231 0.878375-8.783746-2.643037-5.270247z" fill="#796000" p-id="4572"></path><path d="M777.022554 707.468613v23.739854c5.507646-12.297244 5.507646-11.44261 0-23.739854z" fill="#7C6100" p-id="4573"></path><path d="M803.397532 720.660059c-0.435231 0.435231-0.878375 8.783746 2.643037 5.270248 0.435231-0.435231 0.878375-8.783746-2.643037-5.270248z" fill="#4A3900" p-id="4574"></path><path d="M278.48562 731.208467l7.913285 7.913285-7.913285-7.913285z" fill="#685100" p-id="4575"></path><path d="M246.832482 739.121752l7.913284 7.913285-7.913284-7.913285z" fill="#947300" p-id="4576"></path><path d="M536.98889 741.756876c-3.521412 3.521412 4.827104 3.086181 5.270248 2.643037 3.521412-3.521412-4.827104-3.086181-5.270248-2.643037z" fill="#8E8212" p-id="4577"></path><path d="M555.450584 747.035037l7.913284 7.913284-7.913284-7.913284z" fill="#4B3A00" p-id="4578"></path><path d="M808.675693 747.035037v23.739854c5.507646-12.297244 5.507646-11.44261 0-23.739854z" fill="#796000" p-id="4579"></path><path d="M270.572336 754.948321v23.739854c5.507646-12.297244 5.507646-11.44261 0-23.739854z" fill="#231C00" p-id="4580"></path><path d="M571.277153 754.948321l7.913285 7.913285-7.913285-7.913285z" fill="#5B4600" p-id="4581"></path><path d="M784.935839 754.948321v23.739854c5.507646-12.297244 5.507646-11.44261 0-23.739854z" fill="#836700" p-id="4582"></path><path d="M587.103722 762.861606l7.913285 7.913285-7.913285-7.913285z" fill="#664F00" p-id="4583"></path><path d="M602.930292 770.774891l7.913284 7.913284-7.913284-7.913284z" fill="#836600" p-id="4584"></path><path d="M270.572336 778.688175l7.913284 7.913285-7.913284-7.913285z" fill="#735A00" p-id="4585"></path><path d="M555.450584 778.688175l7.913284 7.913285-7.913284-7.913285z" fill="#B38C00" p-id="4586"></path><path d="M618.756861 778.688175l7.913285 7.913285-7.913285-7.913285z" fill="#836600" p-id="4587"></path><path d="M238.919197 786.60146l7.913285 7.913285-7.913285-7.913285z" fill="#947300" p-id="4588"></path><path d="M413.01146 786.60146l7.913284 7.913285-7.913284-7.913285z" fill="#BF9500" p-id="4589"></path><path d="M420.924744 786.60146l7.913285 7.913285-7.913285-7.913285z" fill="#836700" p-id="4590"></path><path d="M571.277153 786.60146l7.913285 7.913285-7.913285-7.913285z" fill="#B38C00" p-id="4591"></path><path d="M634.58343 786.60146l7.913285 7.913285-7.913285-7.913285z" fill="#B28900" p-id="4592"></path><path d="M405.098175 794.514745l7.913285 7.913284-7.913285-7.913284z" fill="#524000" p-id="4593"></path><path d="M349.705182 857.821022c30.545279-13.159792 58.692832-30.125875 87.046132-47.479708-37.002519-22.655734-76.204931 10.872853-87.046132 47.479708z" fill="" p-id="4594"></path><path d="M587.103722 794.514745l7.913285 7.913284-7.913285-7.913284z" fill="#947400" p-id="4595"></path><path d="M650.41 794.514745l7.913284 7.913284-7.913284-7.913284z" fill="#B28900" p-id="4596"></path><path d="M795.484247 799.792906c-0.435231 0.435231-0.870461 8.791659 2.643037 5.270247 0.435231-0.435231 0.870461-8.791659-2.643037-5.270247z" fill="#5B4801" p-id="4597"></path><path d="M816.588978 794.514745l7.913284 7.913284-7.913284-7.913284z" fill="#987600" p-id="4598"></path><path d="M389.271606 802.428029l7.913284 7.913285-7.913284-7.913285z" fill="#7C6100" p-id="4599"></path><path d="M602.930292 802.428029l7.913284 7.913285-7.913284-7.913285z" fill="#836600" p-id="4600"></path><path d="M666.236569 802.428029l7.913285 7.913285-7.913285-7.913285z" fill="#CCA100" p-id="4601"></path><path d="M816.588978 802.428029v31.653139c5.618432-13.919468 5.618432-17.733671 0-31.653139z" fill="#231C00" p-id="4602"></path><path d="M373.445036 810.341314l7.913285 7.913285-7.913285-7.913285z" fill="#A17F00" p-id="4603"></path><path d="M428.838029 810.341314l7.913285 7.913285-7.913285-7.913285z" fill="#B38C00" p-id="4604"></path><path d="M618.756861 810.341314l7.913285 7.913285-7.913285-7.913285z" fill="#664F00" p-id="4605"></path><path d="M682.063138 810.341314l7.913285 7.913285-7.913285-7.913285z" fill="#D8A800" p-id="4606"></path><path d="M795.484247 815.619475c-0.435231 0.435231-0.870461 8.791659 2.643037 5.270248 0.435231-0.435231 0.870461-8.791659-2.643037-5.270248z" fill="#7C6100" p-id="4607"></path><path d="M413.01146 818.254599l7.913284 7.913284-7.913284-7.913284z" fill="#836600" p-id="4608"></path><path d="M634.58343 818.254599l7.913285 7.913284-7.913285-7.913284z" fill="#544200" p-id="4609"></path><path d="M689.976423 818.254599l7.913285 7.913284-7.913285-7.913284z" fill="#4B3A00" p-id="4610"></path><path d="M349.705182 826.167883l7.913285 7.913285-7.913285-7.913285z" fill="#5B4801" p-id="4611"></path><path d="M397.18489 826.167883l7.913285 7.913285-7.913285-7.913285z" fill="#4B3A00" p-id="4612"></path><path d="M650.41 826.167883l7.913284 7.913285-7.913284-7.913285z" fill="#463600" p-id="4613"></path><path d="M705.802992 826.167883l7.913285 7.913285-7.913285-7.913285z" fill="#4B3A00" p-id="4614"></path><path d="M792.849124 826.167883l7.913284 7.913285-7.913284-7.913285z" fill="#413200" p-id="4615"></path><path d="M238.919197 834.081168l7.913285 7.913285-7.913285-7.913285z" fill="#856800" p-id="4616"></path><path d="M270.572336 834.081168l7.913284 7.913285-7.913284-7.913285z" fill="#594600" p-id="4617"></path><path d="M341.791898 834.081168l7.913284 7.913285-7.913284-7.913285z" fill="#413200" p-id="4618"></path><path d="M721.629562 834.081168l7.913284 7.913285-7.913284-7.913285z" fill="#5B4600" p-id="4619"></path><path d="M784.935839 834.081168l7.913285 7.913285-7.913285-7.913285z" fill="#AD8901" p-id="4620"></path><path d="M816.588978 834.081168l7.913284 7.913285-7.913284-7.913285z" fill="#B89100" p-id="4621"></path><path d="M278.48562 841.994453l7.913285 7.913284-7.913285-7.913284z" fill="#403200" p-id="4622"></path><path d="M341.791898 841.994453l7.913284 7.913284-7.913284-7.913284z" fill="#AE980F" p-id="4623"></path><path d="M373.445036 841.994453l7.913285 7.913284-7.913285-7.913284z" fill="#947400" p-id="4624"></path><path d="M737.456131 841.994453l7.913285 7.913284-7.913285-7.913284z" fill="#664F00" p-id="4625"></path><path d="M777.022554 841.994453l7.913285 7.913284-7.913285-7.913284z" fill="#866D04" p-id="4626"></path><path d="M246.832482 849.907737l7.913284 7.913285-7.913284-7.913285z" fill="#856800" p-id="4627"></path><path d="M299.590351 852.542861c-3.521412 3.521412 4.827104 3.078268 5.270247 2.643037 3.521412-3.521412-4.827104-3.078268-5.270247-2.643037z" fill="#231C00" p-id="4628"></path><path d="M318.052044 849.907737l7.913284 7.913285-7.913284-7.913285z" fill="#544200" p-id="4629"></path><path d="M357.618467 849.907737l7.913285 7.913285-7.913285-7.913285z" fill="#664F00" p-id="4630"></path><path d="M753.2827 849.907737c9.875779 5.4206 12.249765 5.92705 23.739854 7.913285-9.875779-5.4206-12.249765-5.92705-23.739854-7.913285z" fill="#221B00" p-id="4631"></path><path d="M808.675693 849.907737l7.913285 7.913285-7.913285-7.913285z" fill="#9E7C00" p-id="4632"></path><path d="M254.745766 857.821022l7.913285 7.913285-7.913285-7.913285z" fill="#856800" p-id="4633"></path><path d="M705.802992 857.821022l7.913285 7.913285-7.913285-7.913285z" fill="#B38C00" p-id="4634"></path><path d="M800.762408 857.821022l7.913285 7.913285-7.913285-7.913285z" fill="#685100" p-id="4635"></path><path d="M262.659051 865.734307l7.913285 7.913284-7.913285-7.913284z" fill="#856800" p-id="4636"></path><path d="M325.965328 865.734307l7.913285 7.913284-7.913285-7.913284z" fill="#685100" p-id="4637"></path><path d="M721.629562 865.734307l7.913284 7.913284-7.913284-7.913284z" fill="#B38C00" p-id="4638"></path><path d="M792.849124 865.734307l7.913284 7.913284-7.913284-7.913284z" fill="#9E7C00" p-id="4639"></path><path d="M278.48562 873.647591l7.913285 7.913285-7.913285-7.913285z" fill="#856800" p-id="4640"></path><path d="M286.398905 873.647591c11.917407 5.404773 18.319254 6.536373 31.653139 7.913285-11.917407-5.404773-18.319254-6.536373-31.653139-7.913285z" fill="#241C00" p-id="4641"></path><path d="M745.369416 873.647591c11.917407 5.404773 18.319254 6.536373 31.653138 7.913285-11.917407-5.404773-18.319254-6.536373-31.653138-7.913285z" fill="#372B00" p-id="4642"></path><path d="M777.022554 873.647591l7.913285 7.913285-7.913285-7.913285z" fill="#9E7C00" p-id="4643"></path><path d="M563.363868 913.214015l7.913285 7.913284-7.913285-7.913284m-371.924379 15.826569l7.913285 7.913285-7.913285-7.913285m403.577518 0l7.913285 7.913285-7.913285-7.913285m261.138394 23.739854l7.913284 7.913285-7.913284-7.913285m-609.322919 23.739854l7.913284 7.913285-7.913284-7.913285m443.143941 0l7.913285 7.913285-7.913285-7.913285z" fill="" p-id="4644"></path></svg>