<?xml version="1.0" standalone="no"?><!DOCTYPE svg PUBLIC "-//W3C//DTD SVG 1.1//EN" "http://www.w3.org/Graphics/SVG/1.1/DTD/svg11.dtd"><svg t="1538032713893" class="icon" style="" viewBox="0 0 1047 1024" version="1.1" xmlns="http://www.w3.org/2000/svg" p-id="3768" xmlns:xlink="http://www.w3.org/1999/xlink" width="204.4921875" height="200"><defs><style type="text/css"></style></defs><path d="M0 0v1024h1047.272727V0H0z" fill="#ffffff" p-id="3769"></path><path d="M302.545455 131.878788c20.177455-16.252121 36.646788-35.265939 54.30303-54.30303-3.661576-10.984727-6.314667-14.072242-15.515152-23.272728 59.159273 2.800485 99.258182 55.001212 155.151515 66.187637 23.04 4.615758 56.025212 7.842909 69.818182-11.884606 13.063758 1.737697 17.95103 1.691152 31.030303 0 3.498667-20.604121 13.164606-35.940848 23.272728-54.303031 11.768242 7.424 18.137212 10.759758 31.030303 15.515152l7.757575-7.757576c0-13.940364-0.108606-11.799273-7.757575-23.272727 20.115394 3.940848 34.187636 3.940848 54.30303 0l-7.757576 31.030303c16.919273 14.708364 23.808 25.289697 31.030303 46.545454 7.067152-10.682182 10.891636-18.928485 15.515152-31.030303a226.443636 226.443636 0 0 1 0 46.545455c50.97503 9.95297 135.617939-8.921212 178.424242 23.272727h15.515152v-15.515151c7.64897 11.473455 7.757576 9.332364 7.757575 23.272727 10.084848-5.042424 7.757576-1.140364 7.757576-15.515152 14.902303 25.05697 26.034424 38.392242 54.30303 46.545455l-15.515151 7.757576c9.681455 5.313939 12.008727 5.810424 23.272727 7.757575-8.036848 9.200485-10.387394 12.443152-15.515151 23.272728 47.662545 67.048727 6.027636 171.907879-9.472 243.890424-10.364121 48.09697-6.027636 102.663758-6.043152 151.745939-0.03103 70.547394-2.823758 138.969212-1.000727 209.454546 1.016242 39.39297-30.17697 90.523152-14.514424 124.121212-16.477091 6.974061-16.298667 6.795636-23.272728 23.272727-7.936-11.900121-6.244848-10.876121-15.515151-15.515151-75.620848 44.986182-163.281455 38.787879-248.242424 38.787878H279.272727c-43.496727-0.015515-90.499879-17.865697-131.878788-7.757575-13.436121-20.340364-24.250182-26.018909-46.545454-15.515152l-31.030303-93.090909-23.272727 7.757576c21.697939-40.657455 15.515152-86.745212 15.515151-131.878788V512c-14.545455 34.668606-7.757576 79.057455-7.757576 116.363636v224.969697c-12.466424-42.170182-7.757576-88.126061-7.757575-131.878788V512c-20.945455 49.927758-7.757576 124.501333-7.757576 178.424242 0 79.786667-22.543515 201.371152 24.389818 270.793697C97.745455 1012.340364 161.093818 1016.149333 217.212121 1016.242424h605.090909c47.212606-0.015515 100.786424-0.015515 137.976243-34.086788 37.802667-34.629818 40.370424-88.917333 40.448-136.579878 0.186182-113.524364 18.579394-246.225455-7.757576-356.848485 22.310788-17.788121 29.967515-49.819152 35.157333-77.575758 13.924848-74.426182 21.744485-217.367273-51.00606-263.695515-58.14303-37.019152-127.061333-3.196121-184.731152-28.012606C747.900121 100.297697 757.434182 37.414788 698.181818 25.972364 618.759758 10.635636 595.378424 105.060848 527.515152 105.060848c-34.257455 0-57.793939-34.56-85.333334-50.067393C376.444121 17.966545 284.16 45.948121 302.545455 131.878788z" fill="#F67D6E" p-id="3770"></path><path d="M656.810667 41.371152c-3.452121 3.452121 4.732121 3.025455 5.166545 2.59103 3.452121-3.452121-4.732121-3.025455-5.166545-2.59103m38.787878 0c-3.452121 3.452121 4.732121 3.025455 5.166546 2.59103 3.452121-3.452121-4.732121-3.025455-5.166546-2.59103M636.121212 46.545455c4.227879 12.683636 2.831515 11.287273 15.515152 15.515151-4.227879-12.683636-2.831515-11.287273-15.515152-15.515151z" fill="#BE7F3F" p-id="3771"></path><path d="M659.393939 46.545455v38.787878h38.787879V46.545455h-38.787879z" fill="" p-id="3772"></path><path d="M713.69697 46.545455l-7.757576 7.757575 7.757576 15.515152 15.515151-7.757576v23.272727c12.683636-4.227879 11.287273-2.831515 15.515152-15.515151l-31.030303-23.272727M341.333333 54.30303l7.757576 15.515152c12.683636-4.227879 11.287273-2.831515 15.515152-15.515152h-23.272728z" fill="#BE7F3F" p-id="3773"></path><path d="M364.606061 54.30303l-7.757576 7.757576c14.599758 42.953697 45.498182 72.424727 85.333333 93.090909-72.944485 21.566061-164.600242 7.757576-240.484848 7.757576-25.817212 0-74.589091-9.115152-96.170667 7.974788C87.280485 185.328485 93.098667 220.183273 93.090909 240.484848c-0.015515 36.732121-6.268121 80.197818 2.428121 116.053334 7.796364 32.155152 27.904 50.276848 28.563394 85.643636 2.040242 108.528485 0.038788 217.274182 0.038788 325.818182 0 29.897697-11.147636 88.948364 17.982061 108.388848C177.741576 900.173576 260.949333 884.363636 302.545455 884.363636h418.90909c44.885333 0 137.650424 17.586424 175.957334-7.974788C928.73697 855.489939 915.393939 785.043394 915.393939 752.484848h-23.272727v108.606061H349.090909l-131.878788-0.007757c-18.757818-0.124121-42.868364 2.086788-57.382788-12.427637C135.470545 824.28897 147.393939 760.723394 147.393939 729.212121V387.878788c247.730424-10.635636 496.360727-7.757576 744.727273-7.757576 0 46.638545-18.013091 133.135515 23.272727 162.909091 0-40.192-5.034667-84.076606 1.140364-123.810909 3.692606-23.738182 21.907394-39.773091 27.461818-62.681212 6.462061-26.639515 2.428121-57.793939 2.428121-85.02303 0-25.817212 9.115152-74.589091-7.974787-96.170667C922.011152 154.585212 876.450909 162.909091 853.333333 162.909091H612.848485l54.30303-46.545455c-41.774545-38.190545-99.405576 44.489697-155.151515 36.344243C450.971152 143.802182 417.50497 78.972121 364.606061 54.30303z" fill="" p-id="3774"></path><path d="M380.121212 54.30303l7.757576 7.757576-7.757576-7.757576m31.030303 0l-7.757576 15.515152c9.797818-7.532606 10.798545-5.383758 7.757576-15.515152m209.454546 0l-31.030303 46.545455c15.515152-11.907879 28.059152-25.134545 46.545454-31.030303-4.227879-12.683636-2.831515-11.287273-15.515151-15.515152z" fill="#BE7F3F" p-id="3775"></path><path d="M713.69697 54.30303l7.757575 7.757576-7.757575-7.757576z" fill="#FF8072" p-id="3776"></path><path d="M333.575758 62.060606l7.757575 7.757576-7.757575-7.757576m95.674181 5.174303c-0.426667 0.426667-0.853333 8.610909 2.591031 5.166546 0.426667-0.426667 0.853333-8.610909-2.591031-5.166546z" fill="#BE7F3F" p-id="3777"></path><path d="M620.606061 62.060606c-7.64897 11.473455-7.757576 9.332364-7.757576 23.272727 12.25697-5.306182 13.785212-6.244848 23.272727-15.515151l-15.515151-7.757576z" fill="#FF8072" p-id="3778"></path><path d="M651.636364 62.060606c-27.345455 17.710545-51.867152 26.825697-46.545455 62.060606 26.817939-15.724606 46.343758-23.404606 77.575758-23.272727l-31.030303-38.787879z" fill="#EA674E" p-id="3779"></path><path d="M442.181818 69.818182l7.757576 7.757576-7.757576-7.757576z" fill="#BE7F3F" p-id="3780"></path><path d="M698.181818 69.818182c-12.598303 15.848727-20.503273 22.465939-38.787879 31.030303-3.413333 26.771394-22.543515 41.316848-38.787878 62.060606h209.454545c27.686788 0 65.993697-6.570667 91.942788 4.677818 21.488485 9.324606 22.861576 29.184 24.420848 49.625212h31.030303c-3.002182 16.213333-2.978909 13.273212 15.515152 15.515152-8.036848 9.200485-10.387394 12.443152-15.515152 23.272727 11.473455 7.64897 9.332364 7.757576 23.272728 7.757576-16.042667 30.052848-28.850424 83.393939 0 108.60606v15.515152c-16.92703 13.490424-29.98303 35.777939-15.515152 54.30303-12.443152 18.214788-13.001697 25.088-7.757576 46.545455-20.123152 17.586424-15.662545 44.140606-15.491878 69.818182 0.380121 57.095758-2.722909 114.346667 7.734303 170.666666 22.636606-53.938424 4.119273-128.201697 8.455757-186.181818 3.584-47.84097 26.453333-92.051394 33.140364-139.636364 8.013576-57.010424-1.365333-114.129455 4.949333-170.666666a1439.356121 1439.356121 0 0 0-93.090909-93.090909c-56.025212 13.34303-113.927758 4.980364-170.666667 15.515151 7.64897-11.473455 7.757576-9.332364 7.757576-23.272727-16.911515-5.632-13.808485-3.413333-7.757576-15.515152-19.805091-11.892364-27.306667-26.430061-38.787878-46.545454h-15.515152z" fill="#F47752" p-id="3781"></path><path d="M349.090909 77.575758c-17.384727 19.766303-33.404121 38.345697-54.30303 54.30303 0 13.940364 0.108606 11.799273 7.757576 23.272727-65.551515-12.171636-136.145455-12.171636-201.69697 0 32.698182 13.723152 73.425455 7.757576 108.60606 7.757576h224.969697c-25.863758-30.254545-53.294545-61.750303-85.333333-85.333333z" fill="#EB6E4E" p-id="3782"></path><path d="M356.848485 77.575758l7.757576 7.757575-7.757576-7.757575z" fill="#5E2616" p-id="3783"></path><path d="M403.393939 77.575758c46.033455 63.961212 140.163879 108.761212 201.69697 38.787878l-38.787879-7.757575c-58.701576 37.507879-106.232242-20.068848-162.909091-31.030303z" fill="#F47752" p-id="3784"></path><path d="M310.30303 85.333333c4.227879 12.683636 2.831515 11.287273 15.515152 15.515152-4.227879-12.683636-2.831515-11.287273-15.515152-15.515152m139.636364 0l7.757576 7.757576-7.757576-7.757576z" fill="#BE7F3F" p-id="3785"></path><path d="M667.151515 85.333333c9.681455 5.313939 12.008727 5.810424 23.272727 7.757576-9.681455-5.313939-12.008727-5.810424-23.272727-7.757576z" fill="#501C16" p-id="3786"></path><path d="M744.727273 85.333333l-7.757576 31.030303c8.890182-12.722424 10.806303-16.104727 7.757576-31.030303m-263.757576 15.515152l7.757576 7.757576-7.757576-7.757576m-178.424242 7.757576l7.757575 7.757575-7.757575-7.757575m193.939393 0l7.757576 7.757575-7.757576-7.757575m54.303031 0l7.757576 7.757575-7.757576-7.757575z" fill="#BE7F3F" p-id="3787"></path><path d="M279.272727 116.363636v23.272728c15.561697-8.742788 15.561697-14.529939 0-23.272728z" fill="#FF8072" p-id="3788"></path><path d="M297.371152 121.537939c-0.426667 0.426667-0.853333 8.610909 2.59103 5.166546 0.426667-0.426667 0.853333-8.610909-2.59103-5.166546z" fill="#BE7F3F" p-id="3789"></path><path d="M387.878788 116.363636l7.757576 7.757576-7.757576-7.757576z" fill="#A5402E" p-id="3790"></path><path d="M509.416727 118.946909c-3.452121 3.452121 4.732121 3.025455 5.166546 2.59103 3.452121-3.452121-4.732121-3.025455-5.166546-2.59103z" fill="#BE7F3F" p-id="3791"></path><path d="M23.272727 457.69697c12.8-9.603879 10.340848-20.681697 15.515152 0 7.408485-13.79297 5.942303-15.678061-7.757576-23.272728 4.359758-13.963636 6.392242-24.219152 7.757576-38.787878l-23.272727 7.757575c24.180364-46.467879 24.180364-116.441212 0-162.909091l23.272727 7.757576 31.030303-93.090909c7.936 11.900121 6.244848 10.876121 15.515151 15.515152 19.719758-11.659636 36.763152-24.149333 54.303031-38.787879 3.312485 19.448242 20.48 12.51297 38.787878 9.619394 34.040242-5.368242 66.327273-9.596121 100.848485-9.619394-26.639515-11.170909-56.614788-7.765333-85.333333-7.757576-40.789333 0.015515-88.273455-1.636848-124.090182 21.240243C-21.441939 203.682909-1.885091 368.174545 23.272727 457.69697z" fill="#F67D6E" p-id="3792"></path><path d="M279.272727 124.121212l7.757576 7.757576-7.757576-7.757576z" fill="#BE7F3F" p-id="3793"></path><path d="M395.636364 124.121212l7.757575 7.757576-7.757575-7.757576z" fill="#AC4531" p-id="3794"></path><path d="M449.939394 124.121212l7.757576 7.757576-7.757576-7.757576z" fill="#5E2616" p-id="3795"></path><path d="M597.333333 124.121212l7.757576 7.757576-7.757576-7.757576z" fill="#501C16" p-id="3796"></path><path d="M651.636364 124.121212l7.757575 7.757576-7.757575-7.757576z" fill="#A5402E" p-id="3797"></path><path d="M124.121212 131.878788v15.515151c12.683636-4.227879 11.287273-2.831515 15.515152-15.515151h-15.515152m85.333333 0c22.419394 9.409939 45.568 7.742061 69.818182 7.757576-22.419394-9.409939-45.568-7.742061-69.818182-7.757576z" fill="#BE7F3F" p-id="3798"></path><path d="M403.393939 131.878788l7.757576 7.757576-7.757576-7.757576z" fill="#AC4531" p-id="3799"></path><path d="M643.878788 131.878788l7.757576 7.757576-7.757576-7.757576z" fill="#A5402E" p-id="3800"></path><path d="M783.515152 131.878788c15.918545 6.780121 29.067636 7.39297 46.545454 7.757576-15.918545-6.780121-29.067636-7.39297-46.545454-7.757576m121.537939 2.583273c-3.452121 3.452121 4.739879 3.025455 5.166545 2.59103 3.452121-3.452121-4.739879-3.025455-5.166545-2.59103M100.848485 139.636364l7.757576 7.757575-7.757576-7.757575z" fill="#BE7F3F" p-id="3801"></path><path d="M162.909091 139.636364c39.858424 16.725333 96.038788 10.007273 139.636364 15.515151-35.80897-27.128242-96.147394-15.515152-139.636364-15.515151z" fill="#EB6E61" p-id="3802"></path><path d="M411.151515 139.636364l7.757576 7.757575-7.757576-7.757575z" fill="#AC4531" p-id="3803"></path><path d="M752.484848 147.393939c35.801212 11.015758 85.72897 0 124.121213 0-35.909818-15.065212-87.296-10.883879-124.121213 0z" fill="#EB6E61" p-id="3804"></path><path d="M941.249939 144.810667c-0.426667 0.426667-0.861091 8.610909 2.591031 5.166545 0.426667-0.426667 0.861091-8.610909-2.591031-5.166545M77.575758 147.393939l7.757575 7.757576-7.757575-7.757576z" fill="#BE7F3F" p-id="3805"></path><path d="M426.666667 147.393939l7.757575 7.757576-7.757575-7.757576z" fill="#6F3020" p-id="3806"></path><path d="M493.901576 149.977212c-3.452121 3.452121 4.732121 3.025455 5.166545 2.59103 3.452121-3.452121-4.732121-3.025455-5.166545-2.59103z" fill="#26110C" p-id="3807"></path><path d="M504.242424 147.393939l7.757576 7.757576-7.757576-7.757576m38.787879 0l7.757576 7.757576-7.757576-7.757576z" fill="#A5402E" p-id="3808"></path><path d="M620.606061 147.393939l7.757575 7.757576-7.757575-7.757576z" fill="#6F3020" p-id="3809"></path><path d="M956.765091 152.568242c-0.426667 0.426667-0.861091 8.610909 2.59103 5.166546 0.426667-0.426667 0.861091-8.610909-2.59103-5.166546M69.818182 155.151515l-15.515152 31.030303c12.644848-11.752727 16.779636-14.390303 15.515152-31.030303z" fill="#BE7F3F" p-id="3810"></path><path d="M434.424242 155.151515l7.757576 7.757576-7.757576-7.757576m178.424243 0l7.757576 7.757576-7.757576-7.757576z" fill="#A4442F" p-id="3811"></path><path d="M969.69697 155.151515c9.425455 15.522909 15.507394 21.604848 31.030303 31.030303-10.317576-13.59903-17.431273-20.712727-31.030303-31.030303z" fill="#BE7F3F" p-id="3812"></path><path d="M85.333333 162.909091c-9.402182 25.05697-10.356364 37.376 0 62.060606-36.072727 19.052606-23.272727 88.894061-23.272727 124.121212 0 65.124848 28.051394 116.619636 37.926788 178.424243 10.612364 66.459152 0.861091 142.118788 0.861091 209.454545 0 33.264485 2.583273 67.723636-0.643879 100.848485-2.094545 21.441939-11.170909 34.955636 8.401455 46.545454-1.086061 21.946182 1.582545 29.548606 15.515151 46.545455l-23.272727 7.757576c0.48097 13.490424-3.708121 18.424242-7.757576 31.030303 22.807273 6.756848 37.531152 14.188606 54.30303 31.030303 33.31103-8.711758 67.025455-24.273455 100.848485-29.37794 113.927758-17.18303 241.586424-1.652364 356.848485-1.652363 87.218424 0 179.944727-10.635636 263.757576 15.515151 0-23.714909 35.801212-21.628121 54.30303-38.787879 23.606303-21.891879 22.217697-53.884121 46.545455-69.818181-10.092606-42.899394 6.811152-74.294303 7.113697-116.363637 0.186182-26.740364-10.340848-51.331879-13.443879-77.575757-3.646061-30.898424 1.629091-62.083879 0.093091-93.090909-1.722182-34.854788-7.827394-72.044606 13.994666-100.848485-2.373818-19.572364-1.117091-28.966788 7.757576-46.545455-10.340848-20.161939 1.846303-37.957818 15.515152-54.30303v-15.515152c-24.932848-32.907636-15.173818-72.789333 0-108.60606l-23.272728-7.757576c4.227879-12.683636 2.831515-11.287273 15.515152-15.515152-12.955152-12.955152-19.983515-5.40703-15.515152-23.272727h-31.030303c0 50.920727 19.735273 142.677333-31.030303 170.666667 0 121.289697 5.895758 243.665455 0.581819 364.60606-1.411879 32.038788 11.760485 94.657939-13.017213 119.443394C873.929697 900.949333 782.987636 884.363636 744.727273 884.363636H302.545455c-38.912 0-146.005333 18.649212-170.449455-17.98206C111.010909 834.792727 124.121212 765.820121 124.121212 729.212121V387.878788c-54.985697-30.316606-36.181333-170.759758-23.272727-224.969697h-15.515152z" fill="#EB6A4C" p-id="3813"></path><path d="M69.818182 170.666667C17.415758 260.786424 46.266182 338.695758 31.030303 434.424242c28.951273 43.310545 31.00703 104.347152 31.030303 155.151516v209.454545c0 54.279758-7.540364 124.377212 46.545455 155.151515 0-16.453818 0.54303-13.614545 15.515151-23.272727-10.550303-16.399515-15.406545-27.035152-15.515151-46.545455-17.12097-29.610667-7.757576-74.457212-7.757576-108.60606 0-79.592727 5.127758-161.101576-0.418909-240.484849-3.847758-55.094303-34.187636-106.914909-37.950061-162.909091C59.523879 328.300606 51.673212 258.381576 85.333333 224.969697c-5.12-20.992-5.34497-33.388606 0-54.30303H69.818182z" fill="#EA754E" p-id="3814"></path><path d="M38.787879 186.181818l7.757576 7.757576-7.757576-7.757576z" fill="#BE7F3F" p-id="3815"></path><path d="M147.393939 186.181818c30.712242 12.885333 67.801212 7.757576 100.848485 7.757576h193.939394c-30.712242-12.885333-67.801212-7.757576-100.848485-7.757576H147.393939z" fill="#B24C36" p-id="3816"></path><path d="M442.181818 186.181818c44.334545 18.602667 107.287273 7.757576 155.151515 7.757576-44.334545-18.602667-107.287273-7.757576-155.151515-7.757576z" fill="#BBAC4F" p-id="3817"></path><path d="M597.333333 186.181818c32.698182 13.723152 73.425455 7.757576 108.606061 7.757576h217.212121c-32.698182-13.723152-73.417697-7.757576-108.60606-7.757576H597.333333z" fill="#B24C36" p-id="3818"></path><path d="M116.363636 193.939394l7.757576 7.757576-7.757576-7.757576z" fill="#6F3020" p-id="3819"></path><path d="M116.363636 356.848485h325.818182V193.939394H209.454545c-23.117576 0-68.677818-8.323879-85.116121 12.435394C100.677818 236.241455 116.363636 320 116.363636 356.848485z" fill="#ED6649" p-id="3820"></path><path d="M442.181818 193.939394v162.909091h155.151515V193.939394H442.181818z" fill="#F9E569" p-id="3821"></path><path d="M597.333333 193.939394v162.909091h325.818182V193.939394H597.333333z" fill="#ED6649" p-id="3822"></path><path d="M998.144 196.522667c-3.452121 3.452121 4.739879 3.025455 5.166545 2.59103 3.452121-3.452121-4.739879-3.025455-5.166545-2.59103m-961.939394 7.757575c-3.452121 3.452121 4.732121 3.025455 5.166546 2.591031 3.452121-3.452121-4.732121-3.025455-5.166546-2.591031m969.69697 7.757576c-3.452121 3.452121 4.739879 3.025455 5.166545 2.59103 3.452121-3.452121-4.739879-3.025455-5.166545-2.59103m-977.454546 7.757576c-3.452121 3.452121 4.732121 3.025455 5.166546 2.59103 3.452121-3.452121-4.732121-3.025455-5.166546-2.59103M15.515152 240.484848v15.515152h15.515151v-15.515152H15.515152m1003.310545 5.174304c-0.426667 0.426667-0.861091 8.610909 2.59103 5.166545 0.426667-0.426667 0.861091-8.610909-2.59103-5.166545z" fill="#BE7F3F" p-id="3823"></path><path d="M38.787879 263.757576v124.121212c14.056727-33.50497 14.056727-90.616242 0-124.121212z" fill="#F86D4E" p-id="3824"></path><path d="M15.515152 294.787879v54.30303c8.22303-19.657697 8.22303-34.645333 0-54.30303m1000.727272 0v54.30303c8.215273-19.657697 8.215273-34.645333 0-54.30303z" fill="#BE7F3F" p-id="3825"></path><path d="M124.121212 356.848485c9.681455 5.313939 12.008727 5.810424 23.272727 7.757576-9.681455-5.313939-12.008727-5.810424-23.272727-7.757576z" fill="#833728" p-id="3826"></path><path d="M147.393939 356.848485c30.712242 12.885333 67.801212 7.757576 100.848485 7.757576h193.939394c-30.712242-12.885333-67.801212-7.757576-100.848485-7.757576H147.393939z" fill="#D0593F" p-id="3827"></path><path d="M442.181818 356.848485c44.334545 18.602667 107.287273 7.757576 155.151515 7.757576-44.334545-18.602667-107.287273-7.757576-155.151515-7.757576z" fill="#DAC95C" p-id="3828"></path><path d="M597.333333 356.848485c32.698182 13.723152 73.425455 7.757576 108.606061 7.757576h209.454545c-32.698182-13.723152-73.417697-7.757576-108.60606-7.757576H597.333333z" fill="#D0593F" p-id="3829"></path><path d="M915.393939 356.848485l7.757576 7.757576-7.757576-7.757576z" fill="#8F3C2B" p-id="3830"></path><path d="M93.090909 372.363636l7.757576 7.757576-7.757576-7.757576z" fill="#6C2D23" p-id="3831"></path><path d="M938.666667 372.363636l7.757575 7.757576-7.757575-7.757576z" fill="#873B28" p-id="3832"></path><path d="M100.848485 380.121212l7.757576 7.757576-7.757576-7.757576z" fill="#6C2D23" p-id="3833"></path><path d="M186.181818 380.121212c59.267879 24.870788 153.05697 7.757576 217.212121 7.757576h488.727273c-59.260121-24.870788-153.05697-7.757576-217.212121-7.757576H186.181818z" fill="#1B0A06" p-id="3834"></path><path d="M930.909091 380.121212l7.757576 7.757576-7.757576-7.757576z" fill="#873B28" p-id="3835"></path><path d="M15.515152 387.878788v15.515151h15.515151v-15.515151H15.515152z" fill="#BE7F3F" p-id="3836"></path><path d="M147.393939 387.878788l7.757576 7.757576-7.757576-7.757576z" fill="#512418" p-id="3837"></path><path d="M147.393939 853.333333h294.787879V473.212121H186.181818V387.878788c-54.403879 9.076364-38.787879 73.022061-38.787879 116.363636v349.090909z" fill="#ED6649" p-id="3838"></path><path d="M186.181818 387.878788v85.333333h256V387.878788H186.181818z" fill="#D85035" p-id="3839"></path><path d="M442.181818 387.878788v85.333333h155.151515V387.878788H442.181818z" fill="#DD7B31" p-id="3840"></path><path d="M597.333333 387.878788v85.333333h294.787879V387.878788H597.333333z" fill="#D85035" p-id="3841"></path><path d="M1018.825697 393.053091c-0.426667 0.426667-0.861091 8.610909 2.59103 5.166545 0.426667-0.426667 0.861091-8.610909-2.59103-5.166545M23.272727 418.909091l7.757576 7.757576-7.757576-7.757576m985.212121 7.757576l7.757576 7.757575-7.757576-7.757575M33.613576 447.356121c-0.426667 0.426667-0.853333 8.610909 2.59103 5.166546 0.426667-0.426667 0.853333-8.610909-2.59103-5.166546M1000.727273 449.939394l7.757575 7.757576-7.757575-7.757576z" fill="#BE7F3F" p-id="3842"></path><path d="M31.030303 457.69697c2.59103 19.48703 8.890182 35.84 15.515152 54.30303 9.068606-24.071758 2.342788-36.840727-15.515152-54.30303z" fill="#FF8072" p-id="3843"></path><path d="M442.181818 473.212121v380.121212h155.151515V473.212121H442.181818z" fill="#F5BC41" p-id="3844"></path><path d="M597.333333 473.212121v380.121212h294.787879V744.727273c36.251152-10.162424 35.894303-51.564606 0-62.060606 0-52.25503 7.718788-90.298182 23.272727-139.636364-26.003394-16.857212-23.171879-40.579879-23.272727-69.818182H597.333333z" fill="#ED6649" p-id="3845"></path><path d="M38.787879 488.727273v23.272727c5.399273-12.055273 5.399273-11.217455 0-23.272727m956.765091 5.174303c-0.426667 0.426667-0.861091 8.610909 2.59103 5.166545 0.426667-0.426667 0.861091-8.610909-2.59103-5.166545M46.545455 512v341.333333c12.039758-28.695273 7.757576-62.192485 7.757575-93.090909V605.090909c0-30.898424 4.282182-64.395636-7.757575-93.090909z" fill="#BE7F3F" p-id="3846"></path><path d="M69.818182 512v364.606061c12.039758-28.695273 7.757576-62.192485 7.757576-93.090909V612.848485c0-33.047273 5.127758-70.136242-7.757576-100.848485z" fill="#F86D4E" p-id="3847"></path><path d="M77.575758 512v341.333333c12.039758-28.695273 7.757576-62.192485 7.757575-93.090909V605.090909c0-30.898424 4.282182-64.395636-7.757575-93.090909z" fill="#EA674E" p-id="3848"></path><path d="M977.454545 512v193.939394c18.71903-44.606061 18.71903-149.333333 0-193.939394z" fill="#EB6E61" p-id="3849"></path><path d="M985.212121 512v23.272727c5.399273-12.055273 5.399273-11.217455 0-23.272727z" fill="#BE7F3F" p-id="3850"></path><path d="M897.295515 537.856c-3.452121 3.452121 4.739879 3.025455 5.166546 2.59103 3.452121-3.452121-4.739879-3.025455-5.166546-2.59103z" fill="#502219" p-id="3851"></path><path d="M892.121212 581.818182l7.757576 7.757576-7.757576-7.757576z" fill="#7C3426" p-id="3852"></path><path d="M905.053091 584.401455c-3.452121 3.452121 4.739879 3.025455 5.166545 2.59103 3.452121-3.452121-4.739879-3.025455-5.166545-2.59103z" fill="#250F0B" p-id="3853"></path><path d="M892.121212 589.575758v85.333333h23.272727V589.575758h-23.272727z" fill="" p-id="3854"></path><path d="M892.121212 674.909091c9.681455 5.313939 12.008727 5.810424 23.272727 7.757576-9.681455-5.313939-12.008727-5.810424-23.272727-7.757576z" fill="#7C3426" p-id="3855"></path><path d="M897.295515 747.310545c-3.452121 3.452121 4.739879 3.025455 5.166546 2.591031 3.452121-3.452121-4.739879-3.025455-5.166546-2.591031z" fill="#AE4B36" p-id="3856"></path><path d="M907.636364 744.727273l7.757575 7.757575-7.757575-7.757575z" fill="#471D15" p-id="3857"></path><path d="M969.69697 791.272727c-7.214545 30.316606-8.851394 55.32703 0 85.333334-20.340364 10.108121-15.90303 22.621091-27.795394 40.51006-17.043394 25.63103-73.611636 44.016485-73.053091 68.096H193.939394c55.544242 23.303758 141.622303 7.757576 201.69697 7.757576h341.333333c48.422788 0 108.070788 9.906424 155.151515-0.775758 78.638545-17.834667 123.027394-134.384485 77.575758-200.921212z" fill="#F86D4E" p-id="3858"></path><path d="M155.151515 853.333333c11.682909 5.298424 17.958788 6.407758 31.030303 7.757576-11.682909-5.298424-17.958788-6.407758-31.030303-7.757576z" fill="#A84B35" p-id="3859"></path><path d="M186.181818 853.333333c28.695273 12.039758 62.192485 7.757576 93.090909 7.757576h162.909091c-28.695273-12.039758-62.192485-7.757576-93.090909-7.757576H186.181818z" fill="#DE6046" p-id="3860"></path><path d="M442.181818 853.333333c44.334545 18.602667 107.287273 7.757576 155.151515 7.757576-44.334545-18.602667-107.287273-7.757576-155.151515-7.757576z" fill="#E6B13D" p-id="3861"></path><path d="M597.333333 853.333333c30.712242 12.885333 67.801212 7.757576 100.848485 7.757576h186.181818c-30.712242-12.885333-67.801212-7.757576-100.848484-7.757576H597.333333z" fill="#DE6046" p-id="3862"></path><path d="M884.363636 853.333333l7.757576 7.757576-7.757576-7.757576z" fill="#9C4431" p-id="3863"></path><path d="M124.121212 868.848485l7.757576 7.757576-7.757576-7.757576z" fill="#6C2D23" p-id="3864"></path><path d="M907.636364 868.848485l7.757575 7.757576-7.757575-7.757576z" fill="#873B28" p-id="3865"></path><path d="M131.878788 876.606061l7.757576 7.757575-7.757576-7.757575z" fill="#6C2D23" p-id="3866"></path><path d="M899.878788 876.606061l7.757576 7.757575-7.757576-7.757575z" fill="#873B28" p-id="3867"></path><path d="M54.30303 884.363636l-7.757575 15.515152h15.515151c0-14.374788 2.327273-10.472727-7.757576-15.515152m930.909091 7.757576l7.757576 7.757576-7.757576-7.757576M59.477333 917.977212c-3.452121 3.452121 4.732121 3.017697 5.166546 2.59103 3.452121-3.452121-4.732121-3.017697-5.166546-2.59103M977.454545 923.151515l7.757576 7.757576-7.757576-7.757576M69.818182 930.909091l7.757576 7.757576-7.757576-7.757576m0 15.515151l7.757576 7.757576-7.757576-7.757576m15.515151 7.757576l7.757576 7.757576-7.757576-7.757576m874.022788 2.583273c-3.452121 3.452121 4.739879 3.017697 5.166546 2.59103 3.452121-3.452121-4.739879-3.017697-5.166546-2.59103m-855.924363 18.106182c-0.426667 0.426667-0.853333 8.618667 2.59103 5.166545 0.426667-0.426667 0.853333-8.618667-2.59103-5.166545z" fill="#BE7F3F" p-id="3868"></path><path d="M209.454545 977.454545c55.544242 23.303758 141.622303 7.757576 201.69697 7.757576h442.181818c-40.913455-30.999273-120.839758-15.515152-170.666666-15.515151H387.878788c-58.88 0-120.847515-5.950061-178.424243 7.757575z" fill="#F47752" p-id="3869"></path><path d="M941.249939 974.871273c-0.426667 0.426667-0.861091 8.618667 2.591031 5.166545 0.426667-0.426667 0.861091-8.618667-2.591031-5.166545M108.606061 985.212121l7.757575 7.757576-7.757575-7.757576m15.515151 7.757576l7.757576 7.757576-7.757576-7.757576z" fill="#BE7F3F" p-id="3870"></path><path d="M186.181818 992.969697c57.406061 24.087273 147.339636 7.757576 209.454546 7.757576h465.454545c-57.398303-24.087273-147.339636-7.757576-209.454545-7.757576H186.181818z" fill="#EB6E61" p-id="3871"></path><path d="M907.636364 992.969697l7.757575 7.757576-7.757575-7.757576m-752.484849 7.757576l7.757576 7.757575-7.757576-7.757575m46.545455 0c53.674667 22.520242 135.912727 7.757576 193.939394 7.757575h442.181818c-53.674667-22.520242-135.912727-7.757576-193.939394-7.757575H201.69697m674.909091 0l7.757575 7.757575-7.757575-7.757575z" fill="#BE7F3F" p-id="3872"></path></svg>