<?xml version="1.0" standalone="no"?><!DOCTYPE svg PUBLIC "-//W3C//DTD SVG 1.1//EN" "http://www.w3.org/Graphics/SVG/1.1/DTD/svg11.dtd"><svg t="1538032765827" class="icon" style="" viewBox="0 0 1228 1024" version="1.1" xmlns="http://www.w3.org/2000/svg" p-id="3996" xmlns:xlink="http://www.w3.org/1999/xlink" width="239.84375" height="200"><defs><style type="text/css"></style></defs><path d="M0 0v1024h1228.8c0-146.002895-5.246781-293.020038 0-438.857143h-29.257143c-5.841676 127.843962-103.170438 247.388648-234.057143 261.617372-66.179657 7.197257-151.620267-16.54979-214.162285 7.5776-54.730362 21.113905-70.69501 102.478019-126.927239 117.525942-50.800152 13.604571-99.415771-100.059429-146.539276-117.51619-75.805257-28.086857-166.638933 12.385524-243.799771-15.350248C15.252724 760.344381 56.300495 495.030857 58.553295 312.07619 60.094171 186.641067 151.454476 71.241143 273.066667 38.2976 329.269638 23.083886 390.943695 29.257143 448.609524 29.257143h282.819047c92.081981 0 206.262857-18.334476 292.571429 18.334476 101.883124 43.271314 170.461867 133.7344 175.542857 244.97981h29.257143V0H0z" fill="#ffffff" p-id="3997"></path><path d="M282.819048 33.821257C178.34179 53.521067 87.576381 139.702857 63.683048 243.809524 46.197029 319.907352 58.514286 409.824305 58.514286 487.619048c0 109.187657-4.778667 208.974019 78.4384 292.152076C203.239619 846.019048 282.194895 848.457143 370.590476 848.457143c33.372648 0 75.171352-6.3488 106.886095 5.880686 49.464076 19.075657 87.976229 132.573867 146.539277 117.525942 56.456533-14.492038 72.616229-96.431543 127.297828-117.51619C785.65181 841.094095 831.809829 848.505905 867.961905 848.457143c85.343086-0.136533 178.556343-7.275276 242.756266-70.070857C1206.203733 684.997486 1170.285714 501.613714 1170.285714 380.342857c0-51.024457 5.305295-105.462248-2.048-156.038095-6.777905-46.606629-32.075581-101.229714-67.486476-132.729905C1035.693105 33.713981 940.68541 29.2864 858.209524 29.257143H487.619048c-66.667276 0-139.078705-7.840914-204.8 4.564114z" fill="#FDC600" p-id="3998"></path><path d="M945.980952 29.257143c12.170971 6.680381 15.096686 7.304533 29.257143 9.752381-12.170971-6.680381-15.096686-7.304533-29.257143-9.752381z" fill="#D7A509" p-id="3999"></path><path d="M981.742933 32.504686c-4.33981 4.33981 5.958705 3.803429 6.495086 3.257295 4.33981-4.33981-5.958705-3.803429-6.495086-3.257295z" fill="#3D2D08" p-id="4000"></path><path d="M1014.247619 39.009524l9.752381 9.752381-9.752381-9.752381z" fill="#855E1A" p-id="4001"></path><path d="M1033.752381 48.761905l9.752381 9.752381-9.752381-9.752381m19.504762 9.752381l9.752381 9.752381-9.752381-9.752381z" fill="#CA9023" p-id="4002"></path><path d="M1072.761905 68.266667l9.752381 9.752381-9.752381-9.752381z" fill="#A97034" p-id="4003"></path><path d="M1102.019048 87.771429l9.752381 9.752381-9.752381-9.752381z" fill="#5E3E1F" p-id="4004"></path><path d="M1111.771429 97.52381l9.752381 9.75238-9.752381-9.75238m9.752381 9.75238l9.75238 9.752381-9.75238-9.752381z" fill="#86582B" p-id="4005"></path><path d="M1131.27619 117.028571l9.752381 9.752381-9.752381-9.752381z" fill="#5E3E1F" p-id="4006"></path><path d="M611.152457 130.028495c-4.33981 4.33981 5.948952 3.803429 6.495086 3.257295 4.33981-4.33981-5.948952-3.803429-6.495086-3.257295z" fill="#D7A800" p-id="4007"></path><path d="M1131.27619 126.780952c6.670629 15.408762 7.850667 17.329981 19.504762 29.257143-6.670629-15.408762-7.850667-17.329981-19.504762-29.257143z" fill="#EE9F48" p-id="4008"></path><path d="M575.390476 136.533333l9.752381 9.752381-9.752381-9.752381z" fill="#BC9300" p-id="4009"></path><path d="M585.142857 136.533333l9.752381 9.752381-9.752381-9.752381z" fill="#453600" p-id="4010"></path><path d="M458.361905 526.628571c-19.29021-22.332952-46.362819-47.825676-52.331276-78.019047-8.738133-44.2368 29.549714-84.192305-18.158934-119.505676C315.723581 275.69981 246.345143 394.122971 331.580952 438.857143c-14.804114 71.71901-38.980267 141.945905-48.761904 214.552381h663.161904c-9.771886-72.606476-33.95779-142.833371-48.761904-214.552381 85.23581-44.734171 15.857371-163.157333-56.290743-109.753295-47.698895 35.313371-9.4208 75.268876-18.158934 119.505676-5.968457 30.203124-33.041067 55.686095-52.331276 78.019047-31.1296-74.771505-96.129219-154.516724-110.650514-234.057142-6.368305-34.913524 23.522743-62.659048 17.593295-97.377524-5.071238-29.65699-32.572952-54.203733-62.980876-54.203734-30.398171 0-57.909638 24.546743-62.980876 54.203734C545.489676 229.912381 575.390476 257.657905 569.012419 292.571429 554.491124 372.111848 489.491505 451.857067 458.361905 526.628571z" fill="" p-id="4011"></path><path d="M633.904762 136.533333l9.752381 9.752381-9.752381-9.752381z" fill="#453600" p-id="4012"></path><path d="M643.657143 136.533333l9.752381 9.752381-9.752381-9.752381z" fill="#BC9300" p-id="4013"></path><path d="M565.638095 146.285714l9.752381 9.752381-9.752381-9.752381m87.771429 0l9.752381 9.752381-9.752381-9.752381z" fill="#6A5300" p-id="4014"></path><path d="M1150.780952 146.285714l9.752381 9.752381-9.752381-9.752381z" fill="#A97034" p-id="4015"></path><path d="M555.885714 156.038095l9.752381 9.752381-9.752381-9.752381z" fill="#6A5300" p-id="4016"></path><path d="M594.895238 156.038095l9.752381 9.752381-9.752381-9.752381z" fill="#7E7E7E" p-id="4017"></path><path d="M611.152457 159.285638c-4.33981 4.33981 5.948952 3.803429 6.495086 3.257295 4.33981-4.33981-5.948952-3.803429-6.495086-3.257295z" fill="#B2B2B2" p-id="4018"></path><path d="M624.152381 156.038095l9.752381 9.752381-9.752381-9.752381z" fill="#7E7E7E" p-id="4019"></path><path d="M663.161905 156.038095l9.752381 9.752381-9.752381-9.752381z" fill="#6A5300" p-id="4020"></path><path d="M1150.780952 156.038095c29.549714 174.548114 45.797181 392.523581 0 565.638095 40.277333-41.681676 26.399695-108.075886 78.019048-136.533333v-87.771428h-29.257143v-58.514286h29.257143V292.571429h-29.257143c-4.076495-49.93219-13.224229-99.766857-48.761905-136.533334z" fill="#ED9C4E" p-id="4021"></path><path d="M546.133333 165.790476l9.752381 9.752381-9.752381-9.752381z" fill="#BC9300" p-id="4022"></path><path d="M575.390476 165.790476l9.752381 9.752381-9.752381-9.752381z" fill="#424242" p-id="4023"></path><path d="M591.023543 175.854933c-37.10781 28.798781 9.059962 87.127771 46.752914 57.890134 37.10781-28.798781-9.059962-87.127771-46.752914-57.890134z" fill="#FFFFFF" p-id="4024"></path><path d="M643.657143 165.790476l9.752381 9.752381-9.752381-9.752381z" fill="#424242" p-id="4025"></path><path d="M672.914286 165.790476l9.752381 9.752381-9.752381-9.752381z" fill="#BC9300" p-id="4026"></path><path d="M546.133333 175.542857l9.752381 9.752381-9.752381-9.752381m126.780953 0l9.752381 9.752381-9.752381-9.752381z" fill="#453600" p-id="4027"></path><path d="M1170.285714 175.542857l9.752381 9.752381-9.752381-9.752381z" fill="#52361A" p-id="4028"></path><path d="M565.638095 185.295238l9.752381 9.752381-9.752381-9.752381m87.771429 0l9.752381 9.752381-9.752381-9.752381z" fill="#7E7E7E" p-id="4029"></path><path d="M539.628495 201.552457c-0.536381 0.536381-1.072762 10.825143 3.257295 6.495086 0.536381-0.536381 1.072762-10.825143-3.257295-6.495086z" fill="#D7A800" p-id="4030"></path><path d="M568.885638 201.552457c-0.536381 0.536381-1.072762 10.825143 3.257295 6.495086 0.536381-0.536381 1.072762-10.825143-3.257295-6.495086m87.771429 0c-0.536381 0.536381-1.072762 10.825143 3.257295 6.495086 0.536381-0.536381 1.072762-10.825143-3.257295-6.495086z" fill="#B2B2B2" p-id="4031"></path><path d="M685.91421 201.552457c-0.536381 0.536381-1.072762 10.825143 3.257295 6.495086 0.536381-0.536381 1.072762-10.825143-3.257295-6.495086z" fill="#D7A800" p-id="4032"></path><path d="M1180.038095 204.8l9.752381 9.752381-9.752381-9.752381z" fill="#8F5D2E" p-id="4033"></path><path d="M565.638095 214.552381l9.752381 9.752381-9.752381-9.752381m87.771429 0l9.752381 9.752381-9.752381-9.752381z" fill="#7E7E7E" p-id="4034"></path><path d="M546.133333 224.304762l9.752381 9.752381-9.752381-9.752381m126.780953 0l9.752381 9.752381-9.752381-9.752381z" fill="#453600" p-id="4035"></path><path d="M546.133333 234.057143l9.752381 9.752381-9.752381-9.752381z" fill="#BC9300" p-id="4036"></path><path d="M575.390476 234.057143l9.752381 9.752381-9.752381-9.752381m68.266667 0l9.752381 9.752381-9.752381-9.752381z" fill="#424242" p-id="4037"></path><path d="M672.914286 234.057143l9.752381 9.752381-9.752381-9.752381z" fill="#BC9300" p-id="4038"></path><path d="M1193.038019 240.561981c-0.536381 0.536381-1.082514 10.825143 3.257295 6.495086 0.536381-0.536381 1.082514-10.825143-3.257295-6.495086z" fill="#8F5D2E" p-id="4039"></path><path d="M555.885714 243.809524l9.752381 9.752381-9.752381-9.752381z" fill="#6A5300" p-id="4040"></path><path d="M594.895238 243.809524l9.752381 9.752381-9.752381-9.752381z" fill="#7E7E7E" p-id="4041"></path><path d="M611.152457 247.057067c-4.33981 4.33981 5.948952 3.803429 6.495086 3.257295 4.33981-4.33981-5.948952-3.803429-6.495086-3.257295z" fill="#B2B2B2" p-id="4042"></path><path d="M624.152381 243.809524l9.752381 9.752381-9.752381-9.752381z" fill="#7E7E7E" p-id="4043"></path><path d="M663.161905 243.809524l9.752381 9.752381-9.752381-9.752381m-97.52381 9.752381l9.752381 9.752381-9.752381-9.752381m87.771429 0l9.752381 9.752381-9.752381-9.752381z" fill="#6A5300" p-id="4044"></path><path d="M575.390476 263.314286l9.752381 9.752381-9.752381-9.752381m68.266667 0l9.752381 9.752381-9.752381-9.752381z" fill="#A98500" p-id="4045"></path><path d="M575.390476 273.066667l9.752381 9.752381-9.752381-9.752381z" fill="#675000" p-id="4046"></path><path d="M611.152457 276.31421c-4.33981 4.33981 5.948952 3.803429 6.495086 3.257295 4.33981-4.33981-5.948952-3.803429-6.495086-3.257295z" fill="#B14C37" p-id="4047"></path><path d="M643.657143 273.066667l9.752381 9.752381-9.752381-9.752381z" fill="#675000" p-id="4048"></path><path d="M594.895238 282.819048l9.752381 9.752381-9.752381-9.752381z" fill="#60291E" p-id="4049"></path><path d="M604.647619 282.819048c-34.923276 59.830857-64.385219 123.192076-95.105219 185.295238-14.882133 30.06659-35.176838 63.195429-22.108648 97.475047 33.5872 88.064 234.574019 88.415086 256.975238-9.713371 7.021714-30.798019-12.04419-61.283962-25.15139-87.761676-30.72-62.103162-60.181943-125.464381-95.105219-185.295238h-19.504762z" fill="#EC664A" p-id="4050"></path><path d="M624.152381 282.819048l9.752381 9.752381-9.752381-9.752381z" fill="#60291E" p-id="4051"></path><path d="M565.638095 292.571429l9.752381 9.752381-9.752381-9.752381m87.771429 0l9.752381 9.752381-9.752381-9.752381z" fill="#675000" p-id="4052"></path><path d="M347.838171 305.571352c-4.33981 4.33981 5.948952 3.803429 6.495086 3.257296 4.33981-4.33981-5.948952-3.803429-6.495086-3.257296z" fill="#D7A800" p-id="4053"></path><path d="M585.142857 302.32381l9.752381 9.75238-9.752381-9.75238m48.761905 0l9.752381 9.75238-9.752381-9.75238z" fill="#60291E" p-id="4054"></path><path d="M874.466743 305.571352c-4.33981 4.33981 5.948952 3.803429 6.495086 3.257296 4.33981-4.33981-5.948952-3.803429-6.495086-3.257296z" fill="#D7A800" p-id="4055"></path><path d="M312.07619 312.07619l9.752381 9.752381-9.752381-9.752381z" fill="#BC9300" p-id="4056"></path><path d="M321.828571 312.07619l9.752381 9.752381-9.752381-9.752381m48.761905 0l9.752381 9.752381-9.752381-9.752381z" fill="#453600" p-id="4057"></path><path d="M380.342857 312.07619l9.752381 9.752381-9.752381-9.752381z" fill="#BC9300" p-id="4058"></path><path d="M555.885714 312.07619l9.752381 9.752381-9.752381-9.752381m107.276191 0l9.752381 9.752381-9.752381-9.752381z" fill="#675000" p-id="4059"></path><path d="M838.704762 312.07619l9.752381 9.752381-9.752381-9.752381z" fill="#BC9300" p-id="4060"></path><path d="M848.457143 312.07619l9.752381 9.752381-9.752381-9.752381m48.761905 0l9.752381 9.752381-9.752381-9.752381z" fill="#453600" p-id="4061"></path><path d="M906.971429 312.07619l9.752381 9.752381-9.752381-9.752381z" fill="#BC9300" p-id="4062"></path><path d="M302.32381 321.828571l9.75238 9.752381-9.75238-9.752381m87.771428 0l9.752381 9.752381-9.752381-9.752381z" fill="#6A5300" p-id="4063"></path><path d="M575.390476 321.828571l9.752381 9.752381-9.752381-9.752381m68.266667 0l9.752381 9.752381-9.752381-9.752381z" fill="#60291E" p-id="4064"></path><path d="M828.952381 321.828571l9.752381 9.752381-9.752381-9.752381m87.771429 0l9.75238 9.752381-9.75238-9.752381m-624.152381 9.752381l9.752381 9.752381-9.752381-9.752381z" fill="#6A5300" p-id="4065"></path><path d="M331.580952 331.580952c14.687086 6.660876 22.576762 8.055467 39.009524 9.752381-14.687086-6.660876-22.576762-8.055467-39.009524-9.752381z" fill="#B2A418" p-id="4066"></path><path d="M399.847619 331.580952l9.752381 9.752381-9.752381-9.752381z" fill="#6A5300" p-id="4067"></path><path d="M546.133333 331.580952l9.752381 9.752381-9.752381-9.752381m126.780953 0l9.752381 9.752381-9.752381-9.752381z" fill="#675000" p-id="4068"></path><path d="M819.2 331.580952l9.752381 9.752381-9.752381-9.752381z" fill="#6A5300" p-id="4069"></path><path d="M858.209524 331.580952c14.687086 6.660876 22.576762 8.055467 39.009524 9.752381-14.687086-6.660876-22.576762-8.055467-39.009524-9.752381z" fill="#B2A418" p-id="4070"></path><path d="M926.47619 331.580952l9.752381 9.752381-9.752381-9.752381z" fill="#6A5300" p-id="4071"></path><path d="M282.819048 341.333333l9.752381 9.752381-9.752381-9.752381z" fill="#BC9300" p-id="4072"></path><path d="M312.07619 341.333333l9.752381 9.752381-9.752381-9.752381z" fill="#423D09" p-id="4073"></path><path d="M327.709257 351.39779c-37.10781 28.808533 9.059962 87.127771 46.752914 57.890134 37.10781-28.808533-9.059962-87.127771-46.752914-57.890134z" fill="#FFEC23" p-id="4074"></path><path d="M380.342857 341.333333l9.752381 9.752381-9.752381-9.752381z" fill="#423D09" p-id="4075"></path><path d="M409.6 341.333333l9.752381 9.752381-9.752381-9.752381z" fill="#BC9300" p-id="4076"></path><path d="M565.638095 341.333333l9.752381 9.752381-9.752381-9.752381m87.771429 0l9.752381 9.752381-9.752381-9.752381z" fill="#60291E" p-id="4077"></path><path d="M809.447619 341.333333l9.752381 9.752381-9.752381-9.752381z" fill="#BC9300" p-id="4078"></path><path d="M838.704762 341.333333l9.752381 9.752381-9.752381-9.752381z" fill="#423D09" p-id="4079"></path><path d="M854.337829 351.39779c-37.10781 28.808533 9.059962 87.127771 46.752914 57.890134 37.10781-28.798781-9.059962-87.127771-46.752914-57.890134z" fill="#FFEC23" p-id="4080"></path><path d="M906.971429 341.333333l9.752381 9.752381-9.752381-9.752381z" fill="#423D09" p-id="4081"></path><path d="M936.228571 341.333333l9.752381 9.752381-9.752381-9.752381z" fill="#BC9300" p-id="4082"></path><path d="M282.819048 351.085714l9.752381 9.752381-9.752381-9.752381m126.780952 0l9.752381 9.752381-9.752381-9.752381z" fill="#453600" p-id="4083"></path><path d="M536.380952 351.085714l9.752381 9.752381-9.752381-9.752381m146.285715 0l9.752381 9.752381-9.752381-9.752381z" fill="#675000" p-id="4084"></path><path d="M809.447619 351.085714l9.752381 9.752381-9.752381-9.752381m126.780952 0l9.752381 9.752381-9.752381-9.752381z" fill="#453600" p-id="4085"></path><path d="M302.32381 360.838095v39.009524c6.92419-17.16419 6.92419-21.845333 0-39.009524m87.771428 0v39.009524c6.92419-17.16419 6.92419-21.845333 0-39.009524z" fill="#B2A418" p-id="4086"></path><path d="M555.885714 360.838095l9.752381 9.752381-9.752381-9.752381m107.276191 0l9.752381 9.752381-9.752381-9.752381z" fill="#60291E" p-id="4087"></path><path d="M828.952381 360.838095v39.009524c6.92419-17.16419 6.92419-21.845333 0-39.009524m87.771429 0v39.009524c6.92419-17.16419 6.92419-21.845333 0-39.009524z" fill="#B2A418" p-id="4088"></path><path d="M276.31421 377.095314c-0.536381 0.536381-1.072762 10.825143 3.257295 6.495086 0.536381-0.536381 1.072762-10.825143-3.257295-6.495086m146.285714 0c-0.536381 0.536381-1.072762 10.825143 3.257295 6.495086 0.536381-0.536381 1.072762-10.825143-3.257295-6.495086z" fill="#D7A800" p-id="4089"></path><path d="M526.628571 370.590476l9.752381 9.752381-9.752381-9.752381m165.790477 0l9.752381 9.752381-9.752381-9.752381z" fill="#675000" p-id="4090"></path><path d="M802.942781 377.095314c-0.536381 0.536381-1.072762 10.825143 3.257295 6.495086 0.536381-0.536381 1.072762-10.825143-3.257295-6.495086m146.285714 0c-0.536381 0.536381-1.072762 10.825143 3.257295 6.495086 0.536381-0.536381 1.072762-10.825143-3.257295-6.495086z" fill="#D7A800" p-id="4091"></path><path d="M546.133333 380.342857l9.752381 9.752381-9.752381-9.752381m126.780953 0l9.752381 9.752381-9.752381-9.752381z" fill="#60291E" p-id="4092"></path><path d="M516.87619 390.095238l9.752381 9.752381-9.752381-9.752381m185.295239 0l9.752381 9.752381-9.752381-9.752381z" fill="#675000" p-id="4093"></path><path d="M282.819048 399.847619l9.752381 9.752381-9.752381-9.752381m126.780952 0l9.752381 9.752381-9.752381-9.752381z" fill="#453600" p-id="4094"></path><path d="M536.380952 399.847619l9.752381 9.752381-9.752381-9.752381m146.285715 0l9.752381 9.752381-9.752381-9.752381z" fill="#60291E" p-id="4095"></path><path d="M809.447619 399.847619l9.752381 9.752381-9.752381-9.752381m126.780952 0l9.752381 9.752381-9.752381-9.752381z" fill="#453600" p-id="4096"></path><path d="M282.819048 409.6l9.752381 9.752381-9.752381-9.752381z" fill="#BC9300" p-id="4097"></path><path d="M312.07619 409.6l9.752381 9.752381-9.752381-9.752381m68.266667 0l9.752381 9.752381-9.752381-9.752381z" fill="#423D09" p-id="4098"></path><path d="M409.6 409.6l9.752381 9.752381-9.752381-9.752381z" fill="#BC9300" p-id="4099"></path><path d="M507.12381 409.6l9.75238 9.752381-9.75238-9.752381m204.8 0l9.75238 9.752381-9.75238-9.752381z" fill="#675000" p-id="4100"></path><path d="M809.447619 409.6l9.752381 9.752381-9.752381-9.752381z" fill="#BC9300" p-id="4101"></path><path d="M838.704762 409.6l9.752381 9.752381-9.752381-9.752381m68.266667 0l9.752381 9.752381-9.752381-9.752381z" fill="#423D09" p-id="4102"></path><path d="M936.228571 409.6l9.752381 9.752381-9.752381-9.752381z" fill="#BC9300" p-id="4103"></path><path d="M292.571429 419.352381l9.752381 9.752381-9.752381-9.752381z" fill="#6A5300" p-id="4104"></path><path d="M331.580952 419.352381c14.687086 6.660876 22.576762 8.055467 39.009524 9.752381-14.687086-6.660876-22.576762-8.055467-39.009524-9.752381z" fill="#B2A418" p-id="4105"></path><path d="M399.847619 419.352381l9.752381 9.752381-9.752381-9.752381z" fill="#6A5300" p-id="4106"></path><path d="M526.628571 419.352381l9.752381 9.752381-9.752381-9.752381m165.790477 0l9.752381 9.752381-9.752381-9.752381z" fill="#60291E" p-id="4107"></path><path d="M819.2 419.352381l9.752381 9.752381-9.752381-9.752381z" fill="#6A5300" p-id="4108"></path><path d="M858.209524 419.352381c14.687086 6.660876 22.576762 8.055467 39.009524 9.752381-14.687086-6.660876-22.576762-8.055467-39.009524-9.752381z" fill="#B2A418" p-id="4109"></path><path d="M926.47619 419.352381l9.752381 9.752381-9.752381-9.752381m-624.15238 9.752381l9.75238 9.752381-9.75238-9.752381m87.771428 0l9.752381 9.752381-9.752381-9.752381z" fill="#6A5300" p-id="4110"></path><path d="M497.371429 429.104762l9.752381 9.752381-9.752381-9.752381m224.304761 0l9.752381 9.752381-9.752381-9.752381z" fill="#675000" p-id="4111"></path><path d="M828.952381 429.104762l9.752381 9.752381-9.752381-9.752381m87.771429 0l9.75238 9.752381-9.75238-9.752381z" fill="#6A5300" p-id="4112"></path><path d="M312.07619 438.857143l9.752381 9.752381-9.752381-9.752381z" fill="#BC9300" p-id="4113"></path><path d="M321.828571 438.857143l9.752381 9.752381-9.752381-9.752381z" fill="#3D3000" p-id="4114"></path><path d="M516.87619 438.857143l9.752381 9.752381-9.752381-9.752381m185.295239 0l9.752381 9.752381-9.752381-9.752381z" fill="#60291E" p-id="4115"></path><path d="M897.219048 438.857143l9.752381 9.752381-9.752381-9.752381z" fill="#3D3000" p-id="4116"></path><path d="M906.971429 438.857143l9.752381 9.752381-9.752381-9.752381z" fill="#BC9300" p-id="4117"></path><path d="M1199.542857 438.857143v58.514286h29.257143v-58.514286h-29.257143z" fill="#ffffff" p-id="4118"></path><path d="M321.828571 448.609524l9.752381 9.752381-9.752381-9.752381z" fill="#A17E00" p-id="4119"></path><path d="M357.590552 451.857067c-4.33981 4.33981 5.948952 3.803429 6.495086 3.257295 4.33981-4.33981-5.948952-3.803429-6.495086-3.257295z" fill="#BC513B" p-id="4120"></path><path d="M487.619048 448.609524l9.752381 9.752381-9.752381-9.752381m243.809523 0l9.752381 9.752381-9.752381-9.752381z" fill="#675000" p-id="4121"></path><path d="M864.714362 451.857067c-4.33981 4.33981 5.948952 3.803429 6.495086 3.257295 4.33981-4.33981-5.948952-3.803429-6.495086-3.257295z" fill="#B24C37" p-id="4122"></path><path d="M897.219048 448.609524l9.752381 9.752381-9.752381-9.752381z" fill="#A17E00" p-id="4123"></path><path d="M321.828571 458.361905l9.752381 9.752381-9.752381-9.752381z" fill="#624C00" p-id="4124"></path><path d="M351.085714 458.361905l-39.009524 165.790476c27.501714 0 67.515733 6.748648 91.301791-10.025448C471.527619 566.076952 401.193448 482.791619 351.085714 458.361905z" fill="#EC664A" p-id="4125"></path><path d="M370.590476 458.361905l9.752381 9.752381-9.752381-9.752381z" fill="#933F2E" p-id="4126"></path><path d="M399.847619 458.361905l9.752381 9.752381-9.752381-9.752381z" fill="#5E4900" p-id="4127"></path><path d="M507.12381 458.361905l9.75238 9.752381-9.75238-9.752381m204.8 0l9.75238 9.752381-9.75238-9.752381z" fill="#60291E" p-id="4128"></path><path d="M819.2 458.361905l9.752381 9.752381-9.752381-9.752381z" fill="#5E4900" p-id="4129"></path><path d="M848.457143 458.361905l9.752381 9.752381-9.752381-9.752381z" fill="#933F2E" p-id="4130"></path><path d="M916.72381 624.152381l-39.009524-165.790476c-50.107733 24.429714-120.441905 107.715048-52.292267 155.765028C849.217829 630.901029 889.222095 624.152381 916.72381 624.152381z" fill="#EC664A" p-id="4131"></path><path d="M897.219048 458.361905l9.752381 9.752381-9.752381-9.752381z" fill="#624C00" p-id="4132"></path><path d="M344.580876 474.619124c-0.536381 0.536381-1.072762 10.825143 3.257295 6.495086 0.536381-0.536381 1.072762-10.825143-3.257295-6.495086z" fill="#96412F" p-id="4133"></path><path d="M380.342857 468.114286l9.752381 9.752381-9.752381-9.752381z" fill="#57261B" p-id="4134"></path><path d="M409.6 468.114286l9.752381 9.752381-9.752381-9.752381z" fill="#9C7A00" p-id="4135"></path><path d="M477.866667 468.114286l9.752381 9.752381-9.752381-9.752381m263.314285 0l9.752381 9.752381-9.752381-9.752381z" fill="#675000" p-id="4136"></path><path d="M809.447619 468.114286l9.752381 9.752381-9.752381-9.752381z" fill="#9C7A00" p-id="4137"></path><path d="M838.704762 468.114286l9.752381 9.752381-9.752381-9.752381z" fill="#57261B" p-id="4138"></path><path d="M880.961829 474.619124c-0.536381 0.536381-1.072762 10.825143 3.257295 6.495086 0.536381-0.536381 1.072762-10.825143-3.257295-6.495086z" fill="#96412F" p-id="4139"></path><path d="M497.371429 477.866667l9.752381 9.752381-9.752381-9.752381m224.304761 0l9.752381 9.752381-9.752381-9.752381z" fill="#60291E" p-id="4140"></path><path d="M312.07619 487.619048l9.752381 9.752381-9.752381-9.752381z" fill="#A17E00" p-id="4141"></path><path d="M468.114286 487.619048l9.752381 9.752381-9.752381-9.752381m282.819047 0l9.752381 9.752381-9.752381-9.752381z" fill="#675000" p-id="4142"></path><path d="M906.971429 487.619048l9.752381 9.752381-9.752381-9.752381z" fill="#A17E00" p-id="4143"></path><path d="M312.07619 497.371429l9.752381 9.752381-9.752381-9.752381z" fill="#624C00" p-id="4144"></path><path d="M399.847619 497.371429l9.752381 9.752381-9.752381-9.752381z" fill="#933F2E" p-id="4145"></path><path d="M429.104762 497.371429l9.752381 9.752381-9.752381-9.752381z" fill="#5E4900" p-id="4146"></path><path d="M487.619048 497.371429l9.752381 9.752381-9.752381-9.752381m243.809523 0l9.752381 9.752381-9.752381-9.752381z" fill="#60291E" p-id="4147"></path><path d="M789.942857 497.371429l9.752381 9.752381-9.752381-9.752381z" fill="#5E4900" p-id="4148"></path><path d="M819.2 497.371429l9.752381 9.752381-9.752381-9.752381z" fill="#933F2E" p-id="4149"></path><path d="M906.971429 497.371429l9.752381 9.752381-9.752381-9.752381z" fill="#624C00" p-id="4150"></path><path d="M334.828495 513.628648c-0.536381 0.536381-1.072762 10.825143 3.257295 6.495085 0.536381-0.536381 1.072762-10.825143-3.257295-6.495085z" fill="#96412F" p-id="4151"></path><path d="M409.6 507.12381l9.752381 9.75238-9.752381-9.75238z" fill="#57261B" p-id="4152"></path><path d="M438.857143 507.12381l9.752381 9.75238-9.752381-9.75238z" fill="#9C7A00" p-id="4153"></path><path d="M458.361905 507.12381l9.752381 9.75238-9.752381-9.75238m302.323809 0l9.752381 9.75238-9.752381-9.75238z" fill="#675000" p-id="4154"></path><path d="M780.190476 507.12381l9.752381 9.75238-9.752381-9.75238z" fill="#9C7A00" p-id="4155"></path><path d="M809.447619 507.12381l9.752381 9.75238-9.752381-9.75238z" fill="#57261B" p-id="4156"></path><path d="M890.71421 513.628648c-0.536381 0.536381-1.072762 10.825143 3.257295 6.495085 0.536381-0.536381 1.072762-10.825143-3.257295-6.495085z" fill="#96412F" p-id="4157"></path><path d="M448.609524 516.87619l9.752381 9.752381-9.752381-9.752381z" fill="#B68D05" p-id="4158"></path><path d="M477.866667 516.87619l9.752381 9.752381-9.752381-9.752381m263.314285 0l9.752381 9.752381-9.752381-9.752381z" fill="#60291E" p-id="4159"></path><path d="M770.438095 516.87619l9.752381 9.752381-9.752381-9.752381z" fill="#B68D05" p-id="4160"></path><path d="M302.32381 526.628571l9.75238 9.752381-9.75238-9.752381m614.4 0l9.75238 9.752381-9.75238-9.752381z" fill="#A17E00" p-id="4161"></path><path d="M302.32381 536.380952l9.75238 9.752381-9.75238-9.752381z" fill="#624C00" p-id="4162"></path><path d="M429.104762 536.380952l9.752381 9.752381-9.752381-9.752381z" fill="#933F2E" p-id="4163"></path><path d="M471.361829 542.88579c-0.536381 0.536381-1.072762 10.825143 3.257295 6.495086 0.536381-0.536381 1.072762-10.825143-3.257295-6.495086m282.819047 0c-0.536381 0.536381-1.072762 10.825143 3.257295 6.495086 0.536381-0.536381 1.072762-10.825143-3.257295-6.495086z" fill="#863929" p-id="4164"></path><path d="M789.942857 536.380952l9.752381 9.752381-9.752381-9.752381z" fill="#933F2E" p-id="4165"></path><path d="M916.72381 536.380952l9.75238 9.752381-9.75238-9.752381z" fill="#624C00" p-id="4166"></path><path d="M325.076114 552.638171c-0.536381 0.536381-1.072762 10.825143 3.257296 6.495086 0.536381-0.536381 1.072762-10.825143-3.257296-6.495086m575.390476 0c-0.536381 0.536381-1.072762 10.825143 3.257296 6.495086 0.536381-0.536381 1.072762-10.825143-3.257296-6.495086z" fill="#96412F" p-id="4167"></path><path d="M292.571429 565.638095l9.752381 9.752381-9.752381-9.752381z" fill="#A17E00" p-id="4168"></path><path d="M429.104762 565.638095l9.752381 9.752381-9.752381-9.752381m360.838095 0l9.752381 9.752381-9.752381-9.752381z" fill="#60291E" p-id="4169"></path><path d="M926.47619 565.638095l9.752381 9.752381-9.752381-9.752381z" fill="#A17E00" p-id="4170"></path><path d="M292.571429 575.390476l9.752381 9.752381-9.752381-9.752381z" fill="#624C00" p-id="4171"></path><path d="M455.114362 578.638019c-4.33981 4.33981 5.948952 3.803429 6.495086 3.257295 4.33981-4.33981-5.948952-3.803429-6.495086-3.257295z" fill="#9C7A00" p-id="4172"></path><path d="M487.619048 575.390476l9.752381 9.752381-9.752381-9.752381m243.809523 0l9.752381 9.752381-9.752381-9.752381z" fill="#57261B" p-id="4173"></path><path d="M767.190552 578.638019c-4.33981 4.33981 5.948952 3.803429 6.495086 3.257295 4.33981-4.33981-5.948952-3.803429-6.495086-3.257295z" fill="#675000" p-id="4174"></path><path d="M926.47619 575.390476l9.752381 9.752381-9.752381-9.752381z" fill="#624C00" p-id="4175"></path><path d="M315.323733 591.647695c-0.536381 0.536381-1.072762 10.825143 3.257296 6.495086 0.536381-0.536381 1.072762-10.825143-3.257296-6.495086z" fill="#96412F" p-id="4176"></path><path d="M419.352381 585.142857l9.752381 9.752381-9.752381-9.752381z" fill="#60291E" p-id="4177"></path><path d="M448.609524 585.142857l-9.752381 39.009524h48.761905c-11.254248-21.933105-17.076419-27.755276-39.009524-39.009524z" fill="#FDC600" p-id="4178"></path><path d="M468.114286 585.142857l9.752381 9.752381-9.752381-9.752381z" fill="#5E4900" p-id="4179"></path><path d="M497.371429 585.142857l9.752381 9.752381-9.752381-9.752381m224.304761 0l9.752381 9.752381-9.752381-9.752381z" fill="#933F2E" p-id="4180"></path><path d="M750.933333 585.142857l9.752381 9.752381-9.752381-9.752381z" fill="#5E4900" p-id="4181"></path><path d="M741.180952 624.152381h48.761905l-9.752381-39.009524c-21.933105 11.254248-27.765029 17.076419-39.009524 39.009524z" fill="#FDC600" p-id="4182"></path><path d="M799.695238 585.142857l9.752381 9.752381-9.752381-9.752381z" fill="#60291E" p-id="4183"></path><path d="M910.218971 591.647695c-0.536381 0.536381-1.072762 10.825143 3.257296 6.495086 0.536381-0.536381 1.072762-10.825143-3.257296-6.495086z" fill="#96412F" p-id="4184"></path><path d="M438.857143 594.895238l9.752381 9.752381-9.752381-9.752381m341.333333 0l9.752381 9.752381-9.752381-9.752381z" fill="#675000" p-id="4185"></path><path d="M1189.790476 594.895238v29.257143c6.787657-15.1552 6.787657-14.101943 0-29.257143z" fill="#CC8642" p-id="4186"></path><path d="M282.819048 604.647619l9.752381 9.752381-9.752381-9.752381z" fill="#A17E00" p-id="4187"></path><path d="M409.6 604.647619l9.752381 9.752381-9.752381-9.752381m399.847619 0l9.752381 9.752381-9.752381-9.752381z" fill="#60291E" p-id="4188"></path><path d="M936.228571 604.647619l9.752381 9.752381-9.752381-9.752381z" fill="#A17E00" p-id="4189"></path><path d="M282.819048 614.4l9.752381 9.752381-9.752381-9.752381z" fill="#624C00" p-id="4190"></path><path d="M429.104762 614.4l9.752381 9.752381-9.752381-9.752381z" fill="#675000" p-id="4191"></path><path d="M487.619048 614.4c-20.538514 6.280533-37.010286 8.835657-58.514286 9.752381 15.886629 9.157486 70.802286 19.992381 58.514286-9.752381z" fill="#CA9E00" p-id="4192"></path><path d="M516.87619 614.4l9.752381 9.752381-9.752381-9.752381m185.295239 0l9.752381 9.752381-9.752381-9.752381z" fill="#57261B" p-id="4193"></path><path d="M731.428571 614.4c18.773333 21.533257 40.228571 19.192686 68.266667 19.504762-21.777067-9.849905-44.899962-13.702095-68.266667-19.504762z" fill="#CA9E00" p-id="4194"></path><path d="M789.942857 614.4l9.752381 9.752381-9.752381-9.752381z" fill="#675000" p-id="4195"></path><path d="M936.228571 614.4l9.752381 9.752381-9.752381-9.752381z" fill="#624C00" p-id="4196"></path><path d="M302.32381 624.152381l9.75238 9.752381-9.75238-9.752381z" fill="#441D15" p-id="4197"></path><path d="M312.07619 624.152381c28.184381 11.829638 57.285486 9.732876 87.771429 9.752381-28.184381-11.829638-57.285486-9.732876-87.771429-9.752381z" fill="#BC513B" p-id="4198"></path><path d="M399.847619 624.152381l9.752381 9.752381-9.752381-9.752381z" fill="#56251A" p-id="4199"></path><path d="M497.371429 624.152381l9.752381 9.752381-9.752381-9.752381z" fill="#3D3000" p-id="4200"></path><path d="M526.628571 624.152381c50.926933 21.367467 120.617448 9.752381 175.542858 9.752381-50.926933-21.367467-120.617448-9.752381-175.542858-9.752381z" fill="#BC513B" p-id="4201"></path><path d="M721.67619 624.152381l9.752381 9.752381-9.752381-9.752381z" fill="#3D3000" p-id="4202"></path><path d="M819.2 624.152381l9.752381 9.752381-9.752381-9.752381z" fill="#56251A" p-id="4203"></path><path d="M828.952381 624.152381c28.184381 11.829638 57.285486 9.732876 87.771429 9.752381-28.184381-11.829638-57.285486-9.732876-87.771429-9.752381z" fill="#BC513B" p-id="4204"></path><path d="M916.72381 624.152381l9.75238 9.752381-9.75238-9.752381z" fill="#441D15" p-id="4205"></path><path d="M1193.038019 630.657219c-0.536381 0.536381-1.082514 10.825143 3.257295 6.495086 0.536381-0.536381 1.082514-10.825143-3.257295-6.495086z" fill="#64421D" p-id="4206"></path><path d="M1222.295162 630.657219c-0.536381 0.536381-1.082514 10.825143 3.257295 6.495086 0.536381-0.536381 1.082514-10.825143-3.257295-6.495086z" fill="#2B1C0E" p-id="4207"></path><path d="M58.514286 643.657143l9.752381 9.752381-9.752381-9.752381z" fill="#FFFF78" p-id="4208"></path><path d="M273.066667 643.657143l9.752381 9.752381-9.752381-9.752381m672.914285 0l9.752381 9.752381-9.752381-9.752381z" fill="#A17E00" p-id="4209"></path><path d="M273.066667 653.409524c60.406248 25.35619 149.347962 9.752381 214.552381 9.752381h468.114285c-60.406248-25.35619-149.347962-9.752381-214.552381-9.752381H273.066667z" fill="#CA9E00" p-id="4210"></path><path d="M1180.038095 663.161905l9.752381 9.752381-9.752381-9.752381z" fill="#8F5D2E" p-id="4211"></path><path d="M1170.285714 692.419048l9.752381 9.752381-9.752381-9.752381z" fill="#52361A" p-id="4212"></path><path d="M1150.780952 721.67619l9.752381 9.752381-9.752381-9.752381z" fill="#A97034" p-id="4213"></path><path d="M1141.028571 731.428571l9.752381 9.752381-9.752381-9.752381z" fill="#DF9B34" p-id="4214"></path><path d="M1131.27619 750.933333l9.752381 9.752381-9.752381-9.752381z" fill="#64421D" p-id="4215"></path><path d="M1121.52381 760.685714l9.75238 9.752381-9.75238-9.752381z" fill="#8E6911" p-id="4216"></path><path d="M1111.771429 770.438095l9.752381 9.752381-9.752381-9.752381z" fill="#8D6E04" p-id="4217"></path><path d="M136.533333 780.190476l9.752381 9.752381-9.752381-9.752381z" fill="#FFFF78" p-id="4218"></path><path d="M1102.019048 780.190476l9.752381 9.752381-9.752381-9.752381z" fill="#624C00" p-id="4219"></path><path d="M1092.266667 789.942857l9.752381 9.752381-9.752381-9.752381z" fill="#3D3000" p-id="4220"></path><path d="M1072.761905 799.695238l9.752381 9.752381-9.752381-9.752381z" fill="#B68D05" p-id="4221"></path><path d="M1063.009524 809.447619l9.752381 9.752381-9.752381-9.752381z" fill="#3D3000" p-id="4222"></path><path d="M1043.504762 819.2l9.752381 9.752381-9.752381-9.752381z" fill="#564300" p-id="4223"></path><path d="M1014.247619 828.952381l9.752381 9.752381-9.752381-9.752381z" fill="#9C7A00" p-id="4224"></path><path d="M1024 828.952381l9.752381 9.752381-9.752381-9.752381z" fill="#3D3000" p-id="4225"></path><path d="M234.057143 838.704762l9.752381 9.752381-9.752381-9.752381z" fill="#3D2D08" p-id="4226"></path><path d="M250.314362 841.952305c-4.33981 4.33981 5.948952 3.803429 6.495086 3.257295 4.33981-4.33981-5.948952-3.803429-6.495086-3.257295z" fill="#BC9300" p-id="4227"></path><path d="M945.980952 838.704762c12.170971 6.680381 15.096686 7.304533 29.257143 9.752381-12.170971-6.680381-15.096686-7.304533-29.257143-9.752381z" fill="#DCAC00" p-id="4228"></path><path d="M981.742933 841.952305c-4.33981 4.33981 5.958705 3.803429 6.495086 3.257295 4.33981-4.33981-5.958705-3.803429-6.495086-3.257295z" fill="#6A5300" p-id="4229"></path><path d="M487.619048 848.457143l9.752381 9.752381-9.752381-9.752381m243.809523 0l9.752381 9.752381-9.752381-9.752381z" fill="#8D6E04" p-id="4230"></path><path d="M497.371429 858.209524l9.752381 9.752381-9.752381-9.752381z" fill="#AB8600" p-id="4231"></path><path d="M721.67619 858.209524l9.752381 9.752381-9.752381-9.752381z" fill="#B68D05" p-id="4232"></path><path d="M507.12381 867.961905l9.75238 9.752381-9.75238-9.752381z" fill="#826500" p-id="4233"></path><path d="M711.92381 867.961905l9.75238 9.752381-9.75238-9.752381z" fill="#D39037" p-id="4234"></path><path d="M750.933333 877.714286c-23.766552 32.085333-48.342552 62.883352-68.266666 97.523809 40.472381-21.66979 65.1264-58.172952 87.771428-97.523809h-19.504762z" fill="#EE9C4E" p-id="4235"></path><path d="M702.171429 887.466667l9.752381 9.752381-9.752381-9.752381z" fill="#52361A" p-id="4236"></path><path d="M692.419048 897.219048l9.752381 9.752381-9.752381-9.752381z" fill="#86582B" p-id="4237"></path><path d="M731.428571 897.219048l9.752381 9.752381-9.752381-9.752381z" fill="#8F5D2E" p-id="4238"></path><path d="M750.933333 897.219048l9.752381 9.752381-9.752381-9.752381z" fill="#FFFF78" p-id="4239"></path><path d="M682.666667 906.971429l9.752381 9.752381-9.752381-9.752381z" fill="#B17538" p-id="4240"></path><path d="M721.67619 906.971429l9.752381 9.752381-9.752381-9.752381z" fill="#5E3E1F" p-id="4241"></path><path d="M546.133333 916.72381l9.752381 9.75238-9.752381-9.75238z" fill="#826500" p-id="4242"></path><path d="M672.914286 916.72381l9.752381 9.75238-9.752381-9.75238z" fill="#D39037" p-id="4243"></path><path d="M663.161905 936.228571l9.752381 9.752381-9.752381-9.752381z" fill="#52361A" p-id="4244"></path><path d="M653.409524 945.980952l9.752381 9.752381-9.752381-9.752381z" fill="#86582B" p-id="4245"></path><path d="M692.419048 945.980952l9.752381 9.752381-9.752381-9.752381z" fill="#8F5D2E" p-id="4246"></path><path d="M711.92381 945.980952l9.75238 9.752381-9.75238-9.752381z" fill="#FFFF78" p-id="4247"></path><path d="M643.657143 955.733333l9.752381 9.752381-9.752381-9.752381z" fill="#B17538" p-id="4248"></path><path d="M682.666667 955.733333l9.752381 9.752381-9.752381-9.752381z" fill="#5E3E1F" p-id="4249"></path><path d="M585.142857 965.485714l9.752381 9.752381-9.752381-9.752381z" fill="#826500" p-id="4250"></path><path d="M633.904762 965.485714l9.752381 9.752381-9.752381-9.752381z" fill="#D39037" p-id="4251"></path><path d="M594.895238 975.238095l9.752381 9.752381-9.752381-9.752381z" fill="#987500" p-id="4252"></path><path d="M624.152381 975.238095l9.752381 9.752381-9.752381-9.752381z" fill="#D39037" p-id="4253"></path><path d="M672.914286 975.238095v19.504762c15.945143-5.315048 14.189714-3.559619 19.504762-19.504762h-19.504762z" fill="#F9B923" p-id="4254"></path><path d="M663.161905 984.990476l9.752381 9.752381-9.752381-9.752381z" fill="#A06834" p-id="4255"></path></svg>