<?xml version="1.0" standalone="no"?><!DOCTYPE svg PUBLIC "-//W3C//DTD SVG 1.1//EN" "http://www.w3.org/Graphics/SVG/1.1/DTD/svg11.dtd"><svg t="1538032811032" class="icon" style="" viewBox="0 0 1198 1024" version="1.1" xmlns="http://www.w3.org/2000/svg" p-id="4768" xmlns:xlink="http://www.w3.org/1999/xlink" width="233.984375" height="200"><defs><style type="text/css"></style></defs><path d="M0 0v1024h1198.829268V0H0z" fill="#ffffff" p-id="4769"></path><path d="M349.658537 20.180293c-40.410537 5.378081-80.970927 7.417756-116.519545 29.720975C186.97574 78.881301 162.041756 129.540163 134.868293 174.829268 78.173659 269.320325-17.499577 382.418211 28.971707 499.512195 54.679935 564.332228 108.910309 604.226602 158.178862 650.115122c62.280846 58.010016 118.842276 121.739447 183.154471 177.609886 90.395057 78.531642 157.254764 186.667707 291.382114 169.75922 106.454374-13.428553 203.426341-143.618081 274.731707-214.915122 81.170732-81.170732 207.530667-160.926179 257.665041-266.406504 55.687285-117.168911-31.918829-228.709984-89.495935-324.682927-25.325268-42.20878-48.094699-89.862244-85.275057-123.096455C937.942374 21.537301 858.136976 16.983415 790.894309 16.650407 646.97652 15.959415 492.31922 1.223805 349.658537 20.180293z" fill="#F27A67" p-id="4770"></path><path d="M366.308943 28.505496c-40.527089 5.386407-80.829398 7.550959-116.552845 29.720976-47.869919 29.720976-76.675122 77.907252-104.897561 124.928C91.577236 271.884488-0.965724 381.219382 41.251382 491.186992c18.232195 47.461984 56.852813 81.437138 91.95187 116.552845 62.555577 62.580553 128.649366 121.106732 191.479675 183.187773 74.660423 73.769626 171.382634 211.884748 291.382114 197.140813 112.598374-13.828163 207.638894-138.406504 283.05691-213.824521 59.774959-59.774959 123.537691-114.91278 183.146147-174.829268 45.24748-45.480585 91.227577-97.871089 89.412682-166.504065-2.214504-84.034602-57.960065-155.722927-99.394601-224.780488-26.41587-44.023675-51.016846-96.181073-90.686439-129.956422C926.520195 31.302764 843.56787 25.308618 774.243902 24.97561c-133.153301-0.632715-275.930537-14.011317-407.934959 3.529886z" fill="#F57667" p-id="4771"></path><path d="M333.00813 49.95122c49.543285 20.788033 121.381463 8.325203 174.829268 8.325203h366.308943c-49.543285-20.788033-121.381463-8.325203-174.829268-8.325203H333.00813z" fill="#EB7059" p-id="4772"></path><path d="M807.544715 666.01626c-55.196098 31.910504-96.106146 80.779447-141.528455 124.753171-17.19987 16.650407-39.877724 43.698992-66.601626 41.476162-24.97561-2.081301-48.860618-28.214114-66.601626-43.732292C483.128195 745.047415 438.055545 695.92039 391.284553 649.365854 331.442992 589.824 267.905041 534.328195 208.130081 474.536585c-23.010862-23.019187-61.140293-50.500683-70.156488-83.252032-8.008846-29.054959 17.915837-59.983089 31.860553-83.252033 38.046179-63.496325 72.346016-145.466276 124.28696-198.572748C344.413659 58.026667 474.195252 83.252033 541.138211 83.252033h241.430895c34.60787 0 77.565919-6.785041 107.894634 13.3453 51.075122 33.908553 81.162407 110.275642 111.890732 161.483968 20.188618 33.650472 58.201496 77.058081 63.879284 116.552845 8.216976 57.194146-76.675122 90.628163-92.184976 141.528456 24.034862-6.743415 39.636293-16.567154 58.284748-33.792 24.234667-22.378146 54.763187-49.401756 62.855285-82.760846 15.218472-62.738732-62.405724-149.096065-92.834341-199.804878-25.075512-41.79252-50.38413-107.93626-95.265301-131.713041C878.092488 52.731837 839.197138 58.276423 807.544715 58.276423H391.284553c-31.652423 0-70.547772-5.544585-99.544455 9.815414-31.302764 16.583805-47.836618 52.681886-65.29457 81.761822L131.538211 308.03252c-16.467252 27.756228-36.106407 57.735285-27.889431 91.577236 12.404553 51.18335 75.085008 97.554732 112.806505 130.830569 86.099252 75.925854 164.622569 159.860553 249.756097 236.893659 33.192585 30.037333 65.019837 76.375415 108.227642 92.276553 70.306341 25.874732 130.838894-69.040911 174.829269-108.92696 28.696976-26.024585 58.884163-43.865496 58.276422-84.667317z" fill="" p-id="4773"></path><path d="M924.097561 66.601626c34.982504 84.400911 93.117398 162.899252 139.855089 241.430894 28.005984 47.037398 56.428228 102.00039 37.446765 158.178862-13.528455 40.044228-48.461008 70.814179-77.40774 99.902439-41.043252 41.243057-81.220683 84.001301-124.869724 122.505366-27.265041 24.051512-79.788748 54.230374-66.601626 93.949919-71.929756 37.321886-135.226276 134.027447-224.780488 133.736065-65.918959-0.20813-115.720325-66.76813-158.178861-108.727155-73.761301-72.870504-149.820358-144.36735-224.780488-216.163902C165.713171 534.844358 108.385821 486.774634 102.649756 399.609756c-2.680715-40.685268 20.538276-74.677073 40.54374-108.227642 33.742049-56.578081 75.55122-112.856455 98.237398-174.829268-39.611317 30.570146-62.772033 74.102634-88.247154 116.552845C118.534244 290.816 69.931707 354.437203 67.708878 424.585366c-1.998049 63.080065 40.693593 108.177691 82.153106 149.853658C218.062049 642.997073 286.30374 710.805854 357.98374 775.659187c67.226016 60.823935 146.839935 183.495805 249.756097 179.42478 115.537171-4.570537 208.105106-122.538667 283.056911-197.490471 78.698146-78.698146 198.289691-155.414894 246.309463-258.081301 48.461008-103.598829-33.858602-206.490016-84.80052-291.382114-34.882602-58.126569-65.019837-111.374569-128.20813-141.528455z" fill="#EE694F" p-id="4774"></path><path d="M699.317073 924.097561c-34.441366 11.480455-70.730927 33.742049-108.227642 28.114211-61.02374-9.149398-108.685528-61.939512-149.853659-103.04104-76.450341-76.325463-156.663675-148.338472-233.105691-224.780488-51.574634-51.574634-135.675837-111.432846-139.205723-191.479675-2.081301-47.070699 26.166114-94.332878 49.301853-133.203252C165.746472 219.851967 224.67226 151.543675 274.731707 74.926829c-62.871935 24.55935-93.37548 86.249106-126.543089 141.528456-36.755772 61.256846-93.433756 133.827642-96.039545 208.130081C48.843967 518.859967 137.44078 586.027707 199.804878 642.455935c65.902309 59.625106 124.328585 126.934374 191.479675 185.269073 77.965528 67.725528 203.884228 215.606114 308.03252 96.372553z" fill="#EB7059" p-id="4775"></path><path d="M308.03252 83.252033c51.566309 21.645528 127.492163 8.325203 183.154472 8.325203h399.609756c-51.566309-21.645528-127.492163-8.325203-183.154472-8.325203H308.03252z" fill="#100605" p-id="4776"></path><path d="M299.707317 91.577236l8.325203 8.325203-8.325203-8.325203z" fill="#9D4636" p-id="4777"></path><path d="M607.739837 840.845528c-27.298341-47.670114-77.291187-79.339187-116.552845-116.885853C416.201886 652.27135 339.876423 580.957659 266.406504 507.837398c-32.468293-32.326764-89.545886-72.129561-104.964163-116.552845-16.17587-46.596163 48.977171-120.440715 71.66335-158.178862 23.676878-39.378211 49.751415-102.300098 91.93522-124.644943C367.998959 85.707967 443.691707 99.902439 491.186992 99.902439h399.609756c-63.604553-26.690602-164.25626-8.325203-233.105691-8.325203H407.934959c-32.526569 0-77.21626-7.409431-106.454374 9.815414C255.800195 128.299707 224.888715 213.508163 198.139837 258.081301c-21.062764 35.099057-61.906211 82.094829-61.922861 124.878049C136.192 434.167675 206.798049 481.29665 241.430894 511.367285c80.712846 70.123187 154.83213 149.08774 233.105691 221.999869 41.934049 39.061854 77.565919 88.563512 133.203252 107.478374z" fill="#EC664C" p-id="4778"></path><path d="M890.796748 91.577236l8.325203 8.325203-8.325203-8.325203m-641.04065 8.325203l8.325203 8.325203-8.325203-8.325203z" fill="#9D4636" p-id="4779"></path><path d="M317.223545 108.460748c-36.04813 19.897236-58.584455 73.961106-79.114407 107.994537-26.107837 43.291057-81.262309 106.038114-83.102179 158.178861-1.21548 34.408065 31.219512 61.007089 53.156423 83.252033C264.79974 515.330081 325.873431 567.587382 382.95935 624.390244c46.471285 46.254829 91.477333 94.257951 141.528455 136.699837 20.738081 17.582829 45.380683 45.930146 74.926829 31.877204 28.189138-13.411902 51.533008-44.814569 74.926829-65.144716 84.725593-73.594797 157.313041-160.068683 241.430895-234.262894 30.903154-27.24839 102.508228-72.404293 101.425951-118.925529-0.890797-38.071154-42.491837-84.933724-61.464976-116.552845-25.883057-43.141203-55.479154-123.629268-99.985691-149.620553C828.973789 92.809366 787.356098 99.902439 757.593496 99.902439H532.813008c-58.442927 0-163.590244-20.155317-215.589463 8.558309z" fill="#FE7575" p-id="4780"></path><path d="M857.495935 99.902439c34.782699 65.352846 75.143285 128 113.222764 191.479675 13.803187 23.002537 41.809171 55.154472 41.451187 83.252032-0.62439 48.152976-80.920976 97.221724-113.047935 126.293334-66.584976 60.249496-126.593041 127.691967-191.479675 189.731382-43.041301 41.16813-90.286829 76.109008-124.878048 125.211057 78.140358 31.719024 143.58478-90.494959 199.804878-129.848195 22.960911-16.067642 50.983545-16.708683 70.872455-38.004553 18.898211-20.238569 23.119089-39.036878 20.70478-65.252943 23.002537-10.822764 34.666146-21.254244 49.95122-41.626017l16.650406 16.650407c25.516748-21.479024 31.53587-49.301854 51.890992-74.926829 22.919285-28.846829 62.663805-53.081496 69.973334-91.577236 6.302179-33.200911-17.607805-64.811707-33.617171-91.577236-40.185756-67.201041-83.510114-196.924358-171.499187-199.804878z" fill="#E15A5A" p-id="4781"></path><path d="M940.747967 99.902439l8.325204 8.325203-8.325204-8.325203z" fill="#9D4636" p-id="4782"></path><path d="M241.430894 116.552846l8.325204 8.325203-8.325204-8.325203z" fill="#4A2017" p-id="4783"></path><path d="M915.772358 116.552846l8.325203 8.325203-8.325203-8.325203z" fill="#8D3838" p-id="4784"></path><path d="M949.073171 116.552846l8.325203 8.325203-8.325203-8.325203z" fill="#4A2017" p-id="4785"></path><path d="M266.406504 133.203252l8.325203 8.325203-8.325203-8.325203z" fill="#471E17" p-id="4786"></path><path d="M224.780488 141.528455l8.325203 8.325204-8.325203-8.325204z" fill="#9D4636" p-id="4787"></path><path d="M932.422764 141.528455l8.325203 8.325204-8.325203-8.325204z" fill="#5D2525" p-id="4788"></path><path d="M258.081301 149.853659l8.325203 8.325203-8.325203-8.325203z" fill="#873A2A" p-id="4789"></path><path d="M216.455285 158.178862l8.325203 8.325203-8.325203-8.325203z" fill="#4A2017" p-id="4790"></path><path d="M940.747967 158.178862l8.325204 8.325203-8.325204-8.325203z" fill="#8D3838" p-id="4791"></path><path d="M974.04878 158.178862l8.325204 8.325203-8.325204-8.325203z" fill="#4A2017" p-id="4792"></path><path d="M241.430894 174.829268l8.325204 8.325204-8.325204-8.325204z" fill="#471E17" p-id="4793"></path><path d="M199.804878 183.154472l8.325203 8.325203-8.325203-8.325203z" fill="#9D4636" p-id="4794"></path><path d="M957.398374 183.154472l8.325203 8.325203-8.325203-8.325203z" fill="#5D2525" p-id="4795"></path><path d="M233.105691 191.479675l8.325203 8.325203-8.325203-8.325203z" fill="#873A2A" p-id="4796"></path><path d="M191.479675 199.804878l8.325203 8.325203-8.325203-8.325203z" fill="#4A2017" p-id="4797"></path><path d="M965.723577 199.804878l8.325203 8.325203-8.325203-8.325203z" fill="#843434" p-id="4798"></path><path d="M999.02439 199.804878l8.325203 8.325203-8.325203-8.325203z" fill="#4A2017" p-id="4799"></path><path d="M216.455285 216.455285l8.325203 8.325203-8.325203-8.325203z" fill="#401C15" p-id="4800"></path><path d="M174.829268 224.780488l8.325204 8.325203-8.325204-8.325203z" fill="#9D4636" p-id="4801"></path><path d="M982.373984 224.780488l8.325203 8.325203-8.325203-8.325203z" fill="#5D2525" p-id="4802"></path><path d="M208.130081 233.105691l8.325204 8.325203-8.325204-8.325203z" fill="#873A2A" p-id="4803"></path><path d="M166.504065 241.430894l8.325203 8.325204-8.325203-8.325204z" fill="#4A2017" p-id="4804"></path><path d="M990.699187 241.430894l8.325203 8.325204-8.325203-8.325204z" fill="#843434" p-id="4805"></path><path d="M1024 241.430894l8.325203 8.325204-8.325203-8.325204z" fill="#4A2017" p-id="4806"></path><path d="M191.479675 258.081301l8.325203 8.325203-8.325203-8.325203z" fill="#401C15" p-id="4807"></path><path d="M149.853659 266.406504l8.325203 8.325203-8.325203-8.325203z" fill="#9D4636" p-id="4808"></path><path d="M1007.349593 266.406504l8.325204 8.325203-8.325204-8.325203z" fill="#552121" p-id="4809"></path><path d="M183.154472 274.731707l8.325203 8.325204-8.325203-8.325204z" fill="#873A2A" p-id="4810"></path><path d="M141.528455 283.056911l8.325204 8.325203-8.325204-8.325203z" fill="#4A2017" p-id="4811"></path><path d="M1015.674797 283.056911l8.325203 8.325203-8.325203-8.325203z" fill="#843434" p-id="4812"></path><path d="M1048.97561 283.056911l8.325203 8.325203-8.325203-8.325203z" fill="#4A2017" p-id="4813"></path><path d="M432.910569 291.382114c10.389854 5.702764 12.887415 6.235577 24.97561 8.325203-10.389854-5.702764-12.887415-6.235577-24.97561-8.325203m324.682927 0c10.389854 5.702764 12.887415 6.235577 24.97561 8.325203-10.389854-5.702764-12.887415-6.235577-24.97561-8.325203z" fill="#FCAB6F" p-id="4814"></path><path d="M166.504065 299.707317l8.325203 8.325203-8.325203-8.325203z" fill="#401C15" p-id="4815"></path><path d="M407.934959 333.00813c65.019837-20.138667 98.545431 32.801301 141.528456 74.885203 15.110244 14.793886 34.882602 39.944325 58.276422 39.944326 23.393821 0 43.166179-25.142114 58.276423-39.944326 42.974699-42.075577 76.508618-95.02387 141.528455-74.885203-43.582439-78.964553-120.973528 32.301789-158.178861 66.276943-11.405528 10.414829-24.825756 24.834081-41.626017 24.834081-48.585886 0-93.98322-86.948423-133.203252-111.02491-29.88748-18.348748-51.366504-7.692488-66.601626 19.913886z" fill="#F9E569" p-id="4816"></path><path d="M124.878049 308.03252l8.325203 8.325204-8.325203-8.325204z" fill="#9D4636" p-id="4817"></path><path d="M1032.325203 308.03252l8.325204 8.325204-8.325204-8.325204z" fill="#552121" p-id="4818"></path><path d="M158.178862 316.357724l8.325203 8.325203-8.325203-8.325203z" fill="#873A2A" p-id="4819"></path><path d="M432.910569 316.357724c10.389854 5.702764 12.887415 6.235577 24.97561 8.325203-10.389854-5.702764-12.887415-6.235577-24.97561-8.325203m324.682927 0c10.389854 5.702764 12.887415 6.235577 24.97561 8.325203-10.389854-5.702764-12.887415-6.235577-24.97561-8.325203z" fill="#7E7435" p-id="4820"></path><path d="M116.552846 324.682927l8.325203 8.325203-8.325203-8.325203z" fill="#4A2017" p-id="4821"></path><path d="M416.260163 324.682927l8.325203 8.325203-8.325203-8.325203z" fill="#9C8F41" p-id="4822"></path><path d="M427.266081 333.399415c-31.902179 19.947187-2.131252 56.32 14.460878 74.535544C479.281951 449.169691 567.853789 572.082992 632.715447 540.871805 686.363057 515.05535 753.26439 439.029593 788.205268 391.284553c17.732683-24.226341 19.048065-66.851382-22.444748-62.722081-65.827382 6.551935-93.941593 120.532293-158.020683 120.532292-41.58439 0-87.239805-73.511545-116.552845-98.204097-16.958439-14.286049-41.459512-31.53587-63.920911-17.482927z" fill="" p-id="4823"></path><path d="M466.211382 324.682927l8.325203 8.325203-8.325203-8.325203z" fill="#A89A46" p-id="4824"></path><path d="M740.943089 324.682927l8.325204 8.325203-8.325204-8.325203z" fill="#BEAD4F" p-id="4825"></path><path d="M790.894309 324.682927l8.325203 8.325203-8.325203-8.325203z" fill="#8A7F3A" p-id="4826"></path><path d="M1040.650407 324.682927l8.325203 8.325203-8.325203-8.325203z" fill="#843434" p-id="4827"></path><path d="M1073.95122 324.682927l8.325203 8.325203-8.325203-8.325203z" fill="#4A2017" p-id="4828"></path><path d="M407.934959 333.00813l8.325204 8.325203-8.325204-8.325203z" fill="#BEAD4F" p-id="4829"></path><path d="M474.536585 333.00813l8.325204 8.325203-8.325204-8.325203z" fill="#9C8F41" p-id="4830"></path><path d="M732.617886 333.00813l8.325203 8.325203-8.325203-8.325203z" fill="#B2A44B" p-id="4831"></path><path d="M799.219512 333.00813l8.325203 8.325203-8.325203-8.325203z" fill="#A89A46" p-id="4832"></path><path d="M141.528455 341.333333l8.325204 8.325204-8.325204-8.325204z" fill="#401C15" p-id="4833"></path><path d="M432.910569 341.333333c9.141073 59.250472 66.718179 101.650732 108.227642 141.361952 18.357073 17.566179 39.186732 39.32826 66.601626 39.32826s48.244553-21.753756 66.601626-39.319935C715.850927 442.984065 773.428033 400.583805 782.569106 341.333333c-72.845528 33.966829-117.801626 112.140488-183.154472 158.178862-28.363967-60.81561-102.375024-136.375154-166.504065-158.178862z" fill="#F9E569" p-id="4834"></path><path d="M449.560976 341.333333l8.325203 8.325204-8.325203-8.325204z" fill="#C6B653" p-id="4835"></path><path d="M482.861789 341.333333l8.325203 8.325204-8.325203-8.325204z" fill="#9C8F41" p-id="4836"></path><path d="M724.292683 341.333333l8.325203 8.325204-8.325203-8.325204z" fill="#B2A44B" p-id="4837"></path><path d="M757.593496 341.333333l8.325203 8.325204-8.325203-8.325204z" fill="#BEAD4F" p-id="4838"></path><path d="M427.357659 355.211447c-0.457886 0.457886-0.915772 9.240976 2.780617 5.544586 0.457886-0.457886 0.915772-9.240976-2.780617-5.544586z" fill="#7E7435" p-id="4839"></path><path d="M491.186992 349.658537l8.325203 8.325203-8.325203-8.325203z" fill="#9C8F41" p-id="4840"></path><path d="M715.96748 349.658537l8.325203 8.325203-8.325203-8.325203z" fill="#B2A44B" p-id="4841"></path><path d="M749.268293 349.658537l8.325203 8.325203-8.325203-8.325203z" fill="#C6B653" p-id="4842"></path><path d="M785.341398 355.211447c-0.457886 0.457886-0.915772 9.240976 2.780618 5.544586 0.457886-0.457886 0.915772-9.240976-2.780618-5.544586z" fill="#9C8F41" p-id="4843"></path><path d="M1057.300813 349.658537l8.325203 8.325203-8.325203-8.325203z" fill="#552121" p-id="4844"></path><path d="M133.203252 357.98374l8.325203 8.325203-8.325203-8.325203z" fill="#873A2A" p-id="4845"></path><path d="M499.512195 357.98374l8.325203 8.325203-8.325203-8.325203z" fill="#9C8F41" p-id="4846"></path><path d="M707.642276 357.98374l8.325204 8.325203-8.325204-8.325203z" fill="#B2A44B" p-id="4847"></path><path d="M740.943089 357.98374l8.325204 8.325203-8.325204-8.325203z" fill="#C6B653" p-id="4848"></path><path d="M507.837398 366.308943l8.325204 8.325203-8.325204-8.325203z" fill="#9C8F41" p-id="4849"></path><path d="M699.317073 366.308943l8.325203 8.325203-8.325203-8.325203z" fill="#B2A44B" p-id="4850"></path><path d="M732.617886 366.308943l8.325203 8.325203-8.325203-8.325203z" fill="#C6B653" p-id="4851"></path><path d="M1065.626016 366.308943l8.325204 8.325203-8.325204-8.325203z" fill="#6A2A2A" p-id="4852"></path><path d="M127.650341 380.187057c-0.457886 0.457886-0.915772 9.240976 2.780618 5.544585 0.457886-0.457886 0.915772-9.240976-2.780618-5.544585z" fill="#5E2820" p-id="4853"></path><path d="M407.934959 374.634146c17.649431 62.888585 87.098276 113.905431 133.203252 158.012358 18.357073 17.566179 39.186732 39.32826 66.601626 39.32826s48.244553-21.753756 66.601626-39.319935C720.446439 488.539577 789.895285 437.522732 807.544715 374.634146c-46.013398 42.541789-88.147252 89.445984-133.203252 133.078374-17.63278 17.066667-39.72787 42.858146-66.601626 42.858147-26.873756 0-48.968846-25.783154-66.601626-42.858147C496.082211 464.088455 453.948358 417.175935 407.934959 374.634146z" fill="#E15A5A" p-id="4854"></path><path d="M516.162602 374.634146l8.325203 8.325204-8.325203-8.325204z" fill="#9C8F41" p-id="4855"></path><path d="M690.99187 374.634146l8.325203 8.325204-8.325203-8.325204z" fill="#B2A44B" p-id="4856"></path><path d="M724.292683 374.634146l8.325203 8.325204-8.325203-8.325204z" fill="#C6B653" p-id="4857"></path><path d="M1065.626016 374.634146v24.97561c5.794341-12.937366 5.794341-12.038244 0-24.97561z" fill="#BD4B4B" p-id="4858"></path><path d="M416.260163 382.95935l8.325203 8.325203-8.325203-8.325203z" fill="#8D3838" p-id="4859"></path><path d="M524.487805 382.95935l8.325203 8.325203-8.325203-8.325203z" fill="#9C8F41" p-id="4860"></path><path d="M682.666667 382.95935l8.325203 8.325203-8.325203-8.325203z" fill="#B2A44B" p-id="4861"></path><path d="M715.96748 382.95935l8.325203 8.325203-8.325203-8.325203z" fill="#C6B653" p-id="4862"></path><path d="M790.894309 382.95935l8.325203 8.325203-8.325203-8.325203z" fill="#762F2F" p-id="4863"></path><path d="M1098.926829 382.95935c-15.468228 55.096195-68.81613 93.79174-108.227642 133.203252-87.522862 87.522862-178.667187 170.758244-266.406504 258.0813-32.817951 32.651447-88.230504 103.032715-141.528455 88.105626-58.218146-16.317398-108.777106-88.655089-149.853659-129.731642-54.230374-54.230374-112.273691-104.03174-166.504065-158.178862-50.825366-50.750439-99.369626-108.427447-158.178862-149.853658 3.912846 75.37639 57.144195 117.74335 108.227643 166.837073C294.129431 666.032911 373.285463 739.985691 449.560976 815.869919c42.891447 42.674992 91.768715 103.132618 158.178861 103.21587 88.105626 0.108228 161.026081-87.939122 224.780488-136.516683-4.978472-9.948618-3.879545-8.133724-16.650406-16.650407 82.502764-58.059967 154.43252-136.017171 224.655609-208.130081 46.238179-47.478634 86.923447-106.870634 58.401301-174.829268z" fill="#EC664C" p-id="4864"></path><path d="M424.585366 391.284553l8.325203 8.325203-8.325203-8.325203z" fill="#8D3838" p-id="4865"></path><path d="M532.813008 391.284553l8.325203 8.325203-8.325203-8.325203z" fill="#9C8F41" p-id="4866"></path><path d="M674.341463 391.284553l8.325204 8.325203-8.325204-8.325203z" fill="#B2A44B" p-id="4867"></path><path d="M707.642276 391.284553l8.325204 8.325203-8.325204-8.325203z" fill="#C6B653" p-id="4868"></path><path d="M782.569106 391.284553l8.325203 8.325203-8.325203-8.325203z" fill="#762F2F" p-id="4869"></path><path d="M432.910569 399.609756l8.325203 8.325203-8.325203-8.325203z" fill="#8D3838" p-id="4870"></path><path d="M541.138211 399.609756l8.325204 8.325203-8.325204-8.325203z" fill="#9C8F41" p-id="4871"></path><path d="M666.01626 399.609756l8.325203 8.325203-8.325203-8.325203z" fill="#B2A44B" p-id="4872"></path><path d="M699.317073 399.609756l8.325203 8.325203-8.325203-8.325203z" fill="#C6B653" p-id="4873"></path><path d="M774.243902 399.609756l8.325204 8.325203-8.325204-8.325203z" fill="#762F2F" p-id="4874"></path><path d="M99.902439 407.934959l8.325203 8.325204-8.325203-8.325204z" fill="#4A2017" p-id="4875"></path><path d="M441.235772 407.934959l8.325204 8.325204-8.325204-8.325204z" fill="#8D3838" p-id="4876"></path><path d="M549.463415 407.934959l8.325203 8.325204-8.325203-8.325204z" fill="#9C8F41" p-id="4877"></path><path d="M657.691057 407.934959l8.325203 8.325204-8.325203-8.325204z" fill="#B2A44B" p-id="4878"></path><path d="M690.99187 407.934959l8.325203 8.325204-8.325203-8.325204z" fill="#C6B653" p-id="4879"></path><path d="M765.918699 407.934959l8.325203 8.325204-8.325203-8.325204m291.382114 0l8.325203 8.325204-8.325203-8.325204z" fill="#762F2F" p-id="4880"></path><path d="M1090.601626 407.934959l8.325203 8.325204-8.325203-8.325204z" fill="#5E2820" p-id="4881"></path><path d="M449.560976 416.260163l8.325203 8.325203-8.325203-8.325203z" fill="#8D3838" p-id="4882"></path><path d="M557.788618 416.260163l8.325203 8.325203-8.325203-8.325203z" fill="#9C8F41" p-id="4883"></path><path d="M649.365854 416.260163l8.325203 8.325203-8.325203-8.325203z" fill="#B2A44B" p-id="4884"></path><path d="M682.666667 416.260163l8.325203 8.325203-8.325203-8.325203z" fill="#C6B653" p-id="4885"></path><path d="M757.593496 416.260163l8.325203 8.325203-8.325203-8.325203m291.382114 0l8.325203 8.325203-8.325203-8.325203z" fill="#762F2F" p-id="4886"></path><path d="M457.886179 424.585366l8.325203 8.325203-8.325203-8.325203z" fill="#8D3838" p-id="4887"></path><path d="M566.113821 424.585366l8.325203 8.325203-8.325203-8.325203z" fill="#9C8F41" p-id="4888"></path><path d="M641.04065 424.585366l8.325204 8.325203-8.325204-8.325203z" fill="#B2A44B" p-id="4889"></path><path d="M674.341463 424.585366l8.325204 8.325203-8.325204-8.325203z" fill="#C6B653" p-id="4890"></path><path d="M749.268293 424.585366l8.325203 8.325203-8.325203-8.325203m291.382114 0l8.325203 8.325203-8.325203-8.325203z" fill="#762F2F" p-id="4891"></path><path d="M466.211382 432.910569l8.325203 8.325203-8.325203-8.325203z" fill="#8D3838" p-id="4892"></path><path d="M574.439024 432.910569l8.325204 8.325203-8.325204-8.325203z" fill="#9C8F41" p-id="4893"></path><path d="M632.715447 432.910569l8.325203 8.325203-8.325203-8.325203z" fill="#B2A44B" p-id="4894"></path><path d="M666.01626 432.910569l8.325203 8.325203-8.325203-8.325203z" fill="#C6B653" p-id="4895"></path><path d="M740.943089 432.910569l8.325204 8.325203-8.325204-8.325203z" fill="#762F2F" p-id="4896"></path><path d="M1032.325203 432.910569l8.325204 8.325203-8.325204-8.325203z" fill="#6A2A2A" p-id="4897"></path><path d="M474.536585 441.235772l8.325204 8.325204-8.325204-8.325204z" fill="#8D3838" p-id="4898"></path><path d="M582.764228 441.235772l8.325203 8.325204-8.325203-8.325204z" fill="#9C8F41" p-id="4899"></path><path d="M624.390244 441.235772l8.325203 8.325204-8.325203-8.325204z" fill="#B2A44B" p-id="4900"></path><path d="M657.691057 441.235772l8.325203 8.325204-8.325203-8.325204z" fill="#C6B653" p-id="4901"></path><path d="M732.617886 441.235772l8.325203 8.325204-8.325203-8.325204z" fill="#762F2F" p-id="4902"></path><path d="M1024 441.235772l8.325203 8.325204-8.325203-8.325204z" fill="#5D2525" p-id="4903"></path><path d="M482.861789 449.560976l8.325203 8.325203-8.325203-8.325203z" fill="#8D3838" p-id="4904"></path><path d="M591.089431 449.560976l8.325203 8.325203-8.325203-8.325203z" fill="#9C8F41" p-id="4905"></path><path d="M616.065041 449.560976l8.325203 8.325203-8.325203-8.325203z" fill="#B2A44B" p-id="4906"></path><path d="M649.365854 449.560976l8.325203 8.325203-8.325203-8.325203z" fill="#C6B653" p-id="4907"></path><path d="M724.292683 449.560976l8.325203 8.325203-8.325203-8.325203z" fill="#762F2F" p-id="4908"></path><path d="M1015.674797 449.560976l8.325203 8.325203-8.325203-8.325203z" fill="#552121" p-id="4909"></path><path d="M491.186992 457.886179l8.325203 8.325203-8.325203-8.325203z" fill="#8D3838" p-id="4910"></path><path d="M604.967545 460.658472c-3.704715 3.704715 5.078374 3.246829 5.544585 2.780617 3.704715-3.704715-5.078374-3.246829-5.544585-2.780617z" fill="#B2A44B" p-id="4911"></path><path d="M641.04065 457.886179l8.325204 8.325203-8.325204-8.325203z" fill="#C6B653" p-id="4912"></path><path d="M715.96748 457.886179l8.325203 8.325203-8.325203-8.325203z" fill="#762F2F" p-id="4913"></path><path d="M1007.349593 457.886179l8.325204 8.325203-8.325204-8.325203z" fill="#4D1E1E" p-id="4914"></path><path d="M499.512195 466.211382l8.325203 8.325203-8.325203-8.325203z" fill="#8D3838" p-id="4915"></path><path d="M632.715447 466.211382l8.325203 8.325203-8.325203-8.325203z" fill="#C6B653" p-id="4916"></path><path d="M707.642276 466.211382l8.325204 8.325203-8.325204-8.325203z" fill="#762F2F" p-id="4917"></path><path d="M999.02439 466.211382l8.325203 8.325203-8.325203-8.325203z" fill="#441B1B" p-id="4918"></path><path d="M507.837398 474.536585l8.325204 8.325204-8.325204-8.325204z" fill="#8D3838" p-id="4919"></path><path d="M624.390244 474.536585l8.325203 8.325204-8.325203-8.325204z" fill="#C6B653" p-id="4920"></path><path d="M699.317073 474.536585l8.325203 8.325204-8.325203-8.325204z" fill="#762F2F" p-id="4921"></path><path d="M990.699187 474.536585l8.325203 8.325204-8.325203-8.325204z" fill="#441B1B" p-id="4922"></path><path d="M516.162602 482.861789l8.325203 8.325203-8.325203-8.325203z" fill="#8D3838" p-id="4923"></path><path d="M616.065041 482.861789l8.325203 8.325203-8.325203-8.325203z" fill="#C6B653" p-id="4924"></path><path d="M690.99187 482.861789l8.325203 8.325203-8.325203-8.325203z" fill="#762F2F" p-id="4925"></path><path d="M524.487805 491.186992l8.325203 8.325203-8.325203-8.325203z" fill="#8D3838" p-id="4926"></path><path d="M604.967545 493.959285c-3.704715 3.704715 5.078374 3.246829 5.544585 2.780617 3.704715-3.704715-5.078374-3.246829-5.544585-2.780617z" fill="#C6B653" p-id="4927"></path><path d="M682.666667 491.186992l8.325203 8.325203-8.325203-8.325203z" fill="#762F2F" p-id="4928"></path><path d="M532.813008 499.512195l8.325203 8.325203-8.325203-8.325203z" fill="#8D3838" p-id="4929"></path><path d="M674.341463 499.512195l8.325204 8.325203-8.325204-8.325203z" fill="#762F2F" p-id="4930"></path><path d="M968.49587 505.065106c-0.457886 0.457886-0.924098 9.240976 2.780618 5.544585 0.457886-0.457886 0.924098-9.240976-2.780618-5.544585z" fill="#4D1E1E" p-id="4931"></path><path d="M241.430894 507.837398l8.325204 8.325204-8.325204-8.325204z" fill="#A74735" p-id="4932"></path><path d="M541.138211 507.837398l8.325204 8.325204-8.325204-8.325204z" fill="#8D3838" p-id="4933"></path><path d="M666.01626 507.837398l8.325203 8.325204-8.325203-8.325204z" fill="#762F2F" p-id="4934"></path><path d="M249.756098 516.162602l8.325203 8.325203-8.325203-8.325203z" fill="#953F2F" p-id="4935"></path><path d="M549.463415 516.162602l8.325203 8.325203-8.325203-8.325203z" fill="#8D3838" p-id="4936"></path><path d="M657.691057 516.162602l8.325203 8.325203-8.325203-8.325203z" fill="#762F2F" p-id="4937"></path><path d="M979.601691 518.934894c-3.704715 3.704715 5.086699 3.246829 5.544585 2.780618 3.704715-3.704715-5.086699-3.246829-5.544585-2.780618z" fill="#3E1B14" p-id="4938"></path><path d="M258.081301 524.487805l8.325203 8.325203-8.325203-8.325203z" fill="#953F2F" p-id="4939"></path><path d="M557.788618 524.487805l8.325203 8.325203-8.325203-8.325203z" fill="#8D3838" p-id="4940"></path><path d="M591.089431 524.487805c12.537756 5.686114 19.272846 6.876618 33.300813 8.325203-12.537756-5.686114-19.272846-6.876618-33.300813-8.325203z" fill="#EC9A61" p-id="4941"></path><path d="M649.365854 524.487805l8.325203 8.325203-8.325203-8.325203z" fill="#762F2F" p-id="4942"></path><path d="M974.04878 524.487805l8.325204 8.325203-8.325204-8.325203z" fill="#9A3F3A" p-id="4943"></path><path d="M266.406504 532.813008l8.325203 8.325203-8.325203-8.325203z" fill="#8C3D2D" p-id="4944"></path><path d="M566.113821 532.813008l8.325203 8.325203-8.325203-8.325203z" fill="#8D3838" p-id="4945"></path><path d="M641.04065 532.813008l8.325204 8.325203-8.325204-8.325203z" fill="#762F2F" p-id="4946"></path><path d="M965.723577 532.813008l8.325203 8.325203-8.325203-8.325203z" fill="#9A3F3A" p-id="4947"></path><path d="M233.105691 541.138211l8.325203 8.325204-8.325203-8.325204z" fill="#522419" p-id="4948"></path><path d="M274.731707 541.138211l8.325204 8.325204-8.325204-8.325204z" fill="#7D3626" p-id="4949"></path><path d="M574.439024 541.138211l8.325204 8.325204-8.325204-8.325204z" fill="#993C3C" p-id="4950"></path><path d="M632.715447 541.138211l8.325203 8.325204-8.325203-8.325204z" fill="#8D3838" p-id="4951"></path><path d="M924.097561 541.138211c-20.779707 22.561301-33.900228 35.906602-33.300813 66.601626 24.80078-18.098992 49.784715-36.04813 33.300813-66.601626z" fill="" p-id="4952"></path><path d="M957.398374 541.138211l8.325203 8.325204-8.325203-8.325204z" fill="#9A3F3A" p-id="4953"></path><path d="M241.430894 549.463415l8.325204 8.325203-8.325204-8.325203z" fill="#54241B" p-id="4954"></path><path d="M283.056911 549.463415l8.325203 8.325203-8.325203-8.325203z" fill="#7D3626" p-id="4955"></path><path d="M591.089431 549.463415c12.537756 5.686114 19.272846 6.876618 33.300813 8.325203-12.537756-5.686114-19.272846-6.876618-33.300813-8.325203z" fill="#762F2F" p-id="4956"></path><path d="M949.073171 549.463415l8.325203 8.325203-8.325203-8.325203z" fill="#9A3F3A" p-id="4957"></path><path d="M249.756098 557.788618l8.325203 8.325203-8.325203-8.325203z" fill="#5A271C" p-id="4958"></path><path d="M291.382114 557.788618l8.325203 8.325203-8.325203-8.325203z" fill="#6C2F22" p-id="4959"></path><path d="M940.747967 557.788618l8.325204 8.325203-8.325204-8.325203z" fill="#733325" p-id="4960"></path><path d="M258.081301 566.113821l8.325203 8.325203-8.325203-8.325203z" fill="#5A271C" p-id="4961"></path><path d="M299.707317 566.113821l8.325203 8.325203-8.325203-8.325203z" fill="#54241B" p-id="4962"></path><path d="M932.422764 566.113821l8.325203 8.325203-8.325203-8.325203z" fill="#6C2F22" p-id="4963"></path><path d="M266.406504 574.439024l8.325203 8.325204-8.325203-8.325204z" fill="#6A2F23" p-id="4964"></path><path d="M308.03252 574.439024l8.325204 8.325204-8.325204-8.325204z" fill="#522419" p-id="4965"></path><path d="M924.097561 574.439024l8.325203 8.325204-8.325203-8.325204z" fill="#7D3626" p-id="4966"></path><path d="M274.731707 582.764228l8.325204 8.325203-8.325204-8.325203z" fill="#6A2F23" p-id="4967"></path><path d="M316.357724 582.764228l8.325203 8.325203-8.325203-8.325203z" fill="#522419" p-id="4968"></path><path d="M874.146341 582.764228l8.325204 8.325203-8.325204-8.325203z" fill="#993C3C" p-id="4969"></path><path d="M915.772358 582.764228l8.325203 8.325203-8.325203-8.325203z" fill="#7D3626" p-id="4970"></path><path d="M283.056911 591.089431l8.325203 8.325203-8.325203-8.325203z" fill="#7E3827" p-id="4971"></path><path d="M874.146341 591.089431l8.325204 8.325203-8.325204-8.325203z" fill="#4D1E1E" p-id="4972"></path><path d="M907.447154 591.089431l8.325204 8.325203-8.325204-8.325203z" fill="#8C3D2D" p-id="4973"></path><path d="M291.382114 599.414634l8.325203 8.325203-8.325203-8.325203z" fill="#7E3827" p-id="4974"></path><path d="M882.471545 599.414634l8.325203 8.325203-8.325203-8.325203z" fill="#441B1B" p-id="4975"></path><path d="M899.121951 599.414634l8.325203 8.325203-8.325203-8.325203z" fill="#953F2F" p-id="4976"></path><path d="M299.707317 607.739837l8.325203 8.325204-8.325203-8.325204z" fill="#8C3E2E" p-id="4977"></path><path d="M857.495935 641.04065c19.622504-9.182699 28.105886-16.284098 41.626016-33.300813-19.622504 9.191024-28.105886 16.284098-41.626016 33.300813z" fill="#C45244" p-id="4978"></path><path d="M308.03252 616.065041l8.325204 8.325203-8.325204-8.325203m8.325204 8.325203l8.325203 8.325203-8.325203-8.325203m8.325203 8.325203l8.325203 8.325203-8.325203-8.325203z" fill="#A64935" p-id="4979"></path><path d="M790.894309 666.01626l8.325203 8.325203-8.325203-8.325203z" fill="#4D1E1E" p-id="4980"></path><path d="M807.544715 666.01626l8.325204 8.325203-8.325204-8.325203z" fill="#993C3C" p-id="4981"></path><path d="M782.569106 674.341463l8.325203 8.325204-8.325203-8.325204z" fill="#441B1B" p-id="4982"></path><path d="M815.869919 674.341463l8.325203 8.325204-8.325203-8.325204z" fill="#8D3938" p-id="4983"></path><path d="M449.560976 707.642276l8.325203 8.325204-8.325203-8.325204m8.325203 8.325204l8.325203 8.325203-8.325203-8.325203z" fill="#A74735" p-id="4984"></path><path d="M466.211382 724.292683l8.325203 8.325203-8.325203-8.325203z" fill="#953F2F" p-id="4985"></path><path d="M474.536585 732.617886l8.325204 8.325203-8.325204-8.325203z" fill="#8C3D2D" p-id="4986"></path><path d="M757.593496 732.617886l8.325203 8.325203-8.325203-8.325203z" fill="#451E15" p-id="4987"></path><path d="M482.861789 740.943089l8.325203 8.325204-8.325203-8.325204z" fill="#7D3626" p-id="4988"></path><path d="M749.268293 740.943089l8.325203 8.325204-8.325203-8.325204z" fill="#451E15" p-id="4989"></path><path d="M449.560976 749.268293l8.325203 8.325203-8.325203-8.325203z" fill="#54241B" p-id="4990"></path><path d="M491.186992 749.268293l8.325203 8.325203-8.325203-8.325203z" fill="#7D3626" p-id="4991"></path><path d="M740.943089 749.268293l8.325204 8.325203-8.325204-8.325203z" fill="#522419" p-id="4992"></path><path d="M457.886179 757.593496l8.325203 8.325203-8.325203-8.325203z" fill="#54241B" p-id="4993"></path><path d="M499.512195 757.593496l8.325203 8.325203-8.325203-8.325203z" fill="#6C2F22" p-id="4994"></path><path d="M732.617886 757.593496l8.325203 8.325203-8.325203-8.325203z" fill="#54241B" p-id="4995"></path><path d="M466.211382 765.918699l8.325203 8.325203-8.325203-8.325203z" fill="#5A271C" p-id="4996"></path><path d="M507.837398 765.918699l8.325204 8.325203-8.325204-8.325203m216.455285 0l8.325203 8.325203-8.325203-8.325203z" fill="#6C2F22" p-id="4997"></path><path d="M474.536585 774.243902l8.325204 8.325204-8.325204-8.325204z" fill="#5A271C" p-id="4998"></path><path d="M516.162602 774.243902l8.325203 8.325204-8.325203-8.325204z" fill="#54241B" p-id="4999"></path><path d="M715.96748 774.243902l8.325203 8.325204-8.325203-8.325204z" fill="#6C2F22" p-id="5000"></path><path d="M482.861789 782.569106l8.325203 8.325203-8.325203-8.325203z" fill="#6A2F23" p-id="5001"></path><path d="M524.487805 782.569106l8.325203 8.325203-8.325203-8.325203z" fill="#522419" p-id="5002"></path><path d="M707.642276 782.569106l8.325204 8.325203-8.325204-8.325203z" fill="#7D3626" p-id="5003"></path><path d="M491.186992 790.894309l8.325203 8.325203-8.325203-8.325203z" fill="#7E3827" p-id="5004"></path><path d="M532.813008 790.894309l8.325203 8.325203-8.325203-8.325203z" fill="#522419" p-id="5005"></path><path d="M657.691057 790.894309l8.325203 8.325203-8.325203-8.325203z" fill="#993C3C" p-id="5006"></path><path d="M699.317073 790.894309l8.325203 8.325203-8.325203-8.325203z" fill="#7D3626" p-id="5007"></path><path d="M499.512195 799.219512l8.325203 8.325203-8.325203-8.325203z" fill="#7E3827" p-id="5008"></path><path d="M649.365854 799.219512l8.325203 8.325203-8.325203-8.325203z" fill="#993C3C" p-id="5009"></path><path d="M690.99187 799.219512l8.325203 8.325203-8.325203-8.325203z" fill="#8C3D2D" p-id="5010"></path><path d="M507.837398 807.544715l8.325204 8.325204-8.325204-8.325204z" fill="#8C3E2E" p-id="5011"></path><path d="M641.04065 807.544715l8.325204 8.325204-8.325204-8.325204z" fill="#8D3838" p-id="5012"></path><path d="M682.666667 807.544715l8.325203 8.325204-8.325203-8.325204z" fill="#953F2F" p-id="5013"></path><path d="M516.162602 815.869919l8.325203 8.325203-8.325203-8.325203z" fill="#8C3E2E" p-id="5014"></path><path d="M632.715447 815.869919l8.325203 8.325203-8.325203-8.325203z" fill="#843434" p-id="5015"></path><path d="M674.341463 815.869919l8.325204 8.325203-8.325204-8.325203z" fill="#A74735" p-id="5016"></path><path d="M524.487805 824.195122l8.325203 8.325203-8.325203-8.325203z" fill="#A64935" p-id="5017"></path><path d="M624.390244 824.195122l8.325203 8.325203-8.325203-8.325203z" fill="#6A2B28" p-id="5018"></path><path d="M666.01626 824.195122l8.325203 8.325203-8.325203-8.325203z" fill="#A74735" p-id="5019"></path><path d="M532.813008 832.520325l8.325203 8.325203-8.325203-8.325203z" fill="#A64935" p-id="5020"></path><path d="M582.764228 832.520325l8.325203 8.325203-8.325203-8.325203m24.975609 0l8.325204 8.325203-8.325204-8.325203z" fill="#8C3D2D" p-id="5021"></path><path d="M541.138211 840.845528l8.325204 8.325204-8.325204-8.325204z" fill="#A64935" p-id="5022"></path><path d="M566.113821 857.495935l8.325203 8.325203-8.325203-8.325203m58.276423 0l8.325203 8.325203-8.325203-8.325203z" fill="#54241B" p-id="5023"></path><path d="M596.642341 868.593431c-3.704715 3.704715 5.078374 3.238504 5.544586 2.780618 3.704715-3.704715-5.078374-3.238504-5.544586-2.780618z" fill="#7E3827" p-id="5024"></path></svg>